<svg width="201" height="51" viewBox="0 0 201 51" fill="none" xmlns="http://www.w3.org/2000/svg">
<path fill-rule="evenodd" clip-rule="evenodd" d="M12.767 15.5C11.9961 15.5 11.2255 15.6359 10.5 15.9534V27.2433C13.6284 28.5127 17.1651 26.971 18.4345 23.8428C19.7039 20.7141 18.1624 17.1777 15.034 15.9534C14.7055 15.8303 14.3676 15.7258 14.0245 15.6483C13.6103 15.5545 13.1887 15.5 12.767 15.5ZM27.2304 15.5452C23.8753 15.5452 21.1549 18.2656 21.1549 21.6209C21.1549 24.9758 23.8753 27.6962 27.2304 27.6962C30.5856 27.6962 33.306 24.9758 33.306 21.6209C33.306 18.2656 30.5856 15.5452 27.2304 15.5452ZM10.5 29.9637H44.0063V34.5428H10.5V29.9637ZM42.7156 15.5841C42.3778 15.5266 42.0359 15.5 41.6941 15.5C40.9232 15.5 40.1526 15.6815 39.3817 15.9534C36.2533 17.2228 34.7569 20.7593 36.0266 23.8879C37.296 27.0166 40.8327 28.5127 43.9611 27.2433V15.9534C43.5573 15.7767 43.1395 15.6563 42.7156 15.5841Z" fill="#FDA329"/>
<path fill-rule="evenodd" clip-rule="evenodd" d="M133.1 32.8188C131.83 31.4586 131.195 29.7814 131.195 27.7411C131.195 25.5193 131.558 23.7508 132.193 22.5721C132.873 21.3479 134.188 20.2144 136.228 19.2168C136.5 19.0809 136.953 18.8542 137.497 18.6275L138.586 18.0833C138.713 18.0324 138.855 17.9527 139.02 17.8601C139.147 17.7884 139.289 17.7092 139.447 17.6299C140.399 17.0406 140.671 16.5872 141.125 15.5444L143.89 17.1313C143.664 18.2197 143.165 19.0357 142.349 19.625C141.578 20.2144 140.399 20.8037 138.767 21.3935C136.545 22.2547 135.684 23.0707 135.23 24.295C136.183 23.2974 137.497 22.7988 139.175 22.7988C140.626 22.7988 141.941 23.343 143.074 24.3857C144.208 25.4285 144.797 26.8343 144.797 28.6023C144.797 30.4159 144.208 31.8669 142.938 33.0455C141.714 34.2246 140.127 34.7688 138.132 34.7688C136.047 34.814 134.414 34.179 133.1 32.8188ZM135.775 26.3353C135.094 26.8795 134.777 27.6047 134.777 28.5115C134.777 29.4183 135.094 30.1892 135.729 30.7785C136.409 31.3683 137.18 31.6853 138.132 31.6853C139.084 31.6853 139.855 31.4135 140.49 30.8241C141.079 30.2348 141.397 29.5091 141.397 28.6023C141.397 26.8343 140.037 25.5193 138.132 25.5193C137.225 25.5193 136.455 25.7911 135.775 26.3353ZM69.0793 18.4459C70.8929 20.2595 71.7997 22.5265 71.7997 25.2469C71.7997 27.9674 70.8929 30.2344 69.0793 32.048C67.2657 33.9072 64.9987 34.814 62.2329 34.814C58.8778 34.814 55.9307 33.1363 54.3438 30.4611L57.4722 28.6475C58.3336 30.2344 60.1472 31.2319 62.2329 31.2319C65.2254 31.2319 67.3564 29.5543 67.9912 26.8795H59.7846V23.4789H67.9912C67.3564 20.8037 65.2254 19.126 62.2329 19.126C60.1472 19.126 58.379 20.0784 57.4722 21.7557L54.3438 19.9421C55.9307 17.2673 58.9231 15.5896 62.2329 15.5896C64.9987 15.6804 67.2657 16.5872 69.0793 18.4459ZM86.3085 34.4513H82.3638L77.6031 28.4664V34.4513H74.2026V21.3027H77.6031V27.1062L82.1371 21.3027H86.1724L80.8677 27.7863L86.3085 34.4513ZM86.3993 27.877C86.3993 29.8266 87.034 31.4591 88.3488 32.8193C89.709 34.1795 91.3413 34.814 93.3816 34.814C95.9207 34.814 98.1423 33.4994 99.3212 31.4135L96.3741 29.7362C95.8299 30.8241 94.6964 31.4591 93.3362 31.4591C92.2935 31.4591 91.4775 31.0964 90.7974 30.4615C90.1624 29.7814 89.7998 28.9198 89.7998 27.877C89.7998 25.7916 91.2959 24.2954 93.3362 24.2954C94.6513 24.2954 95.7848 24.9755 96.3287 26.0634L99.2304 24.3406C98.1423 22.2551 95.8753 20.9401 93.3362 20.9401C91.3413 20.9401 89.709 21.575 88.3488 22.9352C87.034 24.2954 86.3993 25.9275 86.3993 27.877ZM113.195 34.4513H109.795V24.4765H104.58V34.4513H101.18V21.3027H113.195V34.4513ZM117.593 32.8193C118.953 34.1795 120.586 34.814 122.535 34.814C124.485 34.814 126.117 34.1795 127.477 32.8193C128.838 31.4591 129.518 29.7814 129.518 27.877C129.518 25.9727 128.838 24.3406 127.477 22.9804C126.117 21.6202 124.485 20.9401 122.535 20.9401C120.586 20.9401 118.953 21.6202 117.593 22.9804C116.233 24.2954 115.598 25.9275 115.598 27.877C115.598 29.8266 116.233 31.4591 117.593 32.8193ZM125.074 30.4615C124.394 31.1416 123.578 31.5042 122.535 31.5042C121.492 31.5042 120.676 31.1416 119.996 30.4615C119.361 29.7814 118.999 28.9198 118.999 27.877C118.999 26.8343 119.361 25.9727 119.996 25.2926C120.676 24.6124 121.492 24.2498 122.535 24.2498C123.533 24.2498 124.394 24.6124 125.074 25.2926C125.754 25.9727 126.117 26.8343 126.117 27.877C126.117 28.9198 125.754 29.7814 125.074 30.4615ZM160.213 21.3027H156.812V22.8445C155.769 21.575 154.364 20.9401 152.505 20.9401C150.737 20.9401 149.24 21.6202 147.971 22.9804C146.747 24.2954 146.112 25.9275 146.112 27.877C146.112 29.8266 146.747 31.4591 147.971 32.8193C149.24 34.1795 150.737 34.814 152.505 34.814C154.364 34.814 155.769 34.1795 156.812 32.91V34.4513H160.213V21.3027ZM155.724 30.5523C155.044 31.2324 154.182 31.595 153.14 31.595C152.097 31.595 151.235 31.2324 150.555 30.5523C149.875 29.8722 149.513 28.9654 149.513 27.877C149.513 26.7891 149.875 25.8823 150.555 25.2022C151.235 24.5221 152.097 24.159 153.14 24.159C154.182 24.159 155.044 24.4765 155.724 25.2022C156.404 25.9275 156.767 26.7891 156.767 27.877C156.767 28.9654 156.449 29.8266 155.724 30.5523ZM171.91 21.3027H175.311V34.4513H171.91V29.4639H166.696V34.4513H163.296V21.3027H166.696V26.2901H171.91V21.3027ZM186.555 34.4513H190.5L185.059 27.7863L190.319 21.3027H186.283L181.749 27.1062V21.3027H178.349V34.4513H181.749V28.4664L186.555 34.4513Z" fill="#004259"/>
</svg>
