<svg width="324" height="459" viewBox="0 0 324 459" fill="none" xmlns="http://www.w3.org/2000/svg">
<mask id="mask0_636_2976" style="mask-type:alpha" maskUnits="userSpaceOnUse" x="0" y="0" width="324" height="459">
<rect y="0.357422" width="324" height="458" fill="white"/>
</mask>
<g mask="url(#mask0_636_2976)">
<g clip-path="url(#clip0_636_2976)">
<path d="M399 -7.64258H-75V466.357H399V-7.64258Z" fill="white"/>
<path fill-rule="evenodd" clip-rule="evenodd" d="M274.903 466.357C262.121 458.78 238.878 453.032 215.624 456.031C181.752 460.41 158.331 463.849 141.954 466.357H274.893H274.903ZM98.6762 466.357C95.3005 462.846 88.1729 457.515 67.8663 450.377C39.1258 440.261 -70.705 430.687 -52.7291 466.357H98.6762Z" fill="#F9F9F9"/>
<path opacity="0.58" fill-rule="evenodd" clip-rule="evenodd" d="M-47.9104 271.872C-58.7795 233.485 -80.4656 166.63 -43.0611 138.537C60.9276 60.394 52.5771 207.284 61.4606 270.388C65.641 300.07 55.3885 312.287 63.5508 337.599C76.1653 376.76 36.0643 389.907 9.90519 409.879C-68.8022 470.005 -31.2513 330.702 -47.9104 271.883V271.872Z" fill="#F9F9F9"/>
<path opacity="0.58" fill-rule="evenodd" clip-rule="evenodd" d="M16.3638 78.7153C53.5593 86.8881 35.9597 75.6009 67.5639 106.63C100.652 139.112 110.507 135.663 157.036 102.22C180.373 85.4458 162.784 17.2105 248.086 15.9041C290.434 15.2561 291.584 2.25492 274.893 -7.63184H141.955C97.8198 -0.880414 105.115 -0.93267 98.6768 -7.63184H-52.7285C-52.1642 -6.51357 -51.4744 -5.34304 -50.6487 -4.13071C-48.339 -1.96733 -38.3373 66.707 16.3638 78.7257V78.7153Z" fill="#F9F9F9"/>
<path opacity="0.58" fill-rule="evenodd" clip-rule="evenodd" d="M158.359 133.322C141.376 151.151 122.24 207.013 105.613 237.509C101.171 245.661 76.2763 299.871 78.0948 308.451C79.767 316.384 99.6346 367.782 116.544 355.648C144.93 335.269 146.581 320.303 185.302 299.16C227.013 276.387 153.73 226.295 215.872 201.609C237.286 193.102 286.135 186.894 276.938 149.511C271.973 129.319 194.092 95.8127 158.37 133.322H158.359Z" fill="#F9F9F9"/>
<path opacity="0.58" fill-rule="evenodd" clip-rule="evenodd" d="M239.704 88.529C236.903 111.887 269.96 128.672 289.368 135.036C311.117 142.175 336.691 125.641 345.48 101.572C352.482 82.4151 362.568 43.307 343.473 28.3306C305.494 -1.46556 245.484 40.318 239.704 88.529Z" fill="#F9F9F9"/>
<path opacity="0.58" fill-rule="evenodd" clip-rule="evenodd" d="M205.497 363.048C205.497 389.814 191.095 377.356 179.055 400.892C172.868 412.973 198.285 432.245 203.919 432.245C258.891 432.245 228.019 448.215 295.899 416.872C331.558 400.411 355.23 425.588 368.639 362.547C376.278 326.637 394.745 327.191 391.213 278.3C385.005 192.298 205.497 320.23 205.497 363.048Z" fill="#F9F9F9"/>
<path fill-rule="evenodd" clip-rule="evenodd" d="M-34.418 0.111986C-22.3365 15.9036 -25.7226 13.5939 -18.271 29.0825C-10.7462 44.7487 -3.30499 75.036 8.08673 87.5356C21.2656 102.01 20.5758 96.5967 30.0027 117.718C32.6155 123.561 35.1447 136.447 38.0919 141.066C41.3944 146.24 38.0919 121.324 36.0017 116.464C24.38 89.3436 24.1501 78.0669 8.40026 65.0448C-5.14439 53.8412 -6.17905 33.1166 -14.7594 18.0461C-19.8805 9.05814 -34.418 -5.57342 -34.418 0.111986Z" fill="#F5F5F5"/>
<path fill-rule="evenodd" clip-rule="evenodd" d="M-75 80.5859C-70.4747 88.0167 -35.5784 133.49 -28.5448 151.235C-18.3131 177.029 4.44939 188.358 11.8488 208.34C23.7735 233.099 -36.9684 163.934 -45.2979 145.289C-50.6907 131.681 -70.4015 116.141 -75 105.721V80.5964L-75 80.5859Z" fill="#F5F5F5"/>
<path fill-rule="evenodd" clip-rule="evenodd" d="M-74.9993 130.918C-67.1087 132.716 -37.6784 158.049 -24.6458 199.697C-23.7157 202.477 -22.4825 216.523 -17.4137 226.274C-10.7667 239.056 7.41821 257.523 20.8165 264.17C24.7671 266.135 27.2649 267.242 28.9162 267.984C30.5779 268.726 31.4976 269.134 32.9503 270.033C34.4552 270.952 35.7512 271.977 38.6775 274.255L44.0807 278.477C52.3162 284.821 62.0984 294.948 72.3196 297.31C77.1062 296.924 61.1788 292.659 13.1559 268.841C3.1855 263.898 -4.2139 263.323 -10.9549 255.171C-13.1914 252.475 -15.3443 249.862 -16.9329 248.127C-19.1694 245.692 -23.7261 237.676 -28.1783 229.106C-33.4352 219 -38.8907 207.577 -40.0926 203.982C-45.1196 188.901 -63.5449 170.319 -75.0098 158.739V130.918H-74.9993Z" fill="#F5F5F5"/>
<path fill-rule="evenodd" clip-rule="evenodd" d="M317.889 443.124C318.391 445.371 328.142 456.638 330.974 459.731C340.892 467.653 314.649 463.358 307.814 443.605C305.379 432.61 303.916 434.304 300.676 426.444C298.064 419.965 285.386 392.823 287.978 392.05C290.33 391.339 295.273 405.73 302.882 419.369C307.741 428.085 315.977 434.398 317.889 443.114V443.124Z" fill="#F5F5F5"/>
<path fill-rule="evenodd" clip-rule="evenodd" d="M-75 177.206C-69.3564 182.39 -62.5632 192.287 -59.7727 200.418C-47.3672 236.516 -70.4851 234.948 -3.54571 269.354C52.1588 295.314 64.2611 310.51 97.1508 355.544C97.9556 356.652 103.223 364.166 103.338 363.748C106.808 371.074 116.684 381.557 125.421 391.297C134.649 401.602 144.264 414.948 146.491 421.104C147.682 424.375 150.002 429.256 152.5 434.481C159.732 449.646 165.334 466.368 164.184 466.368H151.612C153.827 466.368 142.436 440.94 141.788 439.581C132.308 419.724 124.627 419.735 112.462 408.406C107.706 403.974 101.216 396.732 97.6316 391.496C92.8449 384.525 87.5149 375.558 86.2189 372.109C83.2508 364.25 70.9812 337.192 58.4294 320.888C35.0189 290.486 18.8824 309.089 -16.8709 283.703C-67.3393 247.856 -45.0053 271.998 -75 224.832V177.206Z" fill="#F5F5F5"/>
<path fill-rule="evenodd" clip-rule="evenodd" d="M-12.5653 304.532C5.61964 320.084 31.2353 344.978 49.6397 388.392C50.4236 391.099 53.2245 395.53 56.4643 400.641C63.4143 411.615 59.2025 425.358 58.7322 439.122C58.7009 440.136 58.6486 441.024 58.5964 442.048C55.9313 457.014 68.5354 460.463 70.0403 466.368H57.6767C50.8939 457.213 45.198 450.503 45.6997 441.494C45.7624 440.292 45.8251 439.247 45.8355 438.756C46.1909 428.399 51.4269 416.265 45.2921 406.588C41.5924 400.745 38.3839 395.687 37.1507 391.423C30.6814 369.016 26.7936 365.212 20.3244 358.868C2.31709 341.205 -11.1021 317.575 -29.1826 300.07C-36.4566 293.026 -42.5287 289.953 -41.2536 287.508C-38.9335 284.017 -23.1209 294.374 -12.5549 304.543L-12.5653 304.532Z" fill="#F5F5F5"/>
<path fill-rule="evenodd" clip-rule="evenodd" d="M105.417 436.07C105.375 435.725 86.7516 411.029 76.29 398.498C66.6959 387.012 54.4472 379.425 51.7821 376.885C48.9708 374.199 47.0582 371.367 44.9471 368.232C42.512 364.626 42.3343 356.798 37.4119 352.44C35.447 350.705 33.106 348.04 30.4828 345.062C27.5251 341.707 24.1912 337.923 21.1708 335.206C19.4673 333.67 17.6802 332.029 15.8303 330.326C4.68941 320.083 -9.14787 307.344 -22.0236 303.299C-22.4312 303.174 -24.3333 302.473 -26.016 301.867C-27.082 301.48 -27.5627 301.24 -27.7927 301.188L-29.4648 294.186C26.3023 319.143 30.2424 339.219 61.0941 368.681C64.1354 371.587 76.7499 379.571 86.5635 391.318C97.6521 404.591 104.613 412.482 105.355 414.656V414.373C105.804 415.366 112.242 425.587 117.969 434.607C122.494 441.724 126.591 448.089 126.967 448.559C132.193 455.081 141.286 457.369 143.031 466.368H130.991C129.977 461.1 120.989 456.356 117.927 452.572C110.549 443.469 106.4 438.38 105.417 435.788V436.07Z" fill="#F5F5F5"/>
<path fill-rule="evenodd" clip-rule="evenodd" d="M78.9963 466.358C73.0287 443.626 73.9275 441.003 71.0639 428.744C71.1162 428.096 70.3846 424.313 69.5485 420.53C68.8483 417.373 68.1585 414.562 67.9599 414.248C63.236 406.901 58.4808 397.244 70.9594 404.79C71.9 405.354 73.0287 406.274 74.1574 407.392C77.8885 411.061 83.553 418.596 83.9815 423.707C84.5458 430.531 98.4667 441.933 105.417 448.831C108.103 451.151 115.784 455.374 118.606 457.6C121.355 459.763 121.031 462.7 123.727 466.368H113.694C109.806 461.09 108.301 459.784 105.406 457.453C92.0079 451.35 75.4743 426.581 82.1839 444.421C85.0475 452.04 90.3462 462.731 92.5932 466.368H78.9963V466.358Z" fill="#F5F5F5"/>
<path fill-rule="evenodd" clip-rule="evenodd" d="M30.7135 309.862C35.1343 312.694 39.9209 315.757 43.0145 316.958C54.9601 321.599 57.1026 328.246 59.5272 335.802C63.5405 348.165 69.8111 361.71 66.6863 362.431C63.5405 363.152 50.9782 350.987 47.1322 339.146C45.6168 334.443 44.2895 330.304 38.0084 327.859C33.6503 326.166 30.0028 314.879 25.0385 311.702C10.0725 302.118 11.3058 297.436 30.7135 309.862Z" fill="#F5F5F5"/>
<path fill-rule="evenodd" clip-rule="evenodd" d="M36.565 466.358C33.8164 462.094 29.5523 450.461 27.5248 444.368C24.5671 435.464 12.6424 391.82 9.54886 384.18C5.27435 373.583 -38.3382 330.848 -50.9109 314.524C-64.0479 297.457 -73.2972 279.659 -74.9902 274.371V248.473C-73.9138 251.357 -61.8427 277.046 -42.1633 302.432C-29.183 309.863 -31.8585 323.543 -24.0828 338.06C-11.5101 361.533 16.0913 361.951 22.874 376.865C27.7547 387.608 36.1888 429.82 39.878 440.93C40.7872 443.658 41.7801 446.647 42.7103 449.688C44.1003 454.224 50.9562 461.905 53.3181 466.358H36.5754H36.565Z" fill="#F5F5F5"/>
<path fill-rule="evenodd" clip-rule="evenodd" d="M3.23707 466.357C0.770607 462.313 2.15015 445.852 -1.96759 440.846C-10.3807 430.615 -7.82021 407.842 -15.669 393.983C-27.4892 373.102 -61.7271 339.293 -75 328.162V300.645C-70.8614 304.835 -43.4063 336.711 -35.9128 345.814C-28.6597 354.625 -25.4513 362.703 -22.5458 369.998C-14.7911 389.479 -1.38232 391.068 3.19526 401.247C7.08308 409.911 4.71068 424.375 10.9291 431.921C18.2658 440.836 20.8786 450.336 22.7598 457.15C23.3764 459.397 26.6789 464.591 27.7658 466.357H3.23707Z" fill="#F5F5F5"/>
<path fill-rule="evenodd" clip-rule="evenodd" d="M336.158 110.685C339.972 110.037 403.609 127.062 394.172 115.806C390.608 111.552 363.456 99.1677 356.924 98.1853C336.722 95.1545 328.842 103.275 310.793 108.96C267.212 122.683 334.162 111.03 336.158 110.685Z" fill="#F5F5F5"/>
<path fill-rule="evenodd" clip-rule="evenodd" d="M123.738 -7.64258H113.705C115.398 -5.37469 116.684 -2.66785 117.562 0.467489C118.617 4.21944 121.282 10.835 123.393 2.48455C123.968 0.206211 125.118 -4.1519 123.738 -7.64258Z" fill="#F5F5F5"/>
<path fill-rule="evenodd" clip-rule="evenodd" d="M215.54 138.788C220.337 146.428 234.279 153.712 238.648 156.607C242.859 159.397 245.378 161.101 247.573 162.575C261.577 172.033 263.333 173.214 286.399 179.976C301.981 184.543 314.439 196.593 327.796 209.5C338.874 220.212 357.195 220.202 371.21 227.277C371.586 227.466 371.972 227.654 372.349 227.842C376.968 230.078 398.999 242.4 398.999 248.734V275.697C398.999 264.839 376.686 248.451 372.255 245.253C370.008 243.633 367.886 242.108 365.911 241.156C349.252 233.109 324.702 240.55 312.474 228.741C300.497 217.161 294.31 197.711 282.218 194.168C256.874 186.738 254.91 185.41 239.275 174.855C236.421 172.932 233.15 170.716 230.464 168.939C224.612 165.072 216.314 155.928 210.471 146.616C193.854 120.133 199.539 113.318 215.53 138.809L215.54 138.788Z" fill="#F5F5F5"/>
<path fill-rule="evenodd" clip-rule="evenodd" d="M189.852 251.608C193.019 254.263 197.837 256.854 208.685 262.707C210.963 263.94 213.576 265.341 220.307 269.019C227.633 273.022 232.806 275.823 237.948 277.736C281.843 294.05 293.851 315.245 320.313 354.248C332.061 371.566 394.851 390.451 399.021 399.387V429.862C389.563 419.432 344.8 406.577 317.199 373.541C296.903 362.452 273.649 310.218 273.325 309.936C249.256 289.744 240.895 297.049 213.252 281.968C211.026 280.756 205.989 278.039 201.693 275.719C189.894 269.354 184.658 266.532 180.373 262.937C176.861 260 174.52 257.011 170.309 251.639C167.267 247.762 149.699 229.399 147.682 226.588C134.116 207.651 147.828 216.952 163.526 229.546C173.862 237.833 185.045 247.553 189.873 251.597L189.852 251.608Z" fill="#F5F5F5"/>
<path fill-rule="evenodd" clip-rule="evenodd" d="M293.026 283.034C333.984 310.751 319.081 328.214 369.696 337.464L382.801 354.206L380.22 351.562L379.844 353.611C365.975 351.081 333.409 343.661 322.572 335.457C313.928 328.915 306.529 320.031 303.603 312.329C300.781 304.908 294.207 298.209 286.296 292.764C228.553 253.071 269.616 266.96 293.016 283.045L293.026 283.034Z" fill="#F5F5F5"/>
<path fill-rule="evenodd" clip-rule="evenodd" d="M383.762 91.9148C377.199 87.2954 367.155 82.2475 356.265 77.4609C341.163 70.814 324.536 64.7628 313.092 60.9795C297.917 55.9734 283.442 40.5684 269.814 26.0727C261.139 16.8444 242.045 4.98237 240.436 -7.64258H260.115C259.645 -3.69206 265.644 11.8801 272.123 18.7674C284.497 31.9254 300.77 45.1983 312.392 49.0338C336.126 53.8309 384.63 56.1928 399.01 80.5858V105.71C393.753 93.5556 391.705 97.4957 383.773 91.9148H383.762Z" fill="#F5F5F5"/>
<path fill-rule="evenodd" clip-rule="evenodd" d="M226.66 -7.64258C225.762 4.61658 243.246 27.8599 245.399 30.6817C249.465 36.0117 251.294 39.5651 253.049 42.9617C266.343 68.7864 282.271 81.913 312.568 75.6528C325.173 73.0505 333.951 66.4977 343.546 66.1946C349.116 66.0169 354.979 72.0994 362.117 71.3992C363.309 71.2843 366.036 71.3365 368.89 71.3992C371.408 71.4515 371.711 72.6325 372.892 72.0681C379.132 85.1006 383.584 86.4593 368.597 86.1562C360.476 85.989 352.22 86.9714 344.005 87.2327C335.091 87.5148 326.918 87.7761 315.526 90.1276C267.221 93.6183 255.066 58.5548 225.762 36.1999C219.783 28.3615 207.441 -0.525367 208.015 -7.64258L226.66 -7.64258Z" fill="#F5F5F5"/>
<path fill-rule="evenodd" clip-rule="evenodd" d="M282.176 51.762C282.678 54.009 292.429 65.2753 295.261 68.3688C305.179 76.2908 278.937 71.9954 272.102 52.2428C269.666 41.2482 268.203 42.9413 264.963 35.082C262.351 28.6023 249.673 1.46079 252.265 0.687403C254.617 -0.0232735 259.56 14.3679 267.169 28.0066C272.028 36.7229 280.264 43.0353 282.176 51.7516V51.762Z" fill="#F5F5F5"/>
<path fill-rule="evenodd" clip-rule="evenodd" d="M231.438 58.0428C235.859 60.875 240.646 63.9372 243.739 65.1391C255.685 69.7794 257.827 76.4263 260.252 83.9824C264.265 96.3461 270.536 109.891 267.411 110.612C264.265 111.333 251.703 99.1679 247.857 87.3268C246.341 82.6238 245.014 78.4852 238.733 76.0396C234.375 74.3465 230.727 63.0593 225.763 59.8822C210.797 50.2985 212.03 45.6164 231.438 58.0428Z" fill="#F5F5F5"/>
<path fill-rule="evenodd" clip-rule="evenodd" d="M313.593 -7.64258C318.212 14.566 321.933 34.4859 346.033 36.273C360.08 37.3181 392.708 44.3413 399 40.6938V69.2881C396.167 69.5285 393.701 60.6868 389.709 58.189C378.63 51.2495 378.975 52.7022 367.49 49.3369C365.64 48.7935 363.957 48.3023 362.901 48.1559C357.749 47.4348 353.224 47.1004 349.231 46.7973C333.659 45.6477 325.162 45.0102 311.179 28.3302C308.838 25.5397 303.665 15.7366 300.383 7.34433C297.519 0.0285425 299.014 -3.31582 295.23 -7.64258L313.593 -7.64258Z" fill="#F5F5F5"/>
<path fill-rule="evenodd" clip-rule="evenodd" d="M302.714 38.3219C303.215 40.2136 312.966 49.6823 315.798 52.2951C325.716 58.9524 299.474 55.3468 292.639 38.7295C290.204 29.4803 288.74 30.9121 285.501 24.2965C282.888 18.841 270.211 -3.98422 272.802 -4.63218C275.154 -5.2279 280.097 6.8745 287.706 18.3498C292.565 25.6761 300.801 30.9957 302.714 38.3219Z" fill="#F5F5F5"/>
<path fill-rule="evenodd" clip-rule="evenodd" d="M399 466.357C392.113 460.181 382.299 448.402 377.805 443.323C369.758 434.241 363.027 431.67 345.448 423.184C302.306 402.344 359.578 428.911 359.578 466.357H342.857C342.857 464.079 340.16 460.703 340.369 453.492C340.526 447.974 333.409 439.968 327.096 432.861C324.149 429.548 321.359 426.403 319.153 423.351C311.775 413.14 289.023 374.847 267.441 352.607C251.232 335.896 235.952 333.942 229.033 330.117C223.588 327.107 219.042 323.187 214.559 319.321C169.619 280.547 213.911 296.265 236.224 310.437C264.39 328.329 258.83 329.845 277.129 347.612C282.888 353.203 296.976 360.592 302.797 366.382C322.32 385.852 341.289 404.758 351.865 409.869C385.309 426.016 380.982 436.289 398.979 452.886V466.357H399ZM201.944 309.57C201.777 309.496 201.631 309.423 201.495 309.361C201.725 309.528 201.902 309.653 201.934 309.695V309.57H201.944Z" fill="#F5F5F5"/>
<path fill-rule="evenodd" clip-rule="evenodd" d="M382.424 24.6832C363.33 38.4787 352.387 24.8295 335.749 21.6942C322.455 14.1903 316.017 -10.5057 325.789 0.656089C335.477 11.7134 337.871 13.4901 350.37 18.2871C353.328 19.4263 355.115 20.1056 359.599 20.1056L362.974 20.1683C363.664 19.8025 364.584 19.3636 365.89 18.8306C370.614 16.918 402.009 3.99 382.434 24.6832H382.424Z" fill="#F5F5F5"/>
</g>
</g>
<defs>
<clipPath id="clip0_636_2976">
<rect width="474" height="474" fill="white" transform="translate(-75 -7.64258)"/>
</clipPath>
</defs>
</svg>
