<svg width="324" height="458" viewBox="0 0 324 458" fill="none" xmlns="http://www.w3.org/2000/svg">
<g clip-path="url(#clip0_636_3017)">
<path d="M399 -8H-75V466H399V-8Z" fill="white"/>
<path fill-rule="evenodd" clip-rule="evenodd" d="M274.903 466C262.121 458.423 238.878 452.675 215.624 455.674C181.752 460.053 158.331 463.491 141.954 466H274.893H274.903ZM98.6762 466C95.3005 462.488 88.1729 457.158 67.8663 450.02C39.1258 439.903 -70.705 430.33 -52.7291 466H98.6762Z" fill="#F9F9F9"/>
<path opacity="0.58" fill-rule="evenodd" clip-rule="evenodd" d="M-47.9104 271.515C-58.7795 233.128 -80.4656 166.272 -43.0611 138.18C60.9276 60.0366 52.5771 206.927 61.4606 270.031C65.641 299.712 55.3885 311.929 63.5508 337.242C76.1653 376.402 36.0643 389.55 9.90519 409.522C-68.8022 469.647 -31.2513 330.344 -47.9104 271.525V271.515Z" fill="#F9F9F9"/>
<path opacity="0.58" fill-rule="evenodd" clip-rule="evenodd" d="M16.3638 78.3579C53.5594 86.5306 35.9597 75.2434 67.5639 106.273C100.652 138.755 110.507 135.306 157.036 101.862C180.373 85.0884 162.784 16.853 248.086 15.5467C290.434 14.8987 291.584 1.8975 274.893 -7.98926H141.955C97.8198 -1.23784 105.115 -1.29009 98.6768 -7.98926H-52.7285C-52.1642 -6.87099 -51.4744 -5.70046 -50.6487 -4.48813C-48.339 -2.32475 -38.3373 66.3495 16.3638 78.3683V78.3579Z" fill="#F9F9F9"/>
<path opacity="0.58" fill-rule="evenodd" clip-rule="evenodd" d="M158.359 132.964C141.376 150.794 122.24 206.655 105.613 237.152C101.171 245.303 76.2763 299.513 78.0948 308.094C79.767 316.026 99.6346 367.425 116.544 355.291C144.93 334.911 146.581 319.945 185.302 298.803C227.013 276.03 153.73 225.938 215.872 201.252C237.286 192.745 286.135 186.537 276.938 149.153C271.973 128.962 194.092 95.4553 158.37 132.964H158.359Z" fill="#F9F9F9"/>
<path opacity="0.58" fill-rule="evenodd" clip-rule="evenodd" d="M239.704 88.1716C236.903 111.53 269.96 128.314 289.368 134.679C311.117 141.817 336.691 125.284 345.48 101.215C352.482 82.0577 362.568 42.9496 343.473 27.9732C305.494 -1.82298 245.484 39.9606 239.704 88.1716Z" fill="#F9F9F9"/>
<path opacity="0.58" fill-rule="evenodd" clip-rule="evenodd" d="M205.497 362.691C205.497 389.456 191.095 376.999 179.055 400.534C172.868 412.616 198.285 431.888 203.919 431.888C258.891 431.888 228.019 447.857 295.899 416.514C331.558 400.054 355.23 425.23 368.639 362.189C376.278 326.279 394.745 326.833 391.213 277.943C385.005 191.941 205.497 319.873 205.497 362.691Z" fill="#F9F9F9"/>
<path fill-rule="evenodd" clip-rule="evenodd" d="M-34.418 -0.245436C-22.3365 15.5462 -25.7226 13.2365 -18.271 28.7251C-10.7462 44.3913 -3.30499 74.6786 8.08673 87.1782C21.2656 101.653 20.5758 96.2393 30.0027 117.361C32.6155 123.203 35.1447 136.089 38.0919 140.709C41.3944 145.882 38.0919 120.967 36.0017 116.107C24.38 88.9862 24.1501 77.7095 8.40026 64.6874C-5.14439 53.4838 -6.17905 32.7592 -14.7594 17.6887C-19.8805 8.70072 -34.418 -5.93084 -34.418 -0.245436Z" fill="#F5F5F5"/>
<path fill-rule="evenodd" clip-rule="evenodd" d="M-75 80.2285C-70.4747 87.6593 -35.5784 133.132 -28.5448 150.878C-18.3131 176.671 4.4494 188 11.8488 207.983C23.7735 232.742 -36.9684 163.576 -45.2979 144.931C-50.6907 131.324 -70.4015 115.783 -75 105.363V80.239L-75 80.2285Z" fill="#F5F5F5"/>
<path fill-rule="evenodd" clip-rule="evenodd" d="M-74.9993 130.561C-67.1087 132.358 -37.6784 157.692 -24.6458 199.339C-23.7157 202.119 -22.4825 216.166 -17.4137 225.917C-10.7667 238.698 7.4182 257.165 20.8165 263.812C24.7671 265.777 27.2649 266.885 28.9162 267.627C30.5779 268.369 31.4976 268.777 32.9503 269.675C34.4552 270.595 35.7512 271.619 38.6775 273.898L44.0807 278.12C52.3162 284.464 62.0984 294.591 72.3196 296.953C77.1063 296.566 61.1788 292.302 13.1559 268.484C3.1855 263.541 -4.2139 262.966 -10.9549 254.814C-13.1914 252.117 -15.3443 249.505 -16.9329 247.77C-19.1694 245.335 -23.7261 237.319 -28.1783 228.749C-33.4352 218.643 -38.8907 207.219 -40.0926 203.624C-45.1196 188.543 -63.5449 169.961 -75.0098 158.381V130.561H-74.9993Z" fill="#F5F5F5"/>
<path fill-rule="evenodd" clip-rule="evenodd" d="M317.889 442.767C318.391 445.014 328.142 456.28 330.974 459.374C340.892 467.296 314.649 463 307.814 443.248C305.379 432.253 303.916 433.946 300.676 426.087C298.064 419.607 285.386 392.466 287.978 391.692C290.33 390.982 295.273 405.373 302.882 419.011C307.741 427.728 315.977 434.04 317.889 442.756V442.767Z" fill="#F5F5F5"/>
<path fill-rule="evenodd" clip-rule="evenodd" d="M-75 176.849C-69.3564 182.032 -62.5632 191.93 -59.7727 200.061C-47.3672 236.159 -70.4851 234.591 -3.54571 268.996C52.1588 294.957 64.2611 310.153 97.1508 355.187C97.9555 356.294 103.223 363.809 103.338 363.391C106.808 370.717 116.684 381.199 125.421 390.94C134.649 401.245 144.264 414.591 146.491 420.746C147.682 424.018 150.002 428.898 152.5 434.124C159.732 449.288 165.334 466.01 164.184 466.01H151.612C153.827 466.01 142.435 440.583 141.788 439.224C132.308 419.367 124.627 419.377 112.462 408.048C107.706 403.617 101.216 396.374 97.6316 391.138C92.8449 384.167 87.5149 375.2 86.2189 371.752C83.2508 363.892 70.9812 336.834 58.4294 320.531C35.0189 290.128 18.8824 308.731 -16.8709 283.346C-67.3393 247.498 -45.0053 271.64 -75 224.474V176.849Z" fill="#F5F5F5"/>
<path fill-rule="evenodd" clip-rule="evenodd" d="M-12.5653 304.175C5.61964 319.726 31.2353 344.621 49.6397 388.035C50.4236 390.742 53.2245 395.173 56.4643 400.283C63.4143 411.257 59.2025 425 58.7322 438.764C58.7009 439.778 58.6486 440.667 58.5964 441.691C55.9313 456.657 68.5354 460.106 70.0403 466.011H57.6767C50.8939 456.855 45.198 450.146 45.6997 441.137C45.7624 439.935 45.8251 438.89 45.8355 438.399C46.1909 428.042 51.4269 415.908 45.2921 406.23C41.5924 400.388 38.3839 395.33 37.1507 391.066C30.6814 368.658 26.7936 364.854 20.3244 358.51C2.31708 340.848 -11.1022 317.218 -29.1826 299.712C-36.4566 292.668 -42.5287 289.596 -41.2536 287.15C-38.9335 283.659 -23.1209 294.016 -12.5549 304.185L-12.5653 304.175Z" fill="#F5F5F5"/>
<path fill-rule="evenodd" clip-rule="evenodd" d="M105.417 435.713C105.375 435.368 86.7516 410.672 76.29 398.141C66.6959 386.655 54.4472 379.067 51.7821 376.528C48.9708 373.842 47.0582 371.01 44.9471 367.874C42.512 364.269 42.3343 356.441 37.4119 352.083C35.447 350.348 33.106 347.683 30.4828 344.704C27.5251 341.349 24.1912 337.566 21.1708 334.849C19.4673 333.312 17.6802 331.672 15.8303 329.968C4.68941 319.726 -9.14787 306.986 -22.0236 302.942C-22.4312 302.816 -24.3333 302.116 -26.016 301.51C-27.082 301.123 -27.5627 300.883 -27.7927 300.83L-29.4648 293.828C26.3023 318.785 30.2424 338.862 61.0941 368.324C64.1354 371.229 76.7499 379.214 86.5635 390.961C97.6521 404.234 104.613 412.124 105.355 414.298V414.016C105.804 415.009 112.242 425.23 117.969 434.249C122.494 441.367 126.591 447.731 126.967 448.202C132.193 454.723 141.286 457.012 143.031 466.01H130.991C129.977 460.743 120.989 455.998 117.927 452.215C110.549 443.112 106.4 438.022 105.417 435.43V435.713Z" fill="#F5F5F5"/>
<path fill-rule="evenodd" clip-rule="evenodd" d="M78.9963 466C73.0287 443.269 73.9275 440.646 71.0639 428.387C71.1162 427.739 70.3846 423.955 69.5485 420.172C68.8483 417.016 68.1585 414.204 67.9599 413.891C63.236 406.544 58.4808 396.887 70.9594 404.433C71.9 404.997 73.0287 405.917 74.1574 407.035C77.8885 410.703 83.553 418.239 83.9815 423.349C84.5458 430.174 98.4667 441.576 105.417 448.474C108.103 450.794 115.784 455.016 118.606 457.242C121.355 459.406 121.031 462.342 123.727 466.011H113.694C109.806 460.733 108.301 459.426 105.406 457.096C92.0079 450.992 75.4743 426.223 82.1839 444.063C85.0475 451.682 90.3462 462.374 92.5932 466.011H78.9963V466Z" fill="#F5F5F5"/>
<path fill-rule="evenodd" clip-rule="evenodd" d="M30.7135 309.505C35.1343 312.337 39.9209 315.399 43.0145 316.601C54.9601 321.241 57.1026 327.888 59.5272 335.444C63.5405 347.808 69.8111 361.353 66.6863 362.074C63.5405 362.795 50.9782 350.63 47.1322 338.789C45.6168 334.086 44.2895 329.947 38.0084 327.502C33.6503 325.808 30.0028 314.521 25.0385 311.344C10.0725 301.76 11.3058 297.078 30.7135 309.505Z" fill="#F5F5F5"/>
<path fill-rule="evenodd" clip-rule="evenodd" d="M36.565 466C33.8164 461.736 29.5523 450.104 27.5248 444.011C24.5671 435.107 12.6424 391.463 9.54886 383.823C5.27435 373.226 -38.3382 330.491 -50.9109 314.166C-64.0479 297.1 -73.2972 279.301 -74.9902 274.013V248.115C-73.9138 251 -61.8427 276.689 -42.1633 302.074C-29.183 309.505 -31.8585 323.186 -24.0828 337.702C-11.5101 361.175 16.0913 361.593 22.874 376.507C27.7547 387.251 36.1888 429.463 39.878 440.573C40.7872 443.3 41.7801 446.289 42.7102 449.331C44.1002 453.866 50.9562 461.548 53.3181 466H36.5754H36.565Z" fill="#F5F5F5"/>
<path fill-rule="evenodd" clip-rule="evenodd" d="M3.23707 466C0.770604 461.955 2.15015 445.495 -1.96759 440.489C-10.3807 430.257 -7.82021 407.484 -15.669 393.626C-27.4892 372.745 -61.7271 338.935 -75 327.805V300.287C-70.8614 304.478 -43.4063 336.354 -35.9128 345.457C-28.6597 354.267 -25.4513 362.346 -22.5458 369.641C-14.7911 389.122 -1.38233 390.71 3.19526 400.89C7.08308 409.554 4.71068 424.018 10.9291 431.564C18.2658 440.478 20.8786 449.978 22.7598 456.793C23.3764 459.04 26.6789 464.234 27.7658 466H3.23707Z" fill="#F5F5F5"/>
<path fill-rule="evenodd" clip-rule="evenodd" d="M336.158 110.327C339.972 109.679 403.609 126.704 394.172 115.448C390.608 111.195 363.456 98.8103 356.924 97.8279C336.722 94.7971 328.842 102.918 310.793 108.603C267.212 122.325 334.162 110.672 336.158 110.327Z" fill="#F5F5F5"/>
<path fill-rule="evenodd" clip-rule="evenodd" d="M123.738 -8H113.705C115.398 -5.73211 116.684 -3.02527 117.562 0.110068C118.617 3.86202 121.282 10.4776 123.393 2.12713C123.968 -0.151211 125.118 -4.50933 123.738 -8Z" fill="#F5F5F5"/>
<path fill-rule="evenodd" clip-rule="evenodd" d="M215.54 138.43C220.337 146.07 234.279 153.355 238.648 156.25C242.859 159.04 245.378 160.743 247.573 162.217C261.577 171.675 263.333 172.856 286.399 179.618C301.981 184.185 314.439 196.235 327.796 209.143C338.874 219.855 357.195 219.845 371.21 226.92C371.586 227.108 371.972 227.296 372.349 227.484C376.968 229.721 398.999 242.043 398.999 248.376V275.34C398.999 264.481 376.686 248.094 372.255 244.896C370.008 243.276 367.886 241.75 365.911 240.799C349.252 232.752 324.702 240.193 312.474 228.383C300.497 216.803 294.31 197.354 282.218 193.811C256.874 186.38 254.91 185.053 239.275 174.497C236.421 172.574 233.15 170.359 230.464 168.582C224.612 164.715 216.314 155.57 210.471 146.258C193.854 119.775 199.539 112.961 215.53 138.451L215.54 138.43Z" fill="#F5F5F5"/>
<path fill-rule="evenodd" clip-rule="evenodd" d="M189.852 251.25C193.019 253.905 197.837 256.497 208.685 262.35C210.963 263.583 213.576 264.983 220.307 268.662C227.633 272.665 232.806 275.466 237.948 277.378C281.843 293.692 293.851 314.887 320.313 353.891C332.061 371.208 394.851 390.094 399.021 399.029V429.505C389.563 419.075 344.8 406.22 317.199 373.184C296.903 362.095 273.649 309.86 273.325 309.578C249.256 289.387 240.895 296.692 213.252 281.611C211.026 280.399 205.989 277.681 201.693 275.361C189.894 268.996 184.658 266.175 180.373 262.58C176.861 259.643 174.52 256.654 170.309 251.282C167.267 247.404 149.699 229.042 147.682 226.231C134.116 207.293 147.828 216.595 163.526 229.188C173.862 237.476 185.045 247.195 189.873 251.24L189.852 251.25Z" fill="#F5F5F5"/>
<path fill-rule="evenodd" clip-rule="evenodd" d="M293.026 282.677C333.984 310.393 319.081 327.857 369.696 337.106L382.801 353.849L380.22 351.205L379.844 353.253C365.975 350.724 333.409 343.304 322.572 335.1C313.928 328.557 306.529 319.674 303.603 311.971C300.781 304.551 294.207 297.852 286.296 292.407C228.553 252.713 269.616 266.603 293.016 282.687L293.026 282.677Z" fill="#F5F5F5"/>
<path fill-rule="evenodd" clip-rule="evenodd" d="M383.762 91.5573C377.199 86.938 367.155 81.8901 356.265 77.1035C341.163 70.4565 324.536 64.4053 313.092 60.622C297.917 55.616 283.442 40.211 269.814 25.7153C261.139 16.487 242.045 4.62495 240.436 -8H260.115C259.645 -4.04948 265.644 11.5227 272.123 18.41C284.497 31.5679 300.77 44.8409 312.391 48.6764C336.126 53.4735 384.63 55.8354 399.01 80.2283V105.353C393.753 93.1982 391.705 97.1382 383.773 91.5573H383.762Z" fill="#F5F5F5"/>
<path fill-rule="evenodd" clip-rule="evenodd" d="M226.66 -8C225.762 4.25916 243.246 27.5024 245.399 30.3242C249.465 35.6543 251.294 39.2077 253.049 42.6043C266.343 68.429 282.271 81.5556 312.568 75.2954C325.173 72.6931 333.951 66.1402 343.546 65.8371C349.116 65.6595 354.979 71.742 362.117 71.0418C363.309 70.9268 366.036 70.9791 368.89 71.0418C371.408 71.0941 371.711 72.275 372.892 71.7107C379.132 84.7432 383.584 86.1019 368.597 85.7988C360.476 85.6316 352.22 86.614 344.005 86.8752C335.091 87.1574 326.918 87.4187 315.526 89.7702C267.221 93.2609 255.066 58.1974 225.762 35.8424C219.783 28.0041 207.441 -0.882789 208.015 -8L226.66 -8Z" fill="#F5F5F5"/>
<path fill-rule="evenodd" clip-rule="evenodd" d="M282.176 51.4046C282.678 53.6516 292.429 64.9179 295.261 68.0114C305.179 75.9334 278.937 71.638 272.102 51.8853C269.666 40.8908 268.203 42.5839 264.963 34.7246C262.351 28.2449 249.673 1.10336 252.265 0.329981C254.617 -0.380695 259.56 14.0105 267.169 27.6492C272.028 36.3654 280.264 42.6779 282.176 51.3941V51.4046Z" fill="#F5F5F5"/>
<path fill-rule="evenodd" clip-rule="evenodd" d="M231.438 57.6854C235.859 60.5176 240.646 63.5798 243.739 64.7817C255.685 69.422 257.827 76.0689 260.252 83.625C264.265 95.9887 270.536 109.533 267.411 110.254C264.265 110.976 251.703 98.8105 247.857 86.9694C246.341 82.2664 245.014 78.1277 238.733 75.6822C234.375 73.9891 230.727 62.7019 225.763 59.5247C210.797 49.9411 212.03 45.259 231.438 57.6854Z" fill="#F5F5F5"/>
<path fill-rule="evenodd" clip-rule="evenodd" d="M313.593 -8C318.212 14.2086 321.933 34.1285 346.033 35.9156C360.08 36.9607 392.708 43.9839 399 40.3364V68.9307C396.167 69.1711 393.701 60.3294 389.709 57.8316C378.63 50.8921 378.975 52.3448 367.49 48.9795C365.64 48.436 363.957 47.9448 362.901 47.7985C357.749 47.0774 353.224 46.743 349.231 46.4399C333.659 45.2902 325.162 44.6527 311.179 27.9727C308.838 25.1823 303.665 15.3792 300.383 6.9869C297.519 -0.328879 299.014 -3.67324 295.23 -8L313.593 -8Z" fill="#F5F5F5"/>
<path fill-rule="evenodd" clip-rule="evenodd" d="M302.714 37.9645C303.215 39.8561 312.966 49.3249 315.798 51.9376C325.716 58.595 299.474 54.9894 292.639 38.3721C290.204 29.1228 288.74 30.5546 285.501 23.9391C282.888 18.4836 270.211 -4.34164 272.802 -4.98961C275.154 -5.58532 280.097 6.51707 287.706 17.9924C292.565 25.3186 300.801 30.6383 302.714 37.9645Z" fill="#F5F5F5"/>
<path fill-rule="evenodd" clip-rule="evenodd" d="M399 466C392.113 459.823 382.299 448.045 377.805 442.966C369.758 433.884 363.027 431.313 345.448 422.826C302.306 401.987 359.578 428.554 359.578 466H342.857C342.857 463.722 340.16 460.346 340.369 453.135C340.526 447.616 333.409 439.611 327.096 432.504C324.149 429.191 321.359 426.045 319.153 422.994C311.775 412.783 289.023 374.49 267.441 352.25C251.232 335.539 235.952 333.584 229.033 329.759C223.588 326.749 219.042 322.83 214.559 318.963C169.619 280.189 213.911 295.908 236.224 310.08C264.39 327.972 258.83 329.487 277.129 347.254C282.888 352.846 296.976 360.235 302.797 366.024C322.32 385.495 341.289 404.401 351.865 409.512C385.309 425.659 380.982 435.932 398.979 452.528V466H399ZM201.944 309.212C201.777 309.139 201.631 309.066 201.495 309.003C201.725 309.17 201.902 309.296 201.934 309.338V309.212H201.944Z" fill="#F5F5F5"/>
<path fill-rule="evenodd" clip-rule="evenodd" d="M382.424 24.3258C363.33 38.1213 352.387 24.4721 335.749 21.3368C322.455 13.8329 316.017 -10.8631 325.789 0.298667C335.477 11.3559 337.871 13.1326 350.37 17.9297C353.328 19.0689 355.115 19.7482 359.599 19.7482L362.974 19.8109C363.664 19.4451 364.584 19.0062 365.89 18.4732C370.614 16.5606 402.009 3.63258 382.434 24.3258H382.424Z" fill="#F5F5F5"/>
</g>
<defs>
<clipPath id="clip0_636_3017">
<rect width="474" height="474" fill="white" transform="translate(-75 -8)"/>
</clipPath>
</defs>
</svg>
