<svg  viewBox="0 0 123 37" fill="none" xmlns="http://www.w3.org/2000/svg">
<path d="M60.2869 9.77027H54.2114V1.23901H56.0144V8.0765H59.2441V1.23901H61.0479V8.0765H62.0185L61.7849 10.787H60.2869V9.77027ZM63.2821 9.77027H69.5221V8.10083H65.0739V6.30977H68.9361V4.63952H65.0739V2.90926H69.4627V1.23901H63.2821V9.77027V9.77027ZM71.1245 9.77027H72.9275V6.34544H76.2518V9.77027H78.0533V1.23901H76.2518V4.61519H72.9275V1.23901H71.1245V9.77027ZM81.6851 9.77027H83.4881V2.97007H85.7367V1.23901H79.4365V2.97007H81.6851V9.77027ZM87.1159 9.77027H88.919V7.21138H90.2877C92.1253 7.21138 93.6008 6.18733 93.6008 4.21303C93.6008 2.4463 92.4183 1.23982 90.4635 1.23982H87.1159V9.77027V9.77027ZM88.919 5.54194V2.93359H90.311C91.2125 2.93359 91.7753 3.38439 91.7753 4.2252C91.7753 4.98086 91.2487 5.54275 90.3471 5.54275H88.919V5.54194ZM56.1196 35.5813H57.9219V28.7803H60.4161V27.0501H53.6262V28.7803H56.1188V35.5813H56.1196ZM68.8542 27.0509H67.1796L63.5751 32.6446V27.0509H61.7969V35.5813H63.4932L67.076 29.9876V35.5813H68.8542V27.0509ZM72.6241 28.7446H75.9339V27.0509H70.821V35.5813H72.6241V28.7446ZM77.2104 35.5813H79.0118V33.0224H80.3806C82.2197 33.0224 83.6937 31.9984 83.6937 30.0249C83.6937 28.2565 82.5112 27.0509 80.558 27.0509H77.2104V35.5813V35.5813ZM79.0118 31.3522V28.7438H80.4054C81.3054 28.7438 81.8665 29.1954 81.8665 30.0354C81.8665 30.7919 81.3415 31.3522 80.44 31.3522H79.0118V31.3522ZM100.083 19.1618H101.256L103.197 22.6661H105.221L102.719 18.2967L105.138 14.1397H103.115L101.267 17.4226H100.083M63.3366 22.6669H65.1036V17.1348L67.3851 20.7428H67.4324L69.7389 17.0983V22.6669H71.5291V14.1364H69.5863L67.4316 17.7437L65.2786 14.1364H63.3358V22.6669H63.3366ZM77.0827 18.6461L74.8582 14.1364H72.8464L76.1234 20.5223C75.7959 21.0461 75.421 21.205 75.0934 21.205C74.7763 21.205 74.4488 21.132 74.1212 20.9245L73.4188 22.302C73.935 22.6061 74.4849 22.8007 75.1873 22.8007C76.3337 22.8007 77.1534 22.2153 77.867 20.7291L81.0156 14.1356H79.0616L77.0827 18.6461ZM81.9653 22.6669H83.7667V20.1088H85.1371C86.9746 20.1088 88.4485 19.0848 88.4485 17.1105C88.4485 15.3437 87.266 14.1372 85.3129 14.1372H81.9653V22.6669V22.6669ZM83.7675 18.4385V15.831H85.1611C86.0627 15.831 86.6238 16.2818 86.6238 17.1226C86.6238 17.8783 86.0972 18.4394 85.1957 18.4394H83.7675V18.4385ZM89.5435 18.4021C89.5435 20.8766 91.3337 22.8136 93.7453 22.8136C95.326 22.8136 96.262 22.3012 97.1042 21.3631L95.9578 20.0837C95.3132 20.6934 94.7408 21.0826 93.8031 21.0826C92.3982 21.0826 91.4277 19.8631 91.4277 18.4012C91.4277 16.915 92.4215 15.7199 93.8031 15.7199C94.7408 15.7199 95.277 16.0742 95.9104 16.6694L96.9878 15.3786C96.2259 14.5986 95.3605 13.9897 93.816 13.9897C91.2992 13.9897 89.5435 15.977 89.5435 18.4021ZM113.414 14.1372H111.739L108.378 19.6077V14.1372H106.599V22.6685H108.297L111.633 17.074V22.6685H113.413V14.1372H113.414ZM122.194 14.1356H120.52L117.159 19.6069V14.1356H115.38V22.6677H117.077L120.414 17.0732V22.6677H122.194V14.1356H122.194ZM116.973 11.6375C117.134 12.8067 117.86 13.4894 118.937 13.4894C120.016 13.4894 120.741 12.8067 120.905 11.6375L119.862 11.4429C119.711 11.9424 119.43 12.2586 118.937 12.2586C118.447 12.2586 118.166 11.9416 118.014 11.4429L116.973 11.6375ZM59.8807 21.5715H55.776L55.3465 22.6685H53.5098L57.0211 14.0756H58.6829L62.1943 22.6685H60.3102L59.8807 21.5715ZM59.2344 19.9207L57.8271 16.3296L56.4215 19.9207H59.2344V19.9207ZM100.102 14.1356H98.3003V22.6661H100.102V14.1356ZM99.47 19.195H101.393V17.3861H99.47V19.195Z" fill="#0E0E0E"/>
<g clip-path="url(#clip0_1122_2717)">
<path d="M10.5051 25.9288C10.9061 24.2274 10.0895 23.1365 9.56353 21.8637C9.24533 21.0958 9.17065 20.6688 8.99694 20.159C8.75991 19.4577 8.20469 18.8018 7.86214 18.5778C7.67869 18.4576 7.36536 18.3018 7.07638 18.5891C6.76468 18.9008 6.78741 19.9691 7.46926 21.1834C7.74687 21.677 8.19982 21.9416 8.31833 23.1543C8.44009 24.3979 7.63648 24.9076 7.63648 24.9076C7.63648 24.9076 7.82318 24.3037 7.46926 24.018C5.19317 22.1835 4.89121 19.3018 4.96426 17.9089C5.01459 16.9478 5.55033 15.5711 5.64612 14.412C5.77599 12.8259 5.23213 12.7203 5.15583 12.8437C4.97238 13.1506 4.40092 14.8162 4.01454 15.9835C3.66874 17.0387 3.28074 18.4089 3.26937 19.4415C3.25314 20.474 3.48204 21.4026 3.51451 21.7403C3.06806 21.1445 2.93169 20.3019 2.87812 19.297C2.79694 17.7953 3.25151 16.4559 3.46743 15.3487C3.72069 14.0435 3.54536 13.4574 3.22229 13.7561C3.04696 13.9184 2.74499 14.7367 2.24822 16.1751C2.06152 16.7189 1.83423 17.3878 1.67513 18.1719C1.53389 18.8684 1.50954 20.146 1.56474 20.9026C1.19784 20.5129 1.09556 19.4398 1.14913 18.8392C1.19621 18.2888 1.4722 17.1134 1.63942 16.6069C1.86833 15.9072 1.65565 15.3714 1.46084 15.49C1.35694 15.5533 1.11017 15.7416 0.527348 17.3131C0.181551 18.2531 -0.0506039 19.435 0.00946412 20.6607C0.106872 22.5715 1.02575 24.7485 2.53557 27.088C3.95772 29.2845 7.05853 31.5395 8.20469 32.0574C9.41254 32.6028 10.3753 31.8755 10.6626 31.2635C11.0425 30.4518 10.7503 29.5702 10.5636 28.9631C10.4548 28.6091 10.1058 27.6172 10.5035 25.9304" fill="#0E0E0E"/>
<path d="M13.0479 11.1764C12.9813 11.2462 12.4147 12.381 13.5057 13.7577C14.5967 15.1344 17.4085 14.9006 17.5238 14.3892C18.2267 10.1649 13.1128 11.1066 13.0479 11.1764M15.5318 11.8858C15.9425 11.678 16.4328 11.8209 16.6244 12.2056C16.8159 12.5888 16.6374 13.0644 16.2266 13.2722C15.8143 13.4801 15.3256 13.3372 15.1357 12.954C14.9425 12.5709 15.1211 12.0936 15.5318 11.8874" fill="#0E0E0E"/>
<path d="M9.32919 9.74272C11.1264 9.25568 14.9496 8.37576 16.8231 9.83363C17.5731 10.4181 18.4173 10.7217 18.8686 10.2362C19.3346 9.7346 19.0943 8.45369 17.4384 8.12088C16.4481 7.92119 16.151 7.69229 15.9919 7.28967C15.5925 6.27338 17.0163 5.10124 18.7923 4.42588C18.794 4.42588 16.7208 4.29114 13.2482 6.65976C12.6053 7.0981 11.9722 7.26045 11.6183 7.13706C11.1653 6.97634 11.2741 6.33994 11.4835 5.92596C12.1264 4.66291 13.4755 2.99562 16.1575 1.7488C16.2159 1.72282 16.1867 1.63516 16.125 1.65301C14.3911 2.14005 9.39737 3.89826 8.00931 8.23777C7.69274 9.22645 8.35836 10.0057 9.32919 9.74272Z" fill="#0E0E0E"/>
<path d="M36.9915 9.74272C35.1944 9.25568 31.3711 8.37576 29.4976 9.83363C28.7476 10.4181 27.9034 10.7217 27.4521 10.2362C26.9861 9.7346 27.2264 8.45369 28.8823 8.12088C29.8727 7.92119 30.1714 7.69229 30.3289 7.28967C30.7282 6.27338 29.3044 5.10124 27.5284 4.42588C27.5284 4.42588 29.5999 4.29114 33.0725 6.65976C33.7154 7.0981 34.3485 7.26045 34.7024 7.13706C35.1554 6.97634 35.0466 6.33994 34.8372 5.92596C34.1943 4.66291 32.8452 2.99562 30.1633 1.7488C30.1064 1.72282 30.134 1.63516 30.1957 1.65301C31.9296 2.14005 36.9233 3.89826 38.3114 8.23777C38.628 9.22645 37.9624 10.0057 36.9932 9.74272" fill="#0E0E0E"/>
<path d="M5.78706 9.92964C5.86174 9.97022 5.94778 9.89554 5.92018 9.81437C5.39418 8.17955 7.32285 5.81254 8.00308 5.04627C8.03068 5.01542 7.99009 4.97321 7.956 4.99594C5.65393 6.63564 3.7139 5.61773 3.7139 5.61773C5.82927 5.40992 6.81308 4.62417 7.12966 4.30435C7.1605 4.2735 7.12479 4.2248 7.08583 4.24103C5.19612 5.02354 3.30479 4.06895 3.30479 4.06895C5.40392 3.97803 6.10688 3.59814 6.44618 3.29456C6.58905 3.16793 6.69944 3.01694 6.77087 2.90655C6.81958 2.83025 6.78062 2.73122 6.69457 2.70524C4.29672 1.97793 2.21382 -0.574149 1.24299 1.26198C-0.0703861 3.74912 2.80152 8.35813 5.78706 9.92964Z" fill="#0E0E0E"/>
<path d="M28.6407 33.2619C25.5984 33.2132 23.4976 31.5556 23.1973 31.3056C23.1745 31.2878 23.1453 31.2878 23.1226 31.3056C22.8222 31.5556 20.7182 33.2148 17.6742 33.2619C17.6385 33.2619 17.6061 33.283 17.5931 33.3171C17.434 33.7376 17.1109 36.8384 23.1583 36.8384C29.2057 36.8384 28.8907 33.7603 28.7268 33.3203C28.7138 33.2846 28.6781 33.2603 28.6391 33.2603" fill="#0E0E0E"/>
<path d="M16.8052 3.44213C17.2403 3.33823 18.2371 3.12556 19.8378 2.93886C21.5295 2.74242 23.1254 2.77002 23.1578 2.77164H23.1643C23.1984 2.77164 24.7926 2.74242 26.4843 2.93886C28.085 3.12556 29.0818 3.33661 29.5169 3.44213C29.5851 3.45837 29.6289 3.37232 29.577 3.32524C27.3074 1.28455 24.1968 0.922522 23.1611 0.920898C22.1237 0.920898 19.0148 1.28293 16.7435 3.32524C16.6916 3.37232 16.7354 3.45837 16.8036 3.44213" fill="#0E0E0E"/>
<path d="M45.7912 17.3131C45.2084 15.7416 44.9616 15.5533 44.8577 15.49C44.6629 15.3698 44.4502 15.9072 44.6792 16.6069C44.8464 17.115 45.1224 18.2888 45.1694 18.8392C45.2214 19.4398 45.1207 20.5129 44.7538 20.9026C44.809 20.1477 44.7847 18.8684 44.6434 18.1719C44.4843 17.3878 44.2587 16.7189 44.0704 16.1751C43.5736 14.7367 43.2716 13.9184 43.0963 13.7561C42.7732 13.4574 42.5979 14.0435 42.8511 15.3487C43.0671 16.4559 43.5216 17.7953 43.4405 19.297C43.3869 20.3019 43.2505 21.1445 42.8041 21.7403C42.8382 21.4042 43.0654 20.474 43.0492 19.4415C43.0362 18.4089 42.6482 17.0371 42.304 15.9835C41.9193 14.8162 41.3478 13.1506 41.1627 12.8437C41.0864 12.7203 40.5426 12.8259 40.6725 14.412C40.7666 15.5695 41.3024 16.9478 41.3527 17.9089C41.4274 19.3018 41.1238 22.1835 38.8493 24.018C38.4954 24.3037 38.6821 24.9077 38.6821 24.9077C38.6821 24.9077 37.8785 24.3963 37.9986 23.1543C38.1171 21.94 38.5717 21.677 38.8493 21.1834C39.5312 19.9691 39.5539 18.9008 39.2422 18.5891C38.9532 18.3018 38.6399 18.4576 38.4564 18.5778C38.1139 18.8018 37.5587 19.4593 37.3216 20.159C37.1496 20.6688 37.0732 21.0958 36.7567 21.8637C36.2307 23.1348 35.4141 24.2258 35.8151 25.9288C36.2128 27.6156 35.8638 28.6075 35.755 28.9614C35.5683 29.5702 35.2761 30.4518 35.656 31.2619C35.9433 31.8739 36.9077 32.6012 38.1139 32.0557C39.26 31.5379 42.3609 29.2829 43.783 27.0863C45.2928 24.7469 46.2117 22.5699 46.3091 20.6591C46.3708 19.435 46.1354 18.2515 45.7896 17.3131" fill="#0E0E0E"/>
<path d="M28.799 14.3892C28.9143 14.9006 31.7261 15.136 32.8171 13.7577C33.9081 12.381 33.3415 11.2462 33.2749 11.1763C33.21 11.1049 28.0945 10.1649 28.799 14.3892ZM31.1855 12.9524C30.9956 13.3356 30.5053 13.4784 30.0946 13.2722C29.6838 13.0661 29.5069 12.5888 29.6968 12.2056C29.8884 11.8209 30.3787 11.678 30.7894 11.8858C31.2001 12.0936 31.3787 12.5709 31.1855 12.9524Z" fill="#0E0E0E"/>
<path d="M40.4006 9.81415C40.3746 9.89533 40.4591 9.97001 40.5337 9.92942C43.5193 8.35791 46.3896 3.74891 45.0762 1.26177C44.107 -0.574366 42.0225 1.97771 39.6262 2.7034C39.5386 2.72937 39.5012 2.82841 39.5499 2.90471C39.6214 3.0151 39.7318 3.16609 39.8746 3.29272C40.2139 3.5963 40.9169 3.97619 43.016 4.06711C43.016 4.06711 41.1247 5.0217 39.235 4.23919C39.1944 4.22296 39.1603 4.27166 39.1911 4.30088C39.5093 4.62071 40.4915 5.40808 42.6069 5.61426C42.6069 5.61426 40.6652 6.6338 38.3648 4.99248C38.3307 4.96813 38.2901 5.01196 38.3177 5.0428C38.998 5.8107 40.925 8.17608 40.4006 9.81253" fill="#0E0E0E"/>
<path d="M27.8311 6.57712C26.2434 5.07542 24.6151 4.65332 23.1637 4.65332H23.1588C21.7075 4.65332 20.0791 5.07542 18.4914 6.57712C18.4573 6.60959 18.4865 6.66966 18.5336 6.65829C19.1245 6.50406 21.1392 6.01703 23.1621 6.00891C25.1849 6.01703 27.2012 6.50406 27.7906 6.65829C27.836 6.66966 27.8669 6.61121 27.8328 6.57712" fill="#0E0E0E"/>
<path d="M37.0314 11.7267C37.0022 11.704 36.9632 11.7332 36.973 11.7706C37.3658 13.2138 36.9843 14.9006 35.8154 15.326C33.8072 16.0565 31.0993 16.0078 29.3817 17.2579C27.8767 18.3537 28.3394 21.0551 28.5342 21.9172C28.5456 21.9659 28.6154 21.961 28.6235 21.9123C28.7355 21.1168 29.2485 19.9041 29.7794 19.5632C29.7193 20.323 29.833 21.8588 30.6074 23.2436C30.8087 23.6056 31.0555 24.0261 31.3314 24.4547C31.4516 24.6316 31.8721 25.2843 32.0003 25.471C31.5993 26.4467 29.9775 26.6886 29.3021 26.3639C29.8103 27.4613 31.575 27.3412 32.1107 27.1123C31.9029 27.8298 30.609 28.3445 29.6317 28.239C29.6317 28.239 30.0684 28.989 31.6302 28.7049C31.109 29.3429 30.1577 29.5475 29.1804 29.3218C29.3313 29.7715 29.9255 30.0946 30.2064 30.1092C29.7486 30.528 28.7761 30.6953 28.0553 30.6953C26.5617 30.6953 25.0633 29.9241 24.3765 28.9257C23.5648 27.747 23.7109 25.906 24.5503 24.9433C25.297 24.0878 25.9172 23.7257 26.9043 23.6056C27.4514 23.539 27.7647 23.3264 27.7647 22.9562C27.7647 22.5276 27.3264 22.2614 26.9513 22.2614C26.3702 22.2614 25.7273 22.2013 24.9431 22.6624C24.435 22.9611 23.6703 23.3637 23.1606 23.3881C22.6508 23.3637 21.8862 22.9611 21.378 22.6624C20.5939 22.2013 19.9494 22.2614 19.3698 22.2614C18.9948 22.2614 18.5564 22.5276 18.5564 22.9562C18.5564 23.3264 18.8698 23.539 19.4169 23.6056C20.4039 23.7257 21.0241 24.0878 21.7709 24.9433C22.6102 25.9044 22.7563 27.7454 21.9446 28.9257C21.2563 29.9241 19.7578 30.6953 18.2658 30.6953C17.545 30.6953 16.5726 30.528 16.1148 30.1092C16.394 30.0946 16.9898 29.7715 17.1408 29.3218C16.1635 29.5475 15.2137 29.3429 14.691 28.7049C16.2527 28.9906 16.6895 28.239 16.6895 28.239C15.7121 28.3445 14.4182 27.8298 14.2104 27.1123C14.7462 27.3412 16.5109 27.4613 17.019 26.3639C16.3437 26.6886 14.7218 26.445 14.3208 25.471C14.4491 25.2843 14.8696 24.6316 14.9897 24.4547C15.2657 24.0277 15.5125 23.6056 15.7138 23.2436C16.4882 21.8588 16.6034 20.3213 16.5417 19.5632C17.0726 19.9041 17.5856 21.1168 17.6976 21.9123C17.7057 21.9627 17.7756 21.9675 17.7869 21.9172C17.9801 21.0551 18.4444 18.3537 16.9395 17.2579C15.2219 16.0078 12.5139 16.0581 10.5057 15.326C9.33681 14.899 8.95692 13.2138 9.34817 11.7706C9.35792 11.7349 9.31895 11.7056 9.28973 11.7267C8.77672 12.1018 7.4471 13.8421 8.05752 15.636C8.65009 17.3764 10.4489 18.029 12.022 18.8067C13.777 19.6736 14.5903 21.3912 13.6861 23.6478C13.2705 24.6868 12.673 25.9905 12.673 27.312C12.673 30.1546 15.5579 31.8187 17.545 31.9258C21.3179 32.1255 23.1346 29.5215 23.1589 29.4858C23.1833 29.5215 25 32.1255 28.7745 31.9258C30.7616 31.8203 33.6465 30.1563 33.6465 27.312C33.6465 25.9905 33.0491 24.6868 32.6335 23.6478C31.7292 21.3912 32.5425 19.6736 34.2975 18.8067C35.8706 18.029 37.6694 17.378 38.262 15.636C38.874 13.8421 37.5428 12.1018 37.0298 11.7267" fill="#0E0E0E"/>
</g>
<defs>
<clipPath id="clip0_1122_2717">
<rect width="46.3222" height="36.2275" fill="white" transform="translate(0 0.61084)"/>
</clipPath>
</defs>
</svg>
