<svg width="70" height="68" viewBox="0 0 70 68" fill="none" xmlns="http://www.w3.org/2000/svg">
<ellipse cx="35.0151" cy="34.0001" rx="34.9839" ry="33.3692" fill="#E26D14"/>
<path d="M18.7768 28.4033H14.8412V22.877H16.0092V27.3061H18.1012V22.877H19.2697V27.3061H19.8984L19.7471 29.0619H18.7768V28.4033ZM20.717 28.4033H24.7591V27.3219H21.8777V26.1617H24.3795V25.0797H21.8777V23.9589H24.7206V22.877H20.717V28.4033ZM25.7971 28.4033H26.965V26.1848H29.1185V28.4033H30.2854V22.877H29.1185V25.064H26.965V22.877H25.7971V28.4033ZM32.638 28.4033H33.8059V23.9983H35.2625V22.877H31.1814V23.9983H32.638V28.4033ZM36.1559 28.4033H37.3239V26.7457H38.2105C39.4009 26.7457 40.3567 26.0823 40.3567 24.8034C40.3567 23.659 39.5907 22.8775 38.3244 22.8775H36.1559V28.4033ZM37.3239 25.6643V23.9747H38.2256C38.8096 23.9747 39.1741 24.2667 39.1741 24.8113C39.1741 25.3008 38.833 25.6648 38.249 25.6648H37.3239V25.6643ZM16.0773 45.123H17.2448V40.7175H18.8605V39.5967H14.4621V40.7175H16.0768V45.123H16.0773ZM24.3264 39.5972H23.2417L20.9068 43.2207V39.5972H19.7549V45.123H20.8537L23.1746 41.4996V45.123H24.3264V39.5972ZM26.7685 40.6944H28.9125V39.5972H25.6005V45.123H26.7685V40.6944ZM29.7394 45.123H30.9063V43.4654H31.7929C32.9843 43.4654 33.9391 42.8021 33.9391 41.5237C33.9391 40.3782 33.1731 39.5972 31.9079 39.5972H29.7394V45.123ZM30.9063 42.3835V40.6939H31.8091C32.392 40.6939 32.7555 40.9864 32.7555 41.5305C32.7555 42.0206 32.4154 42.3835 31.8314 42.3835H30.9063ZM44.5559 34.4869H45.3156L46.573 36.7568H47.884L46.2631 33.9265L47.8304 31.2337H46.5195L45.3229 33.3603H44.5559M20.7523 36.7574H21.8969V33.1738L23.3748 35.511H23.4055L24.8995 33.1502V36.7574H26.0592V31.2316H24.8007L23.405 33.5683L22.0103 31.2316H20.7518V36.7574H20.7523ZM29.6567 34.1528L28.2157 31.2316H26.9125L29.0352 35.3682C28.8231 35.7075 28.5802 35.8104 28.3681 35.8104C28.1626 35.8104 27.9505 35.7631 27.7383 35.6287L27.2833 36.521C27.6177 36.718 27.9739 36.844 28.4289 36.844C29.1715 36.844 29.7024 36.4648 30.1647 35.5021L32.2043 31.231H30.9385L29.6567 34.1528ZM32.8195 36.7574H33.9864V35.1003H34.8741C36.0644 35.1003 37.0192 34.437 37.0192 33.1581C37.0192 32.0136 36.2532 31.2321 34.988 31.2321H32.8195V36.7574ZM33.9869 34.0184V32.3293H34.8897C35.4737 32.3293 35.8372 32.6213 35.8372 33.1659C35.8372 33.6554 35.496 34.0189 34.912 34.0189H33.9869V34.0184ZM37.7285 33.9947C37.7285 35.5977 38.8881 36.8524 40.4503 36.8524C41.4742 36.8524 42.0805 36.5205 42.6261 35.9128L41.8835 35.084C41.4659 35.479 41.0951 35.7311 40.4877 35.7311C39.5777 35.7311 38.949 34.9412 38.949 33.9942C38.949 33.0315 39.5928 32.2573 40.4877 32.2573C41.0951 32.2573 41.4425 32.4868 41.8528 32.8723L42.5506 32.0362C42.0571 31.5309 41.4966 31.1365 40.496 31.1365C38.8658 31.1365 37.7285 32.4238 37.7285 33.9947ZM53.1908 31.2321H52.1061L49.9293 34.7757V31.2321H48.7764V36.7584H49.8762L52.0374 33.1344V36.7584H53.1903V31.2321H53.1908ZM58.8789 31.231H57.7941L55.6173 34.7752V31.231H54.4644V36.7579H55.5642L57.7254 33.1339V36.7579H58.8783V31.231H58.8789ZM55.4966 29.6129C55.6011 30.3702 56.0713 30.8124 56.7691 30.8124C57.468 30.8124 57.9371 30.3702 58.0437 29.6129L57.3682 29.4868C57.2699 29.8103 57.0879 30.0152 56.7691 30.0152C56.4514 30.0152 56.2694 29.8098 56.1711 29.4868L55.4966 29.6129ZM18.5136 36.0478H15.8547L15.5765 36.7584H14.3867L16.6613 31.1922H17.7377L20.0123 36.7584H18.7918L18.5136 36.0478ZM18.095 34.9785L17.1834 32.6523L16.2728 34.9785H18.095ZM44.5678 31.231H43.4009V36.7568H44.5678V31.231ZM44.1586 34.5084H45.404V33.3366H44.1586V34.5084Z" fill="white"/>
</svg>
