<svg width="194" height="48" viewBox="0 0 194 48" fill="none" xmlns="http://www.w3.org/2000/svg">
<path d="M52.5081 20.0259C53.6549 20.0259 54.9315 20.0657 56.0385 20.8137C56.7765 21.3024 57.6441 22.2698 57.6441 23.9951C57.6441 25.89 56.4474 28.1239 53.1264 28.1239H50.3339V33.3199H47.8906V20.0259H52.5081ZM52.6078 26.1792C53.1463 26.1792 53.9242 26.1991 54.5425 25.6207C54.9714 25.2318 55.2008 24.5735 55.2008 24.0151C55.2008 23.4965 54.9913 22.8682 54.5625 22.4992C54.1336 22.1302 53.4555 21.9506 52.6975 21.9506H50.3339V26.1792H52.6078ZM59.8981 24.4439C60.5763 23.8056 61.5836 23.2471 63.0895 23.2471C64.6054 23.2471 65.6127 23.8056 66.2908 24.4439C67.2981 25.3913 67.8167 26.8673 67.8167 28.3733C67.8167 29.8792 67.2981 31.3552 66.2908 32.3026C65.6127 32.9409 64.6054 33.5093 63.0895 33.5093C61.5836 33.5093 60.5763 32.9409 59.8981 32.3026C58.8909 31.3552 58.3723 29.8792 58.3723 28.3733C58.3623 26.8574 58.8909 25.3913 59.8981 24.4439ZM61.5437 31.1657C61.7531 31.415 62.2418 31.8837 63.0895 31.8837C63.9472 31.8837 64.4259 31.425 64.6353 31.1657C64.7949 30.9962 65.3733 30.2183 65.3733 28.3733C65.3733 26.5283 64.7949 25.7603 64.6353 25.5808C64.4259 25.3315 63.9372 24.8628 63.0895 24.8628C62.2418 24.8628 61.7531 25.3215 61.5437 25.5808C61.3941 25.7603 60.8057 26.5283 60.8057 28.3733C60.8057 30.2083 61.3941 30.9862 61.5437 31.1657ZM75.5457 27.0568C75.5058 26.5582 75.3163 25.9698 75.057 25.6008C74.8176 25.2517 74.3589 24.8628 73.581 24.8628C72.823 24.8628 72.3244 25.2517 72.0152 25.7703C71.5265 26.5681 71.4966 27.8048 71.4966 28.3733C71.4966 29.2808 71.6263 30.3679 72.0152 30.9862C72.2645 31.3751 72.7732 31.8738 73.581 31.8738C74.1594 31.8738 74.6481 31.6444 75.0171 31.1358C75.3063 30.7269 75.5058 30.1484 75.5357 29.6398L77.5901 29.8892C77.4704 30.7967 77.0715 31.8139 76.3535 32.4622C75.7551 33.0007 74.8176 33.4894 73.5012 33.4894C72.0352 33.4894 71.0778 32.911 70.5193 32.3824C69.7613 31.6643 69.0433 30.3878 69.0433 28.3733C69.0433 26.4983 69.6815 25.3714 70.1902 24.773C70.9082 23.9153 72.1249 23.2272 73.561 23.2272C74.7877 23.2272 75.795 23.656 76.4233 24.3143C77.0615 24.9525 77.4505 25.9199 77.5901 26.7876L75.5457 27.0568ZM85.1597 27.0568C85.1198 26.5582 84.9303 25.9698 84.671 25.6008C84.4417 25.2517 83.9729 24.8628 83.195 24.8628C82.4371 24.8628 81.9384 25.2517 81.6293 25.7703C81.1506 26.5681 81.1107 27.8048 81.1107 28.3733C81.1107 29.2808 81.2503 30.3679 81.6293 30.9862C81.8786 31.3751 82.3872 31.8738 83.195 31.8738C83.7735 31.8738 84.2621 31.6444 84.6311 31.1358C84.9204 30.7269 85.1198 30.1484 85.1497 29.6398L87.2042 29.8892C87.0945 30.7967 86.6856 31.8139 85.9675 32.4622C85.3691 33.0007 84.4417 33.4894 83.1252 33.4894C81.6492 33.4894 80.7018 32.911 80.1433 32.3824C79.3854 31.6643 78.6673 30.3878 78.6673 28.3733C78.6673 26.4983 79.3056 25.3714 79.8142 24.773C80.5322 23.9153 81.749 23.2272 83.1851 23.2272C84.4018 23.2272 85.409 23.656 86.0473 24.3143C86.6856 24.9525 87.0745 25.9199 87.2141 26.7876L85.1597 27.0568ZM97.5763 30.4476C97.2273 31.6045 96.5289 32.2827 95.9505 32.6916C95.1726 33.2101 94.1653 33.5093 93.0982 33.5093C91.7618 33.5093 90.4055 32.9409 89.5877 32.1131C88.8298 31.3452 88.2713 29.9988 88.2713 28.4131C88.2713 26.3986 89.109 25.0622 90.0166 24.3043C90.5451 23.8555 91.5325 23.2372 93.0184 23.2372C94.9033 23.2372 96.1001 24.1048 96.7384 25.0024C97.4163 25.9299 97.7353 27.2264 97.7353 28.3533V28.8021H90.7247C90.7247 28.9118 90.7047 29.8094 91.0538 30.5274C91.5724 31.6145 92.5298 31.8837 93.188 31.8837C93.7066 31.8837 94.3648 31.7242 94.9133 31.1657C95.2424 30.8166 95.382 30.4875 95.4319 30.1784L97.5763 30.4476ZM95.2923 27.3261C95.2923 26.7676 95.1527 26.1293 94.8634 25.7005C94.4944 25.1619 93.8362 24.7929 93.1182 24.7929C92.3802 24.7929 91.7419 25.1619 91.3529 25.6207C91.0438 26.0097 90.7745 26.608 90.7745 27.3261H95.2923ZM107.299 23.4366V33.3199H105.046V25.1121H102.492C102.433 26.4485 102.393 26.987 102.353 27.9045C102.293 28.9317 102.223 31.0959 101.346 32.2827C100.857 32.9209 100.258 33.1703 99.8303 33.2899C99.5803 33.3697 99.3113 33.3996 99.0323 33.3996C98.8423 33.3996 98.6433 33.3797 98.4533 33.3199V31.6145H98.6433C98.9323 31.5945 99.3213 31.4449 99.5703 31.2455C100.348 30.6271 100.418 29.2309 100.498 28.1239C100.598 26.6679 100.618 25.8002 100.627 24.4838L100.647 23.4366H107.299ZM111.917 26.9571H114.4C115.038 26.9571 116.275 27.0369 117.093 27.8447C117.831 28.5627 117.901 29.57 117.901 30.1086C117.901 31.5247 117.322 32.2428 116.873 32.6118C116.714 32.7315 115.986 33.3099 114.59 33.3099H109.673V23.4366H111.917V26.9571ZM111.917 31.6843H113.682C114.111 31.6843 114.57 31.6643 114.959 31.3352C115.188 31.1158 115.467 30.7568 115.467 30.1285C115.467 29.59 115.308 29.1611 114.869 28.8719C114.48 28.6226 113.991 28.5827 113.692 28.5827H111.927V31.6843H111.917ZM121.172 23.4366L122.997 26.5083L124.892 23.4366H126.946L124.054 27.9045L127.485 33.3099H124.852L122.608 29.59L120.244 33.3099H118.19L121.561 28.1838L118.539 23.4366H121.172ZM129.22 24.4439C129.898 23.8056 130.906 23.2471 132.411 23.2471C133.927 23.2471 134.935 23.8056 135.613 24.4439C136.62 25.3913 137.139 26.8673 137.139 28.3733C137.139 29.8792 136.61 31.3552 135.613 32.3026C134.935 32.9409 133.927 33.5093 132.411 33.5093C130.906 33.5093 129.898 32.9409 129.22 32.3026C128.213 31.3552 127.694 29.8792 127.694 28.3733C127.694 26.8574 128.213 25.3913 129.22 24.4439ZM130.866 31.1657C131.075 31.415 131.564 31.8837 132.411 31.8837C133.269 31.8837 133.748 31.425 133.967 31.1657C134.117 30.9962 134.705 30.2183 134.705 28.3733C134.705 26.5283 134.127 25.7603 133.967 25.5808C133.758 25.3315 133.269 24.8628 132.411 24.8628C131.564 24.8628 131.075 25.3215 130.866 25.5808C130.706 25.7603 130.128 26.5283 130.128 28.3733C130.128 30.2083 130.716 30.9862 130.866 31.1657ZM138.345 26.1094C138.635 24.9126 139.392 24.2544 139.931 23.9253C140.26 23.7159 141.168 23.2471 142.723 23.2471C143.691 23.2471 144.678 23.4167 145.416 23.8256C146.503 24.424 146.772 25.2916 146.772 25.9199C146.772 26.5981 146.443 27.8946 144.758 28.084V28.1239C145.336 28.2037 145.975 28.453 146.364 28.8619C146.713 29.2309 146.982 29.8493 146.982 30.5075C146.982 31.4948 146.403 32.3625 145.665 32.8511C144.778 33.4296 143.551 33.5093 142.644 33.5093C141.726 33.5093 140.34 33.4096 139.363 32.6417C138.824 32.2129 138.315 31.4749 138.166 30.5474L140.2 30.1983C140.28 30.5075 140.45 30.9762 140.679 31.2455C141.188 31.8339 141.975 31.8837 142.484 31.8837C142.993 31.8837 143.531 31.8239 143.96 31.5347C144.349 31.2654 144.539 30.8964 144.539 30.4077C144.539 29.9989 144.459 29.6697 144.11 29.3805C143.661 29.0115 143.063 28.9517 142.504 28.9517H141.477V27.4358H142.504C142.893 27.4358 143.451 27.356 143.761 27.2064C144.17 26.997 144.399 26.6479 144.399 26.0795C144.399 25.7703 144.279 25.4711 143.99 25.2417C143.541 24.8727 142.903 24.8528 142.574 24.8528C142.125 24.8528 141.467 24.9126 140.928 25.3714C140.699 25.5609 140.39 25.9299 140.29 26.5083L138.345 26.1094ZM158.481 22.3496H152.068V25.2916H154.92C155.948 25.2916 156.935 25.3714 157.942 26.0695C158.93 26.7477 159.548 27.7549 159.548 29.211C159.548 30.5673 159.039 31.5746 158.401 32.2128C157.434 33.1802 156.327 33.3199 155.17 33.3199H148.967V20.0259H158.481V22.3496ZM152.068 30.9862H154.571C155.04 30.9862 155.469 30.9662 155.908 30.5174C156.337 30.0886 156.396 29.6099 156.396 29.2409C156.396 28.822 156.277 28.3932 155.908 28.0242C155.469 27.5854 154.9 27.5355 154.492 27.5355H152.068V30.9862ZM161.144 26.1792C161.453 24.8428 162.32 24.1646 162.849 23.8555C163.617 23.4067 164.644 23.2372 165.931 23.2372C167.556 23.2372 169.202 23.4466 169.94 24.9824C170.329 25.7803 170.289 26.628 170.289 27.366V31.1856C170.289 31.9835 170.398 32.7215 170.578 33.3199H167.766C167.686 32.9309 167.626 32.4123 167.616 31.7541C167.247 32.4123 166.349 33.5193 164.305 33.5193C163.397 33.5193 162.46 33.2899 161.822 32.7614C161.203 32.2527 160.814 31.4449 160.814 30.5573C160.814 29.57 161.243 28.3832 162.929 27.6851C164.016 27.2363 165.781 27.0867 166.569 27.0468L167.496 27.007V26.7975C167.496 26.5282 167.476 25.9498 167.207 25.6307C166.838 25.2018 166.1 25.1819 165.811 25.1819C165.412 25.1819 164.923 25.2218 164.514 25.4711C164.265 25.6207 163.936 25.9398 163.816 26.4784L161.144 26.1792ZM166.629 28.6425C165.661 28.7223 164.694 28.822 164.145 29.4902C163.996 29.6797 163.836 29.9789 163.836 30.3778C163.836 30.8067 164.046 31.0959 164.265 31.2455C164.534 31.4549 164.943 31.5546 165.332 31.5546C165.911 31.5546 166.589 31.3053 166.978 30.8366C167.038 30.7767 167.496 30.1983 167.496 29.0714V28.5528L166.629 28.6425ZM175.415 23.4366V27.1366H178.536V23.4366H181.419V33.3099H178.536V29.1611H175.415V33.3099H172.533V23.4366H175.415ZM186.555 23.4366V27.2363H187.333C188.17 27.2363 188.519 26.8274 188.729 26.3787C189.138 25.511 189.118 24.8328 189.487 24.1547C189.776 23.6161 190.165 23.4765 190.414 23.4366H192.798C192.489 23.7657 192.219 24.1547 192.04 24.5037C191.731 25.142 191.442 26.1892 191.262 26.638C191.033 27.2563 190.644 27.8746 189.656 27.9544V27.9943C190.185 28.0741 190.724 28.3433 191.132 28.9417C191.382 29.3107 191.551 29.7894 191.831 30.5474C192.1 31.3253 192.219 31.5945 192.469 32.1929C192.668 32.6417 192.778 32.911 193.107 33.3199H190.394C189.966 33.1802 189.676 32.891 189.327 31.8837C189.058 31.1158 189.018 30.8366 188.839 30.4077L188.699 30.0587C188.41 29.3207 188.021 29.1711 187.422 29.1711H186.555V33.3199H183.673V23.4366H186.555Z" fill="#19502E"/>
<path d="M21.3223 48C9.5641 48 0 38.4459 0 26.6877C0 19.936 3.1016 13.7228 8.507 9.6539L8.7264 9.4743V0H20.9632V5.37544H21.3223C33.0704 5.37544 42.6345 14.9395 42.6345 26.6977C42.6345 38.4459 33.0704 48 21.3223 48Z" fill="#19502E"/>
<path d="M15.1478 27.0267L19.5858 22.6685V19.7065L15.1478 24.0448V27.0267ZM15.1478 15.9866L19.5858 11.6184V8.82604L15.1478 13.1642V15.9866ZM15.1478 19.6367L19.5858 15.2785V12.4861L15.1478 16.8243V19.6367ZM13.8813 8.85596L13.2929 8.2875V1.37622H12.6148V7.62929L12.0363 7.05085V1.37622H11.3582V6.40261L10.7698 5.82417V1.37622H10.1016V7.96837L14.5495 12.3265V1.37622H13.8813V8.85596ZM15.1478 23.2868L19.5858 18.9286V16.1362L15.1478 20.4744V23.2868ZM10.1016 22.6685L14.5495 27.0267V24.0448L10.1016 19.7065V22.6685ZM18.9176 5.82417L18.3292 6.40261V1.37622H17.661V7.06083L17.0726 7.62929V1.37622H16.4044V8.27753L15.816 8.85596V1.37622H15.1478V12.3265L19.5858 7.96837V1.37622H18.9176V5.82417ZM10.1016 11.6184L14.5495 15.9866V13.1642L10.1016 8.82604V11.6184ZM10.1016 15.2785L14.5495 19.6367V16.8243L10.1016 12.4861V15.2785ZM10.1016 18.9286L14.5495 23.2868V20.4744L10.1016 16.1362V18.9286ZM36.5599 21.2324H25.7592C25.9886 20.8734 26.1182 20.4545 26.1182 20.0057C26.1182 18.7192 25.071 17.682 23.7845 17.682C22.498 17.682 21.4608 18.7292 21.4608 20.0057C21.4608 20.5144 21.6204 20.9731 21.8996 21.3521C21.7002 21.4817 21.5605 21.7111 21.5605 21.9804C21.5605 22.2397 21.7002 22.4691 21.8996 22.5987C21.6304 22.9777 21.4608 23.4464 21.4608 23.9451C21.4608 25.2316 22.498 26.2688 23.7845 26.2688C25.071 26.2688 26.1182 25.2316 26.1182 23.9451C26.1182 23.4963 25.9886 23.0674 25.7592 22.7184H33.7974V23.2071H32.9996V23.8952H33.7974V24.6033H32.9996V25.9097H33.7974V25.3213H34.9742V25.9097H35.7621V24.6033H34.9742V23.8952H35.7621V23.2071H34.9742V22.7184H36.5599C36.8691 22.7184 37.1184 22.4591 37.1184 22.1499V21.8009C37.1184 21.4917 36.8591 21.2324 36.5599 21.2324ZM24.9913 23.9451C24.9913 24.6033 24.4527 25.1418 23.7845 25.1418C23.1263 25.1418 22.5878 24.6033 22.5878 23.9451C22.5878 23.7057 22.6576 23.4763 22.7872 23.2868L23.1163 22.7184C22.9069 22.5389 22.7772 22.2696 22.7772 21.9704C22.7772 21.6712 22.9069 21.402 23.1163 21.2224L22.7872 20.654C22.6576 20.4645 22.5878 20.2451 22.5878 19.9958C22.5878 19.3375 23.1263 18.799 23.7845 18.799C24.4427 18.799 24.9913 19.3375 24.9913 19.9958C24.9913 20.4844 24.4228 21.6513 24.4228 21.6513V22.2796C24.4228 22.2896 24.9913 23.4564 24.9913 23.9451Z" fill="#FFCB05"/>
<path d="M6.0625 19.8164V22.7186C6.0625 25.4911 7.26922 27.2762 7.96732 27.9644C8.37622 28.3633 12.505 32.4323 12.5649 32.4821C13.8514 33.7387 14.0708 34.1476 14.36 34.8657V31.6544C14.36 28.7921 12.9139 27.6851 12.1659 26.9571C10.4207 25.2617 9.26382 24.1447 8.31642 23.2072C6.5412 21.4221 6.0625 19.8164 6.0625 19.8164ZM12.166 34.1277C10.4307 32.4223 9.26382 31.3153 8.32642 30.3778C6.54124 28.5927 6.07251 27.3859 6.07251 27.3859V29.8891C6.07251 32.6616 7.32912 34.4269 7.96742 35.1549C8.37622 35.5538 12.515 39.6028 12.5649 39.6527C13.8514 40.9093 14.0708 41.5077 14.36 42.2158V38.8249C14.36 35.9627 12.904 34.8557 12.166 34.1277Z" fill="white"/>
<path d="M21.321 6.7417C21.0019 6.7417 20.6827 6.75167 20.3636 6.76165V8.11797C20.6827 8.09803 20.9919 8.09803 21.321 8.09803C31.5832 8.09803 39.9007 16.4155 39.9007 26.6877C39.9007 36.9499 31.5832 45.2674 21.321 45.2674C11.0588 45.2674 2.73133 36.9499 2.73133 26.6877C2.73133 20.9931 5.29439 15.8969 9.33348 12.4862V10.7509C4.49655 14.391 1.375 20.1753 1.375 26.6877C1.375 37.6979 10.3008 46.6237 21.321 46.6237C32.3312 46.6237 41.257 37.6979 41.257 26.6877C41.257 15.6775 32.3312 6.7417 21.321 6.7417Z" fill="white"/>
<path d="M35.4258 37.0995C35.7349 36.6806 36.0242 36.2418 36.3034 35.793V33.1203H35.4258V37.0995ZM37.9789 32.1429C38.1085 31.754 38.2182 31.3651 38.3179 30.9761H35.4258V31.6842H35.8646C36.6325 31.6642 37.5002 31.6543 37.9789 32.1429Z" fill="white"/>
<path d="M18.7176 30.8765H17.9297V38.8249H18.7176V30.8765Z" fill="white"/>
<path d="M16.1277 29.3505H18.7206C19.3888 29.3505 19.8576 29.4901 20.1268 29.7494C20.3961 30.0087 20.5258 30.4775 20.5258 31.1457V38.5755C20.5258 39.2437 20.3961 39.7125 20.1268 39.9718C19.7179 40.3806 18.96 40.3806 18.3317 40.3806C18.1921 40.3707 18.0525 40.3707 17.9328 40.3707V43.8911C18.1921 43.941 18.4514 43.9909 18.7206 44.0308V41.1386C19.9174 41.1386 20.6953 40.7297 21.0643 39.9119V44.2202H21.3236C21.4832 44.2202 21.6527 44.2202 21.8123 44.2103V31.2753C21.8123 30.5872 21.9519 30.1085 22.2112 29.8392C22.4705 29.5699 22.9392 29.4303 23.5974 29.4303C24.2656 29.4303 25.253 29.3306 25.7616 29.8392C26.0209 30.1085 26.1405 30.5971 26.1405 31.2753V35.085H24.3654V31.016H23.5974V44.0707C23.8567 44.0407 24.1061 44.0008 24.3654 43.951V35.8529H26.1405V43.5421C26.5095 43.4424 26.8686 43.3227 27.2276 43.193V36.1521C27.2276 35.3543 27.4171 34.7559 28.2249 34.4866L27.3273 29.5899H29.1225L29.4217 34.9354H29.6411L29.9403 29.5899H31.8351L30.8179 34.4866C31.6656 34.7858 31.8351 35.3044 31.8351 36.1521V40.6998C32.3637 40.3009 32.8623 39.882 33.341 39.4232V29.54H38.6068C38.6467 29.3007 38.6766 29.0713 38.7065 28.822H26.3998L26.5694 29.7095C26.1804 28.9915 25.4424 28.6325 24.3554 28.6325H23.5875C22.281 28.6325 21.4931 29.1511 21.184 30.1883C20.9047 29.1012 20.077 28.5627 18.7107 28.5627H15.3398V43.1531C15.5991 43.2429 15.8584 43.3326 16.1177 43.4124V29.3505H16.1277ZM32.4734 34.9653L31.6257 34.1575L32.4734 29.7694V34.9653Z" fill="white"/>
<path d="M29.1328 42.3854C29.4021 42.2458 29.6713 42.1062 29.9406 41.9566V35.9429H29.1328V42.3854Z" fill="white"/>
</svg>
