<svg width="188" height="49" viewBox="0 0 188 49" fill="none" xmlns="http://www.w3.org/2000/svg">
<path fill-rule="evenodd" clip-rule="evenodd" d="M106.872 0.00675401H107.963C108.395 0.0439011 108.821 0.118195 109.25 0.192489C108.142 1.92489 107.038 3.6573 105.92 5.38295C106.632 4.06929 107.389 2.78265 108.111 1.47575C106.511 1.32379 104.839 1.67162 103.509 2.60029C102.793 3.09334 102.31 3.83628 101.83 4.54545C100.493 6.60542 99.3211 8.76671 98.0176 10.8469C97.0856 12.3396 96.1197 13.8221 94.931 15.1256C94.34 15.7436 93.695 16.3684 92.8744 16.6588C92.1551 16.8681 91.4021 16.8648 90.6625 16.9492C91.3784 16.8141 92.1484 16.8479 92.8069 16.4967C93.8234 15.9192 94.5528 14.9669 95.2417 14.045C97.6968 10.5802 99.3549 6.64257 101.55 3.02242C98.9564 1.23261 95.6199 0.567337 92.5469 1.27989C89.9972 1.84722 87.6941 3.34999 86.0698 5.38633C85.2458 5.28502 84.4083 5.39646 83.6417 5.70376C84.6852 4.15034 86.0596 2.81642 87.6806 1.87086C89.8824 0.567337 92.5063 0 95.056 0.256652C97.4401 0.479535 99.7399 1.44874 101.594 2.96163C102.664 1.10428 104.819 0.178981 106.879 0L106.872 0.00675401ZM82.5712 7.63879C81.6661 9.82709 81.4162 12.2856 81.8958 14.6089C82.355 16.983 83.564 19.1949 85.266 20.907C88.4337 24.2435 93.6444 25.3681 97.9332 23.764C100.013 22.9805 101.948 21.7142 103.32 19.948C101.206 20.9037 98.8146 21.1772 96.525 20.8226C92.3881 20.1844 88.4438 17.7225 86.4176 14.0078C85.5835 12.4341 84.925 10.5633 85.4957 8.79035C85.8064 7.93597 86.2251 6.93975 87.174 6.63582C86.3433 6.32513 85.4484 6.10563 84.5569 6.24408C83.7295 6.3589 82.9291 6.86883 82.5712 7.63541V7.63879ZM105.734 8.21963C105.052 8.30068 104.346 8.46616 103.796 8.89503C102.85 9.60421 102.08 10.5092 101.33 11.4143C100.094 12.9609 98.7909 14.4502 97.4942 15.9462C96.8762 16.6385 96.1839 17.3274 95.2822 17.6313C94.1104 18.0197 92.844 17.9994 91.6418 17.7631C92.4219 18.2662 93.202 18.7795 94.0496 19.1679C95.5693 19.3604 97.1024 18.8876 98.3722 18.067C100.324 16.858 101.753 14.9804 103.738 13.8187C104.387 13.3966 105.096 13.042 105.873 12.9407C107.054 11.4582 108.176 9.93178 109.29 8.40199C108.118 8.20613 106.919 8.08455 105.734 8.21626V8.21963ZM3.07645 30.5248C7.99337 30.518 12.9137 30.5248 17.8306 30.5248C17.6313 32.1457 17.4321 33.7701 17.2329 35.3944H12.2349C11.6507 39.896 11.0665 44.3975 10.4822 48.8991C8.4594 48.8991 6.4332 48.8991 4.40699 48.8991C4.99122 44.3975 5.57544 39.896 6.15966 35.3944C4.10644 35.391 2.05322 35.3944 0 35.3944C1.0131 33.7667 2.05997 32.1559 3.07645 30.5281V30.5248ZM19.6711 30.5383C19.151 35.3066 18.6343 40.0749 18.1176 44.8466C17.9826 46.2008 17.7597 47.5483 17.5807 48.8957C19.6305 48.8957 21.677 48.8957 23.7268 48.8957C23.8822 47.7441 24.0308 46.5892 24.1861 45.4376C26.1583 45.4342 28.1305 45.4444 30.1026 45.4309C31.8891 45.4039 33.6721 44.0598 33.9018 42.2362C34.2564 39.3624 34.6143 36.4886 34.9621 33.6113C35.1209 32.4936 34.4657 31.342 33.4357 30.8861C32.8684 30.6024 32.2234 30.5349 31.5953 30.5484C27.6205 30.5416 23.6458 30.5383 19.6677 30.5349L19.6711 30.5383ZM25.4829 35.3944C26.55 35.3944 27.6172 35.3944 28.6843 35.3944C28.4682 36.9276 28.2588 38.4607 28.0427 39.9905C28.0292 40.2911 27.7894 40.5747 27.4753 40.5612C26.577 40.5815 25.6821 40.5612 24.7838 40.5646C25.0202 38.8423 25.2397 37.1167 25.4829 35.391V35.3944ZM39.5312 31.5244C39.7372 30.876 40.4194 30.4977 41.0813 30.5214C43.999 30.5214 46.9201 30.518 49.8379 30.5248C50.3984 30.491 51.0029 30.8658 51.0131 31.4737C51.6614 37.2822 52.3031 43.0906 52.9481 48.8957C50.8712 48.8957 48.7944 48.8957 46.7175 48.8957C46.6061 47.8319 46.498 46.7682 46.3866 45.701C44.4144 45.7179 42.4388 45.7483 40.4633 45.7686C40.1053 46.7986 39.7811 47.8454 39.4063 48.872C38.7208 48.8011 38.0285 48.8585 37.3429 48.8416C35.9651 48.8552 34.5907 48.8146 33.2162 48.8619C35.2965 43.0737 37.4274 37.3024 39.5312 31.5244ZM44.1037 36.0495C43.4722 37.7347 42.8407 39.4232 42.2126 41.1083H45.88C45.6977 39.4232 45.5052 37.738 45.3194 36.0495C44.9142 36.0495 44.5089 36.0495 44.1037 36.0495ZM56.889 30.5214C58.9355 30.5214 60.9786 30.5214 63.0251 30.5214C62.7211 32.8245 62.424 35.131 62.1234 37.4341C63.2783 37.4375 64.4333 37.4341 65.5882 37.4341C65.8955 35.1276 66.1893 32.8211 66.4933 30.5146C68.6512 30.5146 70.8124 30.5113 72.9704 30.518C72.1835 36.6405 71.4068 42.7664 70.62 48.8889C68.4621 48.8889 66.3075 48.8889 64.1496 48.8889C64.4299 46.7108 64.7169 44.5326 64.9972 42.3544H61.5291C61.2454 44.5326 60.9617 46.7108 60.6814 48.8889C58.6383 48.8889 56.5919 48.8889 54.5454 48.8889C55.3255 42.763 56.109 36.6405 56.8924 30.5146L56.889 30.5214ZM92.4253 30.5214C94.4684 30.5214 96.5115 30.5214 98.5546 30.5214C98.2574 32.8279 97.9534 35.131 97.6563 37.4375H101.124C101.428 35.131 101.722 32.8245 102.029 30.518C104.187 30.5214 106.345 30.518 108.503 30.518C107.72 36.6439 106.94 42.7664 106.156 48.8923C103.998 48.8923 101.84 48.8923 99.6825 48.8923C99.9695 46.7141 100.25 44.536 100.533 42.3612C99.3752 42.3612 98.2202 42.3612 97.0619 42.3612C96.7783 44.5393 96.4946 46.7175 96.2109 48.8957H90.0749C90.8584 42.7698 91.6384 36.6439 92.4219 30.518L92.4253 30.5214ZM153.62 30.5214C159.685 30.5214 165.747 30.5214 171.812 30.5214C170.826 32.1457 169.84 33.7701 168.857 35.391C167.395 35.391 165.933 35.391 164.474 35.391C163.883 39.8926 163.302 44.3941 162.718 48.8957C160.691 48.8957 158.665 48.8957 156.642 48.8957C157.223 44.3941 157.811 39.8926 158.392 35.391H153.019C153.218 33.7667 153.414 32.1423 153.617 30.5214H153.62ZM172.785 30.5214C171.998 36.6338 171.207 42.7428 170.451 48.8585C171.373 48.8146 172.298 48.8552 173.224 48.8416C176.384 48.8619 179.549 48.8045 182.713 48.872C184.003 48.7707 185.259 48.0413 185.891 46.8965C186.289 46.2076 186.303 45.3903 186.414 44.6204C186.728 42.2362 187.008 39.8453 187.343 37.4645V36.8972C187.252 35.9449 186.634 35.0803 185.769 34.6785C184.942 34.253 183.986 34.3374 183.091 34.334C181.531 34.334 179.974 34.334 178.414 34.334C178.586 33.0643 178.762 31.7945 178.934 30.5248H172.785V30.5214ZM177.171 44.0429C177.387 42.4321 177.604 40.8213 177.82 39.2104C178.88 39.2104 179.94 39.2104 181.001 39.2104C180.791 40.6288 180.643 42.0572 180.369 43.4621C180.305 43.6782 180.265 44.0598 179.961 44.0328C179.032 44.0564 178.1 44.0328 177.171 44.0395V44.0429ZM74.3684 34.5941C73.926 37.89 73.5174 41.1893 73.0818 44.4887C72.9433 45.3296 73.0041 46.2245 73.4296 46.9775C74.0679 48.1797 75.4052 48.8754 76.7357 48.97H84.182C86.2285 48.7201 88.1939 47.2713 88.6734 45.208C88.876 44.1172 88.947 43.0096 89.0989 41.912C87.0592 41.912 85.0229 41.912 82.9866 41.912C82.8954 42.5098 82.8042 43.1075 82.7198 43.7052C81.5581 43.712 80.3998 43.7018 79.2415 43.712C79.6028 40.9496 80.0182 38.1939 80.3761 35.4315C81.5547 35.4451 82.7333 35.4484 83.9118 35.4586C83.8241 36.0563 83.7396 36.6574 83.6518 37.2585C85.6848 37.2585 87.7144 37.2585 89.7507 37.2585C89.8756 36.1272 90.0445 34.9959 90.1559 33.8612C90.2336 33.0373 89.9398 32.166 89.3049 31.6223C88.383 30.8253 87.1133 30.5957 85.9279 30.5991C83.6822 30.6092 81.4331 30.5855 79.1874 30.6092C76.9518 30.6801 74.7298 32.3213 74.3718 34.5941H74.3684ZM110.556 30.6024C109.776 36.7249 108.993 42.8475 108.213 48.97H123.213C123.413 47.3659 123.612 45.7584 123.808 44.1544C120.85 44.1544 117.891 44.1544 114.933 44.1544C115.038 43.3912 115.146 42.6313 115.254 41.8681C118.205 41.8614 121.153 41.8377 124.102 41.8377C124.281 40.4498 124.46 39.0652 124.639 37.6773C121.687 37.6806 118.732 37.7077 115.781 37.7077C115.885 36.9444 115.993 36.1846 116.101 35.4214C119.056 35.4214 122.008 35.4214 124.963 35.4214C125.162 33.814 125.361 32.2099 125.557 30.6024H110.553H110.556ZM127.313 32.6557C127.989 31.3656 129.447 30.5822 130.889 30.6092C136.387 30.6092 141.882 30.6058 147.376 30.6126C148.365 30.6261 149.436 30.518 150.327 31.0414C151.286 31.5412 151.84 32.659 151.685 33.7228C151.341 36.5628 150.989 39.3995 150.641 42.2362C150.446 44.0733 148.669 45.4545 146.876 45.495C144.887 45.5085 142.898 45.495 140.912 45.4984C140.76 46.6533 140.602 47.8083 140.453 48.9632H134.297C134.479 47.8083 134.624 46.6466 134.79 45.4883C132.909 45.4883 131.028 45.4883 129.147 45.4883C128.566 45.4883 127.975 45.414 127.452 45.1506C126.604 44.7521 125.959 43.9112 125.878 42.969C125.827 42.3206 125.976 41.679 126.047 41.034C126.32 38.8693 126.597 36.7047 126.871 34.54C126.952 33.8984 126.999 33.2264 127.32 32.6489L127.313 32.6557ZM132.203 40.6254C133.26 40.6254 134.317 40.6254 135.374 40.6254C135.648 38.9065 135.877 37.1808 136.056 35.4518H132.858C132.639 37.1775 132.419 38.8997 132.203 40.6288V40.6254ZM141.51 40.6321C142.429 40.6254 143.347 40.6456 144.266 40.6254C144.56 40.6456 144.759 40.3721 144.762 40.0986C144.978 38.5519 145.191 37.0086 145.407 35.4653C144.337 35.4653 143.27 35.4653 142.202 35.4653C141.966 37.1876 141.74 38.9099 141.507 40.6321H141.51Z" fill="#005A9C"/>
<path fill-rule="evenodd" clip-rule="evenodd" d="M105.871 12.9441C107.023 12.7685 108.205 13.0151 109.258 13.4878C107.945 15.2371 106.621 16.9898 105.098 18.5669C103.835 19.9008 101.934 20.3736 100.154 20.4411C98.0602 20.4918 95.9394 20.073 94.0449 19.1713C95.5646 19.3638 97.0977 18.8911 98.3675 18.0704C100.319 16.8615 101.748 14.9839 103.734 13.8222C104.382 13.4 105.091 13.0455 105.868 12.9441H105.871Z" fill="#EC1C2B"/>
<path fill-rule="evenodd" clip-rule="evenodd" d="M33.2199 48.8586C34.5944 48.8147 35.9722 48.8552 37.3466 48.8384C38.0322 48.8552 38.7244 48.7978 39.41 48.8688L39.5214 48.9633H33.1152L33.2165 48.8586H33.2199Z" fill="#002744"/>
<path fill-rule="evenodd" clip-rule="evenodd" d="M170.455 48.8585C171.377 48.8146 172.302 48.8551 173.227 48.8416C176.388 48.8619 179.552 48.8044 182.717 48.872L182.926 48.9665H170.377L170.458 48.8585H170.455Z" fill="#001C30"/>
</svg>
