<svg width="171" height="36" viewBox="0 0 171 36" fill="none" xmlns="http://www.w3.org/2000/svg">
<path fill-rule="evenodd" clip-rule="evenodd" d="M18.0122 0C8.07617 0 0 8.07324 0 18.0098C0 27.9258 8.07617 36 18.0122 36C27.9258 36 36 27.9258 36 18.0098C36 8.07324 27.9258 0 18.0122 0ZM18.0122 35.0996C8.57617 35.0996 0.899902 27.4297 0.899902 18.0098C0.899902 8.57031 8.57324 0.900391 18.0122 0.900391C27.4321 0.900391 35.1001 8.57422 35.1001 18.0098C35.1001 27.4277 27.4292 35.0996 18.0122 35.0996ZM70.8911 14.8281C70.8911 15.9727 69.8281 16.3486 69.2461 16.3486H67.707V19.6777H69.1641C70.3921 19.6777 70.9521 20.2607 70.9521 21.1357C70.9521 21.7578 70.4961 22.6143 69.3301 22.6143C68.6431 22.6143 67.957 22.5742 66.937 22.1338L66.874 25.3643C67.2075 25.5459 67.5239 25.6904 67.8413 25.8037C68.5742 26.0645 69.3145 26.1602 70.2871 26.1738C72.9102 26.1738 74.9492 24.5508 74.9492 21.6143C74.9492 19.2393 73.5332 18.2227 72.4731 17.8857V17.7412C73.5742 17.2812 74.7002 16.0977 74.7002 14.1396C74.7002 12.1211 73.3892 10.0596 70.4312 10.0596C69.8184 10.0527 69.207 10.0947 68.6025 10.1836C68.1611 10.249 67.7231 10.3389 67.291 10.4541L67.332 13.8291C68.103 13.4541 68.8931 13.3906 69.3081 13.3906C69.6641 13.3906 70.8911 13.4756 70.8911 14.8281ZM104.645 26.0498C108.911 26.0498 110.345 22.0498 110.345 18.0742C110.345 14.0996 108.911 10.1006 104.645 10.1006C100.379 10.1006 98.9448 14.0996 98.9448 18.0742C98.9448 22.0498 100.379 26.0488 104.645 26.0498ZM104.645 22.2793C103.373 22.2793 102.731 20.8027 102.731 18.0742C102.731 15.3457 103.373 13.8682 104.645 13.8682C105.916 13.8682 106.558 15.3457 106.558 18.0742C106.558 20.8027 105.916 22.2793 104.645 22.2793ZM115.134 10.3301H112.075V25.8613H115.674V16.3877L117.836 19.0938L120 16.3877V25.8613H123.603V10.3291H120.565L117.836 13.9941L115.134 10.3301ZM126.037 25.8613H130.323C131.259 25.8613 135.152 25.4648 135.172 20.7578C135.172 16.8076 132.156 16.1182 130.199 16.1182H129.554V14.0576H134.319V10.3301H126.037V25.8613ZM129.554 22.7383V19.2197H130.074C130.295 19.2197 130.693 19.2256 131.032 19.4385C131.362 19.6465 131.636 20.0518 131.636 20.8428C131.636 22.4697 130.51 22.7383 130.074 22.7383H129.554ZM148.117 10.3301H151.634V15.9307H154.152V10.3301H157.667V25.8623H154.152V19.6367H151.634V25.8623H148.117V10.3301ZM160.039 10.3301H163.578L163.557 15.9102H164.326L166.345 10.3301H170.174L167.426 17.7021L170.57 25.8623H166.427L164.39 19.6152H163.557L163.578 25.8613H160.039V10.3301ZM139.523 25.8818H135.86L138.96 10.3516H143.497L146.577 25.8818H142.915L142.477 23.1963H139.961L139.523 25.8818ZM141.894 19.7812L141.228 15.0547L140.541 19.7812H141.894ZM92.1162 25.8613H88.5161V10.3291H93.3252C96.7153 10.3291 97.9854 13.4932 97.9854 15.4912C97.9854 17.5342 96.8813 20.7412 93.3252 20.7412H92.1162V25.8613ZM92.9702 13.7441H92.1162L92.1172 17.3242H92.9702C93.4282 17.3242 94.3032 17.2002 94.3032 15.5342C94.3032 14.2441 93.7822 13.7441 92.9702 13.7441ZM76.6338 10.3301H86.4556V25.8604H82.855V14.0771H80.2349V25.8613H76.6338V10.3301ZM55.0981 25.8613H58.7383L59.1973 23.1738H61.7153L62.1514 25.8613H65.791L62.7109 10.3291H58.1763L55.0981 25.8613ZM60.4443 15.0137L61.1323 19.7607H59.7573L60.4443 15.0137ZM55.5107 10.3301H48.127V25.8604H51.7871V14.2002H55.5107V10.3301ZM23.1196 6.69336C20.271 5.42285 14.9629 5.29688 10.6147 7.2334C11.1748 6.83301 11.7744 6.49316 12.4048 6.2168C13.7739 5.5791 15.9819 4.96094 18.7339 4.96094C18.8638 4.96094 18.9937 4.96191 19.124 4.96484C21.4771 5.00684 24.2666 5.81934 25.9717 7.50586C26.1426 7.71387 26.271 7.92188 26.3604 8.11328C26.4229 8.24707 26.4663 8.37207 26.4917 8.48438C27.8447 9.17188 28.6348 9.81641 29.0708 10.5664C29.2598 10.9609 29.3218 11.376 29.2368 11.8555C29.6807 12.1045 30.0654 12.4463 30.3647 12.8584C30.4604 13.0205 30.5454 13.1924 30.6113 13.3652C30.6729 13.5254 30.7173 13.6855 30.7378 13.8379C30.7988 14.251 30.8398 14.7295 30.4028 15.293C30.8608 15.5225 31.2339 16.165 31.2788 16.4385C31.5078 17.4551 30.8398 18.4551 29.9878 19.2275C28.9878 20.1006 26.7817 21.1416 24.9917 21.6006C21.458 22.4951 18.313 22.8711 15.8179 23.3301C16.9409 23.5996 18.459 23.9551 20.937 23.9551C26.2407 23.9551 30.9238 21.4541 30.9238 21.4541C30.9238 21.4541 30.8208 21.7686 30.7148 22.0605C27.3447 24.0996 21.998 24.9521 19.707 24.8477C17.397 24.7422 15.4419 24.3896 13.5269 23.8057C12.9419 23.9707 12.3657 24.165 11.8008 24.3896C14.7158 25.7217 16.9199 26.0146 19.397 26.2002C21.9336 26.3896 26.1396 25.7832 29.6738 24.4961C29.5078 24.6641 29.4248 24.9121 29.2598 25.0576C28.0537 25.6953 25.9541 26.333 24.1143 26.7119C23.1909 26.9023 22.333 27.0283 21.686 27.0557C19.77 27.1396 17.4399 27.0557 15.3999 26.6797C13.6519 26.3281 12.2139 25.7832 10.7168 25.1201C10.4487 25.3252 10.3237 25.5781 10.2588 25.8701C16.1099 28.9297 21.5586 28.9902 27.7837 27.0557L27.2197 27.5977C20.373 30.3877 15.0249 29.3037 10.8818 27.3047L10.707 27.2295C10.6147 27.1895 10.5234 27.1465 10.4487 27.0967C10.8447 27.7637 14.0049 30.0742 17.543 30.3662C19.98 30.5742 22.9546 30.1572 24.7227 29.4512L23.6826 29.9912C22.8286 30.4082 20.561 31.3682 17.396 31.1582C13.1729 30.8652 10.7998 28.9912 9.73779 28.0146C9.23877 27.5537 9.01172 27.0352 8.86475 26.3896C8.17236 26.0283 7.66504 25.6553 7.24951 25.1777C7.09033 24.9941 6.94434 24.7959 6.80664 24.5771C6.51465 24.1406 6.57471 23.6211 6.63672 23.1807L6.7666 22.8105C6.30566 22.4736 5.82764 22.1201 5.64062 21.7686C5.22168 21.0186 5.47559 20.3721 5.76562 19.8721C5.51465 19.5811 5.28467 19.29 5.18506 18.999C5.05859 18.666 5.03906 18.3291 5.07666 17.9561C5.16162 17.333 5.49463 16.752 5.93164 16.25C6.8457 15.1875 8.30566 14.3555 10.7788 13.5439C13.2158 12.7295 14.1948 12.6045 16.0259 12.1865C16.8398 11.998 17.7144 11.8574 18.603 11.7139C20.0537 11.4805 21.5425 11.2402 22.8706 10.7754C16.8979 9.73535 10.6978 10.6914 5.64062 14.165L5.97266 13.1875C10.5088 10.2324 15.5249 8.48438 24.0146 9.96289C24.4727 9.69141 24.7427 9.41992 24.8696 8.87988C22.7456 8.11035 20.437 7.83984 17.4619 7.87988C14.7969 7.96484 9.98779 8.95996 7.41162 10.4854L8.19873 9.50488C9.98779 8.43945 14.6699 7.04688 18.1899 6.98438C20.6641 6.92285 21.9336 7.06738 24.8896 7.85938C24.6353 7.39648 24.0952 7.14648 23.2993 6.77637L23.1196 6.69336ZM27.6558 11.0254C27.5747 10.4424 26.9087 9.87988 26.3247 9.50488C26.2417 9.79688 25.9326 10.1504 25.7227 10.3799C26.3677 10.5479 27.0337 10.7939 27.6558 11.0254ZM24.8076 11.2109C24.3887 11.5449 23.9126 11.835 23.2026 12.1084C23.8325 12.2188 24.3774 12.3662 24.9014 12.5225C25.3491 12.6553 25.7817 12.7939 26.2407 12.9189C26.251 12.9238 26.2627 12.9258 26.2739 12.9248C26.4907 12.9248 27.2036 12.2656 27.3267 12.085C26.6147 11.7725 25.7407 11.459 24.8076 11.2109ZM29.2598 14.2715C29.5288 13.751 29.3628 13.418 28.8027 12.9385C28.5728 13.2119 28.3228 13.4385 28.0527 13.6465C28.4888 13.8545 28.8867 14.002 29.2598 14.2715ZM19.897 13.1699C17.1499 13.5029 14.1099 14.083 11.5098 14.8545L11.3711 14.8965C10.0806 15.2891 5.20068 16.7695 6.68262 18.8105C6.69775 18.8105 7.62305 17.5342 11.1128 16.5195C13.3936 15.8496 15.7319 15.4238 18.1069 14.9912C20.2402 14.6025 22.4033 14.208 24.5796 13.627C22.7891 13.1504 21.7866 12.9385 19.897 13.1699ZM22.8721 15.6885C21.395 16.0625 17.814 16.583 13.9658 17.415C12.7578 17.6855 9.44775 18.4551 7.82471 19.8301C8.03564 20.0039 8.21143 20.1152 8.38818 20.2129C8.59473 20.3271 8.80322 20.4229 9.07178 20.5801C9.73779 20.1416 10.6548 19.7256 12.0098 19.3701C14.3569 18.7471 16.1299 18.4785 18.252 18.127C20.354 17.8086 24.3276 16.9766 26.5117 16.1855C27.0254 16.0117 27.5063 15.7949 27.9121 15.543C28.084 15.4365 28.2427 15.3242 28.3848 15.2061C28.2388 15.042 26.8237 14.3555 26.7817 14.4189C25.9106 14.834 24.6616 15.249 22.8721 15.6885ZM17.75 19.875C16.1582 20.1387 14.6245 20.3926 13.0059 20.79C12.2778 20.9746 11.5288 21.2051 10.8447 21.4951C11.5288 21.8496 12.2788 22.1631 13.0269 22.4551C14.5249 22.0176 15.2358 21.8301 17.396 21.4766C18.229 21.3281 20.7681 20.8711 22.5986 20.5C25.9106 19.7891 30.7588 18.248 29.4688 16.25C29.4043 16.3047 29.3398 16.3545 29.2754 16.4043C29.1938 16.4688 29.1128 16.5332 29.0317 16.6045C28.0527 17.3496 26.4917 17.9561 24.3496 18.5195C21.8643 19.1924 19.7607 19.541 17.75 19.875ZM7.75098 21.5967C7.81348 21.5488 7.87451 21.501 7.92969 21.4541C7.66162 21.3154 7.46045 21.1943 7.25586 21.0654L6.95068 20.8701C6.87744 21.0371 6.90137 21.21 6.979 21.3672C7.07812 21.5674 7.26514 21.7432 7.45068 21.8496C7.54053 21.7598 7.64746 21.6768 7.75098 21.5967ZM11.3198 23.0576C10.7168 22.7871 10.0728 22.5186 9.44775 22.2266C9.15674 22.4141 8.8877 22.5996 8.67871 22.7871C9.17773 23.0791 9.65771 23.3477 10.1577 23.6221C10.5254 23.3955 10.9146 23.2061 11.3198 23.0576ZM8.8877 24.9951C8.94775 24.7852 9.05371 24.6201 9.19971 24.4121C8.84375 24.2217 8.49072 24.0361 8.1377 23.8057C8.11475 24.2031 8.3667 24.5566 8.8877 24.9951Z" fill="#476BF0"/>
</svg>
