<svg width="115" height="56" viewBox="0 0 115 56" fill="none" xmlns="http://www.w3.org/2000/svg">
<path fill-rule="evenodd" clip-rule="evenodd" d="M35.5078 36.1338H42.8022V38.5179H39.3319V55.2677H35.5078V36.1338Z" fill="#0079C2"/>
<path fill-rule="evenodd" clip-rule="evenodd" d="M47.131 48.0838L47.7867 38.5179H48.0053L48.6611 48.0838H47.131ZM42.8945 55.2677H46.6397L46.9935 50.1862H48.7963L49.1523 55.2677H52.8953L50.901 36.1338H44.8888L42.8945 55.2677Z" fill="#0079C2"/>
<path fill-rule="evenodd" clip-rule="evenodd" d="M58.3752 48.5705V52.1782C58.3752 52.665 58.7515 52.8047 58.9701 52.8047C59.3306 52.8047 59.5808 52.5072 59.5808 52.1782V47.7232C59.5808 47.1283 59.4703 46.468 58.0439 46.468H56.4913V44.3656H58.107C59.1887 44.3656 59.5808 44.1155 59.5808 42.9392V39.1444C59.5808 38.8154 59.3306 38.5179 58.9701 38.5179C58.7515 38.5179 58.3752 38.6441 58.3752 39.1444V42.2654H54.5488V39.5522C54.5488 38.2182 54.7066 36.1338 57.3882 36.1338H60.5565C63.2381 36.1338 63.4116 38.2205 63.4116 39.5522V42.6102C63.4116 44.6968 61.9536 45.2602 60.8089 45.2129V45.4022C63.38 45.3391 63.4116 47.3153 63.4116 47.9891V51.847C63.4116 53.1968 63.2381 55.2654 60.5565 55.2654H57.3882C54.7066 55.2654 54.5488 53.1945 54.5488 51.847V48.5682H58.3752V48.5705Z" fill="#0079C2"/>
<path fill-rule="evenodd" clip-rule="evenodd" d="M65.918 36.1338H74.7785V55.2677H70.9521V38.5179H69.7443V55.2677H65.918V36.1338Z" fill="#0079C2"/>
<path fill-rule="evenodd" clip-rule="evenodd" d="M81.1154 46.6573V38.5179H81.6179C82.0258 38.5179 82.3232 38.8626 82.3232 39.4756V45.7018C82.3232 46.3125 82.0258 46.6595 81.6179 46.6595H81.1154V46.6573ZM77.2891 55.2676H81.1154V48.7597H83.3102C85.9761 48.7597 86.1496 46.6888 86.1496 45.3413V39.5544C86.1496 38.2204 85.9761 36.136 83.3102 36.136H77.2891V55.2699V55.2676Z" fill="#0079C2"/>
<path fill-rule="evenodd" clip-rule="evenodd" d="M93.6924 52.1782C93.6924 52.5072 93.4422 52.8046 93.0817 52.8046C92.8631 52.8046 92.4868 52.6627 92.4868 52.1782V39.1466C92.4868 38.6441 92.8631 38.5201 93.0817 38.5201C93.4422 38.5201 93.6924 38.8176 93.6924 39.1466V52.1782ZM88.6582 51.8492C88.6582 53.199 88.8317 55.2676 91.4975 55.2676H94.6816C97.3474 55.2676 97.521 53.1967 97.521 51.8492V39.5544C97.521 38.2204 97.3474 36.136 94.6816 36.136H91.4975C88.8317 36.136 88.6582 38.2227 88.6582 39.5544V51.8492Z" fill="#0079C2"/>
<path fill-rule="evenodd" clip-rule="evenodd" d="M109.974 36.1338H114.961V55.2677H111.134V43.2704H110.992L109.016 55.2677H105.958L103.998 43.2704H103.856V55.2677H100.029V36.1338H105L107.495 49.589L109.974 36.1338Z" fill="#0079C2"/>
<path fill-rule="evenodd" clip-rule="evenodd" d="M30.548 9.9737C29.3762 4.84714 26.4399 0.673777 26.0366 0C25.3966 0.95771 23.0553 4.64208 21.8655 8.72079C20.5652 13.284 20.3737 17.3312 20.8221 21.2995C21.2683 25.2835 22.9494 29.3758 22.9494 29.3758C23.844 31.5075 25.1825 33.815 26.0546 34.944C27.3323 33.281 30.2708 28.3257 31.1857 21.8651C31.695 18.2573 31.7175 15.1048 30.548 9.97821V9.9737ZM26.0366 33.655C25.462 32.5734 24.5673 30.5183 24.4817 27.3184C24.4592 24.2447 25.6941 21.5947 26.0546 21.0448C26.3768 21.5947 27.4405 23.8999 27.5667 27.0525C27.6523 30.1262 26.6315 32.5576 26.0366 33.655ZM30.2077 18.6787C30.1649 20.6392 29.9305 22.7101 29.6331 23.9472C29.739 21.8132 29.4843 18.8184 28.9953 16.4658C28.5063 14.129 27.1205 10.2081 26.0163 8.40531C24.9955 10.1314 23.7381 13.5184 23.0778 16.4501C22.4153 19.3818 22.3973 22.9422 22.3973 24.0103C22.2215 23.1157 21.7821 19.9023 21.906 16.6867C22.0097 14.0366 22.6316 11.292 22.9719 10.0368C24.2699 5.84992 25.7391 3.16833 26.0163 2.74468C26.2912 3.16833 28.1435 6.47637 29.1035 9.94215C30.059 13.4079 30.2505 16.7318 30.2099 18.6765L30.2077 18.6787Z" fill="#0079C2"/>
<path fill-rule="evenodd" clip-rule="evenodd" d="M28.0234 36.1339H19.1178V42.11C19.1178 42.11 19.1314 42.0942 19.1404 42.0942C21.2383 39.9917 24.641 39.9917 26.7412 42.0942C28.8392 44.1809 28.8392 47.5836 26.7412 49.6838C26.7322 49.6995 26.7232 49.6995 26.7119 49.7153C26.7119 49.7153 26.6894 49.7311 26.6804 49.7469C24.5869 51.8178 21.8513 52.8521 19.1156 52.8521C16.3799 52.8521 13.6195 51.8178 11.526 49.7153C7.83039 46.0309 7.39322 40.305 10.21 36.1339C10.5886 35.5682 11.028 35.0364 11.526 34.5339C13.6217 32.4315 16.3686 31.3971 19.1156 31.3971V17.0315C8.5605 17.0315 0.00195312 25.5788 0.00195312 36.1339C0.00195312 46.6889 8.5605 55.252 19.1178 55.252C24.623 55.252 29.5805 52.9152 33.0689 49.1993V36.1361H28.0234V36.1339Z" fill="#0079C2"/>
</svg>
