<svg width="121" height="54" viewBox="0 0 121 54" fill="none" xmlns="http://www.w3.org/2000/svg">
<path fill-rule="evenodd" clip-rule="evenodd" d="M65.4522 13.4238H82.2354L62.0974 40.2738H45.3164L65.4522 13.4238Z" fill="#C02222"/>
<path fill-rule="evenodd" clip-rule="evenodd" d="M116.635 4.1946C112.438 -8.60444e-05 106.146 0.00435736 101.949 0.0021356H89.8674C88.861 -8.61671e-05 87.6012 0.00213556 86.5948 1.00859C85.5883 2.01505 85.5883 3.27479 85.5883 4.28125V6.71186H102.372C103.491 6.71186 105.169 6.71186 106.286 7.83163C107.406 8.9514 107.406 10.6288 107.406 11.7464V28.5273C107.406 29.6471 107.406 31.3245 106.286 32.4443C105.166 33.5619 103.489 33.5619 102.372 33.5619H94.2599C92.8601 33.5619 91.0427 33.5619 90.3451 32.0244C89.6453 30.4869 90.625 29.0872 91.4627 27.9697L102.372 13.426H85.5905L78.8786 22.3753C77.7544 23.875 76.7812 25.1725 76.7812 26.8499C76.7812 28.5273 77.6877 29.736 78.8786 31.3245L80.556 33.5619C82.2335 35.7992 83.9131 38.0365 86.1504 39.1563C88.3877 40.2738 91.045 40.2738 94.682 40.2738H101.954C106.149 40.2738 112.443 40.2738 116.637 36.0791C120.832 31.8844 120.832 25.7324 120.832 23.4928V16.7809C120.832 14.5436 120.832 8.38929 116.637 4.1946H116.635Z" fill="#C02222"/>
<path fill-rule="evenodd" clip-rule="evenodd" d="M48.6694 22.3753L46.992 20.138C45.3145 17.9007 43.6349 15.6633 41.3976 14.5458C39.1602 13.426 36.503 13.426 32.866 13.426H4.28302C3.27656 13.426 2.01682 13.426 1.01036 14.4347C0.00390625 15.4389 0.00390625 16.6965 0.00390625 17.7029V20.1357H6.71585V53.6999H20.1397V20.1357H33.2859C34.6834 20.1357 36.503 20.1357 37.2007 21.6754C37.9005 23.2129 36.9207 24.6126 36.0809 25.7301L25.1743 40.2738H41.9552L48.6672 31.3245C49.7914 29.8249 50.7645 28.5273 50.7645 26.8499C50.7645 25.1725 49.858 23.9638 48.6672 22.3753H48.6694Z" fill="#C02222"/>
</svg>
