<svg width="155" height="45" viewBox="0 0 155 45" fill="none" xmlns="http://www.w3.org/2000/svg">
<path fill-rule="evenodd" clip-rule="evenodd" d="M16.4859 0.979906C18.0641 0.62048 19.6848 0.444035 21.3022 0.4375C21.6453 0.447303 22.0047 0.427697 22.3216 0.58127C22.4785 0.653155 22.4948 0.845938 22.4197 0.983173C21.9165 1.64321 21.1617 2.04511 20.4722 2.47969C17.123 4.44019 13.5451 5.96612 10.0848 7.7077C7.73224 8.94608 5.41231 10.3021 3.4126 12.0698C2.22649 13.1089 1.17436 14.3244 0.465309 15.7392C1.42269 12.6776 3.09892 9.85118 5.26527 7.48878C8.23544 4.25721 12.1989 1.94382 16.4859 0.979906ZM32.0065 3.16913C32.7221 3.67233 33.4965 4.23434 33.7906 5.09696C34.0357 5.7668 33.7645 6.49219 33.3625 7.03786C32.6535 7.99851 31.6373 8.66834 30.6505 9.31204C27.7424 11.083 24.5762 12.3672 21.459 13.7166C18.2732 15.0759 15.058 16.3699 11.9114 17.8174C8.93468 19.1995 5.92858 20.5784 3.21655 22.4507C2.40294 23.0225 1.62854 23.6695 1.00118 24.4439C0.530659 25.0287 0.151628 25.7117 0.0405331 26.4599C-0.0770971 27.182 0.112418 27.9009 0.272526 28.6001C0.975039 31.3318 2.33432 33.8739 4.0759 36.0827C5.96452 38.468 8.3498 40.4579 11.039 41.8793C10.2842 41.3728 9.47055 40.8043 9.13727 39.9155C8.88567 39.2391 9.12746 38.4909 9.5457 37.9387C10.258 36.9747 11.2742 36.3016 12.2643 35.6547C15.2116 33.8608 18.4235 32.5636 21.5832 31.1978C25.318 29.6098 29.0854 28.0904 32.7483 26.339C35.1499 25.1954 37.5548 24.0191 39.7342 22.4866C40.4824 21.9704 41.1817 21.3757 41.7796 20.6895C42.3155 20.0621 42.7599 19.3204 42.8808 18.4905C42.9952 17.7585 42.7958 17.0299 42.6357 16.3241C41.9986 13.8735 40.8288 11.5797 39.3388 9.5375C37.4077 6.91043 34.895 4.69833 32.0131 3.16913H32.0065ZM49.0041 12.854C50.4483 12.854 51.8926 12.854 53.3335 12.854C54.4804 12.8704 55.6502 12.8769 56.7546 13.2232C57.9995 13.6121 59.0255 14.5793 59.5549 15.7654C60.1299 17.0397 60.2051 18.5068 59.9012 19.8628C59.6072 21.1437 58.885 22.3821 57.7414 23.0748C57.1042 23.4636 56.3658 23.6433 55.6306 23.725C54.4968 23.8492 53.3564 23.8263 52.2193 23.8328C52.2193 26.0743 52.2193 28.3159 52.2193 30.5574C51.1476 30.5574 50.0726 30.5574 49.0008 30.5574C49.0008 24.6562 49.0008 18.7584 49.0008 12.8573L49.0041 12.854ZM52.2226 15.9974C52.2226 17.5592 52.2226 19.1211 52.2226 20.683C53.2584 20.6764 54.3138 20.7254 55.3234 20.4542C55.7972 20.3301 56.2253 20.0327 56.4932 19.6178C56.8951 18.9904 56.9213 18.1801 56.7023 17.4841C56.4965 16.8306 55.941 16.2914 55.2646 16.1477C54.2648 15.9385 53.2388 16.0104 52.2259 15.9941L52.2226 15.9974ZM88.884 12.854C92.3802 12.854 95.8797 12.854 99.376 12.854C99.376 13.9029 99.376 14.9485 99.376 15.9974C96.9515 15.9974 94.5302 15.9908 92.1058 16.0006C92.109 20.8496 92.1058 25.7018 92.1058 30.5508C91.0307 30.5508 89.9557 30.5508 88.8807 30.5508C88.8807 24.6497 88.8807 18.7519 88.8807 12.8508L88.884 12.854ZM77.5752 17.6507C79.3559 16.7881 81.5027 16.7587 83.3227 17.5167C84.4042 17.9611 85.3551 18.6996 86.087 19.6112C86.5771 20.232 86.881 20.9705 87.1326 21.7155C85.9596 21.7155 84.7833 21.7155 83.6102 21.7155C83.241 21.0097 82.6594 20.3856 81.8948 20.1177C80.7479 19.7125 79.3854 19.8628 78.4018 20.598C76.8465 21.758 76.5001 24.0583 77.2778 25.7639C77.7353 26.7899 78.6796 27.5905 79.7807 27.8355C80.6401 28.025 81.5975 27.963 82.3621 27.4957C82.8848 27.1788 83.2802 26.6919 83.6135 26.1887C84.7865 26.1887 85.9628 26.1887 87.1391 26.1887C86.6457 27.5513 85.8027 28.8158 84.6134 29.6588C83.2802 30.6227 81.5779 30.9887 79.9572 30.822C78.4084 30.6685 76.9184 29.9725 75.8107 28.8779C74.7978 27.8878 74.1018 26.5808 73.8502 25.1888C73.5463 23.5224 73.8404 21.7416 74.7096 20.2811C75.3794 19.144 76.3891 18.2127 77.5817 17.6409L77.5752 17.6507ZM129.176 18.8303C130.084 17.752 131.447 17.1116 132.842 17.0005C134.475 16.8502 136.184 17.3011 137.469 18.3467C138.723 19.3498 139.527 20.8529 139.795 22.4278C140.118 24.3034 139.828 26.3259 138.795 27.9466C137.985 29.2406 136.688 30.2241 135.211 30.626C133.845 30.9919 132.332 30.9723 131.025 30.394C130.437 30.1326 129.911 29.7503 129.43 29.3222C129.43 31.2109 129.43 33.0995 129.43 34.9848H126.307C126.307 29.087 126.307 23.1891 126.307 17.2913C127.261 17.2913 128.218 17.2913 129.172 17.2913V18.8336L129.176 18.8303ZM132.299 19.9706C131.231 20.17 130.28 20.8757 129.764 21.8299C128.891 23.4146 129.123 25.5809 130.424 26.8683C131.326 27.7702 132.708 28.1361 133.943 27.8323C135.083 27.5578 136.024 26.6723 136.452 25.5908C137.116 23.9603 136.733 21.8854 135.358 20.7352C134.528 20.0229 133.361 19.7517 132.296 19.9674L132.299 19.9706ZM146.836 17.0822C148.562 16.7718 150.405 17.1279 151.875 18.0918C153.143 18.9152 154.113 20.1732 154.6 21.6044C155.093 23.0454 155.149 24.6497 154.662 26.1005C154.107 27.7898 152.865 29.234 151.293 30.0607C149.95 30.7763 148.369 31.0279 146.872 30.7567C145.216 30.4691 143.687 29.5379 142.654 28.2146C141.677 26.9762 141.144 25.3947 141.174 23.8165C141.19 22.2971 141.729 20.7941 142.674 19.6047C143.696 18.3009 145.199 17.3762 146.833 17.0822H146.836ZM147.199 20.0099C146.418 20.2157 145.719 20.6895 145.216 21.3201C144.079 22.7055 144.043 24.8262 145.052 26.29C145.748 27.3389 146.997 28.0054 148.264 27.9303C149.428 27.8845 150.519 27.2114 151.153 26.2443C152.123 24.8164 152.074 22.784 151.022 21.4116C150.176 20.2418 148.607 19.6178 147.199 20.0066V20.0099ZM61.0154 17.2848C62.5218 21.2907 64.0313 25.2967 65.5409 29.2994C64.7306 31.1913 63.9137 33.0831 63.1034 34.975C64.2241 34.975 65.3449 34.975 66.4656 34.975C68.9718 29.0772 71.4715 23.1793 73.9744 17.2815C72.9092 17.2815 71.8407 17.2815 70.7755 17.2815C69.5959 20.1406 68.4163 22.9996 67.24 25.862C66.2238 23.016 65.2371 20.1602 64.2209 17.3142L64.1849 17.288C63.1295 17.2717 62.0708 17.288 61.0154 17.2815V17.2848ZM97.6638 17.2782C97.6638 21.7024 97.6638 26.1234 97.6638 30.5476C98.8237 30.5476 99.9837 30.5476 101.14 30.5476C102.797 27.6558 104.45 24.7641 106.107 21.8723C106.107 24.7641 106.107 27.6558 106.107 30.5476C107.149 30.5476 108.192 30.5476 109.234 30.5476C109.234 26.1234 109.234 21.7024 109.234 17.2782C108.074 17.2782 106.914 17.2782 105.757 17.2782C104.101 20.1634 102.457 23.0584 100.794 25.9404C100.784 23.0519 100.794 20.1667 100.791 17.2782C99.7484 17.2782 98.7061 17.2782 97.6638 17.2782ZM116.625 17.3011C117.462 17.2652 118.298 17.2946 119.138 17.2848C120.468 20.6601 121.794 24.0354 123.124 27.4108C123.719 27.4108 124.314 27.4108 124.908 27.4108V33.423C123.863 33.4164 122.817 33.4393 121.771 33.4099C121.791 32.4558 121.771 31.5017 121.781 30.5476C119.193 30.5476 116.606 30.5476 114.018 30.5476C114.018 31.5049 114.018 32.4656 114.018 33.423C112.969 33.4197 111.917 33.4295 110.868 33.4164C110.874 31.4134 110.868 29.4105 110.871 27.4075H112.652C113.975 24.0354 115.318 20.6732 116.625 17.2978V17.3011ZM115.945 27.4108C117.233 27.4108 118.52 27.4108 119.808 27.4108C119.17 25.5319 118.53 23.6531 117.89 21.7776C117.239 23.6564 116.596 25.5352 115.945 27.4108ZM39.3127 33.0962C40.5478 32.031 41.6751 30.8024 42.4103 29.3353C40.6458 34.8966 36.5353 39.6639 31.304 42.2518C28.2979 43.7548 24.9357 44.539 21.5767 44.539C21.2368 44.5292 20.8741 44.5488 20.567 44.3854C20.4167 44.307 20.4167 44.111 20.4984 43.9835C21.0016 43.3268 21.7498 42.9314 22.4393 42.4968C25.8342 40.5167 29.4481 38.9614 32.9606 37.2133C35.2022 36.05 37.3881 34.743 39.3127 33.0995V33.0962Z" fill="#2866A3"/>
<path fill-rule="evenodd" clip-rule="evenodd" d="M22.4193 0.983124C24.0432 0.868762 25.6704 1.10729 27.2552 1.43731C28.902 1.81307 30.5521 2.29339 32.0094 3.16909C32.725 3.67228 33.4994 4.23429 33.7935 5.09691C34.0385 5.76675 33.7673 6.49214 33.3654 7.03781C32.6564 7.99846 31.6402 8.6683 30.6534 9.31199C28.8595 8.48205 27.082 7.61289 25.3698 6.62937C24.1674 5.93013 22.978 5.1884 21.9161 4.28657C21.3345 3.78011 20.7561 3.21483 20.4751 2.47964C21.1646 2.04506 21.9194 1.64316 22.4225 0.983124H22.4193ZM3.40894 12.0698C2.22283 13.1088 1.1707 14.3243 0.461648 15.7392C0.125095 16.8403 -0.227796 18.0689 0.216585 19.1929C0.765526 20.6045 1.97777 21.6011 3.15407 22.4898L3.21615 22.4474C5.92492 20.5751 8.93102 19.1962 11.911 17.814C15.0576 16.3665 18.2728 15.0726 21.4586 13.7133C18.5898 12.4847 15.698 11.2823 12.9795 9.74004C11.9502 9.15842 10.9732 8.48532 10.0812 7.70111C7.72858 8.9395 5.40865 10.2955 3.40894 12.0632V12.0698ZM32.7446 26.3422C35.1462 25.1986 37.5511 24.0223 39.7305 22.4898C40.6748 23.1335 41.5571 23.9047 42.2106 24.849C42.7366 25.6103 43.0307 26.5644 42.8673 27.4891C42.7595 28.1132 42.6419 28.7471 42.4131 29.3385C41.678 30.8056 40.5507 32.0342 39.3155 33.0994C37.391 34.743 35.205 36.05 32.9635 37.2132C32.9243 37.2296 32.8492 37.2557 32.8099 37.272C31.5814 36.1153 30.0947 35.2854 28.6112 34.5045C26.288 33.2987 23.8701 32.2891 21.4684 31.2533L21.5795 31.1977C25.3143 29.6097 29.0817 28.0903 32.7446 26.339V26.3422ZM9.54531 37.9386C9.13034 38.4941 8.88528 39.2391 9.13687 39.9154C9.46689 40.8042 10.2838 41.3728 11.0386 41.8792C12.6756 42.817 14.5217 43.3104 16.3613 43.6731C17.7271 43.9149 19.1191 44.0913 20.5045 43.9835C21.0077 43.3267 21.756 42.9314 22.4454 42.4968C22.2004 41.8237 21.6906 41.2976 21.1711 40.8271C20.3019 40.0559 19.3282 39.4123 18.3414 38.8045C16.3907 37.6217 14.3387 36.612 12.2671 35.6514C11.2771 36.2983 10.2609 36.9714 9.54858 37.9353L9.54531 37.9386Z" fill="#DD862E"/>
</svg>
