<svg width="139" height="45" viewBox="0 0 139 45" fill="none" xmlns="http://www.w3.org/2000/svg">
<path fill-rule="evenodd" clip-rule="evenodd" d="M65.1922 16.1227C64.7677 15.734 64.2571 15.4474 63.6588 15.261C63.0623 15.073 62.412 14.9798 61.7062 14.9798H56.9375V29.9988H60.0671V24.5208H61.88C62.6001 24.5208 63.2468 24.4061 63.8236 24.175C64.3987 23.9439 64.8859 23.6215 65.2908 23.2041C65.692 22.7867 66.002 22.2833 66.2187 21.6939C66.4337 21.1046 66.5412 20.4507 66.5412 19.7306C66.5412 18.9083 66.4229 18.2007 66.1865 17.6042C65.95 17.0077 65.6168 16.5132 65.194 16.1263L65.1922 16.1227ZM62.9494 21.1726C62.5965 21.4611 62.1899 21.6026 61.7295 21.6026H60.0671V17.8693H61.7062C62.2526 17.8693 62.6861 18.009 63.0014 18.2903C63.3184 18.5715 63.4761 19.0355 63.4761 19.684C63.4761 20.388 63.2987 20.8842 62.9476 21.1726H62.9494ZM77.3092 16.3932C76.9223 15.94 76.4243 15.5727 75.8188 15.2933C75.2151 15.012 74.5021 14.8723 73.6834 14.8723C72.8039 14.8723 72.0587 15.0192 71.4478 15.3148C70.8369 15.6104 70.3371 15.9866 69.9484 16.4487C69.5597 16.9091 69.2802 17.4251 69.1064 17.9911C68.9345 18.559 68.8467 19.1233 68.8467 19.6858V25.0367C68.8467 25.7138 68.9363 26.3605 69.1172 26.9803C69.2963 27.6002 69.5812 28.1412 69.9717 28.6087C70.3604 29.0781 70.8584 29.4471 71.4711 29.7212C72.0819 29.9953 72.82 30.1332 73.6852 30.1332C74.3893 30.1332 75.0342 30.0185 75.6146 29.7982C76.1986 29.5743 76.7002 29.25 77.1247 28.8273C77.5493 28.4027 77.8807 27.8922 78.1189 27.2938C78.3554 26.6991 78.4754 26.0255 78.4754 25.2785V19.6894C78.4754 19.1 78.3769 18.516 78.1834 17.941C77.9882 17.3659 77.698 16.8518 77.3092 16.3986V16.3932ZM75.3226 25.4881C75.3226 25.9915 75.1613 26.3874 74.8371 26.6758C74.5129 26.9642 74.1277 27.1057 73.6834 27.1057C73.0636 27.1057 72.6212 26.9194 72.3542 26.545C72.0891 26.1724 71.9548 25.6941 71.9548 25.1209V19.5514C71.9548 19.3795 71.987 19.1932 72.0515 19.0015C72.1178 18.8062 72.2181 18.6253 72.3542 18.4623C72.4922 18.2975 72.6677 18.1613 72.8827 18.052C73.0977 17.9446 73.3646 17.889 73.6834 17.889C74.0023 17.889 74.2603 17.9517 74.4699 18.0735C74.6777 18.1954 74.8479 18.344 74.9768 18.5142C75.1058 18.688 75.1954 18.8689 75.2473 19.0552C75.2975 19.2433 75.3226 19.4099 75.3226 19.5514V25.4863V25.4881ZM106.179 29.9971H114.92V27.043H109.311V23.849H114.144V20.9774H109.311V17.8711H114.92V14.978H106.179V29.9953V29.9971ZM136.174 14.9798L131.879 23.6967H131.836V14.9798H128.728V29.9971H131.662L135.848 21.8211H135.87V29.9971H138.999V14.978H136.173L136.174 14.9798ZM116.646 17.8281H119.86V29.9988H122.968V17.8263H126.184V14.978H116.646V17.8263V17.8281ZM84.7095 19.0051C84.7668 18.8098 84.86 18.6289 84.9907 18.4659C85.1197 18.301 85.2935 18.1649 85.5084 18.0556C85.7234 17.9481 85.9903 17.8944 86.3056 17.8944C86.6209 17.8944 86.8663 17.9517 87.0831 18.0682C87.298 18.1828 87.479 18.3207 87.6223 18.4784C87.7656 18.636 87.8695 18.8116 87.9358 19.0069C87.9985 19.1985 88.0468 19.3705 88.0755 19.5138L91.0295 18.6289C90.9292 18.1398 90.7572 17.6669 90.5118 17.2155C90.2664 16.7622 89.9493 16.3628 89.5624 16.017C89.1736 15.6713 88.7061 15.3972 88.1615 15.1876C87.6133 14.978 86.9971 14.8759 86.3056 14.8759C85.4278 14.8759 84.6844 15.0228 84.0717 15.3184C83.4609 15.614 82.9629 15.9901 82.5831 16.4523C82.2015 16.9127 81.9256 17.4268 81.7519 17.9947C81.5799 18.5626 81.4939 19.1287 81.4939 19.6894V25.0403C81.4939 25.7174 81.5835 26.3659 81.7644 26.9839C81.9436 27.602 82.2248 28.1448 82.6046 28.6123C82.9862 29.0816 83.4824 29.4507 84.0932 29.7248C84.7041 29.9971 85.4422 30.135 86.3056 30.135C87.5291 30.135 88.5646 29.8036 89.4119 29.1426C90.261 28.4815 90.793 27.5679 91.0098 26.4017L88.0307 25.5383C87.9734 26.0291 87.7781 26.4125 87.4485 26.6919C87.1189 26.9732 86.7355 27.1129 86.3038 27.1129C85.6858 27.1129 85.2487 26.9266 84.9997 26.5522C84.7471 26.1778 84.6217 25.7013 84.6217 25.128V19.5604C84.6217 19.3884 84.6504 19.2021 84.7077 19.0104L84.7095 19.0051ZM96.8802 19.0051C96.9375 18.8098 97.0307 18.6289 97.1615 18.4659C97.2904 18.301 97.4642 18.1649 97.6792 18.0556C97.8941 17.9481 98.1611 17.8944 98.4763 17.8944C98.7916 17.8944 99.037 17.9517 99.2538 18.0682C99.4688 18.1828 99.6479 18.3207 99.793 18.4784C99.9363 18.636 100.042 18.8116 100.107 19.0069C100.169 19.1985 100.218 19.3705 100.246 19.5138L103.2 18.6289C103.1 18.1398 102.928 17.6669 102.683 17.2155C102.437 16.7622 102.12 16.3628 101.733 16.017C101.344 15.6713 100.877 15.3972 100.33 15.1876C99.7823 14.978 99.166 14.8759 98.4745 14.8759C97.5968 14.8759 96.8533 15.0228 96.2407 15.3184C95.6298 15.614 95.1318 15.9901 94.752 16.4523C94.3705 16.9127 94.0946 17.4268 93.9208 17.9947C93.7489 18.5626 93.6629 19.1287 93.6629 19.6894V25.0403C93.6629 25.7174 93.7524 26.3659 93.9334 26.9839C94.1125 27.602 94.3938 28.1448 94.7735 28.6123C95.1551 29.0816 95.6513 29.4507 96.264 29.7248C96.8748 29.9971 97.6129 30.135 98.4745 30.135C99.6981 30.135 100.733 29.8036 101.581 29.1426C102.43 28.4815 102.962 27.5679 103.177 26.4017L100.2 25.5383C100.142 26.0291 99.9489 26.4125 99.6175 26.6919C99.286 26.9732 98.9045 27.1129 98.4728 27.1129C97.8547 27.1129 97.4176 26.9266 97.1686 26.5522C96.916 26.1778 96.7906 25.7013 96.7906 25.128V19.5604C96.7906 19.3884 96.8193 19.2021 96.8766 19.0104L96.8802 19.0051Z" fill="#0068AC"/>
<path fill-rule="evenodd" clip-rule="evenodd" d="M5.70233 7.58676L24.6983 9.86363C24.8702 9.2653 25.2214 8.74938 25.6907 8.36602L21.0205 0.197266C14.9423 0.55017 9.518 3.3322 5.70233 7.58676ZM44.6526 22.5359V22.4804C44.6526 17.6902 43.1407 13.2565 40.5718 9.62179L30.5973 10.8274C30.574 11.4078 30.3877 11.9434 30.0832 12.3931L44.3839 25.9503C44.5577 24.8361 44.6508 23.6968 44.6526 22.5359ZM26.8945 7.77128L23.7488 0.204431C29.7464 0.580624 35.1027 3.32325 38.8915 7.51511L30.3698 9.53759C29.9238 8.46813 28.883 7.705 27.6505 7.67992C27.3889 7.67454 27.1364 7.71395 26.8945 7.77128ZM0.00390625 22.4804C0.00390625 23.7362 0.113181 24.9651 0.313817 26.1635L24.7717 11.7858C24.6804 11.5475 24.6284 11.2932 24.6015 11.0298L3.86078 9.94066C1.42627 13.5127 0.00390625 17.83 0.00390625 22.4804ZM0.930057 28.8434L25.3718 12.7442C25.508 12.8929 25.6585 13.029 25.8233 13.149L11.4778 41.9869C6.43859 39.178 2.60322 34.4774 0.930057 28.8434ZM28.539 13.5521C28.7952 13.4679 29.037 13.3568 29.2574 13.2099L43.7408 28.7915C42.0676 34.472 38.2018 39.212 33.116 42.0245L28.5408 13.5521H28.539ZM13.8335 43.1244L26.8336 13.6184C27.0253 13.6685 27.2223 13.6972 27.4266 13.708L30.6582 43.1907C28.084 44.2279 25.2751 44.803 22.33 44.803C19.385 44.803 16.4543 44.2046 13.8335 43.1244Z" fill="url(#paint0_radial_1282_12238)"/>
<defs>
<radialGradient id="paint0_radial_1282_12238" cx="0" cy="0" r="1" gradientUnits="userSpaceOnUse" gradientTransform="translate(25.6997 11.286) scale(33.2089 33.2089)">
<stop stop-color="#4087C7"/>
<stop offset="1" stop-color="#006BB1"/>
</radialGradient>
</defs>
</svg>
