<svg width="174" height="51" viewBox="0 0 174 51" fill="none" xmlns="http://www.w3.org/2000/svg">
<g clip-path="url(#clip0_636_2805)">
<path fill-rule="evenodd" clip-rule="evenodd" d="M171.76 25.7449H170.786V19.0765H168.546V18.168H174V19.0765H171.76V25.7449ZM162.753 22.0426H163.924C164.531 22.0426 164.991 21.9205 165.303 21.6727C165.615 21.4286 165.773 21.0515 165.773 20.5488C165.773 20.046 165.615 19.6546 165.303 19.4212C164.991 19.1914 164.531 19.0729 163.924 19.0729H162.753V22.039V22.0426ZM162.753 25.7449H161.78V18.168H164.01C164.445 18.168 164.833 18.2111 165.174 18.3044C165.515 18.3942 165.809 18.5378 166.054 18.7317C166.298 18.9257 166.488 19.1734 166.617 19.4679C166.747 19.7623 166.811 20.1179 166.811 20.5308C166.811 21.3172 166.556 21.9169 166.05 22.3335C165.54 22.75 164.833 22.9547 163.924 22.9547H162.753V25.7485V25.7449ZM155.737 24.9441C156.451 24.9441 157.012 24.6927 157.421 24.19C157.83 23.6873 158.035 22.9439 158.035 21.9528C158.035 21.4321 157.977 20.9869 157.866 20.6098C157.755 20.2364 157.593 19.9239 157.385 19.6798C157.177 19.4356 156.922 19.2524 156.62 19.1375C156.322 19.0226 155.984 18.9652 155.607 18.9652C155.277 18.9652 154.965 19.0262 154.677 19.1483C154.39 19.2704 154.139 19.4535 153.93 19.7013C153.722 19.9455 153.557 20.2579 153.431 20.6314C153.309 21.0048 153.248 21.4465 153.248 21.9528C153.248 22.4592 153.309 22.8865 153.428 23.2635C153.546 23.637 153.715 23.9494 153.93 24.2008C154.146 24.4485 154.408 24.6353 154.713 24.7574C155.019 24.8795 155.36 24.9405 155.737 24.9405V24.9441ZM155.64 25.8526C155.112 25.8526 154.638 25.7628 154.218 25.5833C153.794 25.4037 153.435 25.1452 153.133 24.8076C152.835 24.4737 152.605 24.0607 152.447 23.5795C152.289 23.0948 152.21 22.5561 152.21 21.9564C152.21 21.3567 152.293 20.8073 152.458 20.3261C152.623 19.8449 152.857 19.4392 153.155 19.1016C153.453 18.7641 153.812 18.5055 154.232 18.326C154.652 18.1464 155.108 18.0566 155.607 18.0566C156.171 18.0566 156.667 18.1536 157.098 18.3439C157.525 18.5342 157.888 18.8036 158.179 19.1447C158.469 19.4894 158.692 19.8988 158.846 20.38C158.997 20.8612 159.073 21.3855 159.073 21.9564C159.073 22.5992 158.987 23.163 158.811 23.6514C158.638 24.1397 158.398 24.5455 158.096 24.8687C157.794 25.1919 157.432 25.4397 157.015 25.6048C156.595 25.77 156.139 25.8526 155.64 25.8526ZM149.503 25.7449H148.53V19.0765H144.946V25.7449H143.973V18.168H149.506V25.7449H149.503ZM141.251 25.5402C141.043 25.6407 140.798 25.7198 140.515 25.7736C140.231 25.8275 139.926 25.8562 139.595 25.8562C139.003 25.8562 138.475 25.7664 138.008 25.5905C137.541 25.4145 137.146 25.1596 136.823 24.8256C136.5 24.4952 136.249 24.093 136.076 23.6298C135.904 23.163 135.818 22.6387 135.818 22.0534C135.818 21.4106 135.904 20.8396 136.076 20.3405C136.249 19.8449 136.5 19.4248 136.823 19.0837C137.15 18.7425 137.538 18.4876 137.997 18.3152C138.453 18.1428 138.967 18.0566 139.531 18.0566C139.965 18.0566 140.317 18.0854 140.586 18.15C140.856 18.2111 141.082 18.2793 141.262 18.3511L141.078 19.2057C140.841 19.1196 140.597 19.0585 140.353 19.0226C140.109 18.9867 139.865 18.9687 139.628 18.9687C138.726 18.9687 138.037 19.2201 137.566 19.7264C137.092 20.2292 136.855 20.9725 136.855 21.9564C136.855 22.4268 136.924 22.847 137.057 23.2169C137.189 23.5867 137.38 23.9027 137.624 24.1577C137.868 24.4126 138.17 24.6101 138.522 24.743C138.874 24.8759 139.276 24.9441 139.725 24.9441C139.962 24.9441 140.202 24.9226 140.443 24.8795C140.683 24.8364 140.899 24.7681 141.086 24.6748L141.247 25.5402H141.251ZM132.697 25.7449C132.367 25.2601 132.09 24.8436 131.871 24.4881C131.652 24.1361 131.465 23.8309 131.315 23.5724C131.164 23.3174 131.038 23.1055 130.938 22.9439C130.837 22.7823 130.74 22.6567 130.65 22.5669C130.56 22.4771 130.464 22.4125 130.359 22.3766C130.255 22.3407 130.126 22.3227 129.975 22.3227H129.261V25.7449H128.284V18.168H129.261V21.6117H129.9L132.571 18.168H133.817L130.905 21.6548C131.114 21.6907 131.297 21.7948 131.458 21.9636C131.616 22.1324 131.796 22.3837 132 22.7105C132.202 23.0373 132.453 23.4539 132.751 23.9566C133.049 24.4593 133.444 25.0554 133.936 25.7485H132.701L132.697 25.7449ZM121.339 21.3711H124.513C124.492 20.9617 124.413 20.6062 124.28 20.3046C124.147 20.0065 123.964 19.7552 123.734 19.5577C123.504 19.3602 123.231 19.2093 122.915 19.1124C122.603 19.0154 122.255 18.9652 121.881 18.9652C121.666 18.9652 121.407 18.9831 121.113 19.019C120.818 19.0549 120.538 19.1267 120.269 19.2345L120.086 18.4445C120.272 18.3439 120.545 18.2541 120.904 18.1751C121.263 18.0961 121.637 18.0566 122.025 18.0566C122.567 18.0566 123.055 18.1285 123.497 18.2793C123.935 18.4265 124.312 18.6563 124.617 18.9687C124.923 19.2776 125.16 19.6726 125.328 20.1538C125.494 20.635 125.576 21.2023 125.576 21.8595C125.576 22.4807 125.497 23.0373 125.339 23.5329C125.181 24.0284 124.941 24.445 124.617 24.7897C124.298 25.1344 123.899 25.3966 123.422 25.5797C122.944 25.7628 122.391 25.8562 121.755 25.8562C121.357 25.8562 121.03 25.8275 120.772 25.77C120.509 25.7126 120.29 25.6551 120.111 25.5977L120.294 24.743C120.524 24.822 120.775 24.8759 121.041 24.9046C121.307 24.9333 121.547 24.9477 121.755 24.9477C122.585 24.9477 123.249 24.7286 123.748 24.287C124.248 23.8489 124.506 23.1738 124.528 22.2617H121.342V21.3747L121.339 21.3711ZM113.999 24.8364H115.202C115.794 24.8364 116.24 24.7179 116.538 24.4773C116.836 24.2403 116.987 23.9099 116.987 23.4934C116.987 23.2492 116.947 23.0409 116.868 22.8721C116.789 22.7033 116.678 22.5705 116.538 22.4699C116.398 22.373 116.233 22.3012 116.046 22.2581C115.859 22.215 115.658 22.1934 115.439 22.1934H113.999V24.8364ZM113.026 25.7449V18.168H117.27V19.0765H114.003V21.2849H115.583C115.931 21.2849 116.254 21.3208 116.552 21.3926C116.85 21.4645 117.109 21.583 117.324 21.7517C117.543 21.9169 117.712 22.136 117.838 22.4125C117.963 22.689 118.028 23.0301 118.028 23.4395C118.028 23.874 117.945 24.2367 117.784 24.5276C117.622 24.8184 117.407 25.0554 117.141 25.235C116.875 25.4145 116.574 25.5438 116.236 25.6228C115.902 25.7018 115.561 25.7413 115.213 25.7413H113.026V25.7449ZM106.192 22.8326H108.803L107.535 19.2704H107.492L106.192 22.8326ZM109.115 23.7196H105.876L105.14 25.7449H104.156L107.047 18.168H108.02L110.857 25.7449H109.841L109.115 23.7196ZM101.991 25.7449H101.014V22.2581H97.1825V25.7449H96.2094V18.168H97.1825V21.3711H101.014V18.168H101.991V25.7449ZM93.491 25.5402C93.2827 25.6407 93.0385 25.7198 92.7549 25.7736C92.4748 25.8275 92.1659 25.8562 91.8356 25.8562C91.2431 25.8562 90.7152 25.7664 90.2484 25.5905C89.7815 25.4145 89.3865 25.1596 89.0634 24.8256C88.7402 24.4952 88.4924 24.093 88.3164 23.6298C88.1441 23.163 88.0579 22.6387 88.0579 22.0534C88.0579 21.4106 88.1441 20.8396 88.3164 20.3405C88.4888 19.8449 88.7402 19.4248 89.0634 19.0837C89.3901 18.7425 89.7815 18.4876 90.2376 18.3152C90.6972 18.1428 91.2072 18.0566 91.7709 18.0566C92.2054 18.0566 92.5574 18.0854 92.8267 18.15C93.0996 18.2111 93.3222 18.2793 93.5018 18.3511L93.3186 19.2057C93.0816 19.1196 92.8375 19.0585 92.5933 19.0226C92.3491 18.9867 92.1049 18.9687 91.8679 18.9687C90.9666 18.9687 90.2771 19.2201 89.8067 19.7264C89.3327 20.2292 89.0993 20.9725 89.0993 21.9564C89.0993 22.4268 89.1639 22.847 89.2968 23.2169C89.4296 23.5867 89.6199 23.9027 89.8641 24.1577C90.1083 24.4126 90.41 24.6101 90.7619 24.743C91.1138 24.8759 91.516 24.9441 91.9648 24.9441C92.2019 24.9441 92.4424 24.9226 92.6866 24.8795C92.9272 24.8364 93.1427 24.7681 93.3294 24.6748L93.491 25.5402ZM84.9373 25.7449L82.9659 22.5274L80.9837 25.7449H79.7915L82.359 21.802L80.0429 18.1644H81.2351L82.9874 21.1413L84.8152 18.1644H85.9392L83.6123 21.7805L86.1906 25.7449H84.9337H84.9373ZM77.8775 25.7449H73.6438V18.168H77.8775V19.0765H74.6205V21.3711H77.5974V22.2581H74.6205V24.8364H77.8775V25.7449ZM69.1299 25.7449H68.1568V19.0765H65.916V18.168H71.3707V19.0765H69.1299V25.7449Z" fill="#273F5E"/>
<path d="M58.7375 5.88672H58.2168V46.6872H58.7375V5.88672Z" fill="#273F5E"/>
<path fill-rule="evenodd" clip-rule="evenodd" d="M29.0579 28.952C27.1224 31.0958 23.8187 31.261 21.6821 29.3183C19.5455 27.3756 19.3803 24.0612 21.3122 21.9174C23.2477 19.7736 26.5478 19.612 28.6916 21.5547C30.8283 23.4938 30.9934 26.8082 29.0579 28.952Z" fill="#273F5E"/>
<path fill-rule="evenodd" clip-rule="evenodd" d="M13.0854 25.6159C13.0854 25.6159 15.9941 24.1364 17.6783 17.5506C19.3624 10.9648 25.643 7.90169 25.643 7.90169C25.643 7.90169 12.1661 -5.47464 1.95703 15.5073C1.95703 15.5073 10.2773 17.1412 13.0854 25.6159Z" fill="#273F5E"/>
<path fill-rule="evenodd" clip-rule="evenodd" d="M14.3102 2.74539C14.3102 2.74539 24.6989 0.702131 30.8466 13.7194C30.8466 13.7194 38.0213 16.0427 44.3235 9.37789C44.3235 9.37789 33.784 -5.04341 14.3066 2.7418L14.3102 2.74539Z" fill="#273F5E"/>
<path fill-rule="evenodd" clip-rule="evenodd" d="M31.2589 35.4768C31.2589 35.4768 28.5226 33.6956 21.9763 35.5342C15.4335 37.3728 9.63773 33.4658 9.63773 33.4658C9.63773 33.4658 4.8007 51.8264 28.0737 50.171C28.0737 50.171 25.323 42.1488 31.2589 35.4803V35.4768Z" fill="#273F5E"/>
<path fill-rule="evenodd" clip-rule="evenodd" d="M10.8421 45.8583C10.8421 45.8583 3.87561 37.8827 12.0702 26.0469C12.0702 26.0469 10.4938 18.6747 1.57021 16.5488C1.57021 16.5488 -5.64043 32.8913 10.8421 45.8618V45.8583Z" fill="#273F5E"/>
<path fill-rule="evenodd" clip-rule="evenodd" d="M30.7419 14.8891C30.7419 14.8891 30.5695 18.1496 35.4317 22.9005C40.2938 27.6477 39.8126 34.6178 39.8126 34.6178C39.8126 34.6178 58.1301 29.6264 45.0554 10.2998C45.0554 10.2998 39.4823 16.6917 30.7383 14.8891H30.7419Z" fill="#273F5E"/>
<path fill-rule="evenodd" clip-rule="evenodd" d="M49.9441 27.375C49.9441 27.375 46.5219 37.3938 32.1724 36.2195C32.1724 36.2195 26.5777 41.272 29.1991 50.0627C29.1991 50.0627 46.96 48.1343 49.9441 27.375Z" fill="#273F5E"/>
<path fill-rule="evenodd" clip-rule="evenodd" d="M67.2184 35.423H68.1664C68.6548 35.423 69.021 35.3224 69.276 35.1285C69.531 34.9238 69.6638 34.6294 69.6638 34.2128C69.6638 33.7963 69.531 33.5018 69.276 33.3079C69.021 33.1247 68.6548 33.035 68.1664 33.035H67.2184V35.4266V35.423ZM67.2184 38.4142H66.4355V32.2988H68.2346C68.5794 32.2988 68.8954 32.3311 69.1719 32.3994C69.4484 32.482 69.6818 32.5933 69.8829 32.7441C70.0768 32.9057 70.2276 33.0996 70.3425 33.3438C70.4431 33.5772 70.4933 33.8609 70.4933 34.1984C70.4933 34.8305 70.2887 35.3188 69.8721 35.6528C69.4663 35.9903 68.8954 36.1519 68.1628 36.1519H67.2148V38.4106L67.2184 38.4142Z" fill="#273F5E"/>
<path fill-rule="evenodd" clip-rule="evenodd" d="M75.0019 37.7681C75.5801 37.7681 76.0289 37.5634 76.3629 37.1576C76.6897 36.7626 76.8513 36.1486 76.8513 35.355C76.8513 34.9384 76.8118 34.5721 76.7184 34.2669C76.625 33.9725 76.4958 33.7175 76.3306 33.5236C76.1582 33.3189 75.9535 33.1789 75.7094 33.0855C75.4652 32.9921 75.1887 32.9419 74.8978 32.9419C74.6213 32.9419 74.3771 32.9921 74.1437 33.0927C73.9103 33.186 73.7056 33.3369 73.5404 33.5308C73.368 33.7319 73.2352 33.9868 73.1346 34.2849C73.0341 34.5901 72.991 34.9456 72.991 35.3514C72.991 35.7572 73.0305 36.1055 73.1346 36.4107C73.228 36.716 73.3573 36.9601 73.5404 37.1648C73.7128 37.3695 73.9282 37.5203 74.1724 37.6137C74.4166 37.7142 74.6895 37.7645 74.9947 37.7645L75.0019 37.7681ZM74.9193 38.5007C74.5028 38.5007 74.115 38.4288 73.781 38.2852C73.4363 38.1308 73.1418 37.9297 72.8976 37.6532C72.6642 37.3875 72.4811 37.0535 72.3482 36.6657C72.2153 36.2779 72.1543 35.8434 72.1543 35.355C72.1543 34.8666 72.2261 34.4285 72.359 34.0443C72.4918 33.6565 72.675 33.3225 72.9192 33.0568C73.1634 32.7839 73.447 32.5792 73.7954 32.4248C74.1329 32.2811 74.4956 32.2129 74.905 32.2129C75.3503 32.2129 75.7596 32.2847 76.1044 32.4463C76.4491 32.5971 76.7435 32.8126 76.9805 33.0855C77.214 33.362 77.3863 33.696 77.5084 34.0838C77.6305 34.4716 77.7023 34.8989 77.7023 35.355C77.7023 35.8721 77.6305 36.3317 77.4905 36.7195C77.3468 37.1146 77.1529 37.4413 76.9087 37.7071C76.6645 37.9728 76.3809 38.1667 76.0325 38.296C75.695 38.4288 75.3287 38.5007 74.9229 38.5007H74.9193Z" fill="#273F5E"/>
<path fill-rule="evenodd" clip-rule="evenodd" d="M83.9103 38.2457C83.7379 38.3283 83.544 38.3893 83.3214 38.4288C83.0879 38.4791 82.8438 38.5007 82.578 38.5007C82.1004 38.5007 81.6731 38.4288 81.296 38.2852C80.919 38.1416 80.603 37.9405 80.3409 37.664C80.0751 37.3982 79.874 37.0751 79.7304 36.698C79.6011 36.3209 79.5293 35.9044 79.5293 35.4268C79.5293 34.9205 79.6011 34.4501 79.7304 34.0551C79.874 33.6457 80.0751 33.3117 80.3409 33.0388C80.6066 32.7623 80.9226 32.5612 81.2853 32.4176C81.6516 32.2847 82.0681 32.2129 82.517 32.2129C82.8725 32.2129 83.1562 32.2344 83.3716 32.2847C83.5943 32.335 83.7774 32.3853 83.921 32.4463L83.7702 33.1394C83.5763 33.0675 83.3824 33.0173 83.1885 32.9849C82.9838 32.9526 82.7935 32.9454 82.5996 32.9454C81.8778 32.9454 81.3176 33.1501 80.9405 33.5559C80.5563 33.9617 80.3624 34.5614 80.3624 35.355C80.3624 35.732 80.4234 36.066 80.524 36.3712C80.6353 36.6657 80.7897 36.9206 80.98 37.1325C81.1847 37.3372 81.4253 37.488 81.7126 37.5993C81.9963 37.6999 82.3123 37.7609 82.6786 37.7609C82.8725 37.7609 83.0664 37.7394 83.2567 37.7107C83.4506 37.6712 83.623 37.6173 83.7738 37.5383L83.9067 38.2385L83.9103 38.2457Z" fill="#273F5E"/>
<path fill-rule="evenodd" clip-rule="evenodd" d="M87.0457 36.0618H89.15L88.123 33.1927H88.0907L87.0457 36.0618ZM89.4049 36.7729H86.7907L86.2018 38.4103H85.4082L87.7387 32.2949H88.5216L90.809 38.4103H89.9831L89.4049 36.7729Z" fill="#273F5E"/>
<path fill-rule="evenodd" clip-rule="evenodd" d="M94.0145 38.4106H93.2317V33.0314H91.4219V32.2988H95.8244V33.0314H94.0145V38.4106Z" fill="#273F5E"/>
<path fill-rule="evenodd" clip-rule="evenodd" d="M99.9824 37.7681C100.561 37.7681 101.009 37.5634 101.343 37.1576C101.67 36.7626 101.832 36.1486 101.832 35.355C101.832 34.9384 101.792 34.5721 101.699 34.2669C101.606 33.9725 101.476 33.7175 101.311 33.5236C101.139 33.3189 100.934 33.1789 100.69 33.0855C100.446 32.9921 100.183 32.9419 99.8747 32.9419C99.5982 32.9419 99.3576 32.9921 99.1242 33.0927C98.8907 33.186 98.6861 33.3369 98.5209 33.5308C98.3485 33.7319 98.2156 33.9868 98.1151 34.2849C98.0146 34.5901 97.9715 34.9456 97.9715 35.3514C97.9715 35.7572 98.011 36.1055 98.1151 36.4107C98.2085 36.716 98.3485 36.9601 98.5209 37.1648C98.6932 37.3695 98.9087 37.5203 99.1529 37.6137C99.3971 37.7142 99.67 37.7645 99.9752 37.7645L99.9824 37.7681ZM99.8998 38.5007C99.4833 38.5007 99.0954 38.4288 98.7615 38.2852C98.4167 38.1308 98.1223 37.9297 97.8781 37.6532C97.6447 37.3875 97.4615 37.0535 97.3287 36.6657C97.1958 36.2779 97.1348 35.8434 97.1348 35.355C97.1348 34.8666 97.2066 34.4285 97.3395 34.0443C97.4723 33.6565 97.6555 33.3225 97.8996 33.0568C98.1438 32.7839 98.4275 32.5792 98.7758 32.4248C99.1098 32.2811 99.4761 32.2129 99.8854 32.2129C100.334 32.2129 100.74 32.2847 101.085 32.4463C101.43 32.5971 101.724 32.8126 101.961 33.0855C102.194 33.362 102.367 33.696 102.489 34.0838C102.622 34.4716 102.683 34.8989 102.683 35.355C102.683 35.8721 102.611 36.3317 102.471 36.7195C102.327 37.1146 102.133 37.4413 101.889 37.7071C101.645 37.9728 101.361 38.1667 101.013 38.296C100.675 38.4288 100.309 38.5007 99.9034 38.5007H99.8998Z" fill="#273F5E"/>
<path fill-rule="evenodd" clip-rule="evenodd" d="M110.745 38.4106H109.962L109.585 33.6311L108.038 38.4106H107.215L105.678 33.6526L105.291 38.4106H104.508L105.025 32.2988H105.994L107.643 37.556L109.259 32.2988H110.214L110.745 38.4106Z" fill="#273F5E"/>
</g>
<defs>
<clipPath id="clip0_636_2805">
<rect width="174" height="49.8354" fill="white" transform="translate(0 0.439453)"/>
</clipPath>
</defs>
</svg>
