<svg width="153" height="57" viewBox="0 0 153 57" fill="none" xmlns="http://www.w3.org/2000/svg">
<g clip-path="url(#clip0_636_2823)">
<path fill-rule="evenodd" clip-rule="evenodd" d="M2.7818 56.2825C2.8152 56.2962 2.8486 56.3114 2.88351 56.3235C2.91083 56.3342 2.94878 56.3433 2.99433 56.3539C3.38901 56.4769 3.80798 56.5467 4.24365 56.5497H26.2684L11.8231 42.0664L11.8155 42.074C9.14377 44.729 7.37833 46.4823 6.0774 47.7802C4.92219 48.9324 4.13283 49.7232 3.40115 50.4655C2.47972 51.3839 1.86645 51.9972 1.86341 52.0002H1.86037V52.0033C1.41104 52.4784 1.13477 53.1661 1.13477 53.8735C1.13477 54.9816 1.81483 55.8879 2.77877 56.2841L2.7818 56.2825Z" fill="#FF4F12"/>
<path fill-rule="evenodd" clip-rule="evenodd" d="M1.13648 53.8722C1.13648 53.1663 1.41276 52.4786 1.86209 52.002L1.86513 51.9989C1.86816 51.9959 2.48144 51.3841 3.40287 50.4642C4.13455 49.7219 4.92391 48.931 6.07912 47.7789C7.38005 46.4825 9.14549 44.7277 11.8172 42.0727L11.8248 42.0651C12.6111 41.2833 13.4749 40.4256 14.4282 39.4769C14.4449 39.4602 14.4631 39.442 14.4798 39.4253C18.8046 35.1263 24.9601 29.0011 33.9862 20.0069L14.1504 0.165039L2.92166 11.4074C-0.434654 14.7637 0.020748 16.9603 0.020748 21.4672V52.3116C0.020748 54.1348 1.16836 55.6816 2.782 56.2812C1.81807 55.885 1.138 54.9788 1.138 53.8706L1.13648 53.8722Z" fill="#7700FF"/>
<path fill-rule="evenodd" clip-rule="evenodd" d="M126.539 36.2334H123.236L119.287 40.2242V36.2334H116.494V47.2314H119.287V42.6849L123.302 47.2314H126.672L121.484 41.3324L126.539 36.2334Z" fill="#0E0E0E"/>
<path fill-rule="evenodd" clip-rule="evenodd" d="M37.8733 39.2039H33.8369V34.3251H37.8733C39.9135 34.3251 40.844 35.3011 40.844 36.7645C40.844 38.2279 39.9119 39.2039 37.8733 39.2039ZM37.9613 31.708H30.9102V47.2312H33.8369V41.821H37.9613C41.4649 41.821 43.7707 40.0252 43.7707 36.7645C43.7707 33.5038 41.4649 31.7095 37.9613 31.7095V31.708Z" fill="#0E0E0E"/>
<path fill-rule="evenodd" clip-rule="evenodd" d="M50.3809 44.9252C48.7399 44.9252 47.2098 43.7502 47.2098 41.7313C47.2098 39.7123 48.7399 38.5374 50.3809 38.5374C52.0219 38.5374 53.552 39.7123 53.552 41.7313C53.552 43.7502 52.0219 44.9252 50.3809 44.9252ZM50.3809 35.9219C47.3646 35.9219 44.3711 37.874 44.3711 41.7313C44.3711 45.5885 47.3646 47.5407 50.3809 47.5407C53.3972 47.5407 56.3907 45.5901 56.3907 41.7313C56.3907 37.8725 53.3972 35.9219 50.3809 35.9219Z" fill="#0E0E0E"/>
<path fill-rule="evenodd" clip-rule="evenodd" d="M63.5232 44.9257C61.8382 44.9257 60.5965 43.7052 60.5965 41.7318C60.5965 39.7584 61.8822 38.5379 63.5232 38.5379C64.5205 38.5379 65.3858 39.004 66.0735 40.0453L68.4689 38.67C67.6704 36.9623 65.9414 35.9209 63.546 35.9209C60.4189 35.9209 57.7578 38.2268 57.7578 41.7303C57.7578 45.2339 60.2853 47.5397 63.546 47.5397C65.8959 47.5397 67.4715 46.4756 68.5797 44.5902L66.2738 43.3257C65.6089 44.2578 64.8985 44.9227 63.5247 44.9227L63.5232 44.9257Z" fill="#0E0E0E"/>
<path fill-rule="evenodd" clip-rule="evenodd" d="M93.2743 42.4648C93.1407 44.1498 92.8082 44.5263 92.2314 44.5263C91.8367 44.5263 91.6515 44.4823 91.3828 44.4124L91.3965 47.2587C91.3965 47.2587 91.7441 47.3649 92.3862 47.3649C94.7589 47.3649 95.6454 45.8348 95.8685 42.5756L96.1342 38.7396H99.2825V47.2101H102.077V36.2334H93.7388L93.2727 42.4648H93.2743Z" fill="#0E0E0E"/>
<path fill-rule="evenodd" clip-rule="evenodd" d="M82.2884 40.2685C82.6876 39.0267 83.7958 38.0507 85.2592 38.0507C86.8121 38.0507 87.8534 38.8932 88.1191 40.2685H82.2869H82.2884ZM85.3487 35.9224C82.1548 35.9224 79.5605 38.251 79.5605 41.7318C79.5605 45.2126 82.1548 47.5412 85.2151 47.5412C87.6318 47.5412 89.1619 46.632 90.2716 44.7466L88.0538 43.6385C87.3661 44.5037 86.7453 45.1458 85.2592 45.1458C83.6182 45.1458 82.4205 44.0817 82.2429 42.3967H90.7134V41.4206C90.7134 38.2055 88.4955 35.9209 85.3472 35.9209L85.3487 35.9224Z" fill="#0E0E0E"/>
<path fill-rule="evenodd" clip-rule="evenodd" d="M106.368 40.2685C106.768 39.0267 107.876 38.0507 109.339 38.0507C110.891 38.0507 111.934 38.8932 112.201 40.2685H106.368ZM109.429 35.9224C106.235 35.9224 103.641 38.251 103.641 41.7318C103.641 45.2126 106.235 47.5412 109.295 47.5412C111.712 47.5412 113.242 46.632 114.352 44.7466L112.134 43.6385C111.446 44.5037 110.825 45.1458 109.339 45.1458C107.698 45.1458 106.501 44.0817 106.323 42.3967H114.793V41.4206C114.793 38.2055 112.576 35.9209 109.427 35.9209L109.429 35.9224Z" fill="#0E0E0E"/>
<path fill-rule="evenodd" clip-rule="evenodd" d="M69.4492 38.6713H72.7312V47.2314H75.5243V38.6713H78.8062V36.2334H69.4492V38.6713Z" fill="#0E0E0E"/>
<path fill-rule="evenodd" clip-rule="evenodd" d="M132.221 44.9252C130.58 44.9252 129.05 43.7502 129.05 41.7313C129.05 39.7123 130.58 38.5374 132.221 38.5374C133.862 38.5374 135.392 39.7123 135.392 41.7313C135.392 43.7502 133.862 44.9252 132.221 44.9252ZM132.221 35.9219C129.204 35.9219 126.211 37.874 126.211 41.7313C126.211 45.5885 129.204 47.5407 132.221 47.5407C135.237 47.5407 138.231 45.5885 138.231 41.7313C138.231 37.874 135.237 35.9219 132.221 35.9219Z" fill="#0E0E0E"/>
<path fill-rule="evenodd" clip-rule="evenodd" d="M149.348 36.2305L146.315 43.9328L143.282 36.2305H139.631V47.2102H142.286V40.2593L145.231 47.2102H147.4L150.343 40.2593V47.2102H153V36.2305H149.348Z" fill="#0E0E0E"/>
</g>
<defs>
<clipPath id="clip0_636_2823">
<rect width="153" height="56.3849" fill="white" transform="translate(0 0.165039)"/>
</clipPath>
</defs>
</svg>
