<svg width="85" height="38" viewBox="0 0 85 38" fill="none" xmlns="http://www.w3.org/2000/svg">
<path fill-rule="evenodd" clip-rule="evenodd" d="M45.8936 10.041H57.5391L43.5658 28.6716H31.9219L45.8936 10.041Z" fill="#C02222"/>
<path fill-rule="evenodd" clip-rule="evenodd" d="M81.4096 3.63672C78.4974 0.726124 74.1315 0.729207 71.2194 0.727666H62.836C62.1377 0.726124 61.2636 0.727666 60.5652 1.42602C59.8669 2.12438 59.8669 2.99848 59.8669 3.69684V5.38338H71.5123C72.2893 5.38338 73.4532 5.38338 74.2287 6.16036C75.0056 6.93734 75.0056 8.10127 75.0056 8.87671V20.5206C75.0056 21.2976 75.0056 22.4615 74.2287 23.2385C73.4517 24.0139 72.2878 24.0139 71.5123 24.0139H65.8838C64.9126 24.0139 63.6516 24.0139 63.1675 22.9471C62.6819 21.8803 63.3617 20.9091 63.9429 20.1337L71.5123 10.0422H59.8684L55.2112 16.2519C54.4311 17.2925 53.7559 18.1928 53.7559 19.3567C53.7559 20.5206 54.3848 21.3593 55.2112 22.4615L56.3751 24.0139C57.539 25.5664 58.7045 27.1188 60.2569 27.8958C61.8093 28.6712 63.6531 28.6712 66.1768 28.6712H71.2225C74.1331 28.6712 78.5005 28.6712 81.4111 25.7606C84.3217 22.85 84.3217 18.5813 84.3217 17.0273V12.37C84.3217 10.8176 84.3217 6.54731 81.4111 3.63672H81.4096Z" fill="#C02222"/>
<path fill-rule="evenodd" clip-rule="evenodd" d="M34.2502 16.2517L33.0863 14.6992C31.9224 13.1468 30.7569 11.5944 29.2045 10.819C27.6521 10.042 25.8083 10.042 23.2846 10.042H3.4516C2.75324 10.042 1.87914 10.042 1.18078 10.7419C0.482422 11.4387 0.482422 12.3113 0.482422 13.0096V14.6977H5.13968V37.9871H14.4542V14.6977H23.576C24.5457 14.6977 25.8083 14.6977 26.2923 15.7661C26.778 16.8329 26.0981 17.8041 25.5154 18.5795L17.9475 28.671H29.5914L34.2487 22.4613C35.0287 21.4207 35.704 20.5204 35.704 19.3565C35.704 18.1926 35.075 17.3539 34.2487 16.2517H34.2502Z" fill="#C02222"/>
</svg>
