<svg width="109" height="53" viewBox="0 0 109 53" fill="none" xmlns="http://www.w3.org/2000/svg">
<path d="M33.6832 52.3205H37.2773V36.5765H40.5384V34.3477H33.6832V52.3205ZM42.4966 34.3481L40.622 52.3209H44.14L44.4739 47.545H46.1684L46.5023 52.3209H50.0199L48.1454 34.3481H42.4966ZM44.6018 45.568L45.2182 36.5757H45.4234L46.0393 45.568H44.6018ZM57.2212 34.3481H54.2414C51.725 34.3481 51.5708 36.2991 51.5708 37.5577V40.0993H55.165V37.1674C55.165 36.7056 55.5248 36.5769 55.73 36.5769C56.0642 36.5769 56.2949 36.8598 56.2949 37.1674V40.7411C56.2949 41.8452 55.9351 42.0759 54.9084 42.0759H53.3936V44.0528H54.857C56.1917 44.0528 56.2949 44.6688 56.2949 45.2337V49.4137C56.2949 49.7224 56.0638 50.0045 55.73 50.0045C55.5248 50.0045 55.165 49.8758 55.165 49.4137V46.0294H51.5708V49.1108C51.5708 50.3686 51.725 52.3205 54.2414 52.3205H57.2212C59.7384 52.3205 59.8922 50.3686 59.8922 49.1108V45.4903C59.8922 44.8489 59.8667 42.9998 57.4531 43.0516V42.8715C58.5312 42.9229 59.8922 42.3834 59.8922 40.4324V37.557C59.8918 36.2987 59.7384 34.3481 57.2212 34.3481ZM62.2556 52.3205H65.8514V36.5765H66.9821V52.3205H70.5763V34.3477H62.2556V52.3205ZM78.5873 34.3481H72.9389V52.3209H76.5342V46.2099H78.5873C81.1037 46.2099 81.2579 44.2584 81.2579 43.0006V37.5577C81.2579 36.2987 81.1041 34.3481 78.5873 34.3481ZM77.6634 43.3341C77.6634 43.899 77.3813 44.2329 76.9964 44.2329H76.5342V36.5765H76.9964C77.3813 36.5765 77.6634 36.9104 77.6634 37.475V43.3341ZM89.2702 34.3481H86.292C83.7759 34.3481 83.6213 36.2991 83.6213 37.5577V49.1112C83.6213 50.369 83.7759 52.3209 86.292 52.3209H89.2702C91.7862 52.3209 91.94 50.369 91.94 49.1112V37.5577C91.94 36.2987 91.7862 34.3481 89.2702 34.3481ZM88.3462 49.4137C88.3462 49.7224 88.1155 50.0045 87.7816 50.0045C87.5761 50.0045 87.2167 49.8758 87.2167 49.4137V37.167C87.2167 36.7052 87.5761 36.5765 87.7816 36.5765C88.1159 36.5765 88.3462 36.8594 88.3462 37.167V49.4137ZM103.649 34.3481L101.313 46.9804L98.9761 34.3481H94.303V52.3209H97.898V41.0495H98.027L99.8749 52.3209H102.751L104.599 41.0495H104.728V52.3209H108.322V34.3481H103.649ZM21.8845 27.9868C22.7241 30.0026 23.9835 32.1592 24.8027 33.2201C26.0028 31.6602 28.7633 27.0091 29.6229 20.9291C30.1023 17.5499 30.1227 14.5909 29.023 9.7715C27.9225 4.95247 25.164 1.03384 24.7835 0.393555C24.1836 1.29278 21.9826 4.75238 20.8641 8.59254C19.6435 12.8713 19.4638 16.6691 19.8848 20.4096C20.3042 24.1493 21.8845 27.9868 21.8845 27.9868ZM24.7839 32.0203C24.2436 31.0011 23.404 29.0641 23.324 26.0683C23.3032 23.1693 24.4637 20.689 24.8027 20.1695C25.1048 20.689 26.1033 22.8495 26.2222 25.8085C26.3038 28.7043 25.3437 30.9807 24.7839 32.0203ZM20.9045 16.0704C21.001 13.574 21.584 11.0109 21.9045 9.83153C23.1235 5.89211 24.5045 3.37372 24.7639 2.97393C25.0236 3.37411 26.7628 6.47355 27.6644 9.73305C28.562 12.991 28.7429 16.1108 28.7037 17.9509C28.6629 19.7897 28.4428 21.7287 28.1626 22.8892C28.2635 20.8902 28.0238 18.0709 27.5636 15.8707C27.1033 13.6709 25.8035 9.99199 24.7639 8.29162C23.8046 9.91196 22.6237 13.0918 22.005 15.8503C21.3831 18.6108 21.3651 21.9491 21.3651 22.95C21.2007 22.1057 20.7864 19.0969 20.9045 16.0704ZM18.2833 39.9584C18.2904 39.9506 18.2966 39.9427 18.3041 39.9349C20.2756 37.9634 23.4731 37.9634 25.4453 39.9349C27.4168 41.9068 27.4168 45.1047 25.4453 47.0765C25.4371 47.0844 25.4281 47.0911 25.4194 47.0997L25.4191 47.1016C25.4096 47.1107 25.399 47.1181 25.3892 47.1275C23.4233 49.0806 20.8527 50.0575 18.2829 50.0575C15.7017 50.0575 13.1202 49.0727 11.1511 47.104C7.68048 43.6334 7.26932 38.2647 9.91482 34.3426C10.2718 33.8129 10.683 33.3084 11.1511 32.8403C13.1206 30.8716 15.7017 29.8892 18.2829 29.8892V16.3902C8.36353 16.3902 0.322266 24.431 0.322266 34.3426C0.322266 44.2608 8.36353 52.302 18.2829 52.302C23.4546 52.302 28.1136 50.1152 31.3912 46.6175V34.3426H18.2829L18.2833 39.9584Z" fill="#007AC2"/>
</svg>
