<svg width="186" height="33" viewBox="0 0 186 33" fill="none" xmlns="http://www.w3.org/2000/svg">
<g clip-path="url(#clip0_636_2734)">
<mask id="mask0_636_2734" style="mask-type:luminance" maskUnits="userSpaceOnUse" x="0" y="0" width="186" height="33">
<path d="M186 0.0371094H0V32.6775H186V0.0371094Z" fill="white"/>
</mask>
<g mask="url(#mask0_636_2734)">
<path d="M46.197 16.075C46.197 14.7895 45.2441 13.7928 44.0031 13.7928H41.2773V18.3802H44.0031C45.2441 18.38 46.197 17.3601 46.197 16.075ZM49.2553 16.075C49.2553 18.9336 46.9503 21.2386 44.0031 21.2386H41.2773V26.4465H38.2188V10.9336H41.2773H44.0031C46.95 10.9336 49.2553 13.2386 49.2553 16.075Z" fill="#003D7B"/>
</g>
<mask id="mask1_636_2734" style="mask-type:luminance" maskUnits="userSpaceOnUse" x="0" y="0" width="186" height="33">
<path d="M186 0.0371094H0V32.6775H186V0.0371094Z" fill="white"/>
</mask>
<g mask="url(#mask1_636_2734)">
<path d="M63.4396 18.6895C63.4396 15.698 61.2454 13.5923 58.4311 13.5923C55.6169 13.5923 53.4227 15.698 53.4227 18.6895C53.4227 21.6585 55.6169 23.7644 58.4311 23.7644C61.2454 23.7644 63.4396 21.6588 63.4396 18.6895ZM50.3867 18.6895C50.3867 14.1462 53.9545 10.623 58.4314 10.623C62.908 10.623 66.4979 14.1462 66.4979 18.6895C66.4979 23.21 62.908 26.756 58.4314 26.756C53.9545 26.756 50.3867 23.21 50.3867 18.6895Z" fill="#003D7B"/>
</g>
<mask id="mask2_636_2734" style="mask-type:luminance" maskUnits="userSpaceOnUse" x="0" y="0" width="186" height="33">
<path d="M186 0.0371094H0V32.6775H186V0.0371094Z" fill="white"/>
</mask>
<g mask="url(#mask2_636_2734)">
<path d="M67.7168 18.6895C67.7168 14.1462 71.0853 10.623 75.7836 10.623C79.4622 10.623 82.5872 13.0384 83.3184 16.473H80.1052C79.5507 14.7225 77.8225 13.5923 75.7836 13.5923C72.7481 13.5923 70.753 15.698 70.753 18.6895C70.753 21.6585 72.7479 23.7644 75.7836 23.7644C77.8225 23.7644 79.5507 22.6558 80.1052 20.9055H83.3184C82.5872 24.3189 79.4843 26.756 75.7836 26.756C71.0853 26.756 67.7168 23.21 67.7168 18.6895Z" fill="#003D7B"/>
</g>
<mask id="mask3_636_2734" style="mask-type:luminance" maskUnits="userSpaceOnUse" x="0" y="0" width="186" height="33">
<path d="M186 0.0371094H0V32.6775H186V0.0371094Z" fill="white"/>
</mask>
<g mask="url(#mask3_636_2734)">
<path d="M100.052 26.4459H97.0155V16.03L93.5803 23.9642H91.364L87.9294 16.03V26.4459H84.8711V10.9336H87.9294H88.351L92.473 20.4184L96.5724 10.9336H100.052V26.4459Z" fill="#003D7B"/>
</g>
<mask id="mask4_636_2734" style="mask-type:luminance" maskUnits="userSpaceOnUse" x="0" y="0" width="186" height="33">
<path d="M186 0.0371094H0V32.6775H186V0.0371094Z" fill="white"/>
</mask>
<g mask="url(#mask4_636_2734)">
<path d="M115.057 18.6895C115.057 15.698 112.863 13.5923 110.049 13.5923C107.235 13.5923 105.04 15.698 105.04 18.6895C105.04 21.6585 107.235 23.7644 110.049 23.7644C112.863 23.7644 115.057 21.6588 115.057 18.6895ZM102.004 18.6895C102.004 14.1462 105.573 10.623 110.049 10.623C114.525 10.623 118.115 14.1462 118.115 18.6895C118.115 23.21 114.525 26.756 110.049 26.756C105.573 26.756 102.004 23.21 102.004 18.6895Z" fill="#003D7B"/>
</g>
<mask id="mask5_636_2734" style="mask-type:luminance" maskUnits="userSpaceOnUse" x="0" y="0" width="186" height="33">
<path d="M186 0.0371094H0V32.6775H186V0.0371094Z" fill="white"/>
</mask>
<g mask="url(#mask5_636_2734)">
<path d="M128.023 16.075C128.023 14.7895 127.07 13.7928 125.829 13.7928H123.103V18.3802H125.829C127.07 18.38 128.023 17.3601 128.023 16.075ZM131.081 16.075C131.081 18.9336 128.776 21.2386 125.829 21.2386H123.103V26.4465H120.045V10.9336H123.103H125.829C128.776 10.9336 131.081 13.2386 131.081 16.075Z" fill="#003D7B"/>
</g>
<mask id="mask6_636_2734" style="mask-type:luminance" maskUnits="userSpaceOnUse" x="0" y="0" width="186" height="33">
<path d="M186 0.0371094H0V32.6775H186V0.0371094Z" fill="white"/>
</mask>
<g mask="url(#mask6_636_2734)">
<path d="M144.111 26.4459H141.053V13.8587H135.912V26.4459H132.854V10.9336H135.912H144.111V26.4459Z" fill="#003D7B"/>
</g>
<mask id="mask7_636_2734" style="mask-type:luminance" maskUnits="userSpaceOnUse" x="0" y="0" width="186" height="33">
<path d="M186 0.0371094H0V32.6775H186V0.0371094Z" fill="white"/>
</mask>
<g mask="url(#mask7_636_2734)">
<path d="M159.115 18.6895C159.115 15.698 156.922 13.5923 154.107 13.5923C151.293 13.5923 149.098 15.698 149.098 18.6895C149.098 21.6585 151.293 23.7644 154.107 23.7644C156.922 23.7644 159.115 21.6588 159.115 18.6895ZM146.062 18.6895C146.062 14.1462 149.631 10.623 154.107 10.623C158.584 10.623 162.174 14.1462 162.174 18.6895C162.174 23.21 158.584 26.756 154.107 26.756C149.631 26.756 146.062 23.21 146.062 18.6895Z" fill="#003D7B"/>
</g>
<mask id="mask8_636_2734" style="mask-type:luminance" maskUnits="userSpaceOnUse" x="0" y="0" width="186" height="33">
<path d="M186 0.0371094H0V32.6775H186V0.0371094Z" fill="white"/>
</mask>
<g mask="url(#mask8_636_2734)">
<path d="M172.081 16.075C172.081 14.7895 171.128 13.7928 169.888 13.7928H167.162V18.3802H169.888C171.128 18.38 172.081 17.3601 172.081 16.075ZM175.14 16.075C175.14 18.9336 172.836 21.2386 169.888 21.2386H167.162V26.4465H164.104V10.9336H167.162H169.888C172.836 10.9336 175.14 13.2386 175.14 16.075Z" fill="#003D7B"/>
</g>
<mask id="mask9_636_2734" style="mask-type:luminance" maskUnits="userSpaceOnUse" x="0" y="0" width="186" height="33">
<path d="M186 0.0371094H0V32.6775H186V0.0371094Z" fill="white"/>
</mask>
<g mask="url(#mask9_636_2734)">
<path d="M185.999 13.8593H182.254V26.4462H179.195V13.8593H175.473V10.9336H182.254H185.999V13.8593Z" fill="#003D7B"/>
</g>
<mask id="mask10_636_2734" style="mask-type:luminance" maskUnits="userSpaceOnUse" x="0" y="0" width="186" height="33">
<path d="M186 0.0371094H0V32.6775H186V0.0371094Z" fill="white"/>
</mask>
<g mask="url(#mask10_636_2734)">
<path d="M23.2294 15.3237C23.2275 13.8885 23.0793 12.5453 22.8321 11.2986C24.1052 11.0562 25.3242 10.7518 26.4718 10.3909C27.1404 11.901 27.517 13.5685 27.517 15.3237H23.2294ZM19.9037 4.00445C21.8443 4.79939 23.5377 6.07717 24.8313 7.69074C23.9353 7.9451 22.993 8.16242 22.0167 8.34107C21.4045 6.62074 20.639 5.16513 19.9037 4.00445ZM10.3927 15.3237C10.3947 14.0478 10.536 12.8539 10.7677 11.7477C12.2416 11.9083 13.7555 11.9922 15.2825 11.9922C16.8103 11.9922 18.3258 11.9081 19.8007 11.7471C20.03 12.8523 20.1698 14.0453 20.1717 15.3237H10.3927ZM5.74431 7.69401C7.03407 6.08343 8.7209 4.80538 10.6572 4.01044C9.9227 5.1703 9.15881 6.62347 8.54797 8.34107C7.5752 8.16296 6.63701 7.94673 5.74431 7.69401ZM7.335 15.3237H3.05748C3.05748 13.5696 3.43329 11.9032 4.1016 10.3936C5.24621 10.7531 6.46299 11.0568 7.73233 11.2986C7.48533 12.5453 7.33663 13.8885 7.335 15.3237ZM15.2054 3.09649C15.2329 3.09622 15.2599 3.09458 15.2871 3.09458H15.3582C15.8078 3.55619 17.6381 5.55756 18.908 8.76563C17.722 8.87647 16.508 8.93502 15.2825 8.93502C14.0602 8.93502 12.8495 8.87647 11.6667 8.76645C12.9358 5.57472 14.7561 3.56327 15.2054 3.09649ZM15.2871 0.0371094C6.84426 0.0371094 0 6.88164 0 15.3242C0 16.3719 0.108933 17.3934 0.309642 18.3814H3.44746H27.1273H30.2646C30.4653 17.3934 30.5745 16.3719 30.5745 15.3242C30.5745 6.88164 23.7302 0.0371094 15.2871 0.0371094ZM24.5715 23.2717C22.6398 25.5247 19.9059 27.0677 16.816 27.455V21.4389H13.7623V27.4558C10.6746 27.0702 7.94284 25.5307 6.01119 23.2818L7.39764 21.4389H1.27479C3.30394 26.0797 7.57002 29.5182 12.7114 30.3918L15.2871 32.6778L17.8628 30.3918C23.0039 29.5184 27.2705 26.08 29.2997 21.4389H23.1921L24.5715 23.2717Z" fill="#00B7C6"/>
</g>
</g>
<defs>
<clipPath id="clip0_636_2734">
<rect width="186" height="32.6404" fill="white" transform="translate(0 0.0371094)"/>
</clipPath>
</defs>
</svg>
