<svg width="150" height="44" viewBox="0 0 150 44" fill="none" xmlns="http://www.w3.org/2000/svg">
<g clip-path="url(#clip0_636_2847)">
<path d="M62.0498 14.3852C61.5442 13.9224 60.9357 13.5795 60.2243 13.3567C59.513 13.1339 58.7331 13.0225 57.8931 13.0225H52.2109V30.9176H55.9391V24.3869H58.0988C58.9559 24.3869 59.7272 24.2497 60.4129 23.9755C61.0985 23.7012 61.6813 23.3156 62.1612 22.8185C62.6412 22.3214 63.0097 21.7215 63.2668 21.0187C63.5239 20.3159 63.6525 19.536 63.6525 18.679C63.6525 17.7019 63.5068 16.8535 63.224 16.1421C62.9411 15.4308 62.5469 14.8394 62.0412 14.3766L62.0498 14.3852ZM59.3758 20.4016C58.9559 20.7444 58.4674 20.9158 57.9189 20.9158H55.9391V16.4678H57.8931C58.5445 16.4678 59.0587 16.6306 59.4358 16.9649C59.8129 17.2991 60.0015 17.8562 60.0015 18.6275C60.0015 19.4674 59.7872 20.0588 59.3758 20.4016Z" fill="#005B9C"/>
<path d="M76.4917 14.7027C76.0289 14.1627 75.4375 13.7256 74.7176 13.3914C73.9977 13.0572 73.1492 12.8857 72.1722 12.8857C71.1266 12.8857 70.2353 13.0572 69.5068 13.4085C68.7783 13.7599 68.1784 14.2056 67.7156 14.7627C67.2528 15.3112 66.9185 15.9197 66.7128 16.5967C66.5071 17.2738 66.4043 17.9509 66.4043 18.6194V24.9958C66.4043 25.8014 66.5071 26.5728 66.73 27.3098C66.9442 28.0469 67.2871 28.6897 67.7499 29.2467C68.2127 29.8038 68.804 30.2409 69.5411 30.5751C70.2696 30.9008 71.1523 31.0637 72.1808 31.0637C73.0207 31.0637 73.792 30.9265 74.4777 30.6609C75.1719 30.3952 75.7718 30.0095 76.2775 29.5038C76.7831 28.9982 77.1773 28.3897 77.4602 27.6783C77.743 26.967 77.8887 26.1699 77.8887 25.2786V18.6194C77.8887 17.9166 77.7687 17.2224 77.5373 16.5368C77.3059 15.8511 76.9631 15.2426 76.5003 14.6941L76.4917 14.7027ZM74.1263 25.5443C74.1263 26.1442 73.9377 26.6156 73.552 26.9584C73.1664 27.3012 72.7036 27.4726 72.1808 27.4726C71.4437 27.4726 70.9124 27.2498 70.5952 26.8042C70.2781 26.3585 70.1153 25.7928 70.1153 25.1072V18.4737C70.1153 18.268 70.1581 18.0452 70.2353 17.8223C70.3124 17.5909 70.4324 17.3767 70.5952 17.1795C70.7581 16.9824 70.9723 16.8196 71.2209 16.691C71.478 16.5625 71.7951 16.5025 72.1722 16.5025C72.5493 16.5025 72.8578 16.5796 73.1064 16.7253C73.3549 16.871 73.5606 17.051 73.7149 17.2481C73.8692 17.4538 73.972 17.6681 74.0406 17.8909C74.1006 18.1137 74.1263 18.3108 74.1263 18.4822V25.5529V25.5443Z" fill="#005B9C"/>
<path d="M85.3103 17.8138C85.3788 17.5823 85.4902 17.3681 85.6445 17.171C85.7988 16.9738 86.0045 16.811 86.2616 16.6825C86.5187 16.5539 86.8358 16.4939 87.2129 16.4939C87.59 16.4939 87.8814 16.5625 88.1385 16.6996C88.3956 16.8367 88.6099 16.9996 88.7813 17.1881C88.9527 17.3767 89.0727 17.5823 89.1498 17.8223C89.227 18.0537 89.2784 18.2594 89.3212 18.4223L92.8437 17.3681C92.7237 16.7853 92.518 16.2196 92.2266 15.6797C91.9352 15.1398 91.5581 14.6598 91.0953 14.2484C90.6325 13.8371 90.0754 13.5114 89.4241 13.2628C88.7727 13.0143 88.0357 12.8857 87.2129 12.8857C86.1673 12.8857 85.276 13.0572 84.5475 13.4085C83.819 13.7599 83.2276 14.2056 82.7734 14.7627C82.3192 15.3112 81.9849 15.9197 81.7792 16.5967C81.5735 17.2738 81.4707 17.9509 81.4707 18.6194V24.9958C81.4707 25.8014 81.5736 26.5728 81.7964 27.3098C82.0106 28.0469 82.3449 28.6897 82.7991 29.2467C83.2534 29.8038 83.8447 30.2409 84.5732 30.5751C85.3017 30.9008 86.1845 31.0637 87.2129 31.0637C88.6699 31.0637 89.904 30.6694 90.9153 29.8809C91.9267 29.0925 92.5609 28.004 92.818 26.6156L89.2698 25.5871C89.2013 26.1699 88.9698 26.6327 88.5756 26.967C88.1814 27.3012 87.7271 27.4726 87.2129 27.4726C86.4758 27.4726 85.9531 27.2498 85.6531 26.8042C85.3531 26.3585 85.2074 25.7928 85.2074 25.1072V18.4737C85.2074 18.268 85.2417 18.0452 85.3103 17.8223V17.8138Z" fill="#005B9C"/>
<path d="M99.8122 17.8138C99.8808 17.5823 99.9922 17.3681 100.146 17.171C100.301 16.9738 100.506 16.811 100.764 16.6825C101.021 16.5539 101.338 16.4939 101.715 16.4939C102.092 16.4939 102.383 16.5625 102.64 16.6996C102.898 16.8367 103.112 16.9996 103.283 17.1881C103.455 17.3767 103.575 17.5823 103.652 17.8223C103.729 18.0537 103.78 18.2594 103.823 18.4223L107.346 17.3681C107.226 16.7853 107.02 16.2196 106.729 15.6797C106.437 15.1398 106.06 14.6598 105.597 14.2484C105.134 13.8371 104.577 13.5114 103.926 13.2628C103.275 13.0143 102.538 12.8857 101.715 12.8857C100.669 12.8857 99.7779 13.0572 99.0494 13.4085C98.321 13.7599 97.7296 14.2056 97.2754 14.7627C96.8211 15.3112 96.4869 15.9197 96.2812 16.5967C96.0755 17.2738 95.9727 17.9509 95.9727 18.6194V24.9958C95.9727 25.8014 96.0755 26.5728 96.2983 27.3098C96.5126 28.0469 96.8468 28.6897 97.3011 29.2467C97.7553 29.8038 98.3467 30.2409 99.0752 30.5751C99.8036 30.9008 100.686 31.0637 101.715 31.0637C103.172 31.0637 104.406 30.6694 105.417 29.8809C106.429 29.0925 107.063 28.004 107.32 26.6156L103.772 25.5871C103.703 26.1699 103.472 26.6327 103.078 26.967C102.683 27.3012 102.229 27.4726 101.715 27.4726C100.978 27.4726 100.455 27.2498 100.155 26.8042C99.8551 26.3585 99.7094 25.7928 99.7094 25.1072V18.4737C99.7094 18.268 99.7436 18.0452 99.8122 17.8223V17.8138Z" fill="#005B9C"/>
<path d="M110.893 30.9176H121.306V27.3951H114.621V23.5898H120.38V20.1702H114.621V16.4678H121.306V13.0225H110.893V30.9176Z" fill="#005B9C"/>
<path d="M123.363 16.4164H127.194V30.9176H130.897V16.4164H134.728V13.0225H123.363V16.4164Z" fill="#005B9C"/>
<path d="M146.632 13.0225L141.516 23.4098H141.464V13.0225H137.762V30.9176H141.258L146.246 21.173H146.272V30.9176H150V13.0225H146.632Z" fill="#005B9C"/>
<path d="M24.1087 10.7608L3.77957 9.68945C1.39698 13.1948 0 17.4286 0 21.9795C0 23.2136 0.102845 24.4135 0.299966 25.5876L24.2715 11.4978C24.1772 11.2664 24.1344 11.0093 24.1001 10.7522L24.1087 10.7608Z" fill="#005B9C"/>
<path d="M29.4824 12.0975L43.5037 25.3817C43.6751 24.2761 43.7694 23.1362 43.7694 21.9792C43.7694 17.2826 42.2867 12.9374 39.767 9.37207L29.9881 10.5548C29.9624 11.1204 29.7824 11.6518 29.4824 12.0889V12.0975Z" fill="#005B9C"/>
<path d="M24.8626 12.4404L0.908203 28.2186C2.54516 33.738 6.30759 38.3489 11.2442 41.1L25.3083 12.8347C25.1454 12.7147 24.9997 12.5861 24.8626 12.4404Z" fill="#005B9C"/>
<path d="M26.2943 13.2979L13.5586 42.2231C16.1297 43.2773 18.9323 43.8686 21.8891 43.8686C24.8459 43.8686 27.5284 43.303 30.0481 42.2917L26.8856 13.3921C26.6885 13.3836 26.4914 13.3493 26.3029 13.3064L26.2943 13.2979Z" fill="#005B9C"/>
<path d="M27.9648 13.2288L32.4472 41.1342C37.4352 38.3745 41.2233 33.7293 42.8603 28.1671L28.6676 12.8945C28.4534 13.0402 28.2134 13.1431 27.9648 13.2288Z" fill="#005B9C"/>
<path d="M25.1799 8.1464L20.5947 0.141602C14.6383 0.48442 9.32461 3.20982 5.58789 7.38363L24.2029 9.61195C24.3743 9.02059 24.7171 8.51493 25.1799 8.1464Z" fill="#005B9C"/>
<path d="M27.1005 7.47791C28.309 7.50362 29.3288 8.24925 29.7659 9.29484L38.1221 7.31507C34.4025 3.20982 29.1574 0.518701 23.2695 0.141602L26.3549 7.55504C26.5949 7.49505 26.8434 7.46076 27.1005 7.46934V7.47791Z" fill="#005B9C"/>
</g>
<defs>
<clipPath id="clip0_636_2847">
<rect width="150" height="43.7179" fill="white" transform="translate(0 0.141602)"/>
</clipPath>
</defs>
</svg>
