<svg width="67" height="53" viewBox="0 0 67 53" fill="none" xmlns="http://www.w3.org/2000/svg">
<g clip-path="url(#clip0_1283_19498)">
<path d="M15.1945 37.0395C15.7745 34.5504 14.5934 32.9543 13.8326 31.0923C13.3724 29.9688 13.2643 29.3442 13.0131 28.5984C12.6703 27.5724 11.8672 26.6128 11.3717 26.2851C11.1064 26.1093 10.6532 25.8813 10.2352 26.3017C9.78438 26.7577 9.81725 28.3205 10.8035 30.0971C11.205 30.8191 11.8601 31.2063 12.0316 32.9804C12.2077 34.7998 11.0453 35.5455 11.0453 35.5455C11.0453 35.5455 11.3154 34.662 10.8035 34.244C7.51136 31.5601 7.0746 27.3444 7.18027 25.3065C7.25306 23.9005 8.02795 21.8864 8.16649 20.1906C8.35435 17.8702 7.56771 17.7158 7.45735 17.8963C7.19201 18.3452 6.36546 20.782 5.8066 22.4897C5.30644 24.0335 4.74523 26.0381 4.72879 27.5486C4.70531 29.0592 5.0364 30.4177 5.08336 30.9117C4.43762 30.0401 4.24037 28.8074 4.16288 27.3372C4.04548 25.1403 4.70296 23.1808 5.01527 21.561C5.38158 19.6515 5.12798 18.7941 4.66069 19.2311C4.40709 19.4686 3.97034 20.6656 3.2518 22.77C2.98176 23.5656 2.65302 24.5441 2.4229 25.6913C2.21861 26.7102 2.18339 28.5794 2.26322 29.6862C1.73254 29.1162 1.58461 27.5463 1.6621 26.6675C1.73019 25.8623 2.12938 24.1428 2.37124 23.4017C2.70233 22.3781 2.39472 21.5943 2.11294 21.7677C1.96266 21.8603 1.60574 22.1358 0.762751 24.4349C0.262594 25.8101 -0.073193 27.5391 0.0136888 29.3323C0.154578 32.1278 1.48364 35.3128 3.66742 38.7353C5.72441 41.9488 10.2094 45.2477 11.8672 46.0054C13.6142 46.8034 15.0067 45.7394 15.4223 44.844C15.9718 43.6564 15.5491 42.3668 15.2791 41.4785C15.1217 40.9607 14.6169 39.5095 15.1922 37.0418" fill="white"/>
<path d="M18.8723 15.4569C18.776 15.559 17.9565 17.2192 19.5345 19.2332C21.1125 21.2473 25.1795 20.9053 25.3462 20.1571C26.3629 13.9772 18.9662 15.3547 18.8723 15.4569M22.465 16.4948C23.0591 16.1908 23.7682 16.3998 24.0453 16.9627C24.3224 17.5232 24.0641 18.2191 23.47 18.5231C22.8736 18.8271 22.1668 18.6181 21.892 18.0576C21.6126 17.4971 21.8709 16.7988 22.465 16.4971" fill="white"/>
<path d="M13.493 13.3598C16.0924 12.6472 21.6223 11.3599 24.3321 13.4928C25.4169 14.3478 26.638 14.7919 27.2908 14.0818C27.9647 13.3479 27.6171 11.4739 25.222 10.9871C23.7897 10.6949 23.3599 10.36 23.1298 9.77101C22.5522 8.28421 24.6115 6.5694 27.1804 5.58136C27.1827 5.58136 24.1841 5.38423 19.1614 8.84948C18.2316 9.49075 17.3158 9.72826 16.8039 9.54776C16.1487 9.31262 16.3061 8.38159 16.609 7.77594C17.5389 5.92813 19.4902 3.48892 23.3693 1.66485C23.4539 1.62685 23.4116 1.4986 23.3224 1.52472C20.8145 2.23725 13.5916 4.80946 11.5839 11.1581C11.126 12.6045 12.0888 13.7445 13.493 13.3598Z" fill="white"/>
<path d="M53.5037 13.3598C50.9043 12.6472 45.3744 11.3599 42.6646 13.4928C41.5798 14.3478 40.3587 14.7919 39.7059 14.0818C39.032 13.3479 39.3795 11.4739 41.7747 10.9871C43.207 10.6949 43.6391 10.36 43.8669 9.77101C44.4445 8.28421 42.3852 6.5694 39.8163 5.58136C39.8163 5.58136 42.8125 5.38423 47.8353 8.84948C48.7651 9.49075 49.6809 9.72826 50.1928 9.54776C50.8479 9.31262 50.6906 8.38159 50.3877 7.77594C49.4578 5.92813 47.5065 3.48892 43.6274 1.66485C43.5452 1.62685 43.5851 1.4986 43.6743 1.52472C46.1821 2.23725 53.4051 4.80946 55.4128 11.1581C55.8707 12.6045 54.9079 13.7445 53.5061 13.3598" fill="white"/>
<path d="M8.36965 13.6329C8.47767 13.6923 8.60212 13.583 8.5622 13.4643C7.8014 11.0726 10.591 7.60971 11.5749 6.48867C11.6148 6.44354 11.5561 6.38179 11.5068 6.41504C8.1771 8.81387 5.37105 7.3247 5.37105 7.3247C8.4307 7.02069 9.85369 5.87115 10.3116 5.40325C10.3562 5.35813 10.3045 5.28687 10.2482 5.31063C7.51492 6.45542 4.77932 5.05887 4.77932 5.05887C7.81549 4.92586 8.83224 4.37009 9.323 3.92595C9.52964 3.7407 9.68932 3.51981 9.79264 3.35831C9.86308 3.24668 9.80672 3.1018 9.68227 3.0638C6.21404 1.99976 3.20135 -1.73387 1.79716 0.952346C-0.102504 4.59098 4.05139 11.3338 8.36965 13.6329Z" fill="white"/>
<path d="M41.4269 47.7678C37.0265 47.6965 33.988 45.2716 33.5536 44.9058C33.5207 44.8797 33.4784 44.8797 33.4455 44.9058C33.0111 45.2716 29.9679 47.6989 25.5651 47.7678C25.5135 47.7678 25.4665 47.7987 25.4477 47.8486C25.2176 48.4637 24.7503 53.0001 33.4972 53.0001C42.2441 53.0001 41.7885 48.4969 41.5514 47.8533C41.5326 47.801 41.4809 47.7654 41.4246 47.7654" fill="white"/>
<path d="M24.3058 4.14212C24.9352 3.99011 26.3769 3.67898 28.6922 3.40584C31.139 3.11846 33.4472 3.15883 33.4942 3.16121H33.5036C33.5529 3.16121 35.8588 3.11846 38.3056 3.40584C40.6209 3.67898 42.0626 3.98774 42.6919 4.14212C42.7905 4.16587 42.8539 4.03999 42.7788 3.97111C39.4961 0.985632 34.997 0.455988 33.4989 0.453613C31.9984 0.453613 27.5017 0.983257 24.2166 3.97111C24.1415 4.03999 24.2049 4.16587 24.3035 4.14212" fill="white"/>
<path d="M66.2322 24.4349C65.3892 22.1358 65.0323 21.8603 64.882 21.7677C64.6002 21.5919 64.2926 22.3781 64.6237 23.4017C64.8656 24.1451 65.2648 25.8623 65.3329 26.6675C65.408 27.5463 65.2624 29.1162 64.7317 29.6862C64.8116 28.5818 64.7763 26.7102 64.5721 25.6913C64.3419 24.5441 64.0155 23.5656 63.7432 22.77C63.0246 20.6656 62.5879 19.4686 62.3343 19.2311C61.867 18.7941 61.6134 19.6515 61.9797 21.561C62.292 23.1808 62.9495 25.1403 62.8321 27.3372C62.7546 28.8074 62.5573 30.0401 61.9116 30.9117C61.9609 30.4201 62.2897 29.0592 62.2662 27.5486C62.2474 26.0381 61.6862 24.0311 61.1884 22.4897C60.6318 20.782 59.8053 18.3452 59.5376 17.8963C59.4272 17.7158 58.6406 17.8702 58.8285 20.1906C58.9647 21.8841 59.7395 23.9005 59.8123 25.3065C59.9204 27.3444 59.4813 31.5601 56.1915 34.244C55.6796 34.662 55.9496 35.5455 55.9496 35.5455C55.9496 35.5455 54.7873 34.7974 54.961 32.9804C55.1325 31.2039 55.7899 30.8191 56.1915 30.0971C57.1777 28.3205 57.2106 26.7577 56.7597 26.3017C56.3418 25.8813 55.8886 26.1093 55.6232 26.2851C55.1278 26.6128 54.3247 27.5748 53.9819 28.5984C53.733 29.3442 53.6226 29.9688 53.1647 31.0923C52.4039 32.9519 51.2228 34.548 51.8028 37.0395C52.3781 39.5072 51.8732 40.9584 51.7159 41.4761C51.4459 42.3668 51.0232 43.6564 51.5727 44.8416C51.9883 45.737 53.3831 46.8011 55.1278 46.003C56.7856 45.2454 61.2705 41.9464 63.3275 38.7329C65.5113 35.3104 66.8404 32.1254 66.9813 29.3299C67.0705 27.5391 66.73 25.8077 66.2299 24.4349" fill="white"/>
<path d="M41.6549 20.1575C41.8217 20.9056 45.8887 21.25 47.4666 19.2336C49.0446 17.2195 48.2251 15.5593 48.1288 15.4572C48.0349 15.3527 40.6358 13.9775 41.6549 20.1575ZM45.1067 18.0555C44.832 18.616 44.1229 18.825 43.5288 18.5234C42.9347 18.2218 42.6787 17.5235 42.9535 16.963C43.2306 16.4001 43.9397 16.1911 44.5338 16.4951C45.1279 16.7991 45.3862 17.4974 45.1067 18.0555Z" fill="white"/>
<path d="M58.4361 13.4643C58.3985 13.5831 58.5206 13.6923 58.6286 13.633C62.9469 11.3339 67.0984 4.59101 65.1987 0.952386C63.7969 -1.73383 60.7819 1.9998 57.316 3.06146C57.1892 3.09946 57.1352 3.24434 57.2056 3.35597C57.3089 3.51748 57.4686 3.73836 57.6752 3.92362C58.166 4.36776 59.1828 4.92353 62.2189 5.05653C62.2189 5.05653 59.4833 6.45308 56.7501 5.30829C56.6914 5.28454 56.6421 5.35579 56.6867 5.39854C57.1469 5.86643 58.5676 7.01835 61.6272 7.31999C61.6272 7.31999 58.8188 8.81154 55.4915 6.41033C55.4422 6.3747 55.3834 6.43883 55.4234 6.48396C56.4072 7.60737 59.1945 11.0679 58.4361 13.462" fill="white"/>
<path d="M40.253 8.72854C37.9565 6.53158 35.6013 5.91406 33.5021 5.91406H33.495C31.3958 5.91406 29.0406 6.53158 26.7441 8.72854C26.6948 8.77604 26.737 8.86392 26.8051 8.84729C27.6599 8.62166 30.5739 7.90913 33.4997 7.89726C36.4255 7.90913 39.342 8.62166 40.1943 8.84729C40.2601 8.86392 40.3047 8.77841 40.2554 8.72854" fill="white"/>
<path d="M53.5606 16.2622C53.5184 16.2289 53.462 16.2717 53.4761 16.3263C54.0444 18.4378 53.4925 20.9055 51.8019 21.5277C48.8972 22.5965 44.9805 22.5253 42.4961 24.3541C40.3194 25.9573 40.9886 29.9094 41.2704 31.1706C41.2868 31.2418 41.3878 31.2347 41.3995 31.1635C41.5616 29.9997 42.3036 28.2255 43.0714 27.7267C42.9845 28.8383 43.1489 31.0851 44.269 33.111C44.5602 33.6407 44.9171 34.2558 45.3163 34.8828C45.49 35.1417 46.0982 36.0965 46.2837 36.3696C45.7037 37.7971 43.3579 38.151 42.3811 37.6759C43.116 39.2815 45.6685 39.1057 46.4434 38.7709C46.1428 39.8206 44.2713 40.5735 42.8577 40.4192C42.8577 40.4192 43.4894 41.5165 45.7483 41.1008C44.9946 42.0342 43.6185 42.3335 42.2049 42.0033C42.4233 42.6612 43.2828 43.1339 43.689 43.1553C43.0268 43.768 41.6203 44.0127 40.5777 44.0127C38.4174 44.0127 36.25 42.8845 35.2567 41.4238C34.0827 39.6995 34.294 37.0062 35.508 35.5977C36.5882 34.3461 37.4851 33.8164 38.9128 33.6407C39.7042 33.5433 40.1574 33.2322 40.1574 32.6906C40.1574 32.0636 39.5233 31.6741 38.9809 31.6741C38.1403 31.6741 37.2104 31.5862 36.0763 32.2608C35.3413 32.6978 34.2353 33.2868 33.498 33.3224C32.7607 33.2868 31.6547 32.6978 30.9197 32.2608C29.7855 31.5862 28.8533 31.6741 28.015 31.6741C27.4726 31.6741 26.8386 32.0636 26.8386 32.6906C26.8386 33.2322 27.2918 33.5433 28.0831 33.6407C29.5108 33.8164 30.4078 34.3461 31.488 35.5977C32.702 37.0038 32.9133 39.6971 31.7392 41.4238C30.7436 42.8845 28.5762 44.0127 26.4183 44.0127C25.3757 44.0127 23.9691 43.768 23.307 43.1553C23.7109 43.1339 24.5726 42.6612 24.791 42.0033C23.3774 42.3335 22.0037 42.0342 21.2476 41.1008C23.5066 41.5188 24.1382 40.4192 24.1382 40.4192C22.7246 40.5735 20.8531 39.8206 20.5526 38.7709C21.3275 39.1057 23.8799 39.2815 24.6149 37.6759C23.6381 38.151 21.2922 37.7947 20.7123 36.3696C20.8978 36.0965 21.5059 35.1417 21.6797 34.8828C22.0789 34.2582 22.4358 33.6407 22.727 33.111C23.847 31.0851 24.0138 28.8359 23.9245 27.7267C24.6924 28.2255 25.4344 29.9997 25.5964 31.1635C25.6082 31.2371 25.7091 31.2442 25.7256 31.1706C26.005 29.9094 26.6766 25.9573 24.4998 24.3541C22.0155 22.5253 18.0988 22.5989 15.1941 21.5277C13.5034 20.9031 12.9539 18.4378 13.5198 16.3263C13.5339 16.2741 13.4776 16.2313 13.4353 16.2622C12.6933 16.8108 10.7702 19.3569 11.6531 21.9814C12.5101 24.5275 15.1119 25.4823 17.3873 26.6199C19.9256 27.8882 21.102 30.4011 19.7941 33.7024C19.193 35.2225 18.3289 37.1297 18.3289 39.063C18.3289 43.2218 22.5015 45.6562 25.3757 45.813C30.8328 46.1051 33.4604 42.2955 33.4956 42.2432C33.5308 42.2955 36.1584 46.1051 41.6179 45.813C44.4921 45.6586 48.6647 43.2241 48.6647 39.063C48.6647 37.1297 47.8006 35.2225 47.1995 33.7024C45.8916 30.4011 47.068 27.8882 49.6063 26.6199C51.8817 25.4823 54.4835 24.5299 55.3405 21.9814C56.2258 19.3569 54.3003 16.8108 53.5583 16.2622" fill="white"/>
</g>
<defs>
<clipPath id="clip0_1283_19498">
<rect width="67" height="53" fill="white"/>
</clipPath>
</defs>
</svg>
