<svg width="97" height="74" viewBox="0 0 97 74" fill="none" xmlns="http://www.w3.org/2000/svg">
<path d="M1.14062 65.5853L5.5 72.4998C6 70.9998 24.0427 65.5853 42.8585 72.5214C45.3823 70.7172 69.5322 68.0585 80.1725 72.9261L84.5764 65.5825" stroke="#E26D14" stroke-linecap="round" stroke-linejoin="round"/>
<path d="M42.8594 65.5854V72.1715" stroke="#E26D14" stroke-linecap="round" stroke-linejoin="round"/>
<path d="M6.76953 20.267C18.9246 13.9099 29.5283 15.7535 39.8482 20.2923" stroke="#E26D14" stroke-linecap="round" stroke-linejoin="round"/>
<path d="M6.76953 35.331C18.9246 28.9738 29.5283 30.8175 39.8482 35.3563" stroke="#E26D14" stroke-linecap="round" stroke-linejoin="round"/>
<path d="M6.76953 50.395C18.9246 44.0378 29.5283 45.8814 39.8482 50.4203" stroke="#E26D14" stroke-linecap="round" stroke-linejoin="round"/>
<path d="M84.5803 58.798V65.5852C69.5614 61.4876 55.5318 61.0267 42.8624 65.5852C27.8435 61.4876 13.8139 61.0267 1.14453 65.5852V6.43704C13.0045 -0.462545 27.4501 -1.15391 42.8652 6.43704H42.868C54.7252 -0.462545 69.1708 -1.15391 84.5859 6.43704H84.5831V16.1639" stroke="#E26D14" stroke-linecap="round" stroke-linejoin="round"/>
<path d="M59.311 33.6811L50.9613 25.3313C49.6909 24.061 49.7275 21.9785 51.0709 20.756C52.3299 19.6093 54.2888 19.7217 55.4917 20.9246L63.8667 29.2996L77.2162 21.3377C79.473 20.0871 81.6398 20.2838 83.1518 21.7958L90.7765 29.4205L91.94 34.7069L95.8549 38.6218" stroke="#E26D14" stroke-linecap="round" stroke-linejoin="round"/>
<path d="M59.3105 33.6812C59.3414 33.7121 59.3723 33.7374 59.4061 33.7655L59.4004 33.7711L65.9571 40.3278L58.3887 39.1924C56.264 38.8804 54.2855 40.339 53.9566 42.4637C53.625 44.6081 55.1033 46.6119 57.2505 46.9295L75.2596 49.6303L80.057 54.4277" stroke="#E26D14" stroke-linecap="round" stroke-linejoin="round"/>
<path d="M59.4023 33.7656L65.7989 40.1621" stroke="#E26D14" stroke-linecap="round" stroke-linejoin="round"/>
<path d="M69.5 26.0005L73.5639 30.0644" stroke="#E26D14" stroke-linecap="round" stroke-linejoin="round"/>
<path d="M63.875 29.2993L67.9389 33.3632" stroke="#E26D14" stroke-linecap="round" stroke-linejoin="round"/>
<path d="M75.418 22.9849L79.479 27.0487" stroke="#E26D14" stroke-linecap="round" stroke-linejoin="round"/>
</svg>
