<svg width="131" height="99" viewBox="0 0 131 99" fill="none" xmlns="http://www.w3.org/2000/svg">
<path d="M27.2113 14.124C27.2113 14.124 24.1521 37.3797 20.1591 43.2724C16.1689 49.1651 17.5655 49.5554 17.366 55.5435C17.1665 61.5317 19.5606 68.5144 22.1571 68.5144H32.3349C32.7541 65.6172 31.3691 63.7754 27.9457 63.1248C27.9457 63.1248 27.7462 60.3317 27.9457 58.1343C28.1452 55.9368 32.1353 50.9491 37.3254 48.13C42.5155 45.3108 46.3062 39.3748 46.3062 39.3748C46.3062 39.3748 52.8899 42.7664 60.0259 44.5648C67.1619 46.3604 81.0321 44.7643 81.0321 44.7643C81.0321 44.7643 82.2291 48.954 83.0271 51.5505C83.8252 54.1441 89.1165 68.5144 91.7505 68.5144H103.984C103.984 68.5144 103.984 63.1248 99.193 63.1248C95.8708 63.1248 96.5994 55.1416 95.0034 45.9614C93.4073 36.7812 98.0625 26.3605 98.0625 26.3605" stroke="#E26D14" stroke-linecap="round" stroke-linejoin="round"/>
<path d="M81.8262 47.5257C81.8262 47.5257 79.8109 57.8192 78.8134 60.6123C82.1529 61.8064 82.8209 64.3191 81.8262 67.6442H72.1776C72.1776 67.6442 69.7835 61.2253 71.18 57.1513C72.5766 53.0744 70.2461 45.4121 70.2461 45.4121" stroke="#E26D14" stroke-linecap="round" stroke-linejoin="round"/>
<path d="M44.8533 41.3726C44.8533 41.3726 46.912 47.3896 46.4696 53.3749C45.9029 61.0573 46.2788 61.3696 48.297 61.2568C51.8881 61.0573 56.6792 67.644 51.6886 67.644H41.5108C39.7153 67.644 35.5574 58.9755 36.8556 55.0721C38.1683 51.1311 37.3183 48.1327 37.3183 48.1327C32.2496 46.3343 30.9022 42.3701 29.9336 38.4233" stroke="#E26D14" stroke-linecap="round" stroke-linejoin="round"/>
<path d="M78.1836 12.1465C81.2254 16.8624 82.2402 22.5816 81.2254 29.3012" stroke="#E26D14" stroke-linecap="round" stroke-linejoin="round"/>
<path d="M70.2461 13.8726C71.5559 16.9259 71.501 21.9165 71.2697 25.1433" stroke="#E26D14" stroke-linecap="round" stroke-linejoin="round"/>
<path d="M61.6484 13.7861C63.5481 18.7767 62.9987 25.2853 61.6484 32.2912" stroke="#E26D14" stroke-linecap="round" stroke-linejoin="round"/>
<path d="M68.5625 45.412C70.6385 42.7577 72.1392 39.5684 72.3618 35.1851" stroke="#E26D14" stroke-linecap="round" stroke-linejoin="round"/>
<path d="M81.028 44.7645L79.8945 37.7788" stroke="#E26D14" stroke-linecap="round" stroke-linejoin="round"/>
<path d="M59.0898 44.3248L60.0209 41.2715" stroke="#E26D14" stroke-linecap="round" stroke-linejoin="round"/>
<path d="M52.7461 12.3198C55.3455 17.2294 55.545 22.301 53.8419 27.5026" stroke="#E26D14" stroke-linecap="round" stroke-linejoin="round"/>
<path d="M50.0625 40.6619C51.089 38.5772 51.8899 36.1831 51.8899 36.1831" stroke="#E26D14" stroke-linecap="round" stroke-linejoin="round"/>
<path d="M42.1172 11.2383C43.7277 17.0067 43.6872 22.6247 42.1172 28.101" stroke="#E26D14" stroke-linecap="round" stroke-linejoin="round"/>
<path d="M30.9414 12.3198C34.4458 16.8912 35.4578 22.1853 34.3301 28.1012" stroke="#E26D14" stroke-linecap="round" stroke-linejoin="round"/>
<path d="M20.1602 43.2725L25.9488 49.3531" stroke="#E26D14" stroke-linecap="round" stroke-linejoin="round"/>
<path d="M82.7109 50.5239C84.7436 52.0477 86.7763 52.2877 88.8089 51.2497" stroke="#E26D14" stroke-linecap="round" stroke-linejoin="round"/>
<path d="M88.0156 9.80762V15.4285" stroke="#E26D14" stroke-linecap="round" stroke-linejoin="round"/>
<path d="M94.6331 42.7632C92.1985 43.2692 89.8507 43.593 88.0117 42.7979" stroke="#E26D14" stroke-linecap="round" stroke-linejoin="round"/>
<path d="M1 36.8824C4.59114 40.4735 11.1778 44.0676 15.3703 32.4932C19.56 20.9189 24.5506 11.1401 38.5219 11.1401C52.4932 11.1401 63.9808 15.9775 74.4448 13.1352C88.4162 9.34456 98.5939 7.74561 98.5939 7.74561" stroke="#E26D14" stroke-linecap="round" stroke-linejoin="round"/>
<path d="M99.8071 11.3049C99.2115 10.238 98.7836 9.06409 98.5898 7.74561" stroke="#E26D14" stroke-linecap="round" stroke-linejoin="round"/>
<path d="M107.6 8.75767L107.273 6.34912" stroke="#E26D14" stroke-linecap="round" stroke-linejoin="round"/>
<path d="M114.195 16.2842L117.879 17.8455" stroke="#E26D14" stroke-linecap="round" stroke-linejoin="round"/>
<path d="M98.5863 7.74567C98.0543 4.64897 99.5173 2.37921 101.651 1C104.89 1.16481 106.702 3.29868 107.269 6.34912C113.468 7.60688 120.723 12.8259 117.878 17.8454C117.878 17.8454 123.747 22.3184 123.409 25.4122C123.071 28.5089 118.867 29.5759 118.867 29.5759C118.867 29.5759 119.297 35.2575 116.091 34.4624C112.884 33.6672 105.685 29.8187 105.685 29.8187L104.019 30.423C102.143 31.1054 100.064 30.2409 99.1993 28.4222C97.077 25.2098 96.3715 22.2143 100.876 20.0284" stroke="#E26D14" stroke-linecap="round" stroke-linejoin="round"/>
<path d="M86.4154 73.3188C86.4154 73.3188 85.0161 83.9566 83.1896 86.652C81.3644 89.3475 82.0032 89.5261 81.912 92.2652C81.8207 95.0043 82.9158 98.1984 84.1035 98.1984H88.7591C88.9509 96.8731 88.3174 96.0306 86.7514 95.733C86.7514 95.733 86.6601 94.4554 86.7514 93.4502C86.8427 92.4451 88.6678 90.1636 91.0419 88.874C93.416 87.5845 95.1499 84.8692 95.1499 84.8692C95.1499 84.8692 98.1615 86.4206 101.426 87.2432C104.69 88.0646 111.034 87.3345 111.034 87.3345C111.034 87.3345 111.582 89.251 111.947 90.4387C112.312 91.625 114.732 98.1984 115.937 98.1984H121.533C121.533 98.1984 121.533 95.733 119.342 95.733C117.822 95.733 118.155 92.0813 117.425 87.8821C116.695 83.6828 118.825 78.9161 118.825 78.9161" stroke="#E26D14" stroke-linecap="round" stroke-linejoin="round"/>
<path d="M111.399 88.5977C111.399 88.5977 110.477 93.3062 110.02 94.5838C111.548 95.13 111.854 96.2794 111.399 97.8004H106.985C106.985 97.8004 105.89 94.8642 106.529 93.0006C107.168 91.1358 106.102 87.6309 106.102 87.6309" stroke="#E26D14" stroke-linecap="round" stroke-linejoin="round"/>
<path d="M94.4848 85.7831C94.4848 85.7831 95.4265 88.5355 95.2241 91.2733C94.9649 94.7874 95.1368 94.9303 96.06 94.8787C97.7027 94.7874 99.8943 97.8003 97.6114 97.8003H92.9559C92.1345 97.8003 90.2326 93.8352 90.8265 92.0496C91.4269 90.2469 91.0381 88.8754 91.0381 88.8754C88.7196 88.0527 88.1032 86.2394 87.6602 84.4341" stroke="#E26D14" stroke-linecap="round" stroke-linejoin="round"/>
<path d="M109.73 72.4141C111.122 74.5712 111.586 77.1873 111.122 80.2611" stroke="#E26D14" stroke-linecap="round" stroke-linejoin="round"/>
<path d="M106.102 73.2036C106.701 74.6003 106.676 76.8831 106.57 78.3591" stroke="#E26D14" stroke-linecap="round" stroke-linejoin="round"/>
<path d="M102.164 73.1641C103.033 75.4469 102.782 78.4241 102.164 81.6287" stroke="#E26D14" stroke-linecap="round" stroke-linejoin="round"/>
<path d="M105.328 87.6307C106.278 86.4165 106.964 84.9577 107.066 82.9526" stroke="#E26D14" stroke-linecap="round" stroke-linejoin="round"/>
<path d="M111.034 87.3346L110.516 84.1392" stroke="#E26D14" stroke-linecap="round" stroke-linejoin="round"/>
<path d="M100.996 87.1335L101.422 85.7368" stroke="#E26D14" stroke-linecap="round" stroke-linejoin="round"/>
<path d="M98.1211 72.6201C99.3101 74.8659 99.3765 77.0588 98.5975 79.4382" stroke="#E26D14" stroke-linecap="round" stroke-linejoin="round"/>
<path d="M96.8711 85.4579C97.3406 84.5043 97.707 83.4092 97.707 83.4092" stroke="#E26D14" stroke-linecap="round" stroke-linejoin="round"/>
<path d="M93.2344 71.999C93.9711 74.6376 93.9525 77.2074 93.2344 79.7125" stroke="#E26D14" stroke-linecap="round" stroke-linejoin="round"/>
<path d="M88.1211 72.4932C89.7241 74.5842 90.187 77.0059 89.6712 79.7119" stroke="#E26D14" stroke-linecap="round" stroke-linejoin="round"/>
<path d="M83.1914 86.6519L85.8393 89.4333" stroke="#E26D14" stroke-linecap="round" stroke-linejoin="round"/>
<path d="M111.805 89.9688C112.734 90.6658 113.664 90.7755 114.594 90.3007" stroke="#E26D14" stroke-linecap="round" stroke-linejoin="round"/>
<path d="M114.23 71.3442V73.9154" stroke="#E26D14" stroke-linecap="round" stroke-linejoin="round"/>
<path d="M117.255 86.4189C116.142 86.6504 115.068 86.7985 114.227 86.4348" stroke="#E26D14" stroke-linecap="round" stroke-linejoin="round"/>
<path d="M74.4258 83.7293C76.0685 85.3719 79.0814 87.0159 80.9991 81.7215C82.9156 76.4272 85.1984 71.9541 91.5892 71.9541C97.9801 71.9541 103.235 74.1668 108.021 72.8667C114.412 71.1328 119.068 70.4014 119.068 70.4014" stroke="#E26D14" stroke-linecap="round" stroke-linejoin="round"/>
<path d="M119.623 72.0295C119.351 71.5415 119.155 71.0045 119.066 70.4014" stroke="#E26D14" stroke-linecap="round" stroke-linejoin="round"/>
<path d="M123.189 70.8639L123.039 69.7622" stroke="#E26D14" stroke-linecap="round" stroke-linejoin="round"/>
<path d="M126.203 74.3066L127.888 75.0208" stroke="#E26D14" stroke-linecap="round" stroke-linejoin="round"/>
<path d="M119.065 70.4011C118.822 68.9846 119.491 67.9463 120.467 67.3154C121.948 67.3908 122.778 68.3669 123.037 69.7623C125.872 70.3376 129.191 72.7249 127.889 75.0209C127.889 75.0209 130.574 77.067 130.42 78.4822C130.265 79.8987 128.342 80.3867 128.342 80.3867C128.342 80.3867 128.539 82.9857 127.072 82.6219C125.605 82.2582 122.312 80.4978 122.312 80.4978L121.55 80.7743C120.692 81.0864 119.741 80.6909 119.345 79.859C118.375 78.3896 118.052 77.0194 120.112 76.0195" stroke="#E26D14" stroke-linecap="round" stroke-linejoin="round"/>
</svg>
