<svg width="91" height="89" viewBox="0 0 91 89" fill="none" xmlns="http://www.w3.org/2000/svg">
<path d="M61.8912 11.509C61.2703 8.69414 59.698 6.02951 57.2044 3.98595C52.8781 0.43978 46.4287 -0.321545 41.4314 3.75555C40.3498 4.63708 38.2668 6.49031 38.2668 6.49031C38.2167 6.4302 38.0765 6.24989 37.9463 6.09963C34.7216 2.27297 30.7558 0.249449 25.6684 1.28124C20.4007 2.36313 16.8755 5.53865 15.4034 10.7076C13.9413 15.8766 15.3133 20.4145 19.1989 24.121C21.2019 26.0443 23.2749 27.8875 25.3679 29.7207C29.2937 33.1667 33.2194 36.6027 37.2052 39.9686C38.7174 41.2508 38.3168 41.2608 39.8491 39.9285C40.5501 39.3174 41.2511 38.7164 41.9521 38.1053" stroke="#E26D14" stroke-linecap="round" stroke-linejoin="round"/>
<path d="M55.9873 18.1449C55.9873 18.1449 55.8396 17.9572 55.7412 17.8386C53.2208 14.8344 50.1097 13.2434 46.1322 14.0537C42.0071 14.8937 39.2406 17.3939 38.0986 21.4555C36.9467 25.517 38.0296 29.0746 41.0718 31.9997C42.647 33.5018 44.2617 34.9644 45.896 36.3973C48.9677 39.105 52.0394 41.8028 55.1603 44.4513C56.3417 45.4592 56.0267 45.4691 57.2377 44.4216C61.9535 40.3205 66.6694 36.2194 71.2868 31.9997C76.0716 27.6219 75.8156 20.2992 70.8142 16.1784C67.4275 13.3916 62.3867 12.7987 58.4683 16.0005C57.6216 16.6923 55.9873 18.1548 55.9873 18.1548V18.1449Z" stroke="#E26D14" stroke-linecap="round" stroke-linejoin="round"/>
<path d="M77.7219 59.6486L85.5293 38.4117C85.7699 37.7434 86.2373 37.2116 86.7822 36.8802C87.327 36.5489 87.9714 36.4236 88.6462 36.6213C89.9958 36.9805 90.6043 38.3504 90.4245 39.7593L87.5399 61.7982C87.0532 65.1785 86.3148 67.587 82.9158 69.5417L65.495 79.5545C62.0241 81.5482 61.3631 82.5339 61.3603 86.0701L61.3438 88.0276" stroke="#E26D14" stroke-linecap="round" stroke-linejoin="round"/>
<path d="M62.2771 72.5517L76.3984 64.4378C78.0827 63.4689 78.6746 61.3332 77.7204 59.6514C76.7663 57.9696 74.6395 57.396 72.9525 58.365L66.3951 62.1323C61.6105 60.8181 56.4858 61.8149 52.5475 64.836C48.6065 67.8571 46.2723 72.5461 46.2446 77.5331L46.2031 87.9552" stroke="#E26D14" stroke-linecap="round" stroke-linejoin="round"/>
<path d="M23.7773 68.9014H23.7809" stroke="#E26D14" stroke-linecap="round" stroke-linejoin="round"/>
<path d="M14.6866 59.6486L6.87914 38.4117C6.63853 37.7434 6.17113 37.2116 5.6263 36.8802C5.08147 36.5489 4.43707 36.4236 3.76226 36.6213C2.41262 36.9805 1.80418 38.3504 1.98394 39.7593L4.86851 61.7982C5.35527 65.1785 6.09369 67.587 9.49267 69.5417L26.9135 79.5545C30.3844 81.5482 31.0454 82.5339 31.0481 86.0701L31.0647 88.0276" stroke="#E26D14" stroke-linecap="round" stroke-linejoin="round"/>
<path d="M30.1298 72.5517L16.0084 64.4378C14.3241 63.4689 13.7323 61.3332 14.6864 59.6514C15.6406 57.9696 17.7674 57.396 19.4544 58.365L26.0118 62.1323C30.7963 60.8181 35.9211 61.8149 39.8594 64.836C43.8004 67.8571 46.1346 72.5461 46.1623 77.5331L46.2038 87.9552" stroke="#E26D14" stroke-linecap="round" stroke-linejoin="round"/>
</svg>
