<svg width="194" height="48" viewBox="0 0 194 48" fill="none" xmlns="http://www.w3.org/2000/svg">
<path d="M52.5081 20.0258C53.6549 20.0258 54.9315 20.0656 56.0385 20.8136C56.7765 21.3023 57.6441 22.2697 57.6441 23.995C57.6441 25.8899 56.4474 28.1238 53.1264 28.1238H50.3339V33.3198H47.8906V20.0258H52.5081ZM52.6078 26.1791C53.1463 26.1791 53.9242 26.199 54.5425 25.6206C54.9714 25.2317 55.2008 24.5734 55.2008 24.015C55.2008 23.4964 54.9913 22.8681 54.5625 22.4991C54.1336 22.1301 53.4555 21.9505 52.6975 21.9505H50.3339V26.1791H52.6078ZM59.8981 24.4438C60.5763 23.8055 61.5836 23.247 63.0895 23.247C64.6054 23.247 65.6127 23.8055 66.2908 24.4438C67.2981 25.3912 67.8167 26.8672 67.8167 28.3732C67.8167 29.8791 67.2981 31.3551 66.2908 32.3025C65.6127 32.9408 64.6054 33.5092 63.0895 33.5092C61.5836 33.5092 60.5763 32.9408 59.8981 32.3025C58.8909 31.3551 58.3723 29.8791 58.3723 28.3732C58.3623 26.8573 58.8909 25.3912 59.8981 24.4438ZM61.5437 31.1656C61.7531 31.4149 62.2418 31.8836 63.0895 31.8836C63.9472 31.8836 64.4259 31.4249 64.6353 31.1656C64.7949 30.9961 65.3733 30.2182 65.3733 28.3732C65.3733 26.5282 64.7949 25.7602 64.6353 25.5807C64.4259 25.3314 63.9372 24.8627 63.0895 24.8627C62.2418 24.8627 61.7531 25.3214 61.5437 25.5807C61.3941 25.7602 60.8057 26.5282 60.8057 28.3732C60.8057 30.2082 61.3941 30.9861 61.5437 31.1656ZM75.5457 27.0567C75.5058 26.5581 75.3163 25.9697 75.057 25.6007C74.8176 25.2516 74.3589 24.8627 73.581 24.8627C72.823 24.8627 72.3244 25.2516 72.0152 25.7702C71.5265 26.568 71.4966 27.8047 71.4966 28.3732C71.4966 29.2807 71.6263 30.3678 72.0152 30.9861C72.2645 31.375 72.7732 31.8737 73.581 31.8737C74.1594 31.8737 74.6481 31.6443 75.0171 31.1357C75.3063 30.7268 75.5058 30.1483 75.5357 29.6397L77.5901 29.8891C77.4704 30.7966 77.0715 31.8138 76.3535 32.4621C75.7551 33.0006 74.8176 33.4893 73.5012 33.4893C72.0352 33.4893 71.0778 32.9109 70.5193 32.3823C69.7613 31.6642 69.0433 30.3877 69.0433 28.3732C69.0433 26.4982 69.6815 25.3713 70.1902 24.7729C70.9082 23.9152 72.1249 23.2271 73.561 23.2271C74.7877 23.2271 75.795 23.6559 76.4233 24.3142C77.0615 24.9524 77.4505 25.9198 77.5901 26.7875L75.5457 27.0567ZM85.1597 27.0567C85.1198 26.5581 84.9303 25.9697 84.671 25.6007C84.4417 25.2516 83.9729 24.8627 83.195 24.8627C82.4371 24.8627 81.9384 25.2516 81.6293 25.7702C81.1506 26.568 81.1107 27.8047 81.1107 28.3732C81.1107 29.2807 81.2503 30.3678 81.6293 30.9861C81.8786 31.375 82.3872 31.8737 83.195 31.8737C83.7735 31.8737 84.2621 31.6443 84.6311 31.1357C84.9204 30.7268 85.1198 30.1483 85.1497 29.6397L87.2042 29.8891C87.0945 30.7966 86.6856 31.8138 85.9675 32.4621C85.3691 33.0006 84.4417 33.4893 83.1252 33.4893C81.6492 33.4893 80.7018 32.9109 80.1433 32.3823C79.3854 31.6642 78.6673 30.3877 78.6673 28.3732C78.6673 26.4982 79.3056 25.3713 79.8142 24.7729C80.5322 23.9152 81.749 23.2271 83.1851 23.2271C84.4018 23.2271 85.409 23.6559 86.0473 24.3142C86.6856 24.9524 87.0745 25.9198 87.2141 26.7875L85.1597 27.0567ZM97.5763 30.4475C97.2273 31.6044 96.5289 32.2826 95.9505 32.6915C95.1726 33.21 94.1653 33.5092 93.0982 33.5092C91.7618 33.5092 90.4055 32.9408 89.5877 32.113C88.8298 31.3451 88.2713 29.9987 88.2713 28.413C88.2713 26.3985 89.109 25.0621 90.0166 24.3042C90.5451 23.8554 91.5325 23.2371 93.0184 23.2371C94.9033 23.2371 96.1001 24.1047 96.7384 25.0023C97.4163 25.9298 97.7353 27.2263 97.7353 28.3532V28.802H90.7247C90.7247 28.9117 90.7047 29.8093 91.0538 30.5273C91.5724 31.6144 92.5298 31.8836 93.188 31.8836C93.7066 31.8836 94.3648 31.7241 94.9133 31.1656C95.2424 30.8165 95.382 30.4874 95.4319 30.1783L97.5763 30.4475ZM95.2923 27.326C95.2923 26.7675 95.1527 26.1292 94.8634 25.7004C94.4944 25.1618 93.8362 24.7928 93.1182 24.7928C92.3802 24.7928 91.7419 25.1618 91.3529 25.6206C91.0438 26.0096 90.7745 26.6079 90.7745 27.326H95.2923ZM107.299 23.4365V33.3198H105.046V25.112H102.492C102.433 26.4484 102.393 26.9869 102.353 27.9044C102.293 28.9316 102.223 31.0958 101.346 32.2826C100.857 32.9208 100.258 33.1702 99.8303 33.2898C99.5803 33.3696 99.3113 33.3995 99.0323 33.3995C98.8423 33.3995 98.6433 33.3796 98.4533 33.3198V31.6144H98.6433C98.9323 31.5944 99.3213 31.4448 99.5703 31.2454C100.348 30.627 100.418 29.2308 100.498 28.1238C100.598 26.6678 100.618 25.8001 100.627 24.4837L100.647 23.4365H107.299ZM111.917 26.957H114.4C115.038 26.957 116.275 27.0368 117.093 27.8446C117.831 28.5626 117.901 29.5699 117.901 30.1085C117.901 31.5246 117.322 32.2427 116.873 32.6117C116.714 32.7314 115.986 33.3098 114.59 33.3098H109.673V23.4365H111.917V26.957ZM111.917 31.6842H113.682C114.111 31.6842 114.57 31.6642 114.959 31.3351C115.188 31.1157 115.467 30.7567 115.467 30.1284C115.467 29.5899 115.308 29.161 114.869 28.8718C114.48 28.6225 113.991 28.5826 113.692 28.5826H111.927V31.6842H111.917ZM121.172 23.4365L122.997 26.5082L124.892 23.4365H126.946L124.054 27.9044L127.485 33.3098H124.852L122.608 29.5899L120.244 33.3098H118.19L121.561 28.1837L118.539 23.4365H121.172ZM129.22 24.4438C129.898 23.8055 130.906 23.247 132.411 23.247C133.927 23.247 134.935 23.8055 135.613 24.4438C136.62 25.3912 137.139 26.8672 137.139 28.3732C137.139 29.8791 136.61 31.3551 135.613 32.3025C134.935 32.9408 133.927 33.5092 132.411 33.5092C130.906 33.5092 129.898 32.9408 129.22 32.3025C128.213 31.3551 127.694 29.8791 127.694 28.3732C127.694 26.8573 128.213 25.3912 129.22 24.4438ZM130.866 31.1656C131.075 31.4149 131.564 31.8836 132.411 31.8836C133.269 31.8836 133.748 31.4249 133.967 31.1656C134.117 30.9961 134.705 30.2182 134.705 28.3732C134.705 26.5282 134.127 25.7602 133.967 25.5807C133.758 25.3314 133.269 24.8627 132.411 24.8627C131.564 24.8627 131.075 25.3214 130.866 25.5807C130.706 25.7602 130.128 26.5282 130.128 28.3732C130.128 30.2082 130.716 30.9861 130.866 31.1656ZM138.345 26.1093C138.635 24.9125 139.392 24.2543 139.931 23.9252C140.26 23.7158 141.168 23.247 142.723 23.247C143.691 23.247 144.678 23.4166 145.416 23.8255C146.503 24.4239 146.772 25.2915 146.772 25.9198C146.772 26.598 146.443 27.8945 144.758 28.0839V28.1238C145.336 28.2036 145.975 28.4529 146.364 28.8618C146.713 29.2308 146.982 29.8492 146.982 30.5074C146.982 31.4947 146.403 32.3624 145.665 32.851C144.778 33.4295 143.551 33.5092 142.644 33.5092C141.726 33.5092 140.34 33.4095 139.363 32.6416C138.824 32.2128 138.315 31.4748 138.166 30.5473L140.2 30.1982C140.28 30.5074 140.45 30.9761 140.679 31.2454C141.188 31.8338 141.975 31.8836 142.484 31.8836C142.993 31.8836 143.531 31.8238 143.96 31.5346C144.349 31.2653 144.539 30.8963 144.539 30.4076C144.539 29.9988 144.459 29.6696 144.11 29.3804C143.661 29.0114 143.063 28.9516 142.504 28.9516H141.477V27.4357H142.504C142.893 27.4357 143.451 27.3559 143.761 27.2063C144.17 26.9969 144.399 26.6478 144.399 26.0794C144.399 25.7702 144.279 25.471 143.99 25.2416C143.541 24.8726 142.903 24.8527 142.574 24.8527C142.125 24.8527 141.467 24.9125 140.928 25.3713C140.699 25.5608 140.39 25.9298 140.29 26.5082L138.345 26.1093ZM158.481 22.3495H152.068V25.2915H154.92C155.948 25.2915 156.935 25.3713 157.942 26.0694C158.93 26.7476 159.548 27.7548 159.548 29.2109C159.548 30.5672 159.039 31.5745 158.401 32.2127C157.434 33.1801 156.327 33.3198 155.17 33.3198H148.967V20.0258H158.481V22.3495ZM152.068 30.9861H154.571C155.04 30.9861 155.469 30.9661 155.908 30.5173C156.337 30.0885 156.396 29.6098 156.396 29.2408C156.396 28.8219 156.277 28.3931 155.908 28.0241C155.469 27.5853 154.9 27.5354 154.492 27.5354H152.068V30.9861ZM161.144 26.1791C161.453 24.8427 162.32 24.1645 162.849 23.8554C163.617 23.4066 164.644 23.2371 165.931 23.2371C167.556 23.2371 169.202 23.4465 169.94 24.9823C170.329 25.7802 170.289 26.6279 170.289 27.3659V31.1855C170.289 31.9834 170.398 32.7214 170.578 33.3198H167.766C167.686 32.9308 167.626 32.4122 167.616 31.754C167.247 32.4122 166.349 33.5192 164.305 33.5192C163.397 33.5192 162.46 33.2898 161.822 32.7613C161.203 32.2526 160.814 31.4448 160.814 30.5572C160.814 29.5699 161.243 28.3831 162.929 27.685C164.016 27.2362 165.781 27.0866 166.569 27.0467L167.496 27.0069V26.7974C167.496 26.5281 167.476 25.9497 167.207 25.6306C166.838 25.2017 166.1 25.1818 165.811 25.1818C165.412 25.1818 164.923 25.2217 164.514 25.471C164.265 25.6206 163.936 25.9397 163.816 26.4783L161.144 26.1791ZM166.629 28.6424C165.661 28.7222 164.694 28.8219 164.145 29.4901C163.996 29.6796 163.836 29.9788 163.836 30.3777C163.836 30.8066 164.046 31.0958 164.265 31.2454C164.534 31.4548 164.943 31.5545 165.332 31.5545C165.911 31.5545 166.589 31.3052 166.978 30.8365C167.038 30.7766 167.496 30.1982 167.496 29.0713V28.5527L166.629 28.6424ZM175.415 23.4365V27.1365H178.536V23.4365H181.419V33.3098H178.536V29.161H175.415V33.3098H172.533V23.4365H175.415ZM186.555 23.4365V27.2362H187.333C188.17 27.2362 188.519 26.8273 188.729 26.3786C189.138 25.5109 189.118 24.8327 189.487 24.1546C189.776 23.616 190.165 23.4764 190.414 23.4365H192.798C192.489 23.7656 192.219 24.1546 192.04 24.5036C191.731 25.1419 191.442 26.1891 191.262 26.6379C191.033 27.2562 190.644 27.8745 189.656 27.9543V27.9942C190.185 28.074 190.724 28.3432 191.132 28.9416C191.382 29.3106 191.551 29.7893 191.831 30.5473C192.1 31.3252 192.219 31.5944 192.469 32.1928C192.668 32.6416 192.778 32.9109 193.107 33.3198H190.394C189.966 33.1801 189.676 32.8909 189.327 31.8836C189.058 31.1157 189.018 30.8365 188.839 30.4076L188.699 30.0586C188.41 29.3206 188.021 29.171 187.422 29.171H186.555V33.3198H183.673V23.4365H186.555Z" fill="#19502E"/>
<path d="M21.3223 48C9.5641 48 0 38.4459 0 26.6877C0 19.936 3.1016 13.7228 8.507 9.6539L8.7264 9.4743V0H20.9632V5.37544H21.3223C33.0704 5.37544 42.6345 14.9395 42.6345 26.6977C42.6345 38.4459 33.0704 48 21.3223 48Z" fill="#19502E"/>
<path d="M15.1478 27.0267L19.5858 22.6685V19.7065L15.1478 24.0448V27.0267ZM15.1478 15.9866L19.5858 11.6184V8.82604L15.1478 13.1642V15.9866ZM15.1478 19.6367L19.5858 15.2785V12.4861L15.1478 16.8243V19.6367ZM13.8813 8.85596L13.2929 8.2875V1.37622H12.6148V7.62929L12.0363 7.05085V1.37622H11.3582V6.40261L10.7698 5.82417V1.37622H10.1016V7.96837L14.5495 12.3265V1.37622H13.8813V8.85596ZM15.1478 23.2868L19.5858 18.9286V16.1362L15.1478 20.4744V23.2868ZM10.1016 22.6685L14.5495 27.0267V24.0448L10.1016 19.7065V22.6685ZM18.9176 5.82417L18.3292 6.40261V1.37622H17.661V7.06083L17.0726 7.62929V1.37622H16.4044V8.27753L15.816 8.85596V1.37622H15.1478V12.3265L19.5858 7.96837V1.37622H18.9176V5.82417ZM10.1016 11.6184L14.5495 15.9866V13.1642L10.1016 8.82604V11.6184ZM10.1016 15.2785L14.5495 19.6367V16.8243L10.1016 12.4861V15.2785ZM10.1016 18.9286L14.5495 23.2868V20.4744L10.1016 16.1362V18.9286ZM36.5599 21.2324H25.7592C25.9886 20.8734 26.1182 20.4545 26.1182 20.0057C26.1182 18.7192 25.071 17.682 23.7845 17.682C22.498 17.682 21.4608 18.7292 21.4608 20.0057C21.4608 20.5144 21.6204 20.9731 21.8996 21.3521C21.7002 21.4817 21.5605 21.7111 21.5605 21.9804C21.5605 22.2397 21.7002 22.4691 21.8996 22.5987C21.6304 22.9777 21.4608 23.4464 21.4608 23.9451C21.4608 25.2316 22.498 26.2688 23.7845 26.2688C25.071 26.2688 26.1182 25.2316 26.1182 23.9451C26.1182 23.4963 25.9886 23.0674 25.7592 22.7184H33.7974V23.2071H32.9996V23.8952H33.7974V24.6033H32.9996V25.9097H33.7974V25.3213H34.9742V25.9097H35.7621V24.6033H34.9742V23.8952H35.7621V23.2071H34.9742V22.7184H36.5599C36.8691 22.7184 37.1184 22.4591 37.1184 22.1499V21.8009C37.1184 21.4917 36.8591 21.2324 36.5599 21.2324ZM24.9913 23.9451C24.9913 24.6033 24.4527 25.1418 23.7845 25.1418C23.1263 25.1418 22.5878 24.6033 22.5878 23.9451C22.5878 23.7057 22.6576 23.4763 22.7872 23.2868L23.1163 22.7184C22.9069 22.5389 22.7772 22.2696 22.7772 21.9704C22.7772 21.6712 22.9069 21.402 23.1163 21.2224L22.7872 20.654C22.6576 20.4645 22.5878 20.2451 22.5878 19.9958C22.5878 19.3375 23.1263 18.799 23.7845 18.799C24.4427 18.799 24.9913 19.3375 24.9913 19.9958C24.9913 20.4844 24.4228 21.6513 24.4228 21.6513V22.2796C24.4228 22.2896 24.9913 23.4564 24.9913 23.9451Z" fill="#FFCB05"/>
<path d="M6.0625 19.8163V22.7185C6.0625 25.491 7.26922 27.2761 7.96732 27.9643C8.37622 28.3632 12.505 32.4322 12.5649 32.482C13.8514 33.7386 14.0708 34.1475 14.36 34.8656V31.6543C14.36 28.792 12.9139 27.685 12.1659 26.957C10.4207 25.2616 9.26382 24.1446 8.31642 23.2071C6.5412 21.422 6.0625 19.8163 6.0625 19.8163ZM12.166 34.1276C10.4307 32.4222 9.26382 31.3152 8.32642 30.3777C6.54124 28.5926 6.07251 27.3858 6.07251 27.3858V29.889C6.07251 32.6615 7.32912 34.4268 7.96742 35.1548C8.37622 35.5537 12.515 39.6027 12.5649 39.6526C13.8514 40.9092 14.0708 41.5076 14.36 42.2157V38.8248C14.36 35.9626 12.904 34.8556 12.166 34.1276Z" fill="white"/>
<path d="M21.321 6.7417C21.0019 6.7417 20.6827 6.75167 20.3636 6.76165V8.11797C20.6827 8.09803 20.9919 8.09803 21.321 8.09803C31.5832 8.09803 39.9007 16.4155 39.9007 26.6877C39.9007 36.9499 31.5832 45.2674 21.321 45.2674C11.0588 45.2674 2.73133 36.9499 2.73133 26.6877C2.73133 20.9931 5.29439 15.8969 9.33348 12.4862V10.7509C4.49655 14.391 1.375 20.1753 1.375 26.6877C1.375 37.6979 10.3008 46.6237 21.321 46.6237C32.3312 46.6237 41.257 37.6979 41.257 26.6877C41.257 15.6775 32.3312 6.7417 21.321 6.7417Z" fill="white"/>
<path d="M35.4258 37.0995C35.7349 36.6806 36.0242 36.2418 36.3034 35.793V33.1203H35.4258V37.0995ZM37.9789 32.1429C38.1085 31.754 38.2182 31.3651 38.3179 30.9761H35.4258V31.6842H35.8646C36.6325 31.6642 37.5002 31.6543 37.9789 32.1429Z" fill="white"/>
<path d="M18.7176 30.8763H17.9297V38.8247H18.7176V30.8763Z" fill="white"/>
<path d="M16.1277 29.3505H18.7206C19.3888 29.3505 19.8576 29.4901 20.1268 29.7494C20.3961 30.0087 20.5258 30.4775 20.5258 31.1457V38.5755C20.5258 39.2437 20.3961 39.7125 20.1268 39.9718C19.7179 40.3806 18.96 40.3806 18.3317 40.3806C18.1921 40.3707 18.0525 40.3707 17.9328 40.3707V43.8911C18.1921 43.941 18.4514 43.9909 18.7206 44.0308V41.1386C19.9174 41.1386 20.6953 40.7297 21.0643 39.9119V44.2202H21.3236C21.4832 44.2202 21.6527 44.2202 21.8123 44.2103V31.2753C21.8123 30.5872 21.9519 30.1085 22.2112 29.8392C22.4705 29.5699 22.9392 29.4303 23.5974 29.4303C24.2656 29.4303 25.253 29.3306 25.7616 29.8392C26.0209 30.1085 26.1405 30.5971 26.1405 31.2753V35.085H24.3654V31.016H23.5974V44.0707C23.8567 44.0407 24.1061 44.0008 24.3654 43.951V35.8529H26.1405V43.5421C26.5095 43.4424 26.8686 43.3227 27.2276 43.193V36.1521C27.2276 35.3543 27.4171 34.7559 28.2249 34.4866L27.3273 29.5899H29.1225L29.4217 34.9354H29.6411L29.9403 29.5899H31.8351L30.8179 34.4866C31.6656 34.7858 31.8351 35.3044 31.8351 36.1521V40.6998C32.3637 40.3009 32.8623 39.882 33.341 39.4232V29.54H38.6068C38.6467 29.3007 38.6766 29.0713 38.7065 28.822H26.3998L26.5694 29.7095C26.1804 28.9915 25.4424 28.6325 24.3554 28.6325H23.5875C22.281 28.6325 21.4931 29.1511 21.184 30.1883C20.9047 29.1012 20.077 28.5627 18.7107 28.5627H15.3398V43.1531C15.5991 43.2429 15.8584 43.3326 16.1177 43.4124V29.3505H16.1277ZM32.4734 34.9653L31.6257 34.1575L32.4734 29.7694V34.9653Z" fill="white"/>
<path d="M29.1328 42.3853C29.4021 42.2457 29.6713 42.1061 29.9406 41.9565V35.9427H29.1328V42.3853Z" fill="white"/>
</svg>
