<svg width="99" height="49" viewBox="0 0 99 49" fill="none" xmlns="http://www.w3.org/2000/svg">
<path fill-rule="evenodd" clip-rule="evenodd" d="M96.1034 3.71637V45.9089H53.9062V3.71637H96.1009H96.1034ZM98.9809 48.7189V0.838867H51.0312V48.7189H98.9784H98.9809Z" fill="#171796"/>
<path fill-rule="evenodd" clip-rule="evenodd" d="M96.1803 3.63892V45.9864H53.8281V3.63892H96.1778H96.1803Z" fill="white"/>
<path fill-rule="evenodd" clip-rule="evenodd" d="M69.5432 27.104C69.4007 26.919 69.2982 26.734 69.2207 26.554C69.3857 27.8965 69.4482 28.8015 70.1707 29.6715C70.1707 29.6715 70.6107 29.089 70.3282 27.6765C70.2082 27.6415 70.0707 27.584 69.9382 27.494C69.9382 27.494 70.1032 28.0665 70.0007 28.6465C70.0007 28.6465 69.7382 28.4565 69.5482 27.104H69.5432Z" fill="#171796"/>
<path fill-rule="evenodd" clip-rule="evenodd" d="M68.2885 26.964C68.201 26.854 68.036 26.624 67.9485 26.459C67.8885 27.2365 67.6835 29.289 68.371 29.9315C68.371 29.9315 68.841 29.5865 69.0085 26.5965C68.906 26.764 68.7335 26.9415 68.646 27.0365C68.646 27.0365 68.761 27.9865 68.4185 28.654C68.4185 28.654 68.0785 28.394 68.2885 26.9615V26.964Z" fill="#171796"/>
<path fill-rule="evenodd" clip-rule="evenodd" d="M66.6484 28.5313C67.2284 27.8388 67.4009 25.7688 67.4009 25.7688C67.4809 25.7163 67.5634 25.6563 67.6409 25.5938C67.6759 25.5663 67.7059 25.5388 67.7384 25.5088C67.7359 25.5863 67.7384 25.6638 67.7459 25.7413C67.6609 26.9863 67.5634 28.2713 67.1759 28.9113C66.7934 29.5363 66.0934 29.8638 66.0934 29.8638C65.4334 28.6938 66.2284 27.1263 66.8934 26.0338C66.9784 26.0038 67.0584 25.9638 67.1434 25.9213C66.9084 26.7613 66.4659 27.7588 66.6484 28.5313Z" fill="#171796"/>
<path fill-rule="evenodd" clip-rule="evenodd" d="M65.02 24.9365C65.015 25.0715 65.0401 25.179 65.0576 25.234C65.0651 25.2565 65.0725 25.2865 65.09 25.319C64.54 25.8615 64.1326 26.3765 63.3151 27.5115C62.4976 28.6465 61.2051 28.6915 61.2051 28.6915C61.3301 27.7715 61.5801 27.0465 62.2726 26.264C62.9651 25.4815 63.8476 24.7665 64.5026 24.2915C64.6701 24.369 64.885 24.419 65.1625 24.3865C65.1825 24.3865 65.205 24.379 65.225 24.379C65.1375 24.4915 65.085 24.6065 65.055 24.714C64.5626 24.9965 63.1351 25.7215 62.5551 26.889C62.5551 26.889 63.4601 26.6065 65.0225 24.939L65.02 24.9365Z" fill="#171796"/>
<path fill-rule="evenodd" clip-rule="evenodd" d="M63.9945 23.7915L64.047 23.694C64.062 23.664 64.082 23.6315 64.1045 23.604C63.572 23.8115 61.677 24.5265 61.0645 24.844C60.4495 25.1615 59.5645 25.884 59.082 27.349C59.082 27.349 60.3595 27.4665 61.4145 26.5915C62.4695 25.7165 63.6995 24.499 64.2245 24.1115C64.172 24.064 64.1295 24.0165 64.102 23.9765C64.102 23.9765 62.672 25.244 61.167 25.789C61.167 25.789 61.487 25.2015 62.0845 24.779C62.812 24.2615 63.3545 24.0865 63.992 23.794L63.9945 23.7915Z" fill="#171796"/>
<path fill-rule="evenodd" clip-rule="evenodd" d="M62.9133 22.9314C62.9333 22.8814 62.9533 22.8314 62.9758 22.7839C62.3508 22.9139 60.7883 23.0989 60.0883 23.3114C59.3933 23.5264 58.1284 24.0364 57.3809 25.4639C57.3809 25.4639 58.4809 25.8064 60.5558 24.8264C62.6283 23.8514 63.2783 23.6489 63.6733 23.5439C63.3583 23.5189 63.1333 23.4139 63.0183 23.3439C62.1933 23.7114 61.0833 24.1464 59.9858 24.1764C59.9858 24.1764 60.5283 23.7914 61.0958 23.5539C61.7158 23.2964 62.3908 23.0589 62.9108 22.9289L62.9133 22.9314Z" fill="#171796"/>
<path fill-rule="evenodd" clip-rule="evenodd" d="M62.9655 21.9013C63.168 21.9963 63.323 22.0463 63.588 22.0738C63.443 22.1663 63.3055 22.2863 63.183 22.4463C62.453 22.6563 61.2055 22.8863 59.1505 23.0338C57.0955 23.1838 55.998 22.8038 55.998 22.8038C56.713 22.3688 57.8555 21.9213 58.628 21.7713C59.4005 21.6238 61.428 21.6388 62.318 21.5188C62.328 21.5288 62.4355 21.6163 62.6105 21.7213C61.863 21.7888 60.268 21.8638 59.448 22.2813C59.448 22.2813 60.9655 22.4838 62.963 21.9013H62.9655Z" fill="#171796"/>
<path fill-rule="evenodd" clip-rule="evenodd" d="M62.8134 20.7214C62.9159 20.6589 63.0409 20.5989 63.1959 20.5414C62.1559 20.2239 60.7259 19.7239 58.5759 19.5814C56.9984 19.4789 55.8609 19.5714 55.2734 19.7214C55.2734 19.7214 56.7084 20.7339 58.3509 21.0914C59.9909 21.4464 61.3259 21.2214 62.2984 21.2289C62.3634 21.1339 62.4359 21.0264 62.5509 20.9189C61.4109 20.9264 59.5134 20.6289 58.8359 20.4039C58.8359 20.4039 60.5234 19.9189 62.8159 20.7214H62.8134Z" fill="#171796"/>
<path fill-rule="evenodd" clip-rule="evenodd" d="M62.8064 19.4964C62.8139 19.5264 62.9339 20.1114 63.6138 20.4389C62.1539 19.7964 59.2739 19.4289 57.7264 18.7864C55.6339 17.9164 55.2539 16.8314 55.2539 16.8314C57.0639 16.7839 58.5264 17.2264 59.6539 17.5714C60.9739 17.9764 62.9864 18.7264 63.6888 19.0389C63.4239 19.0514 63.1339 19.1264 62.8914 19.2889C62.0989 18.9589 61.4189 18.7014 60.5289 18.4414C59.6764 18.1914 59.0664 18.0614 58.3414 18.0489C58.3414 18.0489 59.1189 18.6489 60.6264 19.0714C61.6489 19.3589 62.2189 19.4339 62.8014 19.4964H62.8064Z" fill="#171796"/>
<path fill-rule="evenodd" clip-rule="evenodd" d="M62.803 18.0438C62.863 18.1463 62.9255 18.2538 62.993 18.3538C60.6805 17.9663 58.1405 16.2188 57.3555 15.1363C56.5705 14.0538 56.7955 12.4363 56.7955 12.4363C57.5555 12.5913 59.213 14.0163 59.6405 14.4463C60.068 14.8738 61.3655 16.1363 62.263 16.8413L62.503 17.5163C61.733 16.8988 60.9655 16.2713 60.398 15.8413C59.9605 15.5113 59.143 14.8663 58.218 14.6513C58.218 14.6513 58.738 15.5263 59.5205 16.1513C60.368 16.8288 60.9455 17.1188 61.238 17.2763C61.8555 17.6063 62.173 17.7438 62.8055 18.0488L62.803 18.0438Z" fill="#171796"/>
<path fill-rule="evenodd" clip-rule="evenodd" d="M63.256 15.1564C63.2535 15.2589 63.2485 15.3714 63.2535 15.4889L63.266 15.5864C62.706 14.8714 62.1385 14.0564 61.4961 13.2664C60.9311 12.5689 60.4636 12.2439 59.9586 11.9214C60.1486 12.9814 61.0586 14.1564 61.4961 14.5564C61.9361 14.9564 62.711 15.6614 63.3335 16.0739L63.3485 16.1489C63.3985 16.3364 63.471 16.5264 63.5735 16.7089C63.7185 16.9639 63.9085 17.2139 64.1335 17.4564C63.951 17.3664 63.746 17.2714 63.5385 17.1839L63.346 17.1039C61.6411 16.1964 59.9461 14.3239 59.2636 13.0189C58.5786 11.7139 58.8611 10.2014 59.0461 9.39136C59.8211 10.0464 60.9361 11.3414 61.4211 12.0464C62.0185 12.9089 62.7835 14.1314 63.2585 15.1264V15.1564H63.256Z" fill="#171796"/>
<path fill-rule="evenodd" clip-rule="evenodd" d="M65.4354 25.4588C64.7329 26.1613 63.2479 27.7388 63.3904 29.4513C63.3904 29.4513 64.7679 29.0213 65.3329 28.0113C65.9004 27.0013 66.2504 26.3663 66.4904 26.1413C66.3354 26.1613 66.1854 26.1613 66.0354 26.1388L65.9104 26.1188C65.5629 26.7538 64.8704 27.7988 64.2479 28.1613C64.2479 28.1613 64.0904 27.3163 65.9229 25.6088C65.9479 25.5388 65.9854 25.4588 66.0354 25.3713C65.8679 25.4288 65.6779 25.4663 65.4629 25.4613H65.4404L65.4354 25.4588Z" fill="#171796"/>
<path fill-rule="evenodd" clip-rule="evenodd" d="M80.4553 27.104C80.5953 26.919 80.6978 26.734 80.7753 26.554C80.6128 27.8965 80.5528 28.8015 79.8303 29.6715C79.8303 29.6715 79.3903 29.089 79.6728 27.6765C79.7953 27.6415 79.9278 27.584 80.0628 27.494C80.0628 27.494 79.8978 28.0665 80.0003 28.6465C80.0003 28.6465 80.2628 28.4565 80.4553 27.104Z" fill="#171796"/>
<path fill-rule="evenodd" clip-rule="evenodd" d="M81.7083 26.964C81.7958 26.854 81.9608 26.624 82.0483 26.459C82.1083 27.2365 82.3158 29.289 81.6258 29.9315C81.6258 29.9315 81.1558 29.5865 80.9883 26.5965C81.0883 26.764 81.2633 26.9415 81.3483 27.0365C81.3483 27.0365 81.2333 27.9865 81.5758 28.654C81.5758 28.654 81.9158 28.394 81.7058 26.9615L81.7083 26.964Z" fill="#171796"/>
<path fill-rule="evenodd" clip-rule="evenodd" d="M83.3455 28.5313C82.768 27.8388 82.593 25.7688 82.593 25.7688C82.513 25.7163 82.433 25.6563 82.353 25.5938C82.318 25.5663 82.288 25.5388 82.2555 25.5088C82.2555 25.5863 82.2555 25.6638 82.248 25.7413C82.3305 26.9863 82.4305 28.2713 82.8205 28.9113C83.198 29.5363 83.9005 29.8638 83.9005 29.8638C84.5555 28.6938 83.763 27.1263 83.098 26.0338C83.018 26.0038 82.933 25.9638 82.848 25.9213C83.083 26.7613 83.5255 27.7588 83.343 28.5313H83.3455Z" fill="#171796"/>
<path fill-rule="evenodd" clip-rule="evenodd" d="M84.9751 24.9365C84.9801 25.0715 84.9551 25.179 84.9376 25.234C84.9301 25.2565 84.9226 25.2865 84.9051 25.319C85.4551 25.8615 85.8651 26.3765 86.6801 27.5115C87.4976 28.6465 88.79 28.6915 88.79 28.6915C88.6651 27.7715 88.4176 27.0465 87.7226 26.264C87.0301 25.4815 86.1451 24.7665 85.4926 24.2915C85.3276 24.369 85.1076 24.419 84.8326 24.3865C84.8126 24.3865 84.7901 24.379 84.7676 24.379C84.8551 24.4915 84.9076 24.6065 84.9376 24.714C85.4301 24.9965 86.8576 25.7215 87.4376 26.889C87.4376 26.889 86.5326 26.6065 84.9701 24.939L84.9751 24.9365Z" fill="#171796"/>
<path fill-rule="evenodd" clip-rule="evenodd" d="M86.0012 23.7915L85.9462 23.694C85.9287 23.664 85.9112 23.6315 85.8887 23.604C86.4187 23.8115 88.3112 24.5265 88.9262 24.844C89.5387 25.1615 90.4236 25.884 90.9061 27.349C90.9061 27.349 89.6286 27.4665 88.5737 26.5915C87.5187 25.7165 86.2912 24.499 85.7637 24.1115C85.8187 24.064 85.8587 24.0165 85.8887 23.9765C85.8887 23.9765 87.3162 25.244 88.8237 25.789C88.8237 25.789 88.5012 25.2015 87.9062 24.779C87.1787 24.2615 86.6362 24.0865 86.0012 23.794V23.7915Z" fill="#171796"/>
<path fill-rule="evenodd" clip-rule="evenodd" d="M87.0823 22.9313C87.0623 22.8813 87.0423 22.8313 87.0198 22.7838C87.6448 22.9138 89.2072 23.0988 89.9047 23.3113C90.6022 23.5263 91.8647 24.0363 92.6147 25.4638C92.6147 25.4638 91.5147 25.8063 89.4397 24.8263C87.3673 23.8513 86.7173 23.6488 86.3223 23.5438C86.6373 23.5188 86.8598 23.4138 86.9773 23.3438C87.8023 23.7113 88.9097 24.1463 90.0097 24.1763C90.0097 24.1763 89.4672 23.7913 88.8972 23.5538C88.2797 23.2963 87.6023 23.0588 87.0823 22.9288V22.9313Z" fill="#171796"/>
<path fill-rule="evenodd" clip-rule="evenodd" d="M87.0307 21.9013C86.8257 21.9963 86.6707 22.0463 86.4082 22.0738C86.5507 22.1663 86.6907 22.2863 86.8132 22.4463C87.5432 22.6563 88.7907 22.8863 90.8457 23.0338C92.9007 23.1838 93.9981 22.8038 93.9981 22.8038C93.2832 22.3688 92.1407 21.9213 91.3657 21.7713C90.5957 21.6238 88.5682 21.6388 87.6782 21.5188C87.6657 21.5288 87.5607 21.6163 87.3857 21.7213C88.1332 21.7888 89.7257 21.8638 90.5482 22.2813C90.5482 22.2813 89.0332 22.4838 87.0332 21.9013H87.0307Z" fill="#171796"/>
<path fill-rule="evenodd" clip-rule="evenodd" d="M87.1847 20.7213C87.0797 20.6588 86.9547 20.5988 86.8047 20.5413C87.8447 20.2238 89.2747 19.7238 91.4222 19.5813C92.9996 19.4788 94.1371 19.5713 94.7271 19.7213C94.7271 19.7213 93.2921 20.7338 91.6522 21.0913C90.0097 21.4463 88.6747 21.2213 87.7022 21.2288C87.6372 21.1338 87.5647 21.0263 87.4522 20.9188C88.5897 20.9263 90.4872 20.6288 91.1647 20.4038C91.1647 20.4038 89.4772 19.9188 87.1872 20.7213H87.1847Z" fill="#171796"/>
<path fill-rule="evenodd" clip-rule="evenodd" d="M87.1872 19.4963C87.1822 19.5263 87.0622 20.1113 86.3797 20.4388C87.8397 19.7963 90.7197 19.4288 92.2671 18.7863C94.3596 17.9163 94.7396 16.8313 94.7396 16.8313C92.9296 16.7838 91.4671 17.2263 90.3397 17.5713C89.0197 17.9763 87.0072 18.7263 86.3047 19.0388C86.5697 19.0513 86.8572 19.1263 87.0997 19.2888C87.8922 18.9588 88.5747 18.7013 89.4622 18.4413C90.3172 18.1913 90.9222 18.0613 91.6497 18.0488C91.6497 18.0488 90.8722 18.6488 89.3672 19.0713C88.3422 19.3588 87.7722 19.4338 87.1872 19.4963Z" fill="#171796"/>
<path fill-rule="evenodd" clip-rule="evenodd" d="M87.1939 18.0438C87.1339 18.1463 87.0689 18.2538 87.0039 18.3538C89.3139 17.9663 91.8539 16.2188 92.6389 15.1363C93.4239 14.0538 93.1989 12.4363 93.1989 12.4363C92.4364 12.5913 90.7814 14.0163 90.3539 14.4463C89.9264 14.8738 88.6289 16.1363 87.7339 16.8413L87.4939 17.5163C88.2639 16.8988 89.0339 16.2713 89.6014 15.8413C90.0389 15.5113 90.8564 14.8663 91.7839 14.6513C91.7839 14.6513 91.2614 15.5263 90.4789 16.1513C89.6314 16.8288 89.0564 17.1188 88.7614 17.2763C88.1439 17.6063 87.8264 17.7438 87.1964 18.0488L87.1939 18.0438Z" fill="#171796"/>
<path fill-rule="evenodd" clip-rule="evenodd" d="M86.7408 15.1564C86.7433 15.2589 86.7483 15.3714 86.7433 15.4889L86.7333 15.5864C87.2908 14.8714 87.8583 14.0564 88.5008 13.2664C89.0658 12.5689 89.5333 12.2439 90.0358 11.9214C89.8458 12.9814 88.9383 14.1564 88.4983 14.5564C88.0608 14.9564 87.2858 15.6614 86.6633 16.0739L86.6458 16.1489C86.5983 16.3364 86.5258 16.5264 86.4233 16.7089C86.2783 16.9639 86.0883 17.2139 85.8633 17.4564C86.0433 17.3664 86.2483 17.2714 86.4583 17.1839L86.6483 17.1039C88.3558 16.1964 90.0482 14.3239 90.7332 13.0189C91.4182 11.7139 91.1332 10.2014 90.9507 9.39136C90.1782 10.0464 89.0633 11.3414 88.5758 12.0464C87.9783 12.9089 87.2133 14.1314 86.7383 15.1264V15.1564H86.7408Z" fill="#171796"/>
<path fill-rule="evenodd" clip-rule="evenodd" d="M84.5584 25.4588C85.2659 26.1613 86.7458 27.7388 86.6058 29.4513C86.6058 29.4513 85.2308 29.0213 84.6634 28.0113C84.0959 27.0013 83.7459 26.3663 83.5059 26.1413C83.6609 26.1613 83.8134 26.1613 83.9609 26.1388L84.0859 26.1188C84.4334 26.7538 85.1259 27.7988 85.7508 28.1613C85.7508 28.1613 85.9083 27.3163 84.0784 25.6088C84.0484 25.5388 84.0134 25.4588 83.9634 25.3713C84.1309 25.4288 84.3209 25.4663 84.5359 25.4613H84.5559L84.5584 25.4588Z" fill="#171796"/>
<path fill-rule="evenodd" clip-rule="evenodd" d="M73.9238 11.7038C73.9238 11.5788 74.4038 11.4763 74.9963 11.4763C75.5888 11.4763 76.0738 11.5788 76.0738 11.7038C76.0738 11.8288 75.5913 11.9338 74.9963 11.9338C74.4013 11.9338 73.9238 11.8313 73.9238 11.7038Z" fill="#171796"/>
<path fill-rule="evenodd" clip-rule="evenodd" d="M70.2734 12.7913C70.2734 12.7213 70.5834 12.6663 70.9659 12.6663C71.3484 12.6663 71.6584 12.7238 71.6584 12.7913C71.6584 12.8588 71.3484 12.9163 70.9659 12.9163C70.5834 12.9163 70.2734 12.8613 70.2734 12.7913Z" fill="#171796"/>
<path fill-rule="evenodd" clip-rule="evenodd" d="M75.2076 12.2087C75.2076 12.3262 75.1152 12.4212 74.9952 12.4212C74.8752 12.4212 74.7852 12.3262 74.7852 12.2087C74.7852 12.0912 74.8777 11.9962 74.9952 11.9962C75.1127 11.9962 75.2076 12.0912 75.2076 12.2087Z" fill="#171796"/>
<path fill-rule="evenodd" clip-rule="evenodd" d="M73.746 11.3814C73.3885 10.5289 73.1485 9.89889 73.1585 9.68639C73.1635 9.56139 73.316 9.4664 73.4585 9.4214C73.601 9.3764 73.726 9.36889 73.821 9.44139C74.0085 9.58639 74.1785 10.7364 74.2435 11.2164C74.0585 11.2514 73.9535 11.2739 73.7435 11.3839L73.746 11.3814Z" fill="#171796"/>
<path fill-rule="evenodd" clip-rule="evenodd" d="M74.4473 11.1937C74.5398 11.1837 74.6323 11.1787 74.7248 11.1762C74.6698 10.7187 74.5098 9.95624 74.4173 9.65624C74.3248 9.35624 74.2073 9.13624 74.0098 9.08374C74.0098 9.08374 74.1623 9.50124 74.2448 9.93624C74.3298 10.3687 74.3923 10.7837 74.4473 11.1937Z" fill="#171796"/>
<path fill-rule="evenodd" clip-rule="evenodd" d="M73.9546 12.7862C73.4071 13.1062 72.7871 13.0562 72.7871 13.0562C72.9071 12.8387 73.0196 12.6387 73.3646 12.3912C73.7071 12.1462 74.2696 12.0812 74.4921 12.1137C74.4421 12.2787 74.2171 12.6337 73.9546 12.7862Z" fill="#171796"/>
<path fill-rule="evenodd" clip-rule="evenodd" d="M69.9497 13.2138C69.9747 13.5388 70.0572 13.8588 70.1722 14.0838C70.1722 14.0838 69.7672 13.7788 69.6672 13.5238C69.5697 13.2688 69.5472 13.0913 69.9497 13.2163V13.2138Z" fill="#171796"/>
<path fill-rule="evenodd" clip-rule="evenodd" d="M70.0278 14.2463C70.2953 14.3688 70.5378 14.6588 70.5378 14.6588C70.1303 14.7538 69.9479 14.8713 69.9479 14.8713C69.1654 14.3213 68.5204 14.8763 68.5204 14.8763C68.0979 14.6363 68.0129 14.0488 68.2254 13.7388C68.4379 13.4288 68.9129 13.4838 69.1429 13.5388C69.2829 13.9913 69.7853 14.1363 70.0278 14.2463Z" fill="#171796"/>
<path fill-rule="evenodd" clip-rule="evenodd" d="M70.6279 14.7637C70.6279 14.7637 70.9104 15.1412 71.1179 15.3087C71.1179 15.3087 70.0654 15.2987 69.7979 16.2087C69.7979 16.2087 69.4354 15.6537 69.7004 15.2862C69.9879 14.8962 70.2504 14.8462 70.6279 14.7612V14.7637Z" fill="#171796"/>
<path fill-rule="evenodd" clip-rule="evenodd" d="M70.9951 11.2488C71.0951 11.2488 71.2901 11.2963 71.2901 11.4563C71.2901 11.6163 71.0376 12.0063 70.9701 12.1813H70.9626C70.8976 12.0063 70.6426 11.6163 70.6426 11.4563C70.6426 11.2963 70.8376 11.2488 70.9401 11.2488H70.9926H70.9951Z" fill="#171796"/>
<path fill-rule="evenodd" clip-rule="evenodd" d="M70.7747 12.5063C70.7272 12.2788 70.6397 11.6888 70.4972 11.5563C70.3647 11.4338 70.1672 11.4213 70.0697 11.4263C69.9722 11.4338 69.8672 11.5338 69.9072 11.6663C69.9472 11.7988 70.3847 12.4538 70.4397 12.5363C70.5422 12.5188 70.5222 12.5238 70.7722 12.5038L70.7747 12.5063Z" fill="#171796"/>
<path fill-rule="evenodd" clip-rule="evenodd" d="M71.1602 12.5063C71.2102 12.2788 71.3002 11.6888 71.4402 11.5563C71.5727 11.4338 71.7701 11.4213 71.8676 11.4263C71.9651 11.4338 72.0701 11.5338 72.0301 11.6663C71.9876 11.7988 71.5526 12.4538 71.4976 12.5363C71.3951 12.5188 71.4176 12.5238 71.1627 12.5038L71.1602 12.5063Z" fill="#171796"/>
<path fill-rule="evenodd" clip-rule="evenodd" d="M71.4413 10.4564H71.1038V10.0789H70.8288V10.4564H70.4863V10.6914H70.8288V11.1339H71.1038V10.6914H71.4413V10.4564Z" fill="#171796"/>
<path fill-rule="evenodd" clip-rule="evenodd" d="M67.3201 13.0313C67.3201 12.9588 67.3251 12.8863 67.3351 12.8138C67.3626 12.6313 67.3651 12.4738 67.3451 12.3463C67.1002 12.4413 66.9352 12.5013 66.5977 13.0438C66.5977 13.0438 67.1352 12.7138 67.3226 13.0313H67.3201Z" fill="#171796"/>
<path fill-rule="evenodd" clip-rule="evenodd" d="M67.7902 13.8912C67.7977 13.7562 67.8852 13.3312 67.9977 13.0287C68.1327 12.6612 68.0577 12.1262 67.8902 11.7987C67.7327 11.4837 67.6452 11.1912 67.6727 10.8662C67.6727 10.8662 67.3552 10.9737 67.1727 11.0837C67.1427 11.4612 67.3627 11.8387 67.4677 12.0537C67.5902 12.3087 67.5652 12.6362 67.5402 12.8387C67.4927 13.1812 67.5652 13.5487 67.7927 13.8887L67.7902 13.8912Z" fill="#171796"/>
<path fill-rule="evenodd" clip-rule="evenodd" d="M67.8285 11.0114C67.816 10.9689 67.816 10.8514 67.841 10.8039C67.841 10.8039 68.341 10.3164 68.7635 10.2314C69.0285 10.1789 69.196 10.2964 69.271 10.3614C69.271 10.3614 69.121 10.3439 68.8985 10.5289C68.671 10.7114 68.396 10.9339 68.1835 10.9889C67.9735 11.0439 67.9285 11.0264 67.8285 11.0139V11.0114Z" fill="#171796"/>
<path fill-rule="evenodd" clip-rule="evenodd" d="M69.3105 10.3989C69.5005 10.5864 69.6555 10.7864 69.653 10.9589C69.6505 11.1389 69.443 11.5864 69.333 11.7589C69.2255 11.9314 69.0655 12.1539 69.0855 12.4264C69.093 12.5639 69.1855 12.7039 69.3005 12.8189C69.3005 12.8189 68.688 12.6739 68.613 12.2964C68.5455 11.9564 68.6905 11.7189 68.788 11.5314C68.883 11.3564 69.1655 10.9439 69.2355 10.7714C69.3005 10.6164 69.333 10.4864 69.3105 10.4014V10.3989Z" fill="#171796"/>
<path fill-rule="evenodd" clip-rule="evenodd" d="M79.7248 12.7913C79.7248 12.7213 79.4123 12.6663 79.0323 12.6663C78.6523 12.6663 78.3398 12.7238 78.3398 12.7913C78.3398 12.8588 78.6498 12.9163 79.0323 12.9163C79.4148 12.9163 79.7248 12.8613 79.7248 12.7913Z" fill="#171796"/>
<path fill-rule="evenodd" clip-rule="evenodd" d="M75.0054 10.5138C75.0479 10.2038 75.4104 9.54381 75.4104 9.25381C75.4104 9.02631 75.2254 8.84131 74.9979 8.84131C74.7704 8.84131 74.5879 9.02631 74.5879 9.25381C74.5879 9.54381 74.9454 10.2038 74.9929 10.5138H75.0079H75.0054Z" fill="#171796"/>
<path fill-rule="evenodd" clip-rule="evenodd" d="M76.2539 11.3814C76.6114 10.5289 76.8514 9.89889 76.8414 9.68639C76.8339 9.56139 76.6839 9.4664 76.5414 9.4214C76.3964 9.3764 76.2689 9.36889 76.1789 9.44139C75.9914 9.58639 75.8189 10.7364 75.7539 11.2164C75.9364 11.2514 76.0439 11.2739 76.2564 11.3839L76.2539 11.3814Z" fill="#171796"/>
<path fill-rule="evenodd" clip-rule="evenodd" d="M75.547 11.1937C75.457 11.1837 75.362 11.1787 75.2695 11.1762C75.327 10.7187 75.482 9.95624 75.577 9.65624C75.6695 9.35624 75.7895 9.13624 75.9845 9.08374C75.9845 9.08374 75.832 9.50124 75.7495 9.93624C75.6645 10.3687 75.602 10.7837 75.547 11.1937Z" fill="#171796"/>
<path fill-rule="evenodd" clip-rule="evenodd" d="M75.5059 12.1114C75.7259 12.0814 76.2859 12.1439 76.6309 12.3889C76.9758 12.6339 77.0908 12.8364 77.2083 13.0539C77.2083 13.0539 76.5884 13.1039 76.0409 12.7839C75.7784 12.6314 75.5559 12.2764 75.5059 12.1114Z" fill="#171796"/>
<path fill-rule="evenodd" clip-rule="evenodd" d="M80.0462 13.2138C80.0212 13.5388 79.9362 13.8588 79.8262 14.0838C79.8262 14.0838 80.2312 13.7788 80.3262 13.5238C80.4237 13.2688 80.4512 13.0913 80.0462 13.2163V13.2138Z" fill="#171796"/>
<path fill-rule="evenodd" clip-rule="evenodd" d="M80.8551 13.5388C81.0801 13.4838 81.5576 13.4288 81.7676 13.7388C81.9801 14.0488 81.8976 14.6363 81.4726 14.8763C81.4726 14.8763 80.8301 14.3213 80.0451 14.8713C80.0451 14.8713 79.8626 14.7538 79.4551 14.6588C79.4551 14.6588 79.6951 14.3688 79.9676 14.2463C80.2076 14.1363 80.7101 13.9913 80.8526 13.5388H80.8551Z" fill="#171796"/>
<path fill-rule="evenodd" clip-rule="evenodd" d="M79.3675 14.7637C79.3675 14.7637 79.08 15.1412 78.875 15.3087C78.875 15.3087 79.9275 15.2987 80.195 16.2087C80.195 16.2087 80.56 15.6537 80.2925 15.2862C80.005 14.8962 79.7425 14.8462 79.3675 14.7612V14.7637Z" fill="#171796"/>
<path fill-rule="evenodd" clip-rule="evenodd" d="M78.9981 11.2488C78.9006 11.2488 78.7031 11.2963 78.7031 11.4563C78.7031 11.6163 78.9556 12.0063 79.0206 12.1813H79.0281C79.0931 12.0063 79.3456 11.6163 79.3456 11.4563C79.3456 11.2963 79.1531 11.2488 79.0531 11.2488H78.9956H78.9981Z" fill="#171796"/>
<path fill-rule="evenodd" clip-rule="evenodd" d="M79.2188 12.5064C79.2662 12.2789 79.3587 11.6889 79.4987 11.5564C79.6312 11.4339 79.8288 11.4214 79.9262 11.4264C80.0262 11.4339 80.1287 11.5339 80.0862 11.6664C80.0462 11.7989 79.6063 12.4539 79.5513 12.5364C79.4513 12.5189 79.4687 12.5239 79.2188 12.5039V12.5064Z" fill="#171796"/>
<path fill-rule="evenodd" clip-rule="evenodd" d="M78.8337 12.5064C78.7862 12.2789 78.6987 11.6889 78.5562 11.5564C78.4237 11.4339 78.2262 11.4214 78.1287 11.4264C78.0312 11.4339 77.9262 11.5339 77.9687 11.6664C78.0062 11.7989 78.4437 12.4539 78.5012 12.5364C78.6037 12.5189 78.5837 12.5239 78.8337 12.5039V12.5064Z" fill="#171796"/>
<path fill-rule="evenodd" clip-rule="evenodd" d="M78.5527 10.4562H78.8927V10.0787H79.1677V10.4562H79.5077V10.6912H79.1677V11.1337H78.8927V10.6912H78.5527V10.4562Z" fill="#171796"/>
<path fill-rule="evenodd" clip-rule="evenodd" d="M82.6723 13.0313C82.6723 12.9588 82.6673 12.8863 82.6598 12.8138C82.6323 12.6313 82.6298 12.4738 82.6498 12.3463C82.8948 12.4413 83.0598 12.5013 83.3973 13.0438C83.3973 13.0438 82.8598 12.7138 82.6723 13.0313Z" fill="#171796"/>
<path fill-rule="evenodd" clip-rule="evenodd" d="M82.2035 13.8912C82.1985 13.7562 82.111 13.3312 81.9985 13.0287C81.861 12.6612 81.9385 12.1262 82.106 11.7987C82.2635 11.4837 82.356 11.1912 82.3235 10.8662C82.3235 10.8662 82.641 10.9737 82.826 11.0837C82.856 11.4612 82.636 11.8387 82.531 12.0537C82.406 12.3087 82.4335 12.6362 82.461 12.8387C82.506 13.1812 82.436 13.5487 82.2035 13.8887V13.8912Z" fill="#171796"/>
<path fill-rule="evenodd" clip-rule="evenodd" d="M82.1696 11.0113C82.1796 10.9688 82.1796 10.8513 82.1571 10.8038C82.1571 10.8038 81.6546 10.3163 81.2346 10.2313C80.9671 10.1788 80.8021 10.2963 80.7246 10.3613C80.7246 10.3613 80.8746 10.3438 81.0971 10.5288C81.3221 10.7113 81.6021 10.9338 81.8121 10.9888C82.0196 11.0438 82.0646 11.0263 82.1671 11.0138L82.1696 11.0113Z" fill="#171796"/>
<path fill-rule="evenodd" clip-rule="evenodd" d="M80.6849 10.3988C80.4974 10.5863 80.3374 10.7863 80.3399 10.9588C80.3449 11.1388 80.5524 11.5863 80.6624 11.7588C80.7699 11.9313 80.9299 12.1538 80.9099 12.4263C80.8999 12.5638 80.8074 12.7038 80.6949 12.8188C80.6949 12.8188 81.3074 12.6738 81.3824 12.2963C81.4499 11.9563 81.3024 11.7188 81.2024 11.5313C81.1124 11.3563 80.8299 10.9438 80.7574 10.7713C80.6949 10.6163 80.6599 10.4863 80.6824 10.4013L80.6849 10.3988Z" fill="#171796"/>
<path fill-rule="evenodd" clip-rule="evenodd" d="M64.3235 29.9489C64.6285 29.6139 65.1485 29.9039 65.6735 30.3864C66.1985 30.8689 66.531 31.3639 66.221 31.6964C65.941 32.0064 65.396 31.7389 64.871 31.2589C64.346 30.7764 64.016 30.2814 64.3235 29.9489Z" fill="#171796"/>
<path fill-rule="evenodd" clip-rule="evenodd" d="M67.7653 37.3013C68.1153 37.3088 68.4728 37.2838 68.8378 37.2263C69.5153 37.1213 70.2302 36.9838 70.9477 36.7138L70.7077 36.3813C70.0527 36.6188 69.3977 36.7438 68.7778 36.8388C68.3853 36.8988 68.0128 36.9188 67.6428 36.9063H67.6353C67.6428 36.8338 67.6478 36.7563 67.6553 36.6763C67.6703 36.4088 67.8253 35.9738 67.9828 35.6438C68.2853 35.0013 69.0302 33.2863 70.5827 32.9838C70.7327 32.9563 70.4152 32.5938 70.2802 32.6113C70.1402 32.6288 69.8628 32.8088 69.7378 32.8913C69.7378 32.8913 69.7377 32.5238 69.7352 32.4613C69.7327 32.3938 69.6753 32.3713 69.6128 32.3713C69.5528 32.3713 69.1778 32.3713 69.0578 32.5063C68.7028 32.9138 68.1053 34.0188 67.7653 34.8413C67.4253 35.6613 67.1953 35.9113 66.8378 35.7863C66.4828 35.6613 66.2653 35.2513 65.6428 35.3763C65.4303 35.4188 65.1903 35.5638 65.0003 35.7788C64.9753 35.8063 64.9453 35.8488 64.9203 35.8988C64.7028 35.6563 64.5803 35.3263 64.5803 34.9638C64.5803 34.1763 65.2228 33.5338 66.0128 33.5338C66.8028 33.5338 67.4428 34.1763 67.4428 34.9638C67.4428 35.0713 67.4228 35.2463 67.4228 35.2463C67.4853 35.1238 67.7203 34.5763 67.7678 34.4788C67.5553 33.7088 66.8453 33.1413 66.0103 33.1413C65.2903 33.1413 64.6653 33.5588 64.3703 34.1688C64.4828 33.4488 64.8403 32.7988 65.0978 32.5563C65.4003 32.2688 65.9178 32.1788 65.9178 32.1788C65.5803 32.2313 65.1303 32.0213 64.6303 31.5638C64.1553 31.1263 63.9078 30.7463 63.8953 30.4263C63.9253 30.8788 63.9103 31.1288 63.7853 31.4963C63.6103 31.9963 63.1378 32.9163 63.3078 33.9538C63.4003 34.5238 63.8128 35.3738 64.5078 36.0663C64.6428 36.2113 64.7003 36.4213 64.7203 36.5438C64.7178 36.5838 64.7128 36.6213 64.7128 36.6588C64.8678 36.5563 65.4228 36.4588 65.6003 36.4588C65.7778 36.4588 66.1778 36.3688 66.3253 36.5963C66.4103 36.7288 66.5128 36.7363 66.6653 36.7888C66.8178 36.8413 66.8228 37.0838 67.0003 36.9988C67.2028 36.9038 67.4928 36.9613 67.5803 37.0238C67.6828 37.0963 67.7553 37.1738 67.7653 37.3088V37.3013Z" fill="#171796"/>
<path fill-rule="evenodd" clip-rule="evenodd" d="M67.4312 37.6164C67.2662 37.8789 67.0312 37.9739 66.7687 38.0264C66.3137 38.1114 65.6287 38.1314 65.0362 37.6039C64.8862 37.4689 64.7962 37.3064 64.7512 37.1289C64.7162 36.9689 64.8687 36.8714 64.9962 36.8389C65.1237 36.8089 65.9487 36.7214 66.0437 36.7639C66.1412 36.8064 66.1712 36.8964 66.1787 36.9939C66.1862 37.0914 66.2687 37.0739 66.3637 37.0739C66.4587 37.0739 66.6312 37.0989 66.6812 37.2339C66.7337 37.3714 66.8637 37.3689 66.9162 37.3139C67.0462 37.1839 67.6412 37.2114 67.4262 37.6139L67.4312 37.6164Z" fill="#171796"/>
<path fill-rule="evenodd" clip-rule="evenodd" d="M85.6727 29.9489C85.3677 29.6139 84.8452 29.9039 84.3227 30.3864C83.8003 30.8689 83.4678 31.3639 83.7727 31.6964C84.0552 32.0064 84.5977 31.7389 85.1227 31.2589C85.6477 30.7764 85.9802 30.2814 85.6727 29.9489Z" fill="#171796"/>
<path fill-rule="evenodd" clip-rule="evenodd" d="M82.2283 37.3013C81.8833 37.3088 81.5233 37.2838 81.1583 37.2263C80.4783 37.1213 79.7658 36.9838 79.0508 36.7138L79.2883 36.3813C79.9433 36.6188 80.5958 36.7438 81.2158 36.8388C81.6083 36.8988 81.9858 36.9188 82.3533 36.9063H82.3608C82.3533 36.8338 82.3458 36.7563 82.3408 36.6763C82.3233 36.4088 82.1683 35.9738 82.0133 35.6438C81.7083 35.0013 80.9633 33.2863 79.4083 32.9838C79.2608 32.9563 79.5758 32.5938 79.7183 32.6113C79.8583 32.6288 80.1333 32.8088 80.2558 32.8913C80.2558 32.8913 80.2558 32.5238 80.2608 32.4613C80.2633 32.3938 80.3233 32.3713 80.3833 32.3713C80.4433 32.3713 80.8183 32.3713 80.9358 32.5063C81.2933 32.9138 81.8908 34.0188 82.2283 34.8413C82.5683 35.6613 82.7983 35.9113 83.1557 35.7863C83.5132 35.6613 83.7282 35.2513 84.3507 35.3763C84.5657 35.4188 84.8057 35.5638 84.9957 35.7788C85.0207 35.8063 85.0482 35.8488 85.0757 35.8988C85.2932 35.6563 85.4157 35.3263 85.4157 34.9638C85.4157 34.1763 84.7732 33.5338 83.9832 33.5338C83.1932 33.5338 82.5508 34.1763 82.5508 34.9638C82.5533 35.0713 82.5733 35.2463 82.5733 35.2463C82.5083 35.1238 82.2733 34.5763 82.2258 34.4788C82.4383 33.7088 83.1457 33.1413 83.9832 33.1413C84.7032 33.1413 85.3282 33.5588 85.6232 34.1688C85.5107 33.4488 85.1507 32.7988 84.8957 32.5563C84.5907 32.2688 84.0707 32.1788 84.0707 32.1788C84.4132 32.2313 84.8607 32.0213 85.3607 31.5638C85.8382 31.1263 86.0807 30.7463 86.0982 30.4263C86.0657 30.8788 86.0807 31.1288 86.2082 31.4963C86.3807 31.9963 86.8557 32.9163 86.6857 33.9538C86.5907 34.5238 86.1782 35.3738 85.4882 36.0663C85.3507 36.2113 85.2932 36.4213 85.2707 36.5438C85.2757 36.5838 85.2807 36.6213 85.2832 36.6588C85.1282 36.5563 84.5732 36.4588 84.3932 36.4588C84.2132 36.4588 83.8132 36.3688 83.6682 36.5963C83.5833 36.7288 83.4807 36.7363 83.3282 36.7888C83.1757 36.8413 83.1757 37.0838 82.9907 36.9988C82.7882 36.9038 82.5008 36.9613 82.4108 37.0238C82.3058 37.0963 82.2358 37.1738 82.2258 37.3088L82.2283 37.3013Z" fill="#171796"/>
<path fill-rule="evenodd" clip-rule="evenodd" d="M82.5633 37.6164C82.7283 37.8789 82.9633 37.9739 83.2283 38.0264C83.6833 38.1114 84.3683 38.1314 84.9607 37.6039C85.1107 37.4689 85.1982 37.3064 85.2457 37.1289C85.2832 36.9689 85.1282 36.8714 85.0007 36.8389C84.8707 36.8089 84.0483 36.7214 83.9508 36.7639C83.8558 36.8064 83.8258 36.8964 83.8158 36.9939C83.8083 37.0914 83.7283 37.0739 83.6308 37.0739C83.5333 37.0739 83.3633 37.0989 83.3133 37.2339C83.2608 37.3714 83.1283 37.3689 83.0758 37.3139C82.9483 37.1839 82.3508 37.2114 82.5658 37.6139L82.5633 37.6164Z" fill="#171796"/>
<path fill-rule="evenodd" clip-rule="evenodd" d="M71.7838 36.329C72.6513 35.854 73.5038 35.1215 74.2688 33.9515L74.4038 33.719C74.1938 33.8115 73.9263 33.749 73.9263 33.749C73.9138 33.769 73.8788 33.819 73.8638 33.849C73.1488 34.904 72.3588 35.569 71.5488 36.004L71.7813 36.329H71.7838Z" fill="#171796"/>
<path fill-rule="evenodd" clip-rule="evenodd" d="M74.2611 35.4413C73.6711 35.9788 72.6211 36.2388 72.6211 36.2388C72.9886 35.8938 73.6761 35.2038 73.9611 34.9413C74.2436 34.6813 74.8936 33.7688 74.9936 33.4763H74.9986C75.0986 33.7663 75.7461 34.6813 76.0311 34.9413C76.3161 35.2038 77.0061 35.8938 77.3736 36.2388C77.3736 36.2388 76.3261 35.9788 75.7336 35.4413L75.5811 35.7563C75.4611 36.0163 75.2236 36.4213 75.0011 36.5913H74.9961C74.7736 36.4213 74.5411 36.0163 74.4186 35.7563L74.2661 35.4413H74.2611Z" fill="#171796"/>
<path fill-rule="evenodd" clip-rule="evenodd" d="M78.2098 36.329C77.3423 35.8515 76.4923 35.119 75.7273 33.9515L75.5898 33.719C75.7973 33.8115 76.0673 33.749 76.0673 33.749C76.0798 33.769 76.1148 33.819 76.1323 33.849C76.8423 34.904 77.6348 35.569 78.4423 36.004L78.2098 36.329Z" fill="#171796"/>
<path fill-rule="evenodd" clip-rule="evenodd" d="M71.898 13.6063C71.368 13.6738 70.7505 13.6463 70.7255 13.6463H70.673L70.683 13.6938C70.718 13.9113 70.813 14.0713 70.958 14.1688L71.0155 14.2063L71.0205 14.1388C71.0505 13.7438 71.8929 13.7338 71.9029 13.7338H71.9405V13.6038L71.8954 13.6113L71.898 13.6063ZM70.1055 13.1113C70.1055 13.1113 70.788 13.3663 71.4755 13.3338C72.1604 13.2988 73.4229 13.2838 73.8279 13.0863C73.8279 13.0863 73.7604 13.3413 73.4354 13.4913C73.4354 13.4913 73.6079 13.4913 73.7754 13.6388C73.7754 13.6388 73.6779 13.8488 73.3879 13.9613C73.3879 13.9613 73.9079 14.5013 74.4654 14.4638C74.4654 14.4638 74.2079 14.7838 73.6379 14.6613C73.0679 14.5363 72.8854 14.2188 72.7855 14.0938C72.7855 14.0938 72.8604 14.3988 72.8254 14.5238C72.8254 14.5238 72.5755 14.5088 72.378 14.2613C72.378 14.2613 72.5205 14.5063 72.5505 14.7138C72.5505 14.7138 72.393 14.7338 72.113 14.5663C72.113 14.5663 72.1705 14.7188 72.183 14.8963C72.183 14.8963 71.523 14.6838 71.203 14.3838C71.203 14.3838 71.198 14.5913 71.213 14.7088C71.213 14.7088 70.188 14.6063 70.108 13.1113H70.1055Z" fill="#171796"/>
<path fill-rule="evenodd" clip-rule="evenodd" d="M78.0537 13.6437V13.7287H78.0937C78.0937 13.7287 78.9412 13.7387 78.9737 14.1337L78.9812 14.2012L79.0387 14.1637C79.1862 14.0662 79.2787 13.9062 79.3162 13.6887L79.3237 13.6387H79.2762C79.2762 13.6387 78.6337 13.6687 78.0987 13.6037L78.0562 13.5962V13.6412L78.0537 13.6437ZM78.7887 14.7062C78.8037 14.5887 78.7962 14.3812 78.7962 14.3812C78.4762 14.6812 77.8162 14.8937 77.8162 14.8937C77.8262 14.7162 77.8862 14.5637 77.8862 14.5637C77.6062 14.7312 77.4487 14.7112 77.4487 14.7112C77.4787 14.5037 77.6212 14.2587 77.6212 14.2587C77.4237 14.5037 77.1737 14.5212 77.1737 14.5212C77.1362 14.3962 77.2112 14.0912 77.2112 14.0912C77.1112 14.2162 76.9287 14.5337 76.3587 14.6587C75.7862 14.7812 75.5312 14.4612 75.5312 14.4612C76.0862 14.4987 76.6087 13.9587 76.6087 13.9587C76.3187 13.8462 76.2187 13.6362 76.2187 13.6362C76.3862 13.4887 76.5587 13.4887 76.5587 13.4887C76.2312 13.3387 76.1637 13.0837 76.1637 13.0837C76.5712 13.2812 77.8337 13.2962 78.5162 13.3312C79.1987 13.3662 79.8837 13.1087 79.8837 13.1087C79.8037 14.6037 78.7837 14.7062 78.7837 14.7062H78.7887Z" fill="#171796"/>
<path fill-rule="evenodd" clip-rule="evenodd" d="M74.0385 37.4564L74.7135 38.6564L74.601 38.8689C74.396 39.2389 74.1735 39.6364 74.0485 39.8539C73.9535 39.7189 73.691 39.3489 73.346 38.8689L73.2235 38.6964C73.536 38.2214 73.8785 37.7064 74.0385 37.4589V37.4564ZM75.9535 37.4564C76.0985 37.6714 76.376 38.0914 76.651 38.5114L76.771 38.6964C76.366 39.2614 76.051 39.7064 75.9435 39.8564L75.281 38.6589L75.951 37.4589L75.9535 37.4564ZM79.2109 34.4389L79.6009 34.7239C79.4709 34.9089 78.1135 36.8114 77.081 38.2589L76.961 38.0789L76.136 36.8339L75.906 36.4864L75.1035 37.9239L74.991 38.1364L74.0785 36.4864L72.906 38.2614L72.781 38.0839C71.766 36.6639 70.511 34.9039 70.386 34.7264L70.781 34.4414L69.541 33.9664L69.561 35.3164L69.981 35.0164L72.4885 38.5289L72.6135 38.7039L72.196 39.3339L71.7835 39.0564L71.776 40.3864L73.0335 39.8889L72.6135 39.6089C72.676 39.5164 72.7885 39.3439 72.926 39.1364L73.051 39.3139L74.091 40.7689L74.8785 39.3664L74.996 39.1589L75.8985 40.7689L77.066 39.1364L77.1835 39.3164C77.266 39.4414 77.3335 39.5439 77.3785 39.6064L76.956 39.8864L78.2135 40.3839L78.206 39.0539L77.791 39.3314L77.496 38.8814L77.376 38.6989L80.0059 35.0114L80.4259 35.3114L80.4509 33.9614L79.2084 34.4364L79.2109 34.4389Z" fill="#171796"/>
<path fill-rule="evenodd" clip-rule="evenodd" d="M79.3597 21.7087C79.2772 22.0387 79.2247 22.4837 79.5472 22.5987C80.5397 22.9187 81.6797 22.7087 82.0522 22.2712C82.1597 22.1462 82.2047 21.9887 82.2047 21.8112C82.2047 21.3962 81.9697 20.8662 81.7347 20.3512L81.5697 19.9787C81.5072 19.8287 81.4797 19.6937 81.4797 19.5712C81.4797 19.1562 81.7797 18.8937 81.9372 18.7862C83.3297 17.8337 83.9422 17.1012 84.2972 16.4662L84.3597 16.3362C84.8997 15.4662 85.9397 15.1312 86.3122 14.9837C86.3247 15.0887 86.3372 15.2237 86.3372 15.3812C86.3372 15.7187 86.2822 16.1437 86.0722 16.5137C85.8947 16.8262 85.6272 17.1512 85.2922 17.4537L85.1672 17.5687L85.5122 18.1062L85.6997 17.9962C86.0972 17.7712 86.6547 17.5162 87.0747 17.3787C86.9197 17.7187 86.6647 18.2062 86.3947 18.4512C86.1347 18.6862 85.9147 18.8462 85.6247 18.9037L85.4222 18.9437L85.5747 19.5937L85.7622 19.5387L85.9247 19.4937C86.0972 19.4287 86.4397 19.4137 86.7422 19.5537C86.6622 19.7312 86.4522 20.0362 85.9297 20.1737L85.6997 20.2312L85.7247 20.4112L85.7822 20.8537L85.9772 20.8362C86.2272 20.8137 86.4497 20.8412 86.6647 20.9212C87.0022 21.0487 87.1572 21.1837 87.2647 21.3187C87.0622 21.4537 86.6772 21.6687 86.2597 21.6812C86.1247 21.6837 85.9847 21.6812 85.8447 21.6662L85.6672 21.6487L85.5372 22.1762L85.7272 22.2287C86.0897 22.3237 86.4547 22.4987 86.6872 23.0462C86.5422 23.1137 86.2697 23.1987 85.8797 23.1187C85.6447 23.0712 85.4297 23.0012 85.2422 22.9137L85.1172 22.8562L84.6272 23.3212L85.0522 23.5287C85.2397 23.6187 85.4072 23.6987 85.5147 23.7987C85.4147 23.8962 85.2172 24.0287 84.8822 23.9887C84.6822 23.9637 84.4897 23.9137 84.3147 23.8437L84.1722 23.7862L83.8572 24.1862L84.2172 24.4187C84.5097 24.6137 84.5747 24.8262 84.5747 24.9737C84.5747 25.0012 84.5722 25.0262 84.5672 25.0512C84.2272 25.0687 83.9272 24.9612 83.6572 24.7162L83.5222 24.5937L83.1272 24.9462L83.2597 25.0962C83.5372 25.4112 83.6497 25.6237 83.6972 25.7512C83.3547 25.7437 82.9897 25.5887 82.6097 25.2837C82.4872 25.1862 82.4047 25.0937 82.3322 24.9737L82.2447 24.8287L81.7697 25.0062L81.8122 25.1812C81.8422 25.3012 81.8572 25.4262 81.8572 25.5487C81.8572 25.7312 81.8272 25.9187 81.7647 26.1087C81.7172 26.2637 81.5922 26.4537 81.4822 26.5962C81.3747 26.4612 81.2572 26.2862 81.1872 26.0512C81.1547 25.9412 81.1397 25.8087 81.1397 25.6487V25.4062H80.6297L80.6072 25.6112V25.6387C80.5547 26.0362 80.4447 26.5062 80.0397 26.9837C79.8372 27.2212 79.5947 27.2987 79.4247 27.3237C79.4247 27.1512 79.3947 26.9587 79.3447 26.8287C79.1897 26.4112 78.8722 25.6862 78.5097 25.0012C78.3872 24.7687 78.3497 24.5562 78.3497 24.3787C78.3497 24.1837 78.3972 24.0362 78.4247 23.9637C78.4522 23.8887 78.3722 23.7837 78.3097 23.7387C78.2522 23.6912 78.1222 23.6212 78.0697 23.6587L78.0072 23.7212C77.8847 23.8612 77.7597 24.0937 77.7297 24.2437C77.6947 24.4287 77.7222 24.6037 77.7622 24.7437C77.8597 24.9462 78.0022 25.2337 78.0797 25.4537C78.1597 25.6762 78.1422 26.0262 78.0747 26.2412C78.0122 26.4412 77.6622 26.9012 77.6172 26.9612C77.5747 27.0362 77.5347 27.1112 77.5147 27.1812C77.6347 27.4262 77.6397 27.6287 77.6047 27.7762C77.5697 27.9187 77.4697 28.1587 77.3872 28.3387C77.2197 28.7662 77.2697 28.8537 77.2697 28.8537C77.3722 28.9362 77.5322 29.0562 77.5897 29.0987C77.5897 29.0962 77.6172 29.1187 77.6172 29.1162C77.6172 29.1162 78.2522 29.5162 78.4422 29.6687C78.5897 29.7887 78.8547 30.0537 79.0097 30.2337L79.5547 30.6737C79.7072 30.7087 79.8447 30.7362 79.9422 30.7662C80.2622 30.8612 80.4972 31.0262 80.8047 31.3637L80.8172 31.3812C80.8572 31.4512 80.8897 31.4912 80.9247 31.5512C80.9522 31.5862 81.0497 31.7112 81.1072 31.8437C81.1372 31.9012 81.0997 31.9637 80.9897 31.9812C80.7772 32.0187 80.2647 31.9237 80.1397 32.0012C80.0047 32.0912 80.0522 32.2087 80.0522 32.3237C80.0522 32.3237 79.8197 32.1837 79.6722 32.2137C79.4647 32.2562 79.3397 32.3537 79.2247 32.6912C79.1722 32.6312 79.1072 32.5662 79.1047 32.4562C79.0722 32.3987 79.0347 32.3337 79.0022 32.2787C79.0022 32.5812 78.8347 32.7312 78.7447 32.7737C78.6422 32.8262 78.1722 33.0187 77.8697 32.3887C77.8697 32.3887 78.3897 32.5612 78.5297 32.3087C78.6697 32.0562 78.4422 31.6937 78.2997 31.5887C78.1147 31.4512 77.7997 31.3487 77.5922 31.3837H77.5822C77.3322 31.3937 77.1772 31.2787 77.1772 31.2787L77.1622 31.2737C76.8172 31.2562 76.4447 30.9212 76.1648 30.4687L76.1398 31.1662C76.2897 31.2387 76.5072 31.4062 76.7097 31.7662C76.9222 32.1287 77.3872 32.4362 77.7522 32.6712C78.1172 32.9087 78.2397 33.3212 78.2397 33.3212C77.9972 33.3187 77.7797 33.2412 77.5872 33.1212C77.5297 33.1462 77.4972 33.1912 77.4722 33.2587C77.4497 33.3162 77.5347 33.4712 77.6197 33.6062C77.9847 33.9287 78.0122 34.2862 78.0122 34.2862C77.4972 34.2337 77.0972 34.0037 76.7847 33.7037L76.1198 33.3712C75.8798 33.4512 75.6123 33.4837 75.1923 33.0912L75.1773 33.0762C75.0948 33.0012 75.0373 32.9162 74.9898 32.8312C74.9473 32.9162 74.8848 33.0012 74.8048 33.0762C74.3748 33.4837 74.1023 33.4537 73.8623 33.3712L73.1973 33.7037C72.8848 34.0037 72.4848 34.2362 71.9698 34.2862C71.9698 34.2862 71.9998 33.9287 72.3623 33.6062C72.4448 33.4712 72.5323 33.3162 72.5098 33.2587C72.4848 33.1912 72.4473 33.1462 72.3923 33.1212C72.1998 33.2387 71.9823 33.3162 71.7373 33.3212C71.7373 33.3212 71.8598 32.9087 72.2248 32.6712C72.5898 32.4362 73.0548 32.1287 73.2648 31.7662C73.4723 31.4062 73.6898 31.2387 73.8373 31.1662L73.8123 30.4687C73.5348 30.9212 73.1598 31.2562 72.8148 31.2737L72.7998 31.2787C72.7998 31.2787 72.6473 31.3937 72.3948 31.3862H72.3873C72.1823 31.3487 71.8648 31.4512 71.6798 31.5887C71.5398 31.6937 71.3098 32.0562 71.4523 32.3087C71.5948 32.5587 72.1148 32.3887 72.1148 32.3887C71.8073 33.0187 71.3398 32.8262 71.2373 32.7737C71.1473 32.7312 70.9773 32.5787 70.9823 32.2787C70.9473 32.3362 70.9073 32.3987 70.8773 32.4562C70.8748 32.5637 70.8098 32.6312 70.7548 32.6912C70.6373 32.3537 70.5148 32.2587 70.3098 32.2137C70.1623 32.1837 69.9273 32.3237 69.9273 32.3237C69.9273 32.2062 69.9748 32.0887 69.8398 32.0012C69.7148 31.9212 69.2023 32.0162 68.9898 31.9812C68.8823 31.9637 68.8448 31.9012 68.8723 31.8437C68.9273 31.7112 69.0248 31.5862 69.0523 31.5512C69.0873 31.4912 69.1198 31.4512 69.1598 31.3812L69.1698 31.3637C69.4798 31.0262 69.7123 30.8612 70.0323 30.7662C70.1298 30.7362 70.2673 30.7087 70.4173 30.6737L70.9648 30.2337C71.1223 30.0537 71.3873 29.7887 71.5323 29.6687C71.7248 29.5162 72.3573 29.1162 72.3573 29.1162C72.3573 29.1162 72.3873 29.0962 72.3873 29.0987C72.4448 29.0537 72.6023 28.9362 72.7048 28.8537C72.7048 28.8537 72.7573 28.7662 72.5873 28.3387C72.5073 28.1587 72.4048 27.9187 72.3723 27.7762C72.3373 27.6287 72.3423 27.4262 72.4623 27.1812C72.4423 27.1112 72.4048 27.0362 72.3598 26.9612C72.3148 26.9037 71.9623 26.4412 71.9023 26.2412C71.8373 26.0287 71.8173 25.6762 71.8973 25.4537C71.9798 25.2312 72.1173 24.9437 72.2148 24.7437C72.2573 24.6037 72.2848 24.4287 72.2498 24.2437C72.1998 24.0487 72.0423 23.7762 71.9073 23.6612C71.8573 23.6262 71.7298 23.6962 71.6698 23.7412C71.6073 23.7887 71.5298 23.8912 71.5523 23.9662C71.5823 24.0387 71.6273 24.1837 71.6273 24.3812C71.6273 24.5562 71.5873 24.7712 71.4698 25.0037C71.1073 25.6912 70.7898 26.4137 70.6323 26.8312C70.5848 26.9612 70.5573 27.1537 70.5523 27.3262C70.3848 27.3012 70.1423 27.2237 69.9398 26.9862C69.5348 26.5087 69.4273 26.0387 69.3748 25.6412V25.6137L69.3523 25.4087H68.8373V25.6137C68.8373 25.6262 68.8373 25.6387 68.8373 25.6512C68.8373 25.8112 68.8248 25.9437 68.7923 26.0537C68.7223 26.2887 68.6073 26.4637 68.4973 26.5987C68.3873 26.4562 68.2623 26.2687 68.2148 26.1112C68.1523 25.9212 68.1223 25.7337 68.1223 25.5512C68.1223 25.4262 68.1373 25.3012 68.1673 25.1837L68.2073 25.0087L67.7348 24.8312L67.6473 24.9762C67.5748 25.0962 67.4948 25.1887 67.3723 25.2862C66.9873 25.5912 66.6248 25.7487 66.2823 25.7537C66.3298 25.6262 66.4448 25.4137 66.7198 25.0987L66.8523 24.9487L66.4598 24.5962L66.3248 24.7187C66.0523 24.9637 65.7548 25.0712 65.4148 25.0537C65.4098 25.0287 65.4073 25.0037 65.4073 24.9762C65.4073 24.8287 65.4698 24.6162 65.7623 24.4212L66.1198 24.1887L65.8073 23.7887L65.6648 23.8462C65.4898 23.9187 65.2973 23.9687 65.0973 23.9912C64.7648 24.0312 64.5648 23.8987 64.4673 23.8012C64.5723 23.7012 64.7398 23.6212 64.9273 23.5312L65.3523 23.3237L64.8623 22.8587L64.7373 22.9162C64.5473 23.0062 64.3323 23.0737 64.0973 23.1212C63.7073 23.2012 63.4373 23.1162 63.2948 23.0487C63.5248 22.5012 63.8873 22.3262 64.2473 22.2312L64.4423 22.1787L64.3098 21.6512L64.1373 21.6687C63.9923 21.6837 63.8548 21.6887 63.7198 21.6837C63.3023 21.6712 62.9198 21.4562 62.7148 21.3212C62.8223 21.1862 62.9773 21.0537 63.3173 20.9237C63.5298 20.8437 63.7523 20.8162 63.9998 20.8387L64.1973 20.8562L64.2773 20.2337L64.0473 20.1762C63.5298 20.0387 63.3173 19.7337 63.2348 19.5562C63.5373 19.4162 63.8798 19.4312 64.0523 19.4962L64.2148 19.5412L64.4023 19.5962L64.5573 18.9462L64.3498 18.9062C64.0598 18.8487 63.8398 18.6887 63.5823 18.4537C63.3123 18.2087 63.0573 17.7187 62.9023 17.3812C63.3223 17.5187 63.8798 17.7737 64.2773 17.9987L64.4623 18.1087L64.8073 17.5712L64.6798 17.4562C64.3523 17.1512 64.0823 16.8262 63.9048 16.5162C63.6948 16.1462 63.6423 15.7212 63.6423 15.3837C63.6423 15.2262 63.6548 15.0912 63.6673 14.9862C64.0423 15.1337 65.0798 15.4687 65.6198 16.3387L65.6823 16.4687C66.0373 17.1062 66.6498 17.8387 68.0423 18.7887C68.1998 18.8962 68.4998 19.1587 68.4998 19.5737C68.4998 19.6962 68.4748 19.8312 68.4098 19.9812L68.2448 20.3537C68.0123 20.8687 67.7723 21.3987 67.7723 21.8137C67.7723 21.9912 67.8173 22.1512 67.9248 22.2737C68.2973 22.7112 69.4348 22.9212 70.4298 22.6012C70.7523 22.4887 70.6998 22.0412 70.6173 21.7112C70.5848 21.5662 70.4448 21.2087 70.3723 20.9037C70.3698 20.8937 70.3648 20.8862 70.3623 20.8762C70.2348 20.5212 70.2748 19.9687 70.5173 19.7712C70.6148 19.6587 70.8298 19.4762 71.1573 19.4487L71.2223 19.4437C71.4523 19.4337 72.2173 19.3237 72.5923 18.2662V18.2187C72.5748 18.1812 72.5523 18.1387 72.5223 18.0887L72.3073 17.7612C72.2273 17.6137 71.9573 17.1187 71.8698 16.6637C71.8073 16.3362 71.6773 16.1412 71.5248 16.0162C71.3448 15.8687 70.9873 15.7612 70.9873 15.7612C71.0923 15.7312 71.3073 15.6812 71.3873 15.6762C71.3948 15.6787 71.4448 15.6637 71.4473 15.6687L71.6398 15.6212C71.4123 15.4462 71.1348 15.1787 70.9698 14.9337C71.0323 14.9512 71.2148 15.0037 71.4323 15.0937C71.4073 15.0187 71.3848 14.8437 71.3848 14.8437C71.4573 14.8862 71.6748 15.0062 71.8623 15.0737C71.8623 15.0737 72.2223 15.1937 72.3348 15.2237C72.3348 15.2237 72.3198 15.0237 72.3098 14.9312C72.4123 14.9562 72.5123 14.9812 72.6323 15.0012C72.6323 15.0012 72.6998 15.0112 72.7048 15.0137L72.8373 15.0387C72.7823 14.9087 72.7623 14.8387 72.7023 14.7562C72.7548 14.7762 72.8373 14.7862 72.9198 14.8087C72.9723 14.7087 72.9723 14.6537 72.9723 14.6537C73.0823 14.7837 73.6148 14.9137 73.7473 14.9262C73.8773 14.9387 74.0648 14.9737 74.1823 15.0512C74.4373 15.2187 74.6773 15.5837 74.7698 16.0212L74.7798 16.0962L74.8073 16.2962L74.9748 17.3962H74.9798L75.1473 16.2937L75.1773 16.0937L75.1873 16.0162C75.2798 15.5812 75.5198 15.2137 75.7748 15.0487C75.8948 14.9687 76.0797 14.9362 76.2072 14.9237C76.3422 14.9112 76.8747 14.7837 76.9872 14.6512C76.9872 14.6512 76.9847 14.7062 77.0372 14.8037C77.1222 14.7837 77.2047 14.7737 77.2547 14.7537C77.1922 14.8362 77.1772 14.9037 77.1197 15.0362L77.2522 15.0112L77.3222 14.9987C77.4397 14.9787 77.5397 14.9562 77.6447 14.9312C77.6347 15.0237 77.6197 15.2237 77.6197 15.2237C77.7322 15.1937 78.0922 15.0737 78.0922 15.0737C78.2797 15.0062 78.4972 14.8862 78.5672 14.8437C78.5672 14.8437 78.5472 15.0162 78.5222 15.0937C78.7397 15.0037 78.9222 14.9487 78.9872 14.9337C78.8197 15.1762 78.5422 15.4462 78.3147 15.6212L78.5097 15.6662C78.5097 15.6662 78.5647 15.6787 78.5672 15.6737C78.6472 15.6812 78.8622 15.7312 78.9672 15.7612C78.9672 15.7612 78.6097 15.8662 78.4297 16.0162C78.2797 16.1412 78.1472 16.3362 78.0847 16.6637C77.9997 17.1212 77.7297 17.6137 77.6472 17.7612H77.6397C77.5772 17.8662 77.5072 17.9737 77.4297 18.0887C77.3972 18.1387 77.3722 18.1812 77.3597 18.2187V18.2662C77.7372 19.3237 78.4972 19.4337 78.7297 19.4437L78.7922 19.4487C79.1197 19.4762 79.3347 19.6612 79.4347 19.7737C79.6747 19.9687 79.7172 20.5212 79.5897 20.8762C79.5872 20.8862 79.5822 20.8937 79.5772 20.9037C79.5147 21.1762 79.3922 21.4937 79.3472 21.6612L79.3347 21.7137L79.3597 21.7087Z" fill="#171796"/>
<path d="M47.9497 0.831299H0V48.7188H47.9497V0.831299Z" fill="#171796"/>
<path fill-rule="evenodd" clip-rule="evenodd" d="M6.10757 28.6088C6.49006 28.6088 6.78256 28.8213 7.00256 29.2563C7.22756 29.7013 7.34006 30.4188 7.34006 31.3838C7.34006 31.8963 7.27006 32.2963 7.12756 32.5688C6.99506 32.8263 6.84006 32.9563 6.66756 32.9563C6.49506 32.9563 6.36006 32.8438 6.23507 32.6138C6.10757 32.3713 6.04007 32.0163 6.04007 31.5563V28.6088H6.10757ZM8.56005 28.6863C8.06255 27.6463 7.24006 27.1188 6.11007 27.1188H4.39258V37.1113H6.03757V34.2063C6.35506 34.4863 6.70256 34.6513 7.08506 34.6513C7.63006 34.6513 8.08755 34.3613 8.44005 33.7913C8.83255 33.1488 9.03255 32.1988 9.03255 30.9688C9.03255 30.1113 8.87255 29.3413 8.55755 28.6863H8.56005Z" fill="white"/>
<path fill-rule="evenodd" clip-rule="evenodd" d="M43.1586 26.6213L43.0286 26.7563C43.0286 26.7563 39.5811 30.3563 39.3261 30.6238V27.1013H37.7036V37.1163H39.3261V33.0038C39.3661 32.9613 41.4411 30.7663 41.6736 30.5188C41.6861 30.8788 41.9086 37.1188 41.9086 37.1188H43.5586L43.1586 26.6238V26.6213ZM35.3037 26.7563C35.3037 26.7563 31.8562 30.3563 31.6012 30.6238V27.1013H29.9812V37.1163H31.6012V33.0038C31.6412 32.9613 33.7162 30.7663 33.9487 30.5188C33.9612 30.8788 34.1837 37.1188 34.1837 37.1188H35.8362L35.4362 26.6238L35.3062 26.7588L35.3037 26.7563ZM25.9312 34.6388C25.4037 33.9963 25.1362 33.1513 25.1362 32.1288C25.1362 31.1063 25.3912 30.2388 25.8937 29.6213C26.4412 28.9463 27.2487 28.6038 28.2937 28.6038H28.3737V26.8563H28.2937C26.6637 26.8563 25.4062 27.3663 24.5562 28.3713C23.7812 29.2813 23.3887 30.5488 23.3887 32.1413C23.3887 33.7338 23.8162 34.9413 24.6562 35.8988C25.5387 36.9038 26.7712 37.4138 28.3187 37.4138H28.3987V35.6663H28.3187C27.2987 35.6663 26.4962 35.3213 25.9312 34.6363V34.6388ZM13.9288 34.7013C13.7113 35.3588 13.3913 35.6938 12.9788 35.6938C12.5663 35.6938 12.2713 35.3538 12.0563 34.6863C11.8313 33.9913 11.7163 33.1088 11.7163 32.0638C11.7163 31.0188 11.8288 30.1088 12.0513 29.4413C12.2638 28.8013 12.5763 28.4763 12.9813 28.4763C13.4388 28.4763 13.7663 28.7963 13.9788 29.4563C14.1738 30.0513 14.2713 30.9188 14.2713 32.0363C14.2713 33.1538 14.1563 34.0113 13.9313 34.6988L13.9288 34.7013ZM15.1513 28.3038C14.6363 27.3463 13.9063 26.8588 12.9813 26.8588C12.1063 26.8588 11.4088 27.3463 10.9113 28.3113C10.4213 29.2588 10.1738 30.5163 10.1738 32.0513C10.1738 33.5863 10.4113 34.9238 10.8813 35.8663C11.3588 36.8238 12.0663 37.3113 12.9838 37.3113C13.9013 37.3113 14.6563 36.8013 15.1788 35.7963C15.6688 34.8538 15.9163 33.5888 15.9163 32.0338C15.9163 30.4788 15.6588 29.2438 15.1538 28.3013L15.1513 28.3038ZM19.7238 34.6388C19.1963 33.9963 18.9313 33.1538 18.9313 32.1288C18.9313 31.1038 19.1863 30.2388 19.6888 29.6213C20.2338 28.9463 21.0438 28.6038 22.0887 28.6038H22.1687V26.8563H22.0887C20.4588 26.8563 19.2013 27.3663 18.3488 28.3713C17.5738 29.2813 17.1838 30.5488 17.1838 32.1413C17.1838 33.7338 17.6088 34.9413 18.4488 35.8988C19.3338 36.9038 20.5638 37.4138 22.1137 37.4138H22.1937V35.6663H22.1137C21.0938 35.6663 20.2888 35.3213 19.7238 34.6363V34.6388Z" fill="white"/>
<path fill-rule="evenodd" clip-rule="evenodd" d="M4.4043 12.4114V22.4839H6.25678V14.0864H8.55177V22.4839H10.4043V12.4114H4.4043Z" fill="white"/>
<path fill-rule="evenodd" clip-rule="evenodd" d="M16.0991 20.9888C15.6616 20.9888 15.3316 20.6663 15.0891 20.0063C14.8366 19.3163 14.7091 18.4388 14.7091 17.4013C14.7091 16.3638 14.8341 15.4613 15.0816 14.7988C15.3166 14.1663 15.6516 13.8563 16.0991 13.8563C16.5991 13.8563 16.9591 14.1688 17.1916 14.8112C17.4066 15.4038 17.5166 16.2663 17.5166 17.3763C17.5166 18.4863 17.3866 19.3413 17.1341 20.0213C16.8941 20.6738 16.5541 20.9913 16.0991 20.9913V20.9888ZM18.5391 13.6163C17.9591 12.6488 17.1366 12.1562 16.0941 12.1562C15.1091 12.1562 14.3241 12.6513 13.7591 13.6263C13.2091 14.5788 12.9316 15.8463 12.9316 17.3913C12.9316 18.9363 13.1991 20.2812 13.7241 21.2288C14.2616 22.2013 15.0591 22.6938 16.0916 22.6938C17.1241 22.6938 17.9741 22.1788 18.5641 21.1638C19.1141 20.2163 19.3916 18.9413 19.3916 17.3788C19.3916 15.8163 19.1041 14.5688 18.5341 13.6213L18.5391 13.6163Z" fill="white"/>
<path fill-rule="evenodd" clip-rule="evenodd" d="M29.4966 12.4114V14.0864H31.0341V22.4839H32.8866V14.0864H34.449V12.4114H29.4966ZM25.4266 15.9214H24.4191C24.0041 15.9214 23.6941 15.8264 23.4966 15.6389C23.3541 15.5064 23.2841 15.3289 23.2841 15.0964V12.4114H21.4316V15.2889C21.4316 15.9489 21.6941 16.5114 22.2116 16.9564C22.7216 17.3964 23.3466 17.6214 24.0741 17.6214H25.4266V22.4864H27.2816V12.4114H25.4266V15.9214Z" fill="white"/>
<path fill-rule="evenodd" clip-rule="evenodd" d="M38.5912 15.8939C38.5962 15.6889 38.6312 14.2789 38.6362 14.0864H39.3062C39.7837 14.0864 40.1137 14.2314 40.3112 14.5239C40.4712 14.7689 40.5862 15.2439 40.6562 15.8939H38.5887H38.5912ZM42.4037 15.1189C42.4037 14.1539 42.1062 13.4239 41.5187 12.9664C41.0512 12.5964 40.4112 12.4089 39.6162 12.4089H36.8712L36.5312 22.4814H38.3837C38.3837 22.4814 38.5562 17.7864 38.5637 17.5639C38.7662 17.5639 40.6887 17.5639 40.8787 17.5639C40.8987 17.7689 41.3962 22.4814 41.3962 22.4814H43.2637L42.4087 15.1164L42.4037 15.1189Z" fill="white"/>
</svg>
