<svg width="415" height="586" viewBox="0 0 415 586" fill="none" xmlns="http://www.w3.org/2000/svg">
<rect width="415" height="586" fill="#E26D14"/>
<mask id="mask0_1283_19426" style="mask-type:alpha" maskUnits="userSpaceOnUse" x="0" y="0" width="415" height="514">
<rect width="415" height="513.627" fill="#E26D14"/>
</mask>
<g mask="url(#mask0_1283_19426)">
<mask id="mask1_1283_19426" style="mask-type:alpha" maskUnits="userSpaceOnUse" x="-623" y="-7" width="1722" height="803">
<rect x="1098.98" y="795.417" width="1721.48" height="801.821" transform="rotate(180 1098.98 795.417)" fill="#191919"/>
</mask>
<g mask="url(#mask1_1283_19426)">
<path d="M43.3024 -5.82885C42.6974 -3.64023 42.129 -1.44244 41.4872 0.732414C40.3046 4.74259 39.067 8.73441 37.8752 12.74C37.0959 15.3645 36.9126 18.0808 36.7934 20.7925C36.6788 23.4307 36.5413 26.0874 36.6926 28.7164C36.9172 32.5936 37.2885 36.4707 37.7973 40.3248C38.2465 43.7477 38.714 47.1568 38.824 50.6118C38.8653 51.8598 38.9157 53.1078 39.0303 54.3513C39.4658 59.2195 39.0074 64.0096 38.0219 68.7861C37.5772 70.9334 37.3755 73.1404 37.2105 75.329C36.7659 81.2295 37.4122 87.0567 38.6453 92.8242C40.2129 100.161 40.2404 107.553 39.2824 114.949C38.847 118.298 37.8981 121.552 36.5596 124.672C34.8774 128.59 33.4426 132.591 32.5442 136.766C31.7695 140.364 31.3341 144.016 31.2103 147.677C31.1232 150.306 31.4578 152.949 31.6137 155.588C31.8475 159.474 32.1362 163.36 31.467 167.228C31.1415 169.105 30.7473 170.977 30.2202 172.807C29.1109 176.689 28.0521 180.58 27.3324 184.558C27.1628 185.494 26.9382 186.425 26.6861 187.343C25.4805 191.748 24.9488 196.272 24.4675 200.796C24.2016 203.274 24.0825 205.77 23.922 208.257C23.8899 208.743 23.9587 209.234 23.9862 209.794C24.6096 209.431 24.6142 208.876 24.715 208.403C26.6311 199.718 29.4135 191.294 32.2096 182.87C33.1539 180.025 33.7727 177.065 34.4969 174.147C35.7529 169.082 36.5275 163.938 37.1693 158.763C37.4489 156.514 37.9577 154.284 38.5215 152.087C40.0708 146.039 42.3582 140.226 44.3705 134.33C45.6264 130.65 47.107 127.062 48.6151 123.479C51.0308 117.734 53.2127 111.889 54.7391 105.827C55.555 102.593 55.6925 99.2982 55.3579 95.9901C54.9958 92.4112 54.5374 88.8461 54.1707 85.2672C53.6619 80.3027 53.1852 75.3336 53.4648 70.3277C53.6986 66.1707 52.8093 62.1606 51.8604 58.1504C51.2325 55.5121 50.6411 52.8601 50.1415 50.1943C49.706 47.8818 49.486 45.5372 49.8894 43.1879C50.0727 42.1051 50.2744 41.0177 50.5907 39.9715C51.3929 37.3012 52.2821 34.6583 53.1027 31.9971C53.4923 30.7353 53.8315 29.4598 54.1478 28.1796C54.6107 26.3122 54.7207 24.4447 54.4778 22.5085C53.9644 18.3974 54.1982 14.3184 55.3487 10.2944C55.8713 8.4637 56.1234 6.55955 56.5864 4.71506C57.0677 2.79715 57.6498 0.902179 58.1953 -0.997377C58.2549 -1.20844 58.3328 -1.41491 58.4245 -1.6168C58.6445 -2.10316 58.9379 -2.5161 59.5475 -2.50693C60.0655 -2.49775 60.423 -2.09398 60.5193 -1.24973C60.6843 0.209346 60.831 1.66843 60.8952 3.13668C61.0556 6.87614 61.1152 10.6202 61.3077 14.3551C61.4223 16.5483 61.734 18.7369 61.9311 20.9255C62.1328 23.1187 62.3482 25.3119 62.4857 27.5051C62.7654 32.0521 63.3338 36.5624 64.1222 41.0452C64.631 43.9312 65.1765 46.8127 65.7082 49.6987C66.5058 54.0393 67.7205 58.2513 69.2286 62.4037C70.9796 67.2169 71.6076 72.2502 71.4426 77.3478C71.3371 80.5505 71.8001 83.6292 72.6756 86.6804C73.3448 89.0067 73.9545 91.3467 74.6146 93.6776C75.8247 97.963 75.6093 102.267 74.6329 106.529C73.5649 111.191 71.9055 115.665 69.7649 119.946C68.8114 121.85 67.8168 123.726 66.8266 125.612C63.6363 131.687 61.3169 138.06 59.9097 144.796C58.4382 151.83 56.8981 158.864 54.6887 165.705C53.0018 170.935 51.0491 176.083 49.1239 181.236C48.3309 183.36 47.2308 185.37 46.4011 187.481C45.1085 190.771 44.4988 194.253 43.8158 197.708C43.1604 201.016 42.6745 204.361 41.9044 207.642C41.3543 209.991 40.5246 212.276 39.7179 214.556C38.3198 218.498 36.8576 222.411 35.3999 226.33C34.8636 227.771 34.2677 229.193 33.6764 230.615C32.2967 233.933 30.8299 237.218 29.5326 240.567C28.7396 242.614 28.1621 244.747 27.5478 246.858C27.0345 248.615 26.6815 250.428 26.1177 252.167C24.715 256.512 23.8487 260.972 23.0419 265.45C22.5973 267.909 22.0014 270.322 21.2267 272.699C20.7042 274.296 20.3879 275.962 19.9708 277.595C19.7737 278.375 19.5949 279.164 19.3245 279.921C19.1503 280.412 18.4077 280.582 18.0043 280.247C17.6147 279.926 17.248 279.554 16.9409 279.15C15.7766 277.622 14.9011 275.925 14.2135 274.14C12.3158 269.203 10.7115 264.179 9.72134 258.971C9.57008 258.182 9.46464 257.379 9.38672 256.576C8.70373 249.638 7.94281 242.71 7.379 235.763C6.71893 227.674 6.97103 219.622 9.11168 211.725C10.0972 208.091 10.5923 204.393 10.7023 200.64C10.826 196.455 10.771 192.276 10.4089 188.1C10.2072 185.76 10.1385 183.411 10.0055 181.071C9.81759 177.703 9.60215 174.331 9.43255 170.963C9.09793 164.342 9.62048 157.767 10.5418 151.21C11.0002 147.939 11.2065 144.649 11.0277 141.332C10.8627 138.253 10.8581 135.17 10.8444 132.086C10.8169 124.965 10.8948 117.844 10.7985 110.723C10.7343 105.63 11.3623 100.624 12.2241 95.6276C12.9208 91.5761 13.7138 87.5522 14.7773 83.5787C15.309 81.5874 15.5428 79.5456 15.6161 77.4855C15.7628 73.2321 15.8636 68.9742 16.0699 64.7208C16.1662 62.7479 16.3495 60.7611 16.675 58.8111C17.7109 52.5848 18.944 46.3998 20.3879 40.256C21.4147 35.9017 22.4873 31.5566 23.3949 27.1794C23.9908 24.3117 24.3575 21.3935 24.7884 18.4891C25.0771 16.5299 25.2605 14.557 25.5538 12.5978C26.4248 6.77521 26.7823 0.925125 26.7227 -4.95707C26.7227 -5.24614 26.6265 -5.53061 26.576 -5.81967C32.15 -5.81968 37.7239 -5.81968 43.2978 -5.81968L43.3024 -5.82885Z" fill="white" fill-opacity="0.05"/>
<path d="M381.326 -5.82915C381.441 -1.26379 380.978 3.25109 380.286 7.76139C379.337 13.951 377.636 19.9387 375.578 25.8301C375.024 27.4177 374.377 28.9869 373.639 30.501C371.43 35.048 370.174 39.8382 369.784 44.867C369.56 47.7943 369.399 50.7262 369.078 53.6444C368.478 59.0678 367.057 64.2938 365.219 69.4235C363.949 72.9519 362.372 76.3381 360.805 79.7335C358.242 85.2853 356.34 91.0482 355.217 97.0726C354.69 99.899 354.314 102.735 354.493 105.607C354.74 109.562 354.956 113.522 355.423 117.449C355.762 120.289 356.202 123.116 356.432 125.97C356.927 132.113 357.435 138.253 358.004 144.387C358.352 148.127 358.499 151.862 358.16 155.596C357.972 157.638 357.756 159.694 357.353 161.699C356.725 164.805 356.331 167.939 356.322 171.091C356.285 180.116 356.335 189.146 356.358 198.171C356.372 203.686 355.982 209.174 355.171 214.625C354.63 218.25 353.929 221.851 353.186 225.439C352.71 227.734 352.091 230.005 351.417 232.249C349.258 239.484 347.067 246.711 344.844 253.928C344.174 256.099 343.413 258.246 342.616 260.375C341.19 264.169 340.301 268.092 339.701 272.093C339.311 274.704 338.862 277.306 338.454 279.912C338.211 281.444 338.238 282.963 338.458 284.509C338.876 287.437 338.862 290.359 337.959 293.227C337.675 294.135 337.532 295.09 337.23 295.994C336.066 299.458 335.836 303.032 335.951 306.643C336.029 309.208 335.905 311.791 336.46 314.319C336.914 316.398 337.445 318.453 337.936 320.523C338.037 320.95 338.156 321.376 338.193 321.812C338.257 322.546 337.523 323.028 336.849 322.707C336.588 322.583 336.304 322.441 336.121 322.23C335.506 321.509 334.823 320.812 334.374 319.995C333.389 318.187 332.674 316.265 332.321 314.218C331.807 311.254 331.211 308.304 330.762 305.336C330.157 301.339 329.818 297.324 330.208 293.273C330.327 292.039 330.34 290.763 330.175 289.538C329.891 287.414 329.877 285.294 329.923 283.169C329.983 280.449 329.758 277.769 329.227 275.08C328.846 273.162 328.86 271.139 328.906 269.166C328.984 265.794 329.208 262.421 329.392 259.049C329.428 258.393 329.497 257.727 329.644 257.09C330.886 251.73 332.179 246.394 334.182 241.251C335.195 238.654 335.956 235.983 335.956 233.129C335.956 231.982 336.272 230.808 336.593 229.688C337.601 226.164 338.798 222.691 339.705 219.144C340.993 214.102 342.093 209.013 343.267 203.943C343.533 202.801 343.711 201.635 344.028 200.507C344.99 197.107 345.357 193.597 346.04 190.146C346.054 190.073 346.063 189.999 346.068 189.926C346.255 184.503 346.604 179.084 345.916 173.656C345.426 169.783 344.592 166.016 343.579 162.249C341.901 156.014 340.576 149.691 339.659 143.295C339.128 139.597 338.931 135.848 338.573 132.123C338.312 129.42 338.087 126.718 337.752 124.024C337.537 122.272 336.987 120.592 336.249 118.982C335.699 117.78 335.218 116.545 334.626 115.366C332.848 111.806 331.482 108.103 330.583 104.226C329.79 100.798 328.878 97.3938 328.172 93.9434C327.393 90.1168 327.416 86.203 327.393 82.3167C327.361 76.3748 326.293 70.6532 324.203 65.1014C323.194 62.4218 322.429 59.6642 321.87 56.8516C321.484 54.9108 321.054 52.9745 320.604 51.0474C319.518 46.3765 319.367 41.5955 318.917 36.8512C318.748 35.0251 318.665 33.1898 318.473 31.3636C317.781 24.9079 318.051 18.4521 318.578 12.0148C318.94 7.62375 320.063 3.34745 321.141 -0.924252C321.553 -2.55769 321.952 -4.19571 322.36 -5.83373C329.254 -5.83373 336.148 -5.83373 343.042 -5.83374C343.198 -2.09427 343.313 1.64519 343.519 5.38007C343.812 10.675 343.34 15.9377 342.909 21.2005C342.772 22.8798 342.731 24.5775 342.483 26.2431C341.814 30.6754 341.488 35.1352 341.112 39.595C340.352 48.689 340.457 57.7693 341.337 66.8449C341.662 70.199 342.167 73.5393 342.611 76.8841C342.721 77.7008 342.859 78.5176 343.391 79.5775C343.872 74.3284 344.252 69.4327 344.798 64.5554C345.187 61.0591 345.609 57.549 346.347 54.117C347.709 47.8081 349.478 41.6001 351.509 35.4701C352.389 32.8181 353.122 30.1431 353.553 27.381C354.007 24.4857 354.415 21.5676 355.107 18.7228C355.987 15.0935 357.005 11.4871 358.201 7.94951C359.736 3.42545 360.905 -1.18579 361.964 -5.83374L381.326 -5.83374L381.326 -5.82915Z" fill="white" fill-opacity="0.05"/>
<path d="M159.979 -5.82885C159.887 -4.07153 159.768 -2.3188 159.713 -0.561481C159.663 1.0536 159.663 2.66868 159.667 4.28376C159.685 8.39947 159.488 12.4968 159.002 16.585C158.04 24.642 158.915 32.5385 161.12 40.3203C163 46.9549 164.664 53.6447 166.185 60.3665C167.043 64.1656 168.266 67.8501 169.816 71.4289C170.92 73.9846 171.975 76.5678 172.997 79.1602C175.096 84.4781 177.384 89.7225 179.249 95.1413C180.061 97.5042 181.156 99.7479 182.66 101.771C183.402 102.772 184.113 103.799 184.791 104.846C186.052 106.777 187.656 108.365 189.499 109.727C192.877 112.228 195.902 115.087 198.4 118.491C200.789 121.744 203.209 124.97 205.615 128.209C207.238 130.389 208.93 132.508 210.937 134.357C211.529 134.903 212.102 135.482 212.601 136.115C215.549 139.859 218.606 143.534 221.375 147.407C224.345 151.568 226.339 156.225 227.091 161.332C227.366 163.218 227.599 165.131 227.567 167.031C227.508 170.623 227.292 174.216 227.049 177.799C226.793 181.553 225.821 185.182 224.799 188.779C223.378 193.79 221.897 198.782 220.293 203.733C219.504 206.169 218.414 208.504 217.405 210.867C214.746 217.089 212.67 223.508 211.212 230.111C210.598 232.9 210.227 235.745 209.791 238.576C209.333 241.558 208.581 244.467 207.651 247.331C206.221 251.726 204.712 256.09 203.264 260.476C201.696 265.211 200.152 269.951 198.611 274.691C198.295 275.668 198.048 276.664 197.773 277.655C197.635 278.15 197.53 278.655 197.378 279.146C196.925 280.605 196.127 280.793 194.976 279.724C194.711 279.476 194.449 279.21 194.225 278.921C191.887 275.897 189.687 272.773 188.215 269.226C186.698 265.569 185.327 261.853 183.87 258.168C183.466 257.145 183.017 256.14 182.54 255.149C180.175 250.258 178.035 245.275 176.118 240.191C175.55 238.682 174.931 237.186 174.235 235.736C171.493 230.056 168.775 224.362 165.933 218.736C162.853 212.643 160.057 206.43 157.563 200.076C157.412 199.69 157.119 199.355 156.894 198.997L156.894 -5.82885C157.921 -5.82885 158.947 -5.82885 159.974 -5.82885L159.979 -5.82885ZM191.979 230.629C192.194 229.413 192.4 228.408 192.542 227.394C192.96 224.412 193.574 221.471 194.55 218.622C196.026 214.322 197.52 210.032 198.987 205.728C200.404 201.562 201.756 197.373 202.393 193C202.773 190.39 203.044 187.765 203.351 185.145C203.699 182.158 204.117 179.176 204.346 176.184C204.777 170.472 204.85 164.755 204.364 159.038C203.97 154.427 202.764 150.095 199.803 146.402C199.666 146.232 199.542 146.044 199.423 145.86C197.905 143.525 196.31 141.235 194.898 138.836C193.812 136.991 192.602 135.261 191.186 133.665C189.92 132.238 188.674 130.788 187.317 129.453C184.108 126.291 181.486 122.685 179.066 118.909C176.247 114.513 172.896 110.53 169.435 106.635C169.298 106.484 169.087 106.396 168.812 106.217C168.266 107.144 168.161 108.172 167.881 109.131C166.515 113.802 165.754 118.56 165.86 123.446C165.924 126.525 165.86 129.609 165.796 132.687C165.745 135.105 165.663 137.528 165.498 139.941C165.305 142.727 165.214 145.507 165.406 148.292C165.521 149.976 165.557 151.66 165.654 153.344C165.883 157.221 165.952 161.121 166.41 164.975C167.281 172.289 169.27 179.341 171.924 186.205C172.905 188.733 173.904 191.257 174.913 193.771C176.247 197.107 177.544 200.456 178.942 203.76C180.716 207.945 182.614 212.074 184.379 216.259C185.401 218.69 186.263 221.186 187.207 223.65C187.917 225.504 188.747 227.303 189.994 228.867C190.484 229.487 190.938 230.166 191.983 230.615L191.979 230.629Z" fill="white" fill-opacity="0.05"/>
<path d="M126.031 -5.82886C126.118 -4.59002 125.49 -3.55306 125.004 -2.50693C124.106 -0.579844 123.18 1.34724 122.103 3.17797C119.788 7.11473 118.55 11.3773 118.083 15.8784C117.863 17.9936 117.702 20.1226 117.679 22.2469C117.647 25.266 117.372 28.2484 116.859 31.2217C116.474 33.4607 116.208 35.7228 115.864 37.971C115.451 40.6598 114.796 43.2889 113.838 45.84C112.307 49.9098 111.179 54.0806 110.895 58.4394C110.803 59.8251 110.808 61.2245 110.886 62.6102C111.01 64.808 111.308 66.9966 111.409 69.1944C111.72 75.953 111.564 82.7024 110.446 89.3921C109.685 93.9483 108.805 98.4861 108.012 103.042C107.246 107.452 106.463 111.856 105.798 116.284C105.097 120.941 105.097 125.644 105.22 130.343C105.289 132.986 105.381 135.624 105.399 138.267C105.436 143.846 105.445 149.425 105.431 155.005C105.431 156.693 105.34 158.382 105.23 160.066C105.184 160.781 105.197 161.658 104.322 161.901C103.401 162.158 103.075 161.323 102.708 160.708C101.292 158.345 100.536 155.739 100.036 153.064C99.4172 149.747 98.9588 146.406 98.583 143.048C98.0833 138.606 97.3774 134.178 96.6211 129.769C95.7731 124.837 95.3559 119.863 95.2047 114.876C94.9847 107.759 94.9434 100.638 94.8838 93.517C94.8425 88.9516 94.3704 84.4276 93.5591 79.9494C92.6102 74.7279 92.3398 69.4605 92.0327 64.184C91.7851 59.9306 91.4047 55.6911 90.4512 51.5295C90.2541 50.6715 90.0616 49.8089 89.7682 48.983C87.8797 43.6514 86.5046 38.1683 84.9598 32.7404C83.6763 28.2255 82.3287 23.729 81.0406 19.2141C79.23 12.8593 77.8274 6.40814 76.8648 -0.130185C76.5851 -2.01598 76.4843 -3.92471 76.301 -5.82426C84.6619 -5.82426 93.0228 -5.82426 101.384 -5.82427C101.329 -1.72233 101.347 2.3842 101.2 6.48614C101.058 10.5193 100.824 14.5478 101.026 18.5901C101.159 21.2283 101.242 23.8666 101.411 26.5049C101.53 28.3356 101.737 30.1572 101.943 31.9787C101.993 32.4192 102.044 32.9193 102.58 33.2543C103.057 29.2808 103.52 25.422 103.987 21.5633C104.441 17.8514 104.941 14.144 105.784 10.4917C106.871 5.77495 107.957 1.05818 109.025 -3.66318C109.185 -4.36978 109.217 -5.1039 109.309 -5.82427C114.883 -5.82427 120.457 -5.82427 126.031 -5.82427L126.031 -5.82886Z" fill="white" fill-opacity="0.05"/>
<path d="M157.273 197.671C156.746 197.561 156.668 197.07 156.508 196.689C153.826 190.422 151.108 184.168 149.513 177.501C148.88 174.863 148.124 172.257 147.386 169.651C146.465 166.384 146.181 163.021 145.851 159.667C145.686 157.987 145.626 156.299 145.589 154.61C145.406 146.324 145.259 138.037 145.08 129.746C145.003 126.08 144.824 122.414 144.787 118.748C144.718 112.219 144.659 105.69 144.718 99.1606C144.787 92.035 145.484 84.9644 146.937 77.9718C148.087 72.4383 148.977 66.8498 148.876 61.1787C148.812 57.4438 148.587 53.7043 148.248 49.9832C147.794 44.982 147.973 40.0174 148.748 35.0712C149.261 31.8135 149.825 28.5604 150.366 25.3073C150.787 22.7562 150.746 20.196 150.54 17.6265C150.425 16.2363 150.398 14.8414 150.269 13.4558C149.971 10.1705 149.728 6.87614 149.288 3.60928C148.862 0.466291 148.793 -2.67211 148.917 -5.82886L157.273 -5.82886L157.273 197.671Z" fill="white" fill-opacity="0.05"/>
<path d="M277.035 -5.82915C277.14 -5.33362 276.883 -4.99867 276.567 -4.66831C274.234 -2.21357 272.212 0.479759 270.324 3.28321C268.554 5.91231 267.051 8.6607 265.992 11.6614C265.382 13.3866 264.654 15.0751 263.92 16.7499C263.205 18.3879 262.142 19.7781 260.721 20.8839C260.492 21.0629 260.272 21.2602 260.042 21.4437C256.687 24.0682 254.601 27.537 253.359 31.5609C253.011 32.6804 252.671 33.8046 252.369 34.9379C251.466 38.3699 250.082 41.6047 248.184 44.5871C245.383 48.9873 243.848 53.86 242.633 58.8659C242.115 61.004 241.556 63.133 241.024 65.262C240.859 65.9273 240.644 66.6109 239.828 66.6155C239.158 66.6155 238.86 66.0374 238.613 65.4868C237.98 64.069 237.559 62.5962 237.398 61.0499C237.077 57.9712 237.178 54.8878 237.559 51.8274C238.21 46.5876 238.874 41.3477 239.631 36.1217C239.997 33.5843 240.593 31.0837 241.07 28.5647C241.514 26.188 241.945 23.8067 242.367 21.4208C242.89 18.4475 243.756 15.5707 244.764 12.7351C245.599 10.3859 246.46 8.04587 247.377 5.72878C248.541 2.79227 249.564 -0.18554 250.348 -3.24594C250.568 -4.09477 250.861 -4.93443 250.636 -5.83374L277.039 -5.83374L277.035 -5.82915Z" fill="white" fill-opacity="0.05"/>
<path d="M419.613 -5.82915C419.553 -0.639786 418.036 4.27887 416.904 9.27553C415.9 13.7032 415.098 18.1722 414.208 22.6229C414.052 23.4121 413.952 24.2196 413.704 24.9813C413.617 25.2566 413.195 25.564 412.897 25.5915C412.604 25.6191 412.09 25.3805 412.003 25.1373C411.563 23.903 411.068 22.6504 410.899 21.3657C410.633 19.3377 410.55 17.2775 410.509 15.2311C410.477 13.6069 410.394 12.0056 409.835 10.4685C408.905 7.92198 408.864 5.2883 409.171 2.65003C409.496 -0.185543 409.968 -3.00735 410.376 -5.83374C413.457 -5.83374 416.537 -5.83374 419.617 -5.83374L419.613 -5.82915Z" fill="white" fill-opacity="0.05"/>
<path d="M184.624 -5.82886C184.588 -5.61321 184.505 -5.39297 184.528 -5.18191C185.028 -0.66702 185.289 3.87998 186.33 8.32605C187.013 11.2534 187.686 14.1807 188.342 17.1172C188.47 17.6862 188.58 18.2781 188.544 18.8516C188.525 19.1407 188.195 19.549 187.925 19.6362C187.65 19.7234 187.136 19.5857 186.958 19.3655C186.55 18.8608 186.252 18.2597 185.963 17.6678C182.25 10.0834 178.922 2.35208 176.708 -5.82427C179.348 -5.82427 181.989 -5.82427 184.629 -5.82427L184.624 -5.82886Z" fill="white" fill-opacity="0.05"/>
<path d="M244.979 406.889C245.873 406.099 246.006 405.195 246.052 404.333C246.134 402.874 246.235 401.383 246.052 399.942C245.607 396.377 245.052 392.821 244.443 389.279C244.195 387.843 243.741 386.429 243.297 385.034C241.78 380.276 240.473 375.468 239.822 370.503C239.281 366.36 238.378 362.258 238.14 358.078C237.984 355.367 238.002 352.65 237.856 349.939C237.672 346.644 237.53 343.341 237.132 340.065C236.421 334.201 236.297 328.369 237.31 322.528C238.516 315.549 238.653 308.511 238.25 301.459C238.122 299.192 237.737 296.939 237.553 294.677C237.306 291.608 236.889 288.552 236.985 285.455C237.044 283.555 236.966 281.637 236.788 279.742C236.38 275.457 236.843 271.245 237.727 267.065C237.925 266.133 238.222 265.225 238.433 264.293C238.901 262.219 239.446 260.159 239.763 258.062C240.194 255.209 241.064 252.497 242.087 249.822C245.117 241.903 246.973 233.689 248.156 225.316C248.481 222.994 248.651 220.645 248.779 218.305C248.962 214.919 249.577 211.601 250.287 208.307C251.52 202.572 252.854 196.855 254.133 191.128C254.885 187.765 255.751 184.425 256.127 180.988C256.264 179.749 256.466 178.515 256.544 177.272C256.984 170.091 257.456 162.915 256.741 155.725C256.53 153.61 256.264 151.495 256.035 149.379C255.884 147.994 255.691 146.608 255.609 145.218C255.256 139.051 254.257 132.976 253.124 126.911C252.68 124.534 252.345 122.12 252.199 119.712C251.814 113.412 251.415 107.075 252.474 100.817C253.537 94.531 254.715 88.245 257.351 82.3582C258.547 79.6832 259.611 76.944 260.812 74.2736C262.352 70.8507 264.382 67.7078 266.482 64.6061C267.467 63.1516 268.361 61.6283 269.282 60.1325C270.745 57.7603 272.193 55.379 273.646 53.0023C275.301 50.2998 276.598 47.4275 277.703 44.468C278.679 41.8573 279.633 39.2374 280.495 36.5853C281.425 33.7222 282.557 30.9417 283.731 28.1704C284.803 25.6377 286.252 23.371 288.026 21.2971C290.125 18.847 292.087 16.2775 294.553 14.1623C295.218 13.5934 295.717 12.8409 296.345 12.2261C296.914 11.6663 297.523 11.134 298.179 10.6844C298.811 10.2485 299.472 10.5651 299.696 11.3359C299.779 11.6158 299.825 11.9095 299.857 12.1985C300.466 18.1954 300.627 24.2107 300.283 30.2305C300.21 31.4648 299.889 32.6899 299.6 33.8966C298.624 37.9756 296.978 41.8298 295.598 45.7757C293.879 50.6898 292.073 55.5763 290.451 60.5225C289.007 64.9318 288.255 69.5018 287.994 74.1314C287.806 77.4992 287.746 80.8808 287.687 84.2532C287.627 87.6393 288.017 90.9658 288.837 94.2786C290.093 99.3303 291.212 104.419 292.261 109.521C292.999 113.118 293.38 116.77 293.366 120.455C293.357 123.336 292.857 126.154 292.316 128.962C291.862 131.338 291.349 133.701 290.914 136.083C290.304 139.4 289.69 142.722 289.172 146.053C288.741 148.811 288.59 151.586 288.677 154.385C288.892 161.428 289.071 168.471 288.594 175.514C288.328 179.428 287.489 183.2 286.096 186.861C284.973 189.812 283.694 192.688 282.204 195.478C279.193 201.113 275.892 206.577 272.464 211.955C270.451 215.107 268.118 218.043 266.065 221.168C263.566 224.967 261.215 228.858 258.799 232.712C258.721 232.836 258.666 232.974 258.579 233.093C255.494 237.443 253.629 242.393 251.612 247.266C250.09 250.937 249.077 254.759 248.454 258.691C248.201 260.279 247.922 261.889 247.404 263.403C246.437 266.23 246.084 269.107 246.166 272.066C246.198 273.241 246.208 274.415 246.23 275.59C246.285 278.242 246.07 280.862 245.424 283.45C244.832 285.813 244.759 288.231 244.796 290.667C244.855 294.26 244.819 297.857 244.837 301.449C244.842 302.477 244.851 303.51 244.956 304.524C245.19 306.712 245.506 308.887 245.754 311.076C245.942 312.75 246.075 314.43 246.226 316.109C246.285 316.765 246.272 317.435 246.386 318.082C247.069 321.941 246.95 325.827 246.822 329.718C246.735 332.43 246.684 335.146 246.68 337.858C246.675 340.868 246.703 343.877 246.79 346.883C246.863 349.374 246.996 351.866 247.188 354.348C247.276 355.435 247.505 356.532 247.794 357.587C248.577 360.414 249.453 363.213 250.246 366.034C250.86 368.223 251.451 370.416 251.974 372.628C252.446 374.624 252.795 376.652 253.225 378.661C254.307 383.708 254.601 388.838 254.857 393.968C255.114 399.024 256.356 403.805 258.446 408.394C260.092 411.995 261.692 415.62 263.333 419.226C264.337 421.429 265.35 423.627 266.427 425.797C268.169 429.302 269.347 433.005 270.273 436.781C271.341 441.126 272.276 445.499 273.266 449.863C273.38 450.363 273.5 450.867 273.55 451.377C273.665 452.51 273.119 452.996 271.955 452.772C271.455 452.675 270.956 452.524 270.497 452.304C269.507 451.831 268.512 451.354 267.577 450.78C263.507 448.298 259.51 445.701 255.394 443.297C250.548 440.466 246.693 436.602 243.311 432.211C241.34 429.656 239.474 427.022 237.585 424.402C236.256 422.553 235.046 420.621 234.138 418.529C232.057 413.721 229.33 409.293 226.213 405.104C223.692 401.713 221.702 398.061 220.556 393.991C220.043 392.16 219.685 390.283 219.328 388.411C218.581 384.525 218.287 380.552 217.219 376.725C216.491 374.114 215.615 371.54 214.868 368.934C214.162 366.47 213.456 363.997 212.924 361.492C212.636 360.143 212.576 358.711 212.654 357.33C212.819 354.33 213.131 351.333 213.392 348.337C213.424 347.975 213.506 347.612 213.617 347.268C213.786 346.754 214.391 346.406 214.845 346.667C215.725 347.172 216.628 347.695 217.371 348.374C218.796 349.686 219.713 351.37 220.46 353.141C222.055 356.936 223.375 360.817 224.155 364.874C224.641 367.392 225.214 369.898 225.722 372.412C226.295 375.252 227.556 377.822 228.816 380.391C229.917 382.63 231.104 384.823 232.186 387.072C233.075 388.921 233.859 390.82 234.693 392.697C235.559 394.638 236.384 396.597 237.306 398.51C238.869 401.759 241.326 404.259 244.131 406.443C244.351 406.613 244.631 406.714 244.965 406.889L244.979 406.889ZM262.971 206.169C263.713 205.366 263.993 204.402 264.277 203.443C264.942 201.195 265.611 198.942 266.257 196.689C267.967 190.697 269.631 184.705 270.589 178.515C271.556 172.261 272.267 166.017 272.06 159.685C272.033 158.877 272.051 158.07 272.019 157.262C271.854 153.11 272.473 149.049 273.775 145.126C275.136 141.029 275.631 136.835 275.549 132.554C275.489 129.471 275.429 126.388 275.251 123.313C274.714 114.073 274.742 104.832 274.921 95.5863C274.989 92.1359 275.241 88.6992 276.099 85.3314C276.406 84.1247 276.653 82.8996 276.901 81.6791C277.235 80.0365 277.547 78.3893 277.914 76.5127C277.556 76.8293 277.35 76.9394 277.254 77.1092C276.264 78.9032 275.219 80.6789 274.325 82.5234C273.014 85.2259 271.872 88.0156 270.538 90.7089C268.865 94.0813 268.141 97.6281 268.306 101.358C268.448 104.657 268.65 107.952 268.884 111.246C269.03 113.302 269.131 115.357 268.746 117.39C268.283 119.835 267.811 122.29 267.206 124.704C266.628 127.007 266.404 129.306 266.587 131.678C266.848 135.041 267.027 138.409 267.224 141.777C267.325 143.534 267.298 145.305 267.486 147.053C267.981 151.669 267.903 156.294 267.554 160.905C267.101 166.902 266.463 172.885 265.923 178.878C265.739 180.924 265.638 182.975 265.432 185.017C265.07 188.664 264.671 192.312 264.263 195.955C264.002 198.286 263.709 200.612 263.415 202.943C263.278 204.022 263.117 205.1 262.966 206.178L262.971 206.169Z" fill="white" fill-opacity="0.05"/>
<path d="M309.784 322.542C309.486 325.46 309.166 328.374 308.904 331.296C308.62 334.435 308.212 337.564 308.625 340.734C309.033 343.836 310.509 346.259 312.993 348.067C313.997 348.796 315.097 349.406 316.202 349.975C319.667 351.756 322.482 354.325 324.778 357.404C327.68 361.29 328.06 365.589 326.451 370.141C324.897 374.541 322.312 378.203 318.842 381.281C317.416 382.548 316.023 383.851 314.639 385.158C311.774 387.865 310.444 391.307 310.05 395.133C309.794 397.62 309.881 400.116 310.353 402.589C311.425 408.219 312.044 413.909 312.535 419.607C312.759 422.195 312.315 424.732 311.577 427.21C311.178 428.545 310.752 429.876 310.238 431.17C309.34 433.432 308.748 435.767 308.198 438.13C307.726 440.154 307.589 442.186 307.68 444.251C307.896 449.096 308.524 453.905 309.331 458.677C310.206 463.834 310.674 469.014 310.509 474.236C310.44 476.433 310.169 478.627 309.922 480.811C309.532 484.233 309.088 487.652 308.661 491.075C308.588 491.657 308.519 492.245 308.382 492.809C308.116 493.896 307.231 494.199 306.429 493.387C305.613 492.561 304.871 491.63 304.261 490.643C303.729 489.781 303.362 488.794 303.032 487.831C302.239 485.537 301.653 483.187 301.373 480.774C300.91 476.768 300.355 472.767 300.255 468.725C300.2 466.518 299.769 464.352 299.2 462.219C298.366 459.094 297.335 456.043 296.065 453.065C294.218 448.729 292.783 444.256 292.178 439.571C291.756 436.3 291.408 433.001 291.321 429.706C291.22 426.017 290.61 422.415 290.019 418.795C289.322 414.514 288.768 410.215 289.703 405.884C289.826 405.315 289.836 404.718 289.891 404.131C290.189 401.02 289.863 398.019 288.694 395.069C287.512 392.073 286.586 388.971 285.563 385.911C285.38 385.356 285.229 384.782 285.128 384.204C284.67 381.52 285.288 379.253 287.7 377.689C288.378 377.248 289.052 376.803 289.684 376.303C291.321 375.018 292.678 373.536 293.333 371.467C294.286 368.475 294.066 365.658 292.265 363.061C291.389 361.799 290.413 360.597 289.377 359.468C287.59 357.528 285.728 355.651 283.872 353.77C280.851 350.714 278.578 347.144 276.501 343.405C274.205 339.262 272.587 334.884 271.564 330.273C271.134 328.332 270.923 326.378 270.881 324.386C270.758 318.073 270.483 311.769 269.254 305.547C269.199 305.258 269.153 304.964 269.144 304.675C269.121 303.826 269.809 303.335 270.634 303.638C271.89 304.101 272.976 304.849 273.925 305.785C275.245 307.088 276.327 308.584 277.015 310.3C278.403 313.769 279.733 317.265 281.021 320.775C282.506 324.836 283.904 328.933 285.371 333.003C286.049 334.889 287.177 336.518 288.492 338.023C289.185 338.812 289.982 339.418 291.046 339.638C292.508 339.945 293.324 339.523 293.718 338.115C294.076 336.83 294.195 335.508 293.933 334.187C293.709 333.035 293.503 331.87 293.159 330.755C292.224 327.704 292.283 324.717 293.26 321.67C294.021 319.302 294.525 316.852 295.171 314.443C295.597 312.861 295.611 311.255 295.593 309.635C295.574 307.873 295.515 306.111 295.579 304.354C295.662 302.005 295.717 299.66 295.437 297.32C295.107 294.59 295.588 291.901 295.905 289.208C295.927 288.992 295.978 288.767 296.07 288.57C296.294 288.111 296.496 287.593 297.083 287.515C297.678 287.437 298.022 287.845 298.306 288.29C298.582 288.721 298.847 289.167 299.086 289.616C300.759 292.796 302.432 295.976 304.091 299.16C305.311 301.504 306.466 303.89 307.144 306.455C307.708 308.58 308.143 310.741 308.542 312.902C309.129 316.077 309.684 319.261 309.784 322.524L309.784 322.542Z" fill="white" fill-opacity="0.05"/>
<path d="M382.605 266.349C382.866 262.1 383.104 257.851 383.402 253.607C383.618 250.533 383.883 247.463 384.172 244.398C384.406 241.916 384.745 239.443 384.965 236.956C385.295 233.221 385.35 229.482 385.084 225.738C384.965 224.054 384.919 222.361 384.947 220.677C385.006 216.763 384.484 212.918 383.691 209.1C382.462 203.172 382.009 197.189 382.389 191.151C382.476 189.761 382.637 188.37 382.825 186.989C383.329 183.296 383.049 179.685 381.885 176.124C380.881 173.059 379.914 169.976 379.052 166.87C377.64 161.754 376.966 156.523 376.893 151.214C376.87 149.512 377.118 147.847 377.489 146.199C377.97 144.052 378.52 141.919 378.96 139.767C379.327 137.973 379.625 136.16 379.868 134.343C380.207 131.774 379.996 129.232 379.4 126.699C378.86 124.419 378.387 122.111 378.044 119.794C377.539 116.426 377.677 113.063 378.58 109.755C379.295 107.135 379.992 104.515 380.666 101.886C380.996 100.61 381.321 99.3254 381.532 98.0223C382.132 94.3287 382.701 90.6305 383.223 86.9278C383.407 85.6247 383.466 84.2987 383.535 82.9818C383.7 79.7563 383.796 76.5307 383.998 73.3097C384.094 71.7772 384.342 70.2493 384.58 68.726C385.158 65.0278 385.772 61.3388 386.359 57.6452C387.326 51.5566 388.559 45.523 389.902 39.5077C390.204 38.1496 390.415 36.7731 390.64 35.3966C390.819 34.3046 390.828 33.2126 390.599 32.116C390.498 31.625 390.502 31.0974 390.553 30.5926C390.594 30.2026 390.901 29.9182 391.309 29.9457C391.57 29.964 391.914 30.0879 392.061 30.2852C392.267 30.5605 392.386 30.9414 392.441 31.2901C393.042 34.9974 394.225 38.5533 395.215 42.1597C395.994 45.0045 396.315 47.8997 396.333 50.8637C396.374 56.7689 395.604 62.5685 394.403 68.3314C393.821 71.1303 393.253 73.9475 392.927 76.783C392.418 81.2016 392.748 85.5559 394.312 89.7909C396.218 94.9481 398.029 100.142 399.844 105.336C401.462 109.966 402.072 114.756 401.875 119.638C401.765 122.363 401.802 125.07 402.228 127.759C402.97 132.457 404.763 136.78 407.045 140.914C407.967 142.584 408.925 144.231 409.883 145.883C411.496 148.668 412.321 151.687 412.56 154.876C412.771 157.666 412.697 160.441 412.225 163.213C411.345 168.347 410.424 173.472 409.085 178.515C408.897 179.221 408.751 179.946 408.499 180.635C406.715 185.526 405.07 190.467 403.025 195.262C400.637 200.864 398.515 206.568 396.833 212.431C395.737 216.249 394.999 220.144 394.573 224.086C393.693 232.189 392.483 240.237 391.112 248.266C389.842 255.713 388.453 263.137 387.101 270.57C386.826 272.084 386.469 273.584 386.143 275.089C386.097 275.305 386.042 275.521 385.964 275.723C385.795 276.149 385.538 276.512 385.034 276.539C384.543 276.567 384.186 276.305 383.993 275.869C383.191 274.034 382.825 272.089 382.719 270.097C382.655 268.854 382.705 267.601 382.705 266.353C382.673 266.353 382.641 266.353 382.609 266.353L382.605 266.349Z" fill="white" fill-opacity="0.05"/>
<path d="M293.644 229.257C293.969 224.003 294.524 218.016 295.872 212.124C296.793 208.096 298.264 204.264 299.86 200.484C300.914 197.983 302.101 195.542 303.302 193.11C304.586 190.518 305.452 187.829 305.777 184.943C306.167 181.516 306.607 178.102 306.424 174.629C306.217 170.747 306.103 166.856 305.988 162.97C305.892 159.648 306.268 156.367 307.18 153.169C308.184 149.659 308.413 146.089 308.106 142.483C307.666 137.335 308.019 132.224 308.564 127.108C308.619 126.612 308.523 126.103 308.482 125.603C308.459 125.314 308.294 124.992 308.381 124.749C308.491 124.442 308.743 124.052 309.014 123.974C309.284 123.896 309.779 124.056 309.953 124.281C310.251 124.671 310.43 125.181 310.567 125.667C311.049 127.36 311.461 129.071 311.947 130.765C313.464 136.05 315.092 141.308 316.499 146.626C317.475 150.306 318.218 154.055 318.96 157.794C319.433 160.166 319.735 162.575 320.065 164.97C321.381 174.528 320.377 183.847 317.232 192.954C315.843 196.974 314.487 201.002 312.772 204.907C311.31 208.233 310.6 211.757 310.503 215.387C310.448 217.442 310.402 219.498 310.462 221.549C310.572 225.1 310.201 228.582 309.224 231.996C308.619 234.111 308.028 236.231 307.405 238.342C306.176 242.508 305.337 246.748 305.099 251.093C304.778 256.961 304.54 262.825 305.168 268.689C305.287 269.781 305.457 270.873 305.58 271.965C305.644 272.548 305.741 273.144 305.672 273.713C305.635 274.011 305.324 274.415 305.053 274.502C304.778 274.589 304.278 274.433 304.095 274.209C303.728 273.768 303.49 273.213 303.233 272.69C301.945 270.033 301.189 267.188 300.355 264.38C298.828 259.251 297.32 254.107 295.927 248.941C294.258 242.747 293.378 236.438 293.63 229.243L293.644 229.257Z" fill="white" fill-opacity="0.05"/>
<path d="M201.673 67.9878C201.843 65.7809 201.98 63.0646 202.283 60.3713C202.686 56.7878 202.76 53.1952 202.723 49.6025C202.64 41.0683 204.277 32.8461 206.972 24.789C207.834 22.215 208.622 19.618 209.974 17.2413C210.084 17.0485 210.144 16.8329 210.25 16.6402C210.639 15.9198 211.102 15.6124 211.583 15.7409C212.326 15.9428 212.871 16.5897 212.867 17.3238C212.862 17.7597 212.798 18.2002 212.725 18.6361C211.726 24.6468 211.079 30.7033 210.855 36.7874C210.749 39.7193 211.01 42.6421 211.46 45.5556C212.12 49.8365 212.812 54.1082 214.164 58.2331C214.641 59.6922 215.173 61.1559 215.86 62.5232C217.249 65.2716 218.72 67.9787 220.238 70.6582C222.855 75.2695 224.336 80.2202 224.67 85.4922C224.881 88.7866 224.968 92.0902 225.014 95.3892C225.06 98.5597 225.417 101.666 226.192 104.749C227.223 108.874 228.099 113.036 229.043 117.184C229.662 119.9 230.281 122.616 231.482 125.158C231.885 126.016 232.137 126.947 232.44 127.851C232.532 128.127 232.646 128.443 232.591 128.705C232.522 129.031 232.357 129.448 232.101 129.59C231.853 129.728 231.344 129.682 231.12 129.499C230.67 129.141 230.295 128.668 229.969 128.186C227.783 124.965 225.908 121.565 224.235 118.046C222.41 114.206 220.595 110.356 218.592 106.608C216.451 102.597 214.1 98.7019 211.831 94.7651C209.892 91.3973 207.907 88.0525 206 84.6709C203.475 80.1973 202.077 75.3658 201.673 70.2499C201.627 69.6672 201.669 69.0753 201.669 67.9924L201.673 67.9878Z" fill="white" fill-opacity="0.05"/>
<path d="M60.2457 336.554C60.2686 333.444 60.9516 330.425 61.5566 327.41C62.1113 324.643 62.2992 321.909 61.8225 319.11C61.1991 315.425 60.8507 311.7 60.2182 308.006C59.4206 303.386 58.7376 298.724 59.2372 293.998C59.5673 290.86 59.8423 287.717 60.2365 284.587C60.8003 280.151 61.4787 275.727 62.0609 271.291C62.6705 266.684 62.7163 262.073 61.9921 257.466C61.5245 254.497 61.0295 251.524 60.704 248.537C60.5207 246.872 60.5482 245.165 60.6765 243.49C60.9837 239.466 61.3916 235.447 61.7812 231.432C61.9783 229.39 62.2671 227.353 62.4413 225.307C62.6292 223.113 62.808 220.916 62.8539 218.718C62.9593 214.056 63.7706 209.532 65.2466 205.118C65.9434 203.03 66.5943 200.929 67.2864 198.841C67.9098 196.951 68.3361 195.015 68.4049 193.023C68.547 188.976 69.6838 185.246 71.6319 181.709C72.6587 179.85 73.5296 177.9 74.3547 175.946C75.5923 173.009 76.179 169.917 76.3211 166.737C76.3578 165.856 76.4036 164.975 76.5182 164.103C76.587 163.608 76.7612 163.108 76.9766 162.653C77.2333 162.107 77.7925 161.827 78.2188 161.956C78.691 162.098 78.9064 162.465 79.0164 162.919C79.7498 165.989 80.3824 169.072 80.7079 172.22C81.1662 176.684 81.1937 181.158 81.2854 185.632C81.3542 189.151 81.4413 192.675 81.675 196.189C81.8859 199.351 82.5597 202.439 83.7974 205.37C85.0854 208.422 85.6309 211.574 85.0487 214.836C84.6637 216.997 84.1962 219.167 83.4719 221.232C82.0876 225.174 80.4878 229.037 78.9889 232.941C77.7238 236.227 76.422 239.498 75.2485 242.816C74.7397 244.256 74.4097 245.784 74.1759 247.298C73.5617 251.286 72.9016 255.273 72.5303 259.288C72.0353 264.693 71.7557 270.111 72.104 275.553C72.4203 280.527 72.9291 285.505 72.4203 290.502C72.0399 294.223 71.6502 297.944 71.2652 301.66C70.7197 306.923 70.4172 312.191 70.8756 317.481C70.9031 317.775 70.9214 318.068 70.9352 318.362C71.1323 324.23 71.3752 330.094 71.5036 335.963C71.5952 340.147 71.3523 344.332 70.8802 348.489C70.4493 352.292 70.8297 355.945 72.1682 359.523C73.0483 361.868 73.635 364.291 73.8551 366.791C73.9192 367.521 73.9926 368.255 73.9834 368.985C73.9284 372.967 74.428 376.89 75.1798 380.79C76.3395 386.801 76.83 392.862 76.2616 398.965C76.0186 401.589 75.5007 404.186 75.0973 406.797C75.0056 407.389 74.8498 407.967 74.1347 408.1C73.58 408.205 73.0758 407.737 72.9016 406.811C72.6266 405.37 72.3745 403.92 72.2141 402.461C71.9069 399.689 71.5769 396.918 71.4302 394.138C71.1644 389.141 70.7106 384.19 69.2392 379.377C68.6387 377.413 68.2536 375.39 67.6669 373.421C66.9564 371.036 66.278 368.622 65.3383 366.319C63.1747 361.019 61.9234 355.564 61.9554 349.828C61.9692 347.686 61.6162 345.593 61.1441 343.515C60.8507 342.23 60.6307 340.923 60.4611 339.615C60.3282 338.601 60.319 337.569 60.2548 336.541L60.2457 336.554Z" fill="white" fill-opacity="0.05"/>
<path d="M134.96 246.996C134.643 253.199 134.721 258.916 135.73 264.583C136.541 269.143 137.76 273.594 139.388 277.925C140.185 280.054 141.001 282.179 141.959 284.239C143.958 288.543 144.989 293.099 145.741 297.747C146.089 299.917 146.525 302.074 146.878 304.244C147.02 305.111 147.107 305.992 147.125 306.868C147.244 311.493 147.056 316.118 146.621 320.716C146.3 324.143 145.654 327.534 145.186 330.948C144.641 334.94 144.04 338.931 143.637 342.942C143.155 347.727 143.733 352.467 144.705 357.152C145.136 359.23 145.736 361.267 146.272 363.323C146.483 364.135 146.369 364.727 145.919 364.86C145.301 365.039 144.975 364.575 144.645 364.204C144.21 363.708 143.793 363.194 143.421 362.648C141.473 359.808 139.543 356.954 137.604 354.1C135.322 350.737 133.644 347.071 132.429 343.212C131.508 340.28 130.72 337.298 130.023 334.302C129.592 332.453 129.422 330.539 129.184 328.649C128.991 327.121 128.831 325.589 128.73 324.052C128.542 321.166 129.028 318.353 129.761 315.572C130.435 313.021 131.017 310.447 131.687 307.892C132.26 305.698 132.186 303.528 131.531 301.385C130.866 299.215 130.179 297.045 129.381 294.921C128.377 292.246 127.25 289.616 126.168 286.969C124.605 283.138 123.711 279.146 123.362 275.026C123.275 274.002 123.12 272.988 123 271.965C122.629 268.753 122.418 265.537 122.611 262.302C122.757 259.852 122.253 257.485 121.552 255.158C120.575 251.928 119.677 248.675 119.265 245.316C118.884 242.256 118.687 239.173 118.967 236.099C119.297 232.446 119.755 228.808 120.236 225.174C120.796 220.957 121.433 216.754 122.065 212.547C122.285 211.097 122.624 209.665 122.854 208.22C123.541 203.861 123.784 199.47 123.725 195.061C123.715 194.478 123.706 193.872 123.844 193.317C123.913 193.042 124.311 192.712 124.596 192.675C124.884 192.638 125.265 192.881 125.508 193.106C125.705 193.285 125.815 193.615 125.861 193.895C126.534 197.883 127.786 201.723 128.689 205.651C129.28 208.22 129.661 210.84 130.105 213.441C130.747 217.208 131.792 220.875 132.81 224.55C133.653 227.596 134.217 230.694 134.428 233.85C134.584 236.19 134.845 238.526 134.941 240.87C135.028 243.064 134.96 245.266 134.96 246.991L134.96 246.996Z" fill="white" fill-opacity="0.05"/>
<path d="M-11.6436 324.606C-11.4786 321.808 -11.7445 319.045 -12.0516 316.265C-12.5558 311.709 -12.2029 307.175 -11.199 302.702C-10.8094 300.977 -10.5894 299.251 -10.6214 297.471C-10.6398 296.31 -10.4335 295.131 -10.2181 293.984C-9.93845 292.47 -9.56715 290.97 -9.64966 289.41C-9.66341 289.194 -9.66343 288.923 -9.54883 288.772C-9.34256 288.506 -9.07211 288.221 -8.76957 288.125C-8.5633 288.061 -8.24702 288.285 -8.00866 288.428C-7.89865 288.492 -7.8253 288.657 -7.77947 288.79C-6.7481 291.635 -5.08418 294.158 -3.7182 296.833C-1.93967 300.311 -0.477421 303.876 0.233073 307.754C0.682288 310.199 1.39277 312.603 2.04368 315.008C2.63958 317.224 3.73512 319.215 4.9315 321.161C6.36165 323.478 8.08975 325.574 9.81327 327.667C12.3894 330.805 14.4384 334.274 16.2306 337.899C17.4912 340.445 17.8533 343.217 17.9037 346.025C17.9312 347.415 17.8533 348.814 17.7845 350.204C17.67 352.636 17.8121 355.022 18.4355 357.404C19.4943 361.46 19.2193 365.539 18.4217 369.622C17.4637 374.527 16.0519 379.299 14.4888 384.039C12.0043 391.6 11.4772 399.409 11.8806 407.306C11.9952 409.577 12.1831 411.844 12.4169 414.106C12.5819 415.707 12.8844 417.295 13.1274 418.887C13.1595 419.102 13.2328 419.313 13.2557 419.534C13.3107 420.015 13.1457 420.396 12.7057 420.63C12.2656 420.86 11.7247 420.713 11.3947 420.176C11.0097 419.557 10.6338 418.914 10.3679 418.235C9.8637 416.937 9.35949 415.634 8.99736 414.289C7.41594 408.402 6.20581 402.447 5.43114 396.395C4.86275 391.963 4.38145 387.503 2.93754 383.231C1.76408 379.758 0.673123 376.252 -0.633269 372.829C-2.10926 368.952 -2.87017 364.933 -3.34689 360.849C-3.57608 358.886 -3.7136 356.903 -3.76402 354.926C-3.86028 350.815 -4.90541 346.961 -6.69768 343.29C-7.37151 341.904 -8.09575 340.546 -8.77416 339.16C-10.2089 336.229 -11.0294 333.122 -11.2769 329.869C-11.4099 328.112 -11.5199 326.355 -11.6436 324.597L-11.6436 324.606Z" fill="white" fill-opacity="0.05"/>
</g>
</g>
</svg>
