<svg  viewBox="0 0 52 39" fill="none" xmlns="http://www.w3.org/2000/svg">
<g clip-path="url(#clip0_1122_2710)">
<path d="M6.62675 28.6948C6.97446 28.6948 7.24992 28.9775 7.24992 29.3171C7.24992 29.6639 6.97446 29.9393 6.62675 29.9393C6.28808 29.9393 6.01172 29.6639 6.01172 29.3171C6.01172 28.9784 6.28717 28.6948 6.62675 28.6948Z" fill="#0E0E0E"/>
<path d="M46.465 28.3083C46.8036 28.3083 47.08 28.5847 47.08 28.9243C47.08 29.2711 46.8036 29.5465 46.465 29.5465C46.1182 29.5465 45.8418 29.2702 45.8418 28.9243C45.8409 28.5838 46.1182 28.3083 46.465 28.3083Z" fill="#0E0E0E"/>
<path d="M5.91721 26.5021L3.67744 28.0483L3.17168 27.3303C2.9748 27.0621 2.86462 26.8815 2.82488 26.7785C2.76889 26.6286 2.76889 26.4714 2.82488 26.3134C2.87184 26.1472 2.99015 26.0054 3.16356 25.8799C3.30535 25.785 3.43901 25.73 3.56545 25.7137C3.69189 25.6974 3.8102 25.7137 3.92038 25.7534C4.02334 25.7932 4.11727 25.8401 4.18861 25.9115C4.28344 25.9982 4.40988 26.1481 4.55077 26.3531L4.75669 26.6367L5.60021 26.0605L5.91721 26.5021ZM3.73976 27.3384L4.37918 26.9049L4.20577 26.6602C4.07933 26.4877 3.98451 26.3766 3.92219 26.3287C3.85084 26.2899 3.7804 26.2664 3.70905 26.2664C3.6386 26.2664 3.56726 26.2899 3.49681 26.3378C3.41824 26.3929 3.37037 26.4642 3.34599 26.55C3.33064 26.6286 3.33876 26.7153 3.3785 26.7948C3.40198 26.858 3.47333 26.9682 3.59074 27.1262L3.73976 27.3384ZM2.20262 25.832L1.94162 25.2802L2.95854 24.1206L1.43676 24.2226L1.20105 23.7106L3.47243 23.6708C3.71627 23.6627 3.91316 23.6871 4.06398 23.734C4.2139 23.7729 4.32408 23.8677 4.39543 24.0176C4.46678 24.1675 4.51374 24.2858 4.5291 24.3725L4.15881 24.5459C4.1272 24.4746 4.10282 24.4123 4.07211 24.3482C4.02515 24.238 3.96102 24.1675 3.89871 24.1359C3.82826 24.1043 3.71718 24.0962 3.5519 24.1197L2.20262 25.832ZM2.2261 20.8476L2.26584 20.2958C2.57291 20.303 2.81766 20.3825 3.00731 20.5324C3.19607 20.6742 3.32341 20.8946 3.39386 21.1709C3.48056 21.5186 3.43359 21.8329 3.25206 22.1183C3.06331 22.401 2.76347 22.5898 2.34532 22.6936C1.91181 22.8038 1.5334 22.7803 1.23356 22.6141C0.933717 22.4489 0.736834 22.1806 0.642005 21.8176C0.563432 21.4952 0.595042 21.2107 0.735931 20.9668C0.815407 20.8169 0.957199 20.6905 1.15408 20.5803L1.41418 21.0689C1.28775 21.1321 1.19292 21.2269 1.13783 21.3452C1.08183 21.4626 1.07461 21.5882 1.10531 21.7309C1.15318 21.9205 1.26336 22.0623 1.43676 22.149C1.61016 22.2357 1.85491 22.243 2.17011 22.1653C2.50156 22.0777 2.73005 21.9594 2.84023 21.8095C2.95042 21.6514 2.98203 21.4789 2.93416 21.2892C2.90255 21.1475 2.82398 21.0445 2.70567 20.9668C2.59639 20.8864 2.43111 20.8476 2.2261 20.8476ZM2.15566 17.8655L2.35254 17.3444C2.64425 17.4392 2.85739 17.5891 2.99919 17.786C3.13375 17.9756 3.18884 18.2195 3.17259 18.5121C3.15723 18.867 3.01544 19.1588 2.75534 19.3719C2.49433 19.5923 2.14753 19.688 1.72125 19.6636C1.26426 19.6401 0.925589 19.5056 0.679936 19.2617C0.443315 19.017 0.333133 18.7099 0.356614 18.3306C0.372871 18 0.483053 17.7399 0.688065 17.5421C0.814504 17.432 0.987905 17.3444 1.20827 17.2974L1.31123 17.842C1.16944 17.8655 1.05022 17.9287 0.964424 18.0235C0.877723 18.1174 0.83076 18.2358 0.822632 18.3857C0.814504 18.5826 0.878626 18.7478 1.01229 18.8824C1.15408 19.0088 1.38258 19.0883 1.71403 19.1037C2.0527 19.1199 2.30558 19.0721 2.4555 18.9537C2.61355 18.8436 2.69212 18.6855 2.70025 18.4877C2.70838 18.3459 2.66864 18.2195 2.58194 18.1093C2.49433 18 2.35164 17.9215 2.15566 17.8655ZM0.569754 16.1938L0.711546 15.6654L1.83956 15.9653C1.85582 15.847 1.84769 15.7594 1.80795 15.7052C1.77634 15.6492 1.65081 15.5471 1.45302 15.4053C1.19292 15.2166 1.05112 15.0576 1.01139 14.9321C0.971649 14.8065 0.979777 14.625 1.05022 14.3812C1.05022 14.364 1.05835 14.3414 1.06648 14.3017L1.46115 14.4037L1.43767 14.4832C1.40606 14.5853 1.39883 14.672 1.41418 14.728C1.42954 14.784 1.46115 14.8382 1.50811 14.8779C1.55598 14.9249 1.6499 15.0043 1.80795 15.1064C1.89465 15.1624 1.95877 15.2175 2.01387 15.2726C2.06083 15.3286 2.10057 15.4062 2.13127 15.5173C2.19449 15.4071 2.28932 15.3286 2.40763 15.2807C2.53407 15.2337 2.69935 15.1868 2.91248 15.147L3.73253 14.9809L3.56726 15.595L2.79417 15.7286C2.78605 15.7286 2.76256 15.7368 2.73095 15.7449C2.72283 15.7449 2.67586 15.7521 2.58916 15.7756C2.44737 15.8072 2.34441 15.8388 2.30558 15.8777C2.25771 15.9102 2.2261 15.9734 2.19449 16.0592L3.35412 16.3672L3.21233 16.8874L0.569754 16.1938ZM2.53407 14.1735C2.2821 14.056 2.09244 13.9143 1.95877 13.7643C1.86395 13.6451 1.78537 13.5196 1.72938 13.3697C1.68242 13.2279 1.65893 13.0933 1.66706 12.9506C1.67519 12.77 1.72938 12.5803 1.82511 12.3834C2.00664 12.0276 2.25862 11.8 2.59007 11.6889C2.92152 11.586 3.28458 11.6257 3.68647 11.8154C4.08114 12.0122 4.34124 12.2651 4.45865 12.5875C4.57696 12.9027 4.54535 13.2423 4.37195 13.5972C4.19042 13.9594 3.93845 14.1879 3.61512 14.299C3.28277 14.4028 2.92061 14.3631 2.53407 14.1735ZM2.76256 13.6614C3.04615 13.7959 3.28277 13.8348 3.49591 13.7806C3.70092 13.7174 3.85084 13.5909 3.94567 13.4013C4.0405 13.2044 4.04772 13.0066 3.96915 12.8178C3.89058 12.6201 3.70815 12.4548 3.42456 12.3202C3.14007 12.1866 2.89623 12.1477 2.69844 12.2019C2.50066 12.2561 2.35164 12.3834 2.24868 12.5803C2.15475 12.7862 2.14572 12.9822 2.2252 13.1719C2.30468 13.3615 2.47808 13.5286 2.76256 13.6614ZM5.16851 12.0845L2.95222 10.4986L4.14346 8.88199L4.52187 9.15022L3.65486 10.3342L4.14436 10.681L4.94905 9.58462L5.31934 9.85285L4.51465 10.9493L5.12155 11.3828L6.01295 10.1599L6.39136 10.4282L5.16851 12.0845ZM5.7122 7.28886L7.10754 6.08949L7.40738 6.4372L6.42929 7.2735L7.91946 8.96869L7.50131 9.32452L5.7122 7.28886ZM9.09534 7.90389L7.6124 5.64064L9.30848 4.55236L9.56046 4.9389L8.32226 5.72734L8.65371 6.23309L9.80521 5.49162L10.0581 5.87906L8.90659 6.6106L9.30848 7.22654L10.5936 6.40649L10.8465 6.78491L9.09534 7.90389ZM10.4844 5.42027C10.3498 5.17552 10.2712 4.95425 10.2559 4.74924C10.2396 4.60022 10.2559 4.45843 10.2947 4.30851C10.3344 4.15859 10.3977 4.03215 10.4844 3.9292C10.5954 3.77928 10.7526 3.66097 10.9495 3.55078C11.2963 3.36112 11.644 3.31416 11.9745 3.41712C12.306 3.51105 12.5814 3.75579 12.7946 4.13511C13.0077 4.52165 13.0709 4.87568 12.9833 5.20803C12.8966 5.53136 12.6763 5.79146 12.3213 5.98925C11.9664 6.178 11.6268 6.22587 11.2954 6.13013C10.9648 6.02718 10.6966 5.79056 10.4844 5.42027ZM10.973 5.12766C11.1229 5.39679 11.2963 5.56116 11.5013 5.63341C11.7063 5.70295 11.9041 5.6885 12.0928 5.57742C12.2897 5.47536 12.408 5.31731 12.4559 5.1123C12.4947 4.91452 12.4478 4.67067 12.2897 4.40244C12.1398 4.12608 11.9664 3.96081 11.7695 3.89668C11.5726 3.82624 11.383 3.84972 11.178 3.95268C10.9811 4.06286 10.8546 4.22091 10.8149 4.41779C10.7679 4.6228 10.823 4.86033 10.973 5.12766ZM12.8415 2.691L14.5611 2.01275L14.7264 2.4309L13.5279 2.91227L14.3796 4.98677L13.8666 5.19178L12.8415 2.691ZM15.8625 4.39431L15.0578 1.82309L15.9095 1.56298C16.2256 1.46816 16.4378 1.42119 16.5489 1.41306C16.7061 1.40494 16.8641 1.4519 16.9978 1.55395C17.1405 1.64878 17.2425 1.80683 17.3057 2.01184C17.3608 2.16989 17.369 2.31168 17.3455 2.42999C17.322 2.55643 17.2741 2.66661 17.2037 2.75332C17.1323 2.84002 17.0538 2.91136 16.9671 2.95833C16.8488 3.02155 16.6672 3.09199 16.4306 3.16424L16.0838 3.2663L16.3918 4.23626L15.8625 4.39431ZM15.7216 2.09945L15.9501 2.82466L16.2418 2.73796C16.4469 2.67565 16.5805 2.61965 16.6437 2.57269C16.707 2.52392 16.7467 2.46973 16.7702 2.39929C16.7937 2.32794 16.7937 2.25659 16.7702 2.17802C16.7386 2.08409 16.6835 2.01997 16.613 1.97301C16.5336 1.92514 16.455 1.90979 16.3683 1.92514C16.2969 1.93327 16.1714 1.96398 15.9817 2.01907L15.7216 2.09945ZM20.4062 3.18682L19.8146 3.32048L19.4435 2.77589L18.3787 3.02245L18.3001 3.66909L17.732 3.80276L18.1502 0.939822L18.7182 0.806158L20.4062 3.18682ZM19.1671 2.37581L18.5755 1.48441L18.4419 2.54108L19.1671 2.37581ZM22.1646 2.65939L22.2034 2.96645L21.667 3.02967L21.6272 2.72171C21.1937 2.76144 20.8704 2.6901 20.6726 2.51669C20.4676 2.34329 20.3493 2.10667 20.3105 1.81406C20.2716 1.50699 20.3339 1.24598 20.4992 1.04278C20.6573 0.829639 20.949 0.686944 21.3671 0.623724L21.3355 0.363622L21.872 0.293177L21.9036 0.561408C22.3371 0.52167 22.6532 0.593018 22.8582 0.76642C23.0632 0.932596 23.1806 1.16922 23.2131 1.46816C23.252 1.75987 23.1969 2.01275 23.0397 2.23311C22.8826 2.44625 22.5909 2.58804 22.1646 2.65939ZM22.1095 2.2024C22.2513 2.18615 22.3705 2.14641 22.4644 2.09222C22.5674 2.029 22.6297 1.95856 22.6613 1.87095C22.6929 1.78425 22.7011 1.66594 22.6848 1.51602C22.6369 1.12135 22.3931 0.956078 21.9587 1.01117L22.1095 2.2024ZM21.573 2.27285L21.4231 1.07439C21.1946 1.106 21.0285 1.17644 20.9418 1.28663C20.8551 1.40494 20.8153 1.56298 20.8469 1.768C20.8948 2.15454 21.1314 2.31981 21.573 2.27285ZM23.6792 0.111647L24.1994 0.0881657L24.2933 1.87818L25.303 0.0330745L25.8476 0.00146484L25.9975 2.6919L25.4773 2.72351L25.3825 0.964206L24.3728 2.7786L23.8209 2.81021L23.6792 0.111647ZM26.6595 0.0249463L27.2122 0.0556529L27.1725 0.695072C27.1644 0.907309 27.1644 1.04278 27.1806 1.11322C27.1887 1.18367 27.2366 1.24689 27.307 1.30198C27.3775 1.34984 27.4967 1.38145 27.6376 1.38958C27.7559 1.39681 27.867 1.38958 27.9609 1.37333C28.0476 1.34984 28.1334 1.31733 28.2057 1.27127L28.2617 0.111647L28.8135 0.143257L28.6717 2.83279L28.119 2.80118L28.1813 1.72103C28.063 1.76077 27.9528 1.79238 27.8426 1.81496C27.7324 1.83122 27.6295 1.83844 27.5193 1.83122C27.252 1.82309 27.0226 1.74451 26.8492 1.60995C26.6758 1.47719 26.5972 1.24779 26.6125 0.940725L26.6595 0.0249463ZM29.2389 2.85627L29.5784 0.182995L31.5897 0.419616L31.5337 0.876602L30.067 0.695072L29.9966 1.29475L31.3531 1.4528L31.2971 1.91069L29.9415 1.74451L29.8476 2.47063L31.3612 2.65126L31.307 3.10102L29.2389 2.85627ZM33.6561 2.56456L34.1537 2.83279C34.011 3.10915 33.8376 3.29881 33.6254 3.40086C33.4041 3.50292 33.1521 3.5273 32.8676 3.47131C32.5118 3.40086 32.2445 3.22746 32.063 2.94297C31.8805 2.65939 31.8254 2.31259 31.913 1.89443C31.9997 1.4528 32.1804 1.1367 32.4576 0.932596C32.734 0.73481 33.0654 0.672494 33.4429 0.742938C33.7663 0.806158 34.0191 0.956078 34.1844 1.18457C34.2792 1.31823 34.3425 1.49976 34.3578 1.72103L33.7979 1.74451C33.7979 1.60272 33.75 1.48351 33.6642 1.38145C33.5775 1.28753 33.4664 1.22341 33.3246 1.1927C33.1268 1.15296 32.9462 1.1927 32.7963 1.31101C32.6464 1.42932 32.5371 1.64969 32.4739 1.95765C32.4107 2.29723 32.426 2.54921 32.5217 2.71538C32.6157 2.88066 32.7584 2.97549 32.9543 3.01432C33.0961 3.04593 33.2307 3.02245 33.3499 2.952C33.4746 2.88066 33.5775 2.75422 33.6561 2.56456ZM35.2727 1.1918L35.7929 1.34984L35.4542 2.44625C35.5807 2.46973 35.6665 2.46251 35.7225 2.42999C35.7775 2.39026 35.8877 2.28007 36.0377 2.09132C36.2354 1.83844 36.4007 1.70387 36.5344 1.66504C36.6617 1.63343 36.8505 1.64878 37.0943 1.72735C37.1024 1.72735 37.135 1.73548 37.1738 1.74361L37.0474 2.13015L36.9769 2.10667C36.8658 2.07506 36.7873 2.05971 36.7249 2.07506C36.6689 2.08319 36.6147 2.1148 36.5669 2.15454C36.519 2.2024 36.4404 2.29633 36.3303 2.44625C36.267 2.52482 36.212 2.59527 36.1569 2.64313C36.1018 2.691 36.0151 2.72261 35.904 2.74609C36.0151 2.81653 36.0864 2.91136 36.1334 3.0369C36.1812 3.15611 36.221 3.32048 36.2607 3.53453L36.3935 4.34644L35.7712 4.15679L35.6692 3.39996C35.6692 3.39183 35.661 3.36835 35.6529 3.33674C35.6529 3.32861 35.6439 3.28165 35.6303 3.19495C35.5978 3.04593 35.5671 2.9502 35.5346 2.91227C35.5021 2.8644 35.4389 2.82466 35.3522 2.80118L34.9972 3.9292L34.468 3.77115L35.2727 1.1918ZM37.0708 3.18682C37.1738 2.93485 37.2993 2.73796 37.4492 2.59617C37.5594 2.49321 37.6868 2.40651 37.8286 2.3442C37.9704 2.2882 38.1049 2.25659 38.2467 2.25659C38.4273 2.24846 38.6251 2.2882 38.8301 2.3749C39.2086 2.51669 39.4605 2.75422 39.587 3.06941C39.7215 3.39273 39.7053 3.75579 39.5319 4.15769C39.3648 4.56049 39.1291 4.83685 38.8139 4.96961C38.4978 5.1114 38.151 5.10417 37.7798 4.96238C37.4014 4.81246 37.1494 4.57494 37.023 4.26065C36.8893 3.94455 36.9056 3.59052 37.0708 3.18682ZM37.6073 3.38461C37.489 3.66819 37.4655 3.90481 37.545 4.11073C37.6154 4.30761 37.75 4.44218 37.9541 4.52888C38.16 4.60745 38.3569 4.59932 38.5457 4.51262C38.7353 4.41869 38.8934 4.22904 39.0117 3.93642C39.13 3.65284 39.1535 3.40809 39.0821 3.21843C39.0117 3.02967 38.8699 2.88788 38.664 2.80841C38.4508 2.72171 38.2539 2.72171 38.0652 2.81653C37.8764 2.91227 37.7265 3.09289 37.6073 3.38461ZM39.437 5.62528L40.7619 3.2672L42.5294 4.23717L42.3081 4.63906L41.0139 3.9292L40.7222 4.45753L41.9216 5.1123L41.7012 5.50697L40.5018 4.8513L40.1397 5.48981L41.4799 6.22316L41.2514 6.61783L39.437 5.62528ZM43.2853 6.29541C43.4587 6.08317 43.633 5.92512 43.8227 5.83842C43.9563 5.76707 44.099 5.71921 44.2562 5.70386C44.4061 5.6885 44.5479 5.69573 44.6824 5.73547C44.864 5.78333 45.0374 5.87726 45.2108 6.01905C45.5269 6.27193 45.6913 6.56364 45.7229 6.90322C45.7545 7.25002 45.6289 7.5896 45.3526 7.92828C45.0762 8.26785 44.761 8.45751 44.4224 8.49635C44.0746 8.54421 43.7522 8.44126 43.4361 8.18838C43.12 7.9364 42.9466 7.64469 42.915 7.30511C42.8834 6.96553 43.0098 6.62686 43.2853 6.29541ZM43.7351 6.63408C43.5382 6.87161 43.4524 7.09197 43.4596 7.30511C43.4677 7.51735 43.5617 7.69165 43.7351 7.82532C43.9012 7.95898 44.0909 8.01407 44.3031 7.98337C44.5091 7.94363 44.7132 7.80997 44.9191 7.56522C45.116 7.32859 45.2027 7.0992 45.1954 6.90322C45.1873 6.6973 45.0925 6.5239 44.9191 6.38211C44.7375 6.24122 44.5479 6.18523 44.3429 6.22496C44.1379 6.25567 43.9328 6.38933 43.7351 6.63408ZM46.8193 7.47761L48.2155 8.95333L47.8759 9.2604L46.859 8.18748L46.4011 8.61376L46.9069 9.14209C47.0405 9.29201 47.1345 9.42567 47.1905 9.56024C47.2455 9.68668 47.2609 9.8366 47.2302 9.99374C47.1905 10.1518 47.111 10.2936 46.9773 10.4119C46.8437 10.5383 46.6937 10.6097 46.5357 10.6241C46.3704 10.6476 46.2286 10.6332 46.1094 10.5772C45.992 10.5212 45.8583 10.411 45.6994 10.2457L44.8242 9.31549L46.8193 7.47761ZM45.5332 9.40219L45.8963 9.78964C46.0146 9.91607 46.1013 9.99465 46.1645 10.0344C46.2268 10.0741 46.2909 10.0967 46.3695 10.0904C46.4481 10.0904 46.5194 10.0588 46.5899 10.0028C46.6775 9.91607 46.7163 9.82125 46.701 9.71919C46.6775 9.60901 46.5899 9.48257 46.4481 9.32452L46.0615 8.92263L45.5332 9.40219ZM49.0834 9.9233L49.3589 10.3956L47.3882 11.5155L47.7829 12.1938L49.7545 11.0739L50.0308 11.5399L48.0593 12.6598L48.4693 13.3606L50.4336 12.2416L50.7091 12.7068L48.7375 13.8266L48.864 14.0389L47.9491 14.56L47.7197 14.1653L48.2399 13.8736L46.71 11.2708L49.0834 9.9233ZM48.5461 14.6792L51.1895 13.9847L51.7088 15.9093L51.2672 16.0276L50.8816 14.6241L50.2981 14.7813L50.6531 16.0908L50.2114 16.2091L49.8556 14.9005L49.1385 15.0892L49.5332 16.5406L49.0843 16.6589L48.5461 14.6792ZM50.2584 18.7731L50.1166 19.3014C49.8168 19.2382 49.5883 19.1199 49.4302 18.9384C49.2803 18.7578 49.1936 18.5202 49.1783 18.2294C49.162 17.8736 49.265 17.5738 49.5007 17.3299C49.7382 17.0933 50.0687 16.9587 50.5023 16.9352C50.952 16.9118 51.3151 17.0057 51.5752 17.2269C51.8434 17.4473 51.9852 17.739 52.0015 18.1174C52.0177 18.4489 51.9382 18.7171 51.7495 18.9375C51.6393 19.0639 51.4731 19.166 51.26 19.2373L51.1019 18.709C51.2446 18.6693 51.3539 18.5988 51.4253 18.4877C51.5047 18.3857 51.5354 18.2592 51.5273 18.1174C51.5192 17.9206 51.4406 17.7544 51.2826 17.6442C51.1326 17.5259 50.896 17.4789 50.5727 17.4952C50.225 17.5114 49.9811 17.5819 49.8393 17.7155C49.7048 17.842 49.6334 18.0073 49.6497 18.205C49.6569 18.3459 49.7048 18.4642 49.8077 18.5672C49.9026 18.6702 50.0606 18.7325 50.2584 18.7731ZM49.1385 20.3265L51.3711 20.7212L51.5129 19.9327L51.9707 20.0122L51.5914 22.1174L51.1335 22.0379L51.2762 21.2486L49.0437 20.8621L49.1385 20.3265ZM51.362 22.9763L50.9755 23.9851C50.896 24.1838 50.8256 24.3337 50.7696 24.4186C50.7217 24.5125 50.6513 24.5848 50.5646 24.648C50.4851 24.704 50.3839 24.7419 50.281 24.7582C50.1708 24.7744 50.0597 24.7663 49.9495 24.7184C49.8312 24.6796 49.7292 24.6001 49.6578 24.4981C49.5792 24.4042 49.5395 24.2858 49.5314 24.1594C49.4293 24.2931 49.302 24.3798 49.1602 24.4276C49.0193 24.4674 48.8775 24.4592 48.7348 24.4042C48.6165 24.3572 48.5145 24.2858 48.4187 24.191C48.332 24.0971 48.2769 23.9941 48.2453 23.8758C48.2146 23.7575 48.2227 23.6311 48.2534 23.4884C48.2769 23.4017 48.3564 23.1976 48.4828 22.8733L48.8143 22.0136L51.362 22.9763ZM50.7398 23.3321L50.1563 23.1027L50.0227 23.4333C49.9432 23.6392 49.9035 23.7566 49.889 23.8126C49.8655 23.8993 49.8655 23.9788 49.8972 24.0492C49.9279 24.1197 49.9911 24.1675 50.0696 24.1991C50.1491 24.2308 50.2196 24.2308 50.29 24.2073C50.3532 24.1847 50.4092 24.1287 50.4481 24.0492C50.4797 24.0023 50.5357 23.8596 50.6296 23.6238L50.7398 23.3321ZM49.7301 22.9447L49.0437 22.6846L48.8622 23.1578C48.7917 23.3385 48.752 23.4577 48.7438 23.5128C48.7276 23.5922 48.7357 23.6627 48.7755 23.734C48.8071 23.8045 48.8694 23.8523 48.9651 23.884C49.0356 23.9156 49.1069 23.9237 49.1774 23.9065C49.2478 23.8903 49.3038 23.8514 49.358 23.7882C49.4058 23.7331 49.4772 23.5832 49.5639 23.3547L49.7301 22.9447ZM49.0039 25.0508C49.2415 25.1926 49.414 25.3506 49.5323 25.5168C49.6199 25.6433 49.6822 25.7841 49.7138 25.9268C49.7536 26.0768 49.7617 26.2186 49.7373 26.3531C49.7057 26.5337 49.6352 26.7144 49.5169 26.904C49.3038 27.2355 49.0274 27.4414 48.6888 27.5118C48.3492 27.5832 47.987 27.5037 47.6077 27.2752C47.2383 27.0386 47.0089 26.7622 46.9222 26.4308C46.8427 26.0993 46.906 25.7688 47.1191 25.4292C47.3313 25.0905 47.6077 24.8846 47.9473 24.8142C48.286 24.7437 48.6337 24.8223 49.0039 25.0508ZM48.7204 25.5331C48.4603 25.3741 48.2236 25.3118 48.0114 25.3434C47.7983 25.3832 47.6321 25.4924 47.5147 25.674C47.4036 25.8555 47.372 26.0533 47.4352 26.2502C47.4903 26.4552 47.6556 26.6367 47.9247 26.802C48.192 26.9682 48.4296 27.0305 48.6255 26.9989C48.8305 26.9591 48.9958 26.8489 49.115 26.6602C49.2333 26.4714 49.2641 26.2736 49.209 26.0768C49.1457 25.879 48.9886 25.6974 48.7204 25.5331Z" fill="#0E0E0E"/>
<path d="M8.22787 30.9031C8.41663 30.6665 8.61442 30.5012 8.8113 30.3983C8.96122 30.3278 9.11837 30.28 9.28364 30.2565C9.44982 30.2411 9.60696 30.2483 9.74966 30.2881C9.94654 30.3432 10.1362 30.438 10.3331 30.5879C10.6718 30.848 10.8614 31.1632 10.9012 31.5263C10.94 31.8884 10.8063 32.2596 10.5065 32.6227C10.2066 32.9848 9.86706 33.198 9.49678 33.2449C9.11837 33.2928 8.76343 33.1817 8.41663 32.9225C8.06983 32.6543 7.88017 32.3391 7.84043 31.9833C7.80972 31.6211 7.93616 31.258 8.22787 30.9031ZM8.73182 31.258C8.51868 31.51 8.42476 31.7548 8.43198 31.976C8.44824 32.2045 8.55029 32.3861 8.73995 32.527C8.92871 32.6769 9.13462 32.7247 9.36311 32.6931C9.59161 32.6543 9.81288 32.5044 10.0251 32.2361C10.2383 31.9833 10.3412 31.7475 10.325 31.5263C10.3087 31.305 10.2066 31.1235 10.017 30.9745C9.8201 30.8245 9.60696 30.7685 9.38569 30.8083C9.1581 30.848 8.94587 30.9979 8.73182 31.258ZM12.1863 34.0189L12.5891 34.4678C12.3362 34.6881 12.0843 34.8155 11.8242 34.839C11.5713 34.8616 11.303 34.7992 11.0276 34.6331C10.6889 34.4353 10.483 34.1607 10.4044 33.813C10.3331 33.4581 10.4126 33.0869 10.6573 32.7022C10.9174 32.2921 11.2254 32.0393 11.5884 31.9444C11.9506 31.8496 12.3137 31.9047 12.6686 32.1106C12.9757 32.2994 13.1734 32.5369 13.2601 32.8277C13.308 33.0011 13.2999 33.207 13.2285 33.4355L12.6451 33.254C12.7002 33.1041 12.7002 32.9713 12.6532 32.8358C12.6054 32.7094 12.5114 32.5992 12.3696 32.5206C12.1881 32.4095 11.9912 32.387 11.7862 32.4484C11.5893 32.5116 11.3997 32.6859 11.21 32.9776C11.0131 33.2937 10.9337 33.5457 10.9653 33.7426C10.9969 33.9485 11.1071 34.0984 11.2886 34.2086C11.4304 34.2881 11.5731 34.3197 11.7221 34.2881C11.8711 34.2637 12.0292 34.177 12.1863 34.0189ZM12.6126 35.398L13.8427 32.7726L14.3945 33.0174L13.905 34.0424L14.9779 34.5157L15.4674 33.4816L16.012 33.7263L14.7819 36.3445L14.2373 36.107L14.7729 34.9564L13.7 34.4904L13.1554 35.6346L12.6126 35.398ZM15.6733 35.1867C15.7681 34.9094 15.8865 34.6891 16.0364 34.5238C16.1466 34.4055 16.273 34.3034 16.4229 34.2239C16.5728 34.1526 16.7228 34.1056 16.8727 34.0903C17.0696 34.074 17.2908 34.0984 17.5193 34.1698C17.9375 34.2962 18.2373 34.5247 18.4035 34.848C18.576 35.1786 18.5841 35.566 18.4423 36.0149C18.3005 36.4565 18.0558 36.7645 17.7325 36.9379C17.401 37.1104 17.0226 37.1429 16.6044 37.0164C16.1791 36.8828 15.8874 36.6606 15.7212 36.33C15.5469 36.0058 15.5387 35.6274 15.6733 35.1867ZM16.2721 35.352C16.17 35.659 16.17 35.92 16.264 36.125C16.3669 36.3301 16.5241 36.4718 16.7535 36.5342C16.982 36.6055 17.1951 36.582 17.4001 36.4718C17.5979 36.3526 17.7478 36.1413 17.8499 35.8162C17.9528 35.501 17.9601 35.2481 17.8661 35.0512C17.7722 34.8534 17.6051 34.7116 17.3694 34.6412C17.1337 34.5707 16.9196 34.5942 16.7228 34.7044C16.525 34.8155 16.3751 35.0368 16.2721 35.352ZM19.1748 34.6574L20.3344 34.9257C20.5629 34.9735 20.7372 35.0196 20.8392 35.0675C20.9494 35.1153 21.0443 35.1776 21.1156 35.2571C21.1942 35.3366 21.2493 35.4305 21.2818 35.5407C21.3206 35.6509 21.3206 35.7692 21.289 35.8875C21.2574 36.0212 21.1951 36.1323 21.0921 36.2262C20.9901 36.3138 20.8709 36.3761 20.73 36.3996C20.8952 36.4944 21.0135 36.6055 21.0768 36.7464C21.14 36.8891 21.1553 37.039 21.1165 37.2043C21.0849 37.3316 21.0226 37.449 20.935 37.552C20.8401 37.6622 20.7381 37.7407 20.6117 37.7886C20.4852 37.8365 20.3434 37.8446 20.1854 37.8283C20.0824 37.8121 19.8467 37.7651 19.4755 37.6866L18.4812 37.4572L19.1748 34.6574ZM19.648 35.2571L19.49 35.9038L19.8684 35.9905C20.0978 36.0465 20.2396 36.0781 20.3019 36.0781C20.4048 36.0934 20.4906 36.0781 20.5629 36.0383C20.6333 35.9905 20.6803 35.9282 20.6965 35.8324C20.72 35.7457 20.7119 35.6744 20.6803 35.6039C20.6415 35.5407 20.5773 35.4928 20.4834 35.4621C20.4283 35.4387 20.2549 35.3989 19.9786 35.3357L19.648 35.2571ZM19.3726 36.3689L19.191 37.1185L19.7275 37.2458C19.9406 37.2928 20.0743 37.3163 20.1375 37.3235C20.2242 37.3235 20.3028 37.3009 20.3741 37.2621C20.4455 37.2142 20.4924 37.1347 20.5159 37.0408C20.5394 36.9532 20.5322 36.8828 20.5078 36.8123C20.4762 36.741 20.4292 36.6859 20.3579 36.6389C20.2793 36.5983 20.1131 36.5441 19.8449 36.4809L19.3726 36.3689ZM23.8756 38.3404L23.2289 38.2537L23.0555 37.5755L21.8724 37.4256L21.541 38.0415L20.9097 37.962L22.4477 35.2571L23.079 35.3366L23.8756 38.3404ZM22.9291 37.0706L22.669 35.9598L22.1244 36.9686L22.9291 37.0706ZM24.1835 38.3404L24.207 35.4612H24.8139L24.8058 36.5965L25.9808 36.6055L25.9889 35.4694L26.5877 35.4775L26.5714 38.3567L25.9645 38.3486L25.9799 37.0941L24.7968 37.086L24.7887 38.3404H24.1835ZM26.9824 36.9604C26.9589 36.6696 26.9905 36.4168 27.07 36.2117C27.1251 36.0618 27.2118 35.9282 27.3219 35.8017C27.4321 35.6753 27.5513 35.5895 27.685 35.5181C27.8656 35.4314 28.0797 35.3845 28.3235 35.3682C28.757 35.3447 29.1201 35.4549 29.3964 35.6997C29.68 35.9444 29.8381 36.2984 29.8616 36.7726C29.8932 37.2386 29.7911 37.6089 29.5464 37.8843C29.3016 38.1607 28.9629 38.3097 28.5204 38.3422C28.0797 38.3648 27.7157 38.2546 27.4403 38.0108C27.1648 37.7669 27.0067 37.4183 26.9824 36.9604ZM27.5983 36.8972C27.6218 37.2296 27.7166 37.4662 27.8819 37.6315C28.0472 37.7895 28.244 37.86 28.4888 37.8437C28.7263 37.8274 28.9151 37.7326 29.065 37.5601C29.2068 37.3786 29.2628 37.1266 29.2456 36.7952C29.223 36.4637 29.1282 36.2262 28.9702 36.069C28.8121 35.9191 28.6071 35.8478 28.3624 35.8631C28.1104 35.8794 27.9126 35.9733 27.7789 36.1467C27.638 36.3219 27.5748 36.5658 27.5983 36.8972ZM30.9345 35.1867L32.0932 34.9419C32.3307 34.8859 32.5032 34.8625 32.6215 34.8543C32.7326 34.8471 32.8428 34.8625 32.9449 34.9022C33.0469 34.9419 33.1426 35.0052 33.2284 35.0919C33.3079 35.1786 33.363 35.2806 33.3946 35.3989C33.4181 35.5335 33.4109 35.659 33.3639 35.7864C33.316 35.9128 33.2366 36.0149 33.1255 36.1025C33.307 36.1106 33.4651 36.1648 33.5915 36.2686C33.7098 36.3698 33.7974 36.4971 33.829 36.6624C33.8606 36.7888 33.8606 36.9234 33.829 37.058C33.7893 37.1916 33.7342 37.3027 33.6385 37.3976C33.5518 37.4915 33.4271 37.5628 33.2772 37.617C33.1824 37.6486 32.9458 37.7046 32.5746 37.7904L31.5811 38.0027L30.9345 35.1867ZM31.629 35.5335L31.7789 36.1801L32.1655 36.0934C32.3939 36.0456 32.5357 36.014 32.5917 35.9986C32.6857 35.9598 32.757 35.9119 32.804 35.8415C32.8518 35.7782 32.86 35.6988 32.8356 35.6039C32.8202 35.5172 32.7796 35.454 32.7173 35.407C32.655 35.3673 32.5755 35.3511 32.4725 35.3592C32.4093 35.3673 32.2431 35.398 31.9668 35.4531L31.629 35.5335ZM31.8891 36.6452L32.0625 37.4021L32.6071 37.2838C32.8202 37.2368 32.9539 37.2043 33.0018 37.1736C33.0885 37.142 33.1517 37.086 33.1914 37.0155C33.2302 36.9442 33.2465 36.8656 33.2221 36.7636C33.1995 36.6769 33.1598 36.6136 33.1038 36.5576C33.0487 36.5107 32.9774 36.4791 32.8916 36.4709C32.8058 36.4628 32.6315 36.4872 32.3632 36.5414L31.8891 36.6452ZM36.9123 36.6371L36.3677 36.8105L35.6814 34.8381C35.5477 35.0828 35.358 35.2869 35.1223 35.4603L34.9561 34.988C35.0826 34.8932 35.2081 34.7586 35.3264 34.5861C35.4529 34.4046 35.5152 34.223 35.5152 34.0343L35.9568 33.8925L36.9123 36.6371ZM37.512 34.7532C37.3458 34.7532 37.2122 34.7216 37.1101 34.6502C37.0072 34.5798 36.9286 34.484 36.8735 34.3675C36.7859 34.1698 36.7859 33.9801 36.8645 33.7904C36.9521 33.6017 37.1246 33.4518 37.3847 33.3416C37.6448 33.2305 37.8742 33.2151 38.0792 33.2784C38.286 33.3488 38.4269 33.4843 38.5136 33.6803C38.5687 33.7986 38.584 33.925 38.5605 34.0433C38.5443 34.1698 38.482 34.2799 38.3881 34.3829C38.5605 34.3739 38.7186 34.4136 38.845 34.4922C38.9796 34.5716 39.0744 34.69 39.1449 34.8318C39.2551 35.0765 39.2632 35.3131 39.1684 35.5335C39.0808 35.7457 38.9001 35.92 38.6319 36.0302C38.3799 36.1323 38.1505 36.1566 37.922 36.1016C37.6619 36.0383 37.4723 35.8722 37.354 35.6121C37.2907 35.4703 37.2673 35.3203 37.2907 35.1713C37.307 35.0196 37.3783 34.8778 37.512 34.7532ZM37.3856 34.1914C37.4343 34.2935 37.4967 34.3648 37.5843 34.3973C37.671 34.429 37.7568 34.4208 37.8597 34.382C37.9545 34.3332 38.0259 34.279 38.0575 34.1923C38.0891 34.1129 38.0891 34.0189 38.0421 33.916C37.9934 33.822 37.9311 33.7579 37.8444 33.7263C37.7649 33.6947 37.671 33.7028 37.5752 33.7426C37.4732 33.7823 37.41 33.8446 37.3702 33.9313C37.3386 34.0108 37.3467 34.0975 37.3856 34.1914ZM37.8507 35.3438C37.9139 35.4856 38.0006 35.5813 38.1117 35.6274C38.2137 35.6744 38.3239 35.6744 38.4341 35.6274C38.5443 35.5804 38.6156 35.501 38.6545 35.398C38.6942 35.296 38.678 35.1704 38.6156 35.0277C38.5596 34.9094 38.4738 34.8227 38.3709 34.7758C38.2688 34.7369 38.1587 34.7369 38.0485 34.7839C37.922 34.8317 37.8426 34.9175 37.8191 35.0286C37.7965 35.1379 37.8037 35.2481 37.8507 35.3438ZM40.8328 34.9889L40.5565 34.4768L39.4763 35.0205L39.2397 34.5879L39.5161 32.3942L39.9333 32.1738L40.8175 33.7986L41.1408 33.6324L41.3774 34.0587L41.046 34.2248L41.3223 34.7369L40.8328 34.9889ZM40.3199 34.0415L39.8547 33.1664L39.712 34.3495L40.3199 34.0415ZM41.4795 33.7814L41.9292 33.4346C42.0159 33.5285 42.1108 33.5917 42.2119 33.608C42.3221 33.6306 42.4251 33.608 42.5127 33.5601C42.6066 33.4969 42.6698 33.4021 42.6852 33.2838C42.7014 33.1573 42.6626 33.0155 42.5515 32.8575C42.4576 32.7076 42.3465 32.6209 42.2282 32.5893C42.1108 32.5577 41.9997 32.573 41.8895 32.6444C41.7477 32.7238 41.6601 32.8656 41.6294 33.0472L41.2031 33.2359L40.6197 31.8252L41.8895 31.0368L42.1812 31.4694L41.2663 32.0293L41.4632 32.4872C41.5418 32.368 41.6294 32.2741 41.7468 32.2109C41.9599 32.0763 42.1884 32.0375 42.4332 32.0998C42.6852 32.1558 42.8829 32.3057 43.0491 32.5414C43.1747 32.7473 43.2388 32.9605 43.2216 33.188C43.199 33.5041 43.0401 33.748 42.7493 33.9295C42.5208 34.0713 42.2914 34.1273 42.0629 34.1029C41.8416 34.074 41.6457 33.9629 41.4795 33.7814ZM43.4041 30.8011L44.5321 29.9097L44.8238 30.2492L44.1374 30.7938L45.2257 32.0636L44.784 32.4104L43.4041 30.8011ZM45.7928 31.5579L45.3837 31.1704L45.7856 30.7758L46.1947 31.1623L45.7928 31.5579Z" fill="#0E0E0E"/>
<path d="M25.2716 7.7378C25.1605 7.68271 24.9636 7.65923 25.0349 7.48583C25.0584 7.42983 25.1217 7.36752 25.1686 7.33591C25.184 7.32778 25.2481 7.34404 25.2788 7.33591C25.342 7.32778 25.4125 7.22572 25.4676 7.26546C25.5461 7.32778 25.5461 7.51744 25.4441 7.54814C25.3727 7.5644 25.3646 7.57975 25.3339 7.61949C25.3113 7.64388 25.2878 7.72245 25.2716 7.7378ZM26.1783 3.98438C32.1408 3.98438 37.5515 5.66421 41.4711 8.36909C45.4386 11.1137 47.8987 14.915 47.8987 19.1191C47.8987 23.3313 45.4377 27.1326 41.4711 29.8772C37.5515 32.5821 32.1408 34.262 26.1783 34.262C20.2077 34.262 14.8051 32.5821 10.8774 29.8772C6.90994 27.1326 4.45703 23.3313 4.45703 19.1191C4.45703 14.915 6.90994 11.1137 10.8774 8.36909C14.8051 5.66511 20.2077 3.98438 26.1783 3.98438ZM39.0507 7.88772C38.8375 7.77754 38.6172 7.65923 38.4031 7.55717C37.8586 7.77754 37.323 7.98978 36.7784 8.17943C36.9906 8.3131 37.4178 8.43954 37.7565 8.51088C38.1584 8.59759 38.1981 8.5732 38.4501 8.70777C38.6479 8.81795 38.9793 9.09431 38.8303 9.26771C38.7427 9.36164 38.4275 9.37067 38.246 9.37067C38.1132 9.37067 37.9236 9.29932 37.8513 9.3788C37.7809 9.44924 38.0094 9.68586 38.0175 9.81953C38.0175 10.0011 37.9073 10.1356 37.9543 10.2612L38.0022 10.3244C38.1286 10.4508 38.2234 10.6242 38.404 10.6793C38.5774 10.7353 38.8538 10.6793 38.9802 10.8292C39.1536 11.0351 39.225 11.2474 39.2322 11.437C39.2403 11.6186 39.3117 11.7206 39.2638 11.8236C39.2476 11.8471 39.0742 11.8624 38.8773 11.7685C39.1455 12.2571 39.3821 12.7692 39.5863 13.2903C41.1478 12.9281 42.7102 12.5018 44.2717 12.0205C43.7596 11.4054 43.1753 10.822 42.5368 10.2702C42.4889 10.5538 42.553 10.9963 42.3471 11.1218C41.929 11.3901 41.7005 9.86017 41.3772 9.73373C41.1649 9.65516 40.7703 10.1519 40.5969 9.58381C40.4551 9.10334 40.0848 9.31558 39.6973 9.07173C39.1383 8.72402 39.1925 8.62197 39.0272 7.89585L39.0507 7.88772ZM37.7402 7.24198C36.1074 6.49328 34.3174 5.90173 32.409 5.49171C33.6861 6.10674 34.8701 6.92769 35.9114 7.89675C35.934 7.89675 35.9502 7.89675 35.9665 7.88862C36.558 7.69174 37.1487 7.4777 37.7402 7.24198ZM29.4278 5.01756C28.6628 4.93086 27.8816 4.87577 27.0932 4.85229C28.4976 5.60099 29.7583 6.89518 30.768 8.58314L30.8394 8.70145C31.0444 8.64545 31.1699 8.93807 31.3677 9.07986C31.6983 9.01754 32.0225 8.95342 32.354 8.88207C32.7477 8.68519 33.0783 8.4567 33.221 8.43322C33.3709 8.41696 33.4892 8.51179 33.6238 8.59036C34.1909 8.44134 34.7671 8.28329 35.3343 8.10176C33.6635 6.60346 31.6432 5.52151 29.4278 5.01756ZM25.0187 4.86042C24.2691 4.89112 23.5357 4.94712 22.8178 5.02569C20.6963 5.52241 18.7636 6.54115 17.1388 7.94372C17.5326 8.07738 17.9354 8.20382 18.3292 8.32213C18.5261 8.11712 18.6679 7.92746 18.7627 8.01416C18.8656 8.11712 18.8575 8.29052 18.8178 8.4567C19.2124 8.56688 19.599 8.66893 19.9855 8.75563C20.0957 8.66171 20.0171 8.35374 20.112 8.25078C20.8453 7.51744 20.3802 7.72155 20.0487 7.20134C19.7254 6.68926 20.979 6.74435 21.2002 6.60256C21.492 6.42103 22.1151 6.36594 22.3283 6.42103C22.5495 6.47703 22.3445 6.65043 22.5965 6.62695C22.6832 6.61882 22.7943 6.56373 22.9126 6.50051C23.5683 5.81503 24.27 5.26231 25.0187 4.86042ZM19.8446 5.51428C18.5595 5.79064 17.3285 6.1528 16.1607 6.59443C16.2556 6.68836 16.3495 6.8148 16.4606 6.95027C16.5076 7.01258 16.8074 7.06045 16.8553 7.13902C16.8941 7.20134 16.7216 7.47047 16.4299 7.51744C16.2953 7.54092 15.9016 7.4786 15.8537 7.4786C16.0912 7.57253 16.3197 7.65923 16.5554 7.73871C17.5425 6.84731 18.6462 6.09861 19.8446 5.51428ZM11.0427 9.30022C9.89932 10.1284 8.89774 11.0442 8.06144 12.0367C8.64487 12.2183 9.22107 12.3926 9.79636 12.5569V12.4946C9.78823 12.3528 10.0411 12.3284 10.1125 12.1785C10.1992 11.997 10.1441 11.689 10.3256 11.5635C10.4286 11.4759 10.7121 11.5237 10.7907 11.4361C11.1059 11.1137 11.0436 11.1291 11.0039 11.0893C10.8702 10.9873 10.5776 10.9159 10.5306 10.7895C10.4123 10.4978 10.8702 10.1817 11.0671 9.79514C11.1222 9.68677 11.0671 9.48175 11.0427 9.30022ZM7.69928 12.4946C6.1766 14.4743 5.31682 16.7294 5.31682 19.12C5.31682 19.1904 5.31682 19.2537 5.31682 19.3169H11.5954V19.12C11.5954 18.5998 11.6189 18.0796 11.6668 17.5585C11.3272 17.5422 10.9966 17.4799 10.807 17.2668C10.6101 17.0383 10.7754 16.8089 10.6489 16.5569C10.4909 16.2652 10.3021 16.1866 10.2624 15.8561C10.2308 15.6583 10.3888 15.5869 10.4674 15.3747C10.5306 15.2013 10.5062 14.8861 10.5225 14.7597C10.5703 14.3334 10.396 14.1519 10.3491 14.2386C10.2786 14.3966 10.1522 14.9331 9.9788 15.5246C9.89209 15.8082 9.51368 15.9897 9.45046 15.698C9.41072 15.5165 9.60038 15.0902 9.60038 14.7669L9.85326 13.7978L9.82165 13.1277C9.11901 12.9281 8.40824 12.715 7.69928 12.4946ZM5.3412 19.8615C5.5137 22.1329 6.46018 24.2706 8.01448 26.1392C9.56877 25.6578 11.1222 25.2324 12.6765 24.8775C12.0614 23.316 11.6902 21.628 11.6117 19.8615H5.3412ZM8.40102 26.5889C9.24455 27.5273 10.2389 28.3952 11.3669 29.1755C12.3134 29.8303 13.3547 30.4209 14.4737 30.942C15.0652 30.6901 15.6649 30.4525 16.2646 30.2322C16.0831 30.0669 15.9088 29.8854 15.7435 29.712C14.5604 28.4656 13.5904 26.9989 12.8878 25.3823C11.3904 25.7291 9.89119 26.1319 8.40102 26.5889ZM15.1519 31.2428C16.4371 31.7946 17.8099 32.2516 19.2612 32.5993C19.3398 32.5912 19.4111 32.5758 19.4816 32.5523C18.4872 32.0312 17.557 31.3927 16.7135 30.6431C16.1942 30.8328 15.6731 31.0287 15.1519 31.2428ZM37.062 31.3051C37.2119 31.2428 37.3537 31.1787 37.5036 31.1163C36.9274 30.8869 36.344 30.6747 35.7606 30.485C35.5005 30.7226 35.2322 30.9511 34.9559 31.1633C36.0135 31.0062 36.9762 31.1398 37.062 31.3051ZM38.1828 30.8011C39.1844 30.3125 40.1227 29.768 40.9906 29.1764C42.1105 28.4042 43.104 27.5363 43.9412 26.6043C42.6858 26.2268 41.4404 25.8872 40.1941 25.5874C40.1236 25.6433 40.0604 25.6975 40.0053 25.7535C39.8554 25.9269 39.9493 26.187 39.8156 26.2819C39.4056 26.5736 39.421 26.4083 38.9875 26.6377C38.861 26.7081 38.7671 26.7795 38.6723 26.8499C38.0807 27.8912 37.3627 28.854 36.558 29.7129C36.4397 29.8321 36.3295 29.9504 36.2112 30.0597C36.8651 30.2882 37.5199 30.5329 38.1828 30.8011ZM44.3259 26.1635C45.8874 24.2868 46.842 22.141 47.0163 19.8615H40.6908L40.6827 20.0277C40.801 19.9482 40.959 20.0114 41.1315 20.0114C41.3293 20.0114 41.5415 19.9644 41.6842 20.09C41.8567 20.2399 41.5506 20.4928 41.5181 20.7845C41.4946 20.9579 41.8179 21.1719 41.7077 21.3047C41.5975 21.4465 41.3763 21.6045 41.2029 21.4636C40.9816 21.2902 40.8317 21.33 40.6104 21.1864L40.5716 21.1638C40.5246 21.5585 40.4614 21.9441 40.3819 22.3306C40.3738 22.3866 40.3584 22.449 40.3349 22.5284V22.5366C40.279 22.7885 40.2157 23.0414 40.1444 23.2934C40.2076 23.6492 40.4921 24.0195 40.586 24.3826C40.6095 24.4693 40.5391 24.6273 40.586 24.7203C40.642 24.8477 40.8154 24.9263 40.7766 25.0762C40.7676 25.0997 40.7522 25.1322 40.7287 25.1638C41.929 25.4609 43.1274 25.7933 44.3259 26.1635ZM47.0398 19.3169C47.0398 19.2546 47.0398 19.1904 47.0398 19.12C47.0398 16.7222 46.1719 14.4589 44.642 12.4711C43.048 12.9769 41.4557 13.4095 39.8617 13.7807C39.9249 13.8827 39.9249 14.001 39.8942 14.1275C40.4226 15.689 40.7052 17.3697 40.7052 19.12V19.3169H47.0398ZM11.7535 16.8793C11.8402 16.2246 11.9738 15.5942 12.14 14.9791C11.9747 15.0189 11.7778 15.0731 11.6351 15.2311C11.4464 15.4442 11.4229 15.941 11.4148 16.1153C11.3904 16.4061 11.5791 16.6436 11.7535 16.8793ZM16.1382 8.90555L16.0912 8.95342C16.0596 9.02386 16.0677 9.13495 15.9973 9.15934C15.9575 9.16746 15.9187 9.18191 15.8627 9.19817C15.6658 9.42666 15.468 9.66419 15.2793 9.89991C15.3272 10.0101 15.413 10.1203 15.3813 10.2386C15.31 10.5077 15.105 10.6179 15.3344 10.7597C15.413 10.8067 15.9259 10.3334 16.0677 10.1997C16.1698 10.1049 16.1617 9.71838 16.2493 9.56846C16.3992 9.28487 16.6195 9.21352 16.6593 9.12682C16.7153 9.02477 16.6828 8.59849 17.6292 8.67706H17.6374C17.3691 8.59036 17.1009 8.50456 16.8327 8.40973C16.7379 8.59849 16.4931 8.77189 16.1382 8.90555ZM12.7704 14.7588C12.4787 15.7197 12.289 16.7222 12.1942 17.7626C12.3604 17.7075 12.8959 17.8972 12.8959 17.8737C13.212 18.094 13.417 18.2683 13.5823 18.1961C13.8821 18.0697 13.7322 17.6678 14.1657 17.6759C14.2597 17.6759 14.8205 17.7472 14.9542 17.8096C15.1203 17.8972 14.8828 18.1564 14.9858 18.2196C15.0327 18.2512 15.3244 18.1961 15.4428 18.1491C15.6324 18.0778 15.9792 18.1175 16.1291 18.1491C16.4606 18.2115 16.3901 18.4562 16.3901 18.8662C16.3901 19.2293 16.5166 19.269 16.6656 19.316H18.7329V19.1191C18.7329 17.6831 18.8593 16.295 19.0878 14.9773C17.3294 14.7723 15.5782 14.4806 13.8271 14.1103C13.8271 14.1573 13.6771 14.3307 13.6925 14.5285C13.7403 14.9611 13.6771 15.6402 13.464 15.1905C13.3619 14.9773 13.3701 15.5138 13.1479 15.2302C13.0377 15.0803 13.2825 14.9701 13.1723 14.8825C13.0233 14.7732 12.8887 14.7497 12.7704 14.7588ZM12.1861 17.8421C12.1544 18.2602 12.131 18.6937 12.131 19.12L12.1391 19.3169H12.5491C12.6828 19.167 12.8327 19.0803 12.746 18.8599C12.6828 18.6784 12.6756 18.3478 12.6593 18.1898C12.6439 18.094 12.3053 17.9288 12.1861 17.8421ZM12.1553 19.8615C12.1716 20.1839 12.1942 20.5 12.2267 20.8161C12.2267 20.7529 12.242 20.6887 12.2664 20.6192C12.4082 20.248 12.392 20.1685 12.3838 19.8615H12.1553ZM12.2421 20.9344C12.4001 22.2747 12.7315 23.5526 13.212 24.752C13.7241 24.6418 14.2289 24.5397 14.7419 24.4359C14.7735 24.3735 14.7898 24.3175 14.7898 24.2787C14.7735 24.0972 14.4737 24.1053 14.3084 24.0891C14.0086 24.0656 14.1115 23.5842 13.9138 23.4812C13.5751 23.3151 13.7873 22.495 13.6771 22.4643C13.1091 22.2981 13.054 22.4246 13.054 21.8023C12.9357 21.6686 12.9989 21.7237 12.8724 21.6289C12.6286 21.4546 12.3053 21.2252 12.2421 20.9344ZM13.4252 25.264C14.1025 26.7867 15.0255 28.1667 16.1382 29.3426C16.3585 29.5792 16.5952 29.8086 16.8399 30.029C18.2045 29.5629 19.5683 29.2008 20.941 28.9326C20.2312 27.567 19.6631 25.9983 19.2847 24.2796C18.6299 24.3501 17.9833 24.4368 17.3285 24.5388C17.2806 24.8621 17.2888 25.2884 17.1939 25.4383C17.1939 25.4383 16.9808 25.6045 16.8625 25.7219C16.7514 25.8402 16.7044 26.1554 16.6412 26.3216C16.5943 26.448 16.5148 26.4237 16.5392 26.5582C16.5545 26.6684 16.7911 26.6133 16.8544 26.7786C16.9573 27.0477 16.6177 27.2049 16.587 27.4487C16.5554 27.6862 16.8237 28.0014 16.9736 28.1902C17.0296 28.2606 17.0521 28.5686 17.147 28.6553C17.4306 28.9154 17.6672 28.9551 17.6672 29.1927C18.0935 30.3433 16.1842 28.6481 15.9169 28.4268C15.7751 28.3329 15.6803 27.8669 15.5304 27.5119C15.4753 27.3855 15.3181 27.4252 15.2856 27.2997C15.2143 27.0477 15.1285 26.8183 15.1285 26.6603C15.1285 26.1003 14.8286 26.1717 14.695 25.824C14.6471 25.7057 14.4737 25.4618 14.5288 25.2405C14.5604 25.1304 14.6001 25.0825 14.6074 25.0121C14.2136 25.0897 13.8198 25.1773 13.4252 25.264ZM17.305 30.4462C18.0944 31.101 18.9532 31.6763 19.8681 32.1414C19.9079 31.7395 19.8365 31.1326 19.9792 31.3132C20.7758 32.3311 21.6437 32.2516 21.8487 32.5045C22.125 32.8513 22.6931 32.5361 23.3316 32.1567C22.5983 31.4785 21.9363 30.6341 21.352 29.6641C21.3041 29.5855 21.2653 29.5061 21.2183 29.4275C19.916 29.6731 18.6064 30.0118 17.305 30.4462ZM19.1745 23.7413C18.9298 22.5113 18.788 21.2099 18.7491 19.8615H17.1081C17.147 19.9635 17.1714 20.0114 17.2815 20.0186C17.4549 20.0349 17.8812 19.9319 18.1332 20.0981C18.5513 20.3591 18.1097 21.5341 18.1097 21.9911C17.8975 21.9595 18.1097 22.1103 18.0546 22.1798C17.9679 22.2909 17.9517 22.3704 17.9201 22.5113C17.8496 22.859 17.5651 22.9845 17.5416 23.3241C17.5254 23.4821 17.51 23.7495 17.4784 23.9707C18.0393 23.8831 18.6064 23.8046 19.1745 23.7413ZM19.1826 14.4427C19.5376 12.6527 20.0975 11.0035 20.8074 9.58381C20.6186 9.68586 20.4055 9.74999 20.1526 9.90713C19.9864 10.0092 19.916 10.2151 19.7498 10.2377C19.4662 10.2774 19.1266 10.0959 19.245 10.0652C19.095 9.61542 19.2215 9.37067 19.4337 9.18101C19.1655 9.11057 18.9054 9.04735 18.6453 8.96787C18.629 9.01574 18.6137 9.05547 18.6137 9.07896C18.5351 9.56755 17.6916 8.91278 17.3204 9.44111C17.2093 9.5829 17.2093 9.78882 17.3989 9.8114C17.5407 9.83488 17.8487 9.68496 17.9751 9.74095C18.2353 9.84301 18.2669 10.1428 17.8722 10.3488C17.7611 10.4111 17.454 10.664 17.5254 10.8139C17.7223 11.2167 17.8252 11.3196 17.4622 11.4298C17.2725 11.4921 17.1786 11.7522 17.0287 11.8245C16.839 11.9031 16.6259 11.7929 16.6024 11.9347C16.5473 12.1948 16.5554 12.6129 16.2953 12.621C16.074 12.6292 16.0352 12.2986 15.6956 12.2426C15.5773 12.2264 15.2856 12.4395 15.1357 12.4395C14.7184 12.4395 14.5757 13.1656 14.2913 13.5124C14.2597 13.5603 14.2199 13.6 14.1811 13.6308C15.8465 13.9785 17.5182 14.2449 19.1826 14.4427ZM26.06 4.99318C25.3583 5.24605 24.6881 5.64072 24.0569 6.16906C24.3332 6.2395 24.2465 6.05887 24.3332 5.99566C24.6005 5.82225 24.8056 5.65698 24.9636 5.77439C25.0747 5.85386 24.2619 6.4698 24.3413 6.70552C24.428 6.9891 24.3883 6.75339 25.2084 6.97375C25.6102 7.07671 24.8218 7.17876 24.3802 7.51021C24.2149 7.64388 23.7335 7.652 23.6703 7.81818C23.6071 7.99158 23.8907 8.56688 23.7091 8.59849C23.3461 8.65448 23.5827 8.82789 23.5511 8.91459C23.5195 9.00219 23.2838 8.85859 22.7311 8.85137C22.6136 8.85137 22.4791 9.00219 22.3129 9.00219C22.0682 8.98593 21.8948 8.97871 21.7376 8.99316L21.6816 9.10424C22.6678 9.26952 23.6694 9.38783 24.6629 9.45105L24.7026 9.39505C24.8679 9.19817 24.7414 9.07263 24.8679 8.96245C24.9546 8.8911 25.1596 8.97781 25.2616 8.92271C25.4125 8.84414 25.4513 8.631 25.5452 8.67074C25.6717 8.7177 25.64 8.99316 25.7511 9.00219C26.0745 9.01845 25.8297 8.87485 26.0582 8.64635C26.3192 8.38625 26.4845 8.47295 26.8548 8.48018C27.2404 8.48831 27.7218 8.89833 27.4301 9.22165C27.3668 9.30022 27.0905 9.2054 26.9568 9.28397C26.8548 9.35532 26.759 9.44202 26.7283 9.50524C26.9893 9.50524 27.2494 9.49711 27.5005 9.48898C27.58 9.4655 27.6504 9.44924 27.682 9.43298C27.7218 9.42486 28.1797 9.4095 28.4 9.29932C28.8724 9.05457 28.8886 8.70054 28.9202 8.58946C28.9916 8.36096 28.9762 8.20292 28.6204 8.40883C28.4389 8.51088 28.4632 8.73125 28.3287 8.87395C28.1706 9.03199 27.8708 9.09521 27.8708 9.04735C27.8636 8.88117 28.1399 8.60571 28.4163 8.21917C28.5662 8.01416 28.2889 7.69897 28.4389 7.62039C28.4623 7.54905 28.5021 7.51021 28.5418 7.48673C28.7387 7.37564 29.0864 7.59691 29.2824 7.68361C29.4323 7.75496 29.1722 8.03945 29.3303 8.12525C29.6861 8.30678 30.0708 8.1415 29.9453 8.55875C29.9065 8.68519 29.8351 9.08708 30.0401 9.11057C30.19 9.12682 30.2524 9.04735 30.3553 8.96065L30.3002 8.85769C29.1587 6.95027 27.6929 5.5775 26.06 4.99318ZM21.4071 9.60007C20.6656 11.0198 20.0894 12.6834 19.7272 14.5068C20.5554 14.6007 21.3917 14.6721 22.228 14.7272C22.4168 14.5068 22.638 14.3406 22.9532 14.3406C23.1591 14.3406 23.4265 14.4824 23.6396 14.5375C23.9945 14.6314 24.2619 14.6874 24.3811 14.8292C24.6647 14.766 24.9492 14.7813 25.2174 14.8527C25.4937 14.8527 25.7692 14.8527 26.0537 14.8527C26.0067 14.8211 25.967 14.7967 25.9354 14.7895C25.8171 14.7813 26.219 14.6161 26.172 14.5221C25.9986 14.1826 26.1404 14.2846 26.172 14.1663C26.2352 13.9541 26.1792 14.0326 25.6906 13.843C25.6355 13.8267 25.7295 13.5982 25.6509 13.5748C25.6039 13.5675 25.4937 13.6615 25.4377 13.6542C25.3908 13.638 25.1379 13.9062 25.0431 13.9062C24.8932 13.9143 24.8859 13.6615 24.7911 13.5585C24.736 13.5034 24.7911 13.2514 24.7595 13.172C24.689 12.9832 24.5861 12.9597 24.5464 13.0699C24.5156 13.1404 24.4443 13.6533 24.5156 13.9776C24.5545 14.1582 24.7604 14.1582 24.7432 14.2765C24.7279 14.4029 24.4515 14.3397 24.4046 14.3162C24.3179 14.2765 24.326 14.048 24.2709 13.8827C24.2393 13.7807 24.1607 13.7409 24.1138 13.6542C24.0027 13.4339 23.7904 13.3228 23.7669 13.3625C23.7037 13.4808 23.664 13.7572 23.5068 13.8349C23.3651 13.9143 23.1203 13.796 22.9785 13.8746C22.6868 14.0326 22.4655 14.2449 22.2921 13.9685C22.1982 13.8186 22.4104 13.6064 22.2768 13.4799C22.2768 13.1096 21.9291 12.6834 22.2289 12.4395C22.3319 12.36 22.6073 12.3212 22.899 12.2977C23.049 12.2815 23.1989 12.1948 23.3407 12.2815C23.4436 12.3438 23.3334 11.7838 23.4987 11.7053C23.7751 11.5788 24.233 11.6574 24.3504 11.5554C24.3892 11.5237 24.1616 11.3503 24.5635 11.2727C24.9031 11.2013 25.2102 11.1453 25.2499 11.1381C25.6988 11.0821 26.0392 10.7913 25.9598 10.0498L25.7547 10.0417C25.7078 10.0652 25.6446 10.104 25.5732 10.1438C25.3917 10.2702 25.4079 10.5619 25.1713 10.6333C24.9979 10.6811 24.9582 10.4752 24.7694 10.4273C24.6583 10.4039 24.3513 10.5456 24.3034 10.5213C24.1932 10.4662 24.233 10.2386 24.3504 9.97035C24.1697 9.96222 23.9954 9.94687 23.8148 9.93061C23.8464 9.96222 23.878 10.0092 23.8862 10.0643C23.8934 10.1979 23.9015 10.1826 23.8862 10.3009C23.8546 10.5375 23.72 10.9322 23.5385 11.0342C23.31 11.1679 22.6714 11.2627 22.4339 11.0966C22.3951 10.9466 22.8683 10.7416 22.8683 10.6477C22.8683 10.5845 22.9785 10.3397 23.0182 10.3L23.1366 10.1817C23.2233 10.095 23.2784 9.97577 23.3732 9.88184C22.7157 9.8123 22.0618 9.71838 21.4071 9.60007ZM19.6243 15.0414C19.3958 16.3356 19.2775 17.7075 19.2775 19.12V19.3169H23.4111C23.2684 18.9303 22.8747 18.6386 22.4249 18.6946C22.2515 18.7181 22.1567 18.6007 21.9986 18.5835C21.8017 18.5682 21.5651 18.6395 21.454 18.5682C21.3511 18.4968 21.5091 18.3785 21.2878 18.3081C20.9248 18.197 20.4281 17.8583 20.7595 17.3851C20.9961 17.2514 20.9483 16.8251 20.9167 16.5407C20.8453 15.9897 20.9564 15.9337 21.4847 15.5951C21.6184 15.5156 21.7376 15.3892 21.8397 15.2474C21.0991 15.1914 20.3657 15.1209 19.6243 15.0414ZM19.2847 19.8615C19.3235 21.1945 19.4734 22.4724 19.711 23.679C21.1704 23.521 22.6218 23.4189 24.0803 23.3711C24.0487 23.213 24.0803 23.0008 24.0569 22.8509C24.009 22.5673 23.9069 22.3695 23.8509 22.0859C23.7642 21.6831 23.4725 21.5178 23.338 21.2487C23.2756 21.1223 23.3623 20.8161 23.3063 20.7366C23.2278 20.6346 23.2124 20.3817 23.2829 20.1378C23.3145 20.0349 23.4093 19.9717 23.44 19.8615H19.2847ZM19.8221 24.2155C20.2086 25.9278 20.7839 27.4884 21.5019 28.8287C23.1501 28.5379 24.7983 28.3961 26.4475 28.3961C27.8581 28.3961 29.2706 28.4982 30.6813 28.7113C31.3768 27.4017 31.9277 25.88 32.298 24.2083C30.4845 24.0186 28.6782 23.9084 26.8719 23.8849C26.722 24.0267 26.5649 24.3428 26.3906 24.5081C26.312 24.5785 26.0591 24.5948 25.9408 24.6806C25.7439 24.8305 25.6644 25.0364 25.5696 25.0437C25.2228 25.0825 25.1596 24.7754 24.9311 24.3654C24.82 24.1848 24.6231 24.0574 24.4425 23.8994C22.9054 23.9391 21.3682 24.0493 19.8221 24.2155ZM21.7846 29.3263L21.8162 29.3814C22.4077 30.3676 23.0779 31.2112 23.8112 31.875C24.1896 31.6618 24.5762 31.4722 24.9157 31.4333C25.1216 31.4099 26.3201 31.8985 26.9902 31.6456C27.7471 31.362 28.0315 30.7939 28.1499 30.8409C28.2682 31.1714 28.4569 31.3855 28.6944 31.4957C29.2779 30.9041 29.8225 30.1942 30.3029 29.3814L30.405 29.2152C29.0801 29.0265 27.7633 28.9326 26.4465 28.9326C24.8923 28.9317 23.3389 29.0662 21.7846 29.3263ZM33.6554 31.4324C34.1837 31.0847 34.6886 30.7063 35.1699 30.2963C33.7655 29.8628 32.3693 29.5304 30.974 29.3019C30.9107 29.4284 30.8394 29.5467 30.768 29.6641C30.3264 30.3974 29.8378 31.0603 29.3167 31.6284C30.0898 31.6447 31.0525 31.2419 31.7705 31.0603C32.2754 30.9267 32.7008 31.4948 33.6554 31.4324ZM35.6341 29.87C35.8157 29.6966 35.99 29.5223 36.1634 29.3417C36.6998 28.7655 37.1975 28.1514 37.6382 27.4957C37.2598 27.5661 37.6219 27.0306 37.1333 26.5411C37.0069 26.4227 36.8886 26.6034 36.8335 26.5013C36.6601 26.1852 36.8407 25.6343 36.6917 25.5323C36.5653 25.4447 36.6682 25.2396 35.9421 25.6497C35.5799 25.8556 35.6666 25.8628 35.477 25.8709C35.216 25.8791 34.8294 25.9098 34.6091 25.8709C34.2225 25.8077 34.246 25.4916 34.2695 25.0816C34.2776 24.9244 34.4519 24.649 34.4592 24.4828C33.9227 24.4033 33.379 24.3329 32.8425 24.2706C32.4723 25.9432 31.9277 27.4731 31.2485 28.798C32.7089 29.0418 34.1674 29.3968 35.6341 29.87ZM39.8861 22.038C39.9647 21.6118 40.0279 21.1864 40.0748 20.752C40.0044 20.7041 39.9249 20.6734 39.8301 20.6418C39.6242 20.7041 39.2223 20.0972 39.3415 19.8615H33.379C33.3393 21.2099 33.1894 22.5113 32.9527 23.7413C33.379 23.7892 33.8044 23.8443 34.2298 23.8994C34.2623 23.7106 34.5531 23.4189 34.8294 23.2139C35.1455 22.9764 35.7055 22.8978 35.7841 22.8581C36.2419 22.598 36.754 22.3379 37.0069 22.1401C37.1342 22.0453 37.1803 21.9504 37.4025 21.9748C37.4729 21.982 37.7646 22.1166 37.8676 21.9902C38.1674 21.6199 38.6795 21.4537 38.7274 21.8249C38.7436 21.9658 38.8773 22.5185 38.9875 22.4634C39.0507 22.4327 39.5068 22.141 39.8861 22.038ZM40.139 20.0421L40.1462 19.8615H39.7452C39.8617 19.9166 39.9963 19.9879 40.139 20.0421ZM40.1615 19.3169V19.12C40.1615 17.6443 39.9493 16.2173 39.5628 14.869C39.5312 14.924 39.5068 14.9791 39.4914 15.0261C39.4363 15.1598 39.4688 15.3259 39.5149 15.4993C39.5853 15.7441 39.6883 15.9961 39.6016 16.1297C39.4291 16.4133 39.523 16.3745 39.374 16.1297C39.318 16.0512 39.1762 15.7034 39.0968 15.6574C38.8917 15.5309 38.6632 15.5309 38.5449 15.3413C38.4429 15.1751 38.8764 14.7813 38.9405 14.6793C39.0028 14.5691 39.011 14.2611 38.9956 13.9785C38.5621 14.0724 38.1358 14.1591 37.7095 14.2458C37.7095 14.2774 37.7095 14.3018 37.7177 14.3334C37.7411 14.5384 37.9236 14.7199 37.9073 14.9087C37.8911 15.0749 37.5849 14.8617 37.5677 15.0902C37.5596 15.1932 37.7411 15.3982 37.6788 15.5165C37.5759 15.7369 37.7095 16.006 37.6391 16.0999C37.6156 16.1315 37.4576 16.0123 37.4097 16.0439C37.1577 16.1857 37.2282 16.202 36.9681 16.1704C36.8109 16.1541 36.5508 15.9581 36.4876 16.1622C36.456 16.2805 36.558 16.7141 36.4957 16.8017C36.3458 16.9823 35.8012 16.7222 35.6675 16.8567C35.486 17.0229 35.4228 17.2514 35.2729 17.1566C35.0354 16.9985 35.0751 16.6517 34.9649 16.407C34.8773 16.2182 34.6262 16.1306 34.4917 15.9419C34.3815 15.8001 34.0428 15.6736 33.9868 15.6104C33.8685 15.4605 33.8766 15.1769 33.8288 15.0658C33.8062 14.9954 33.7899 14.9394 33.7737 14.8924L33.6075 14.9159L33.5452 15.0189C33.3474 15.3341 33.1975 15.3892 33.1117 15.4135C33.2923 16.6039 33.3871 17.8421 33.3871 19.12V19.3169H35.6992C35.5492 19.0721 35.281 18.812 35.0679 18.5519C34.8231 18.244 34.9884 18.1184 35.1618 17.9523C35.3036 17.8258 35.3912 17.6136 35.6287 17.7238C35.7542 17.7861 35.691 18.2756 35.841 18.5917C35.9511 18.8039 36.2736 18.8599 36.3603 18.9466C36.8579 19.4442 36.7396 18.915 37.2119 18.7741C37.3934 18.7181 37.6147 18.5844 37.7014 18.458C37.9218 18.1347 37.9299 17.6533 38.2379 18.0317C38.4438 18.2837 38.4754 19.1507 38.2063 18.8915C37.9696 18.654 38.1277 19.1597 37.9696 19.3169H40.1615ZM39.011 13.3147C38.6632 12.4702 38.2388 11.6664 37.7493 10.9168C37.631 10.9882 37.6075 11.083 37.8125 11.4145C37.8513 11.4768 38.0247 11.6113 38.0798 11.6827C38.1123 11.7306 38.199 11.9193 38.3011 12.2345C38.3246 12.305 38.5847 12.4711 38.5774 12.5569C38.5612 12.6834 38.6642 12.9516 38.507 13.0546C38.3092 13.1882 38.0338 12.8098 37.9073 13.0067C37.8288 13.1404 37.8838 13.4248 37.8513 13.6064L37.8351 13.6687C38.2063 13.5901 38.5765 13.5106 38.9468 13.4321C38.9631 13.3932 38.9866 13.3544 39.011 13.3147ZM32.409 23.679C32.6538 22.4724 32.7956 21.1864 32.8353 19.8615H27.8825C27.906 20.0665 27.906 20.3898 27.9611 20.6418C28.0406 21.0039 28.0632 21.3038 27.9295 21.4384C27.701 21.6668 27.7091 22.0453 27.5276 22.1952C27.3623 22.337 27.0869 22.2187 27.0471 22.393C27.0237 22.495 27.0074 22.6612 27.0787 22.7488C27.1573 22.8427 27.3307 22.859 27.3786 22.9773C27.4255 23.0875 27.4255 23.222 27.3867 23.3476C29.0566 23.3873 30.7382 23.4975 32.409 23.679ZM32.8435 19.3169V19.12C32.8435 18.3704 32.8118 17.6289 32.7486 16.9037C32.7017 16.9588 32.6547 17.0058 32.5915 17.0527C32.4732 17.1322 32.2438 17.0699 32.1255 17.1638C31.9755 17.2903 31.9358 17.5585 31.794 17.6054C31.6531 17.6443 31.6215 17.1638 31.5113 16.8721C31.4093 16.612 31.4165 16.1938 31.2738 15.8543C31.2187 15.7206 30.9749 15.5391 30.9433 15.4759C30.8954 15.3729 30.8556 15.2862 30.8159 15.2076C30.5079 15.2311 30.1937 15.2546 29.8776 15.2699C29.9092 15.4361 30.0112 15.5933 29.9724 15.6493C29.8694 15.7992 29.6725 15.838 29.5226 15.9717C29.3646 16.1216 29.2463 16.3582 29.025 16.4774C28.8281 16.5876 28.7965 16.5714 28.624 16.5795C28.4506 16.5876 28.1345 16.6111 27.9846 16.5957C27.5827 16.5398 27.7796 16.2643 27.1085 15.6095C27.0065 15.5075 26.8719 15.4515 26.7383 15.3973H26.312C26.3598 15.437 26.414 15.4759 26.4619 15.5156C26.7536 15.7522 27.0218 15.9961 27.179 16.2173C27.2657 16.3438 27.179 16.556 27.2729 16.6508C27.4066 16.7917 27.6522 16.7999 27.8807 16.8558C27.9439 16.8721 27.897 17.0139 27.999 17.0374C28.1173 17.06 28.3937 16.966 28.4488 16.9814C29.1036 17.1476 29.1108 17.1078 29.0792 17.3761C29.0629 17.5178 28.8119 17.6994 28.8119 18.094C28.8119 18.8662 28.8191 18.6386 28.6619 18.812C28.5987 18.8744 28.6457 18.9457 28.5111 19.0884C28.4244 19.1751 28.3224 19.2455 28.2275 19.3169H32.8435ZM30.5079 14.6874L30.5964 14.6793C30.5549 14.5926 30.5486 14.6161 30.5079 14.6874ZM15.3028 7.84889C15.0029 7.72155 14.7031 7.60414 14.4033 7.46957C14.34 7.49305 14.3003 7.53279 14.2931 7.57975C14.2615 7.69084 14.545 7.86334 14.7898 8.02139C14.8602 8.07016 15.058 7.95184 15.3028 7.84889ZM31.4391 7.67549C31.4391 7.81728 31.4156 7.88863 31.4788 7.95184C31.5339 8.00784 31.4788 8.01416 31.5971 8.03132C31.6531 8.03945 31.6531 8.07016 31.7552 8.07016H32.1101C32.158 8.07016 32.3865 8.09364 32.4181 8.07016C32.4732 8.03945 32.363 8.03132 32.4966 8.03132C32.6384 8.03132 32.8127 7.93649 32.8127 7.75496C32.8127 7.58878 32.7423 7.51021 32.5752 7.55717L32.1661 7.69084C32.0153 7.7387 32.0225 7.59691 31.8328 7.59691C31.785 7.59691 31.6278 7.62039 31.5962 7.59691C31.5565 7.57343 31.6513 7.57343 31.5565 7.59691C31.4869 7.62039 31.5411 7.63575 31.4391 7.67549ZM28.5996 21.4781C28.4497 21.7463 28.3233 21.7698 28.3467 21.9829C28.363 22.1103 28.5445 22.1961 28.6068 22.3063C28.6701 22.4083 28.5996 22.7082 28.5996 22.7949C28.5996 22.9683 28.6547 22.9285 28.7486 22.8743C28.9392 22.7714 29.0096 22.6449 29.128 22.4724C29.1984 22.3695 29.3483 22.243 29.3727 22.1166C29.3962 22.0064 29.3257 21.8484 29.3257 21.7301C29.3257 21.6352 29.3257 21.4537 29.1839 21.4067C28.9546 21.3282 28.615 21.2884 28.5996 21.4781ZM37.8983 20.2869C38.088 20.1767 38.1033 19.9319 38.4429 20.1297C38.656 20.248 38.6244 20.2796 38.7192 20.5244C38.7743 20.6662 38.2532 20.9741 38.0491 20.9579C37.9073 20.9416 37.789 20.8784 37.6626 20.8784H37.425C36.9843 20.8784 37.7646 20.3582 37.8983 20.2869ZM41.0845 21.8249C40.9437 22.0064 40.9978 22.188 40.9978 22.3848C40.9978 22.4083 40.9906 22.5266 40.9978 22.5429C41.0069 22.5591 41.0213 22.5989 41.0385 22.6224C41.0611 22.6612 41.0936 22.9529 41.1487 22.9926C41.1956 23.0315 41.2507 23.0008 41.3853 23.0008C41.5271 23.0008 41.3772 22.8192 41.5117 22.7795C41.724 22.7091 41.78 22.3776 41.78 22.1103C41.78 21.9911 41.8034 21.9278 41.7637 21.8728C41.6842 21.7788 41.5984 21.7942 41.472 21.7942C41.369 21.7942 41.3925 21.7942 41.3537 21.833C41.313 21.8728 41.1405 21.7228 41.0845 21.8249ZM38.9947 28.5921C39.421 27.9843 39.9647 28.0168 40.3675 27.6059C40.6673 27.306 40.8172 26.8879 41.0773 26.6278C41.1559 26.5492 41.211 26.8093 41.1956 26.9439C41.1559 27.2997 40.446 28.0403 40.2491 28.238C40.0432 28.4503 39.8617 28.4431 39.626 28.593C39.4995 28.6716 38.9947 28.7736 38.9947 28.5921ZM38.0247 16.5398L38.1187 16.3826L38.1114 16.1929L38.348 16.1613L38.5142 16.3907L38.404 16.9109L37.8586 16.8486L38.0247 16.5398ZM37.9462 17.1557L37.9778 17.4393L38.2288 17.5106L38.4736 17.4546L38.6316 17.06L38.1259 16.9967L37.9462 17.1557ZM37.2119 17.3688L37.314 17.6678L37.4639 17.9053L37.6617 17.8737L37.6382 17.218L37.2119 17.3688ZM36.7396 17.7716H37.1099L37.1722 18.1735L36.7856 18.1816L36.7396 17.7716ZM12.9989 15.6574C12.9989 15.7992 13.0224 15.8389 13.0856 15.9021C13.1407 15.9581 13.1569 15.95 13.2743 15.9581C13.3303 15.9663 13.259 16.1243 13.361 16.1397L13.6762 16.1713C13.7241 16.1713 13.7241 16.3916 13.7548 16.3763C13.8108 16.3365 13.7711 16.3763 13.9047 16.3763C14.0465 16.3763 14.0619 16.2182 14.0619 16.0448C14.07 15.8723 14.1567 15.7296 13.9833 15.7296L13.7783 15.7378C13.6121 15.7378 13.6672 15.7062 13.4784 15.7062C13.4315 15.7062 13.3917 15.493 13.3601 15.4777C13.3132 15.4542 13.2265 15.4686 13.1316 15.5002C13.0621 15.5156 13.1018 15.6176 12.9989 15.6574ZM14.1585 16.4223C14.1973 16.36 14.2208 16.2489 14.3165 16.2959C14.3554 16.3194 14.3879 16.3591 14.3951 16.3907C14.4032 16.3989 14.3879 16.4377 14.3879 16.453C14.3879 16.4928 14.443 16.5397 14.4195 16.5723C14.3807 16.6111 14.2615 16.5948 14.2542 16.5325C14.2542 16.4928 14.2389 16.4847 14.2226 16.4612C14.2055 16.454 14.1585 16.4296 14.1585 16.4223Z" fill="#0E0E0E"/>
</g>
<defs>
<clipPath id="clip0_1122_2710">
<rect width="51.6493" height="38.3552" fill="white" transform="translate(0.351562 0.00146484)"/>
</clipPath>
</defs>
</svg>
