<svg width="148" height="48" viewBox="0 0 148 48" fill="none" xmlns="http://www.w3.org/2000/svg">
<path fill-rule="evenodd" clip-rule="evenodd" d="M32.2008 47.4325C33.0699 46.0972 36.4369 41.8035 34.0282 41.3459C32.8253 41.179 29.7805 42.0913 26.9631 42.428C20.9456 43.1705 14.0215 42.8079 8.4356 40.2149C8.35214 40.1746 8.34638 40.1343 8.41545 40.0912C9.01404 39.7602 11.4976 40.0365 11.3854 38.7789C11.3077 37.9328 10.3465 37.3256 9.75365 36.8565C5.28149 33.311 1.4108 28.459 0.31722 22.7292C-1.00371 15.7965 2.01514 8.66232 6.31175 3.33257C6.38658 3.25199 6.52471 3.30955 6.69163 3.43617C9.06009 4.75422 10.7148 4.23045 12.0214 3.9254C21.3283 1.18282 25.3602 -0.117957 34.9376 0.00866752C35.139 0.00866752 38.0514 0.0691021 37.7665 0.328107C37.4787 0.592868 35.8297 1.31521 35.2052 1.56558C34.3304 1.91955 32.7447 2.52677 31.7864 3.04191C30.1949 3.8995 27.907 5.35569 30.7647 6.2104C39.7263 8.80046 46.305 11.4826 51.4391 19.883C51.537 20.0442 51.5226 20.1132 51.3211 20.047C48.5411 19.1261 48.2073 19.4369 48.2073 22.4529C48.2677 23.5091 48.3138 24.5537 48.3109 25.6013C48.2936 32.6548 45.0618 38.6666 39.6601 43.2251C37.4356 45.1015 34.9405 46.6239 32.3821 47.6196C32.1058 47.7203 32.0166 47.7002 32.1979 47.4268L32.2008 47.4325ZM22.8651 36.9025C25.8436 36.9025 28.7992 35.76 31.4842 34.3643C33.2051 33.3945 34.9232 32.2865 36.4974 31.0893C36.6931 30.9397 36.5808 30.8965 36.7132 31.1411C36.9175 31.5181 36.529 32.7412 37.0442 33.2621C37.2571 33.4779 37.7521 32.6261 37.873 32.4131C40.0429 28.6604 40.1637 25.6905 38.6155 21.5867C38.037 20.4384 37.5823 19.5722 37.0183 18.4383C37.1334 17.7074 39.2889 18.6369 39.6371 18.2829C39.7321 18.0786 37.6226 14.9878 36.765 15.1605C32.6152 12.8266 28.661 12.5503 24.1371 12.9043C22.019 13.2438 18.3181 14.1302 21.4895 11.4941C21.478 11.4164 21.478 11.3387 21.478 11.2725C19.216 10.9847 14.1164 15.736 13.1927 17.8484C11.9322 20.9162 10.6688 22.0644 9.35075 26.1682C9.20686 26.4761 9.92056 27.5035 9.96948 27.6129C13.492 32.2807 17.6763 37.104 22.8651 36.9025Z" fill="#2B2A29"/>
<path fill-rule="evenodd" clip-rule="evenodd" d="M36.3843 44.9087C38.1254 43.3288 40.7327 38.0594 39.2017 37.6479C38.6492 37.5069 38.1398 37.8407 37.288 38.2494C36.1224 38.8077 34.7008 39.6624 33.0921 40.2149C29.0976 41.5733 25.2615 42.2352 21.4858 42.3042C19.8598 42.333 18.3058 42.1949 16.7949 42.0165C15.7186 41.815 15.5027 41.7114 16.7517 41.5215C19.0223 41.2337 24.1593 39.5904 21.2987 38.9717C20.1504 38.7415 19.8396 38.7069 18.7748 38.4336C11.1198 36.5946 3.68347 31.9786 1.39271 24.407C-0.961363 16.608 2.61867 9.03645 5.97135 4.72833C5.89364 6.19603 5.68644 8.97026 8.95278 7.02197C14.8898 3.36711 20.1102 1.36702 27.158 0.437477C29.5754 0.118037 31.9294 0.025946 34.3727 0.0460909C35.0173 0.0518466 35.6476 0.0633579 36.1858 0.0892585C37.1124 0.135304 37.7081 0.227395 37.6966 0.284951C37.6966 0.322363 37.6563 0.359775 37.5498 0.411576C36.9714 0.702238 36.3584 0.943976 35.757 1.17996C31.9237 2.67068 21.3563 6.60756 29.0142 7.33277C35.426 8.09252 41.3802 9.85664 46.1517 14.2655C46.8107 14.795 47.5618 15.7447 47.5129 15.831C47.5129 15.8339 47.0438 15.5778 46.7014 15.4166C44.9516 14.5331 40.1572 13.3244 42.5889 15.7994C51.3922 25.1495 47.0208 38.0076 36.4246 44.9634C36.1052 45.1763 36.0908 45.1619 36.3843 44.9116V44.9087ZM42.1659 11.8625C42.1659 11.8625 42.1659 11.8625 42.1688 11.8596C42.117 11.8308 42.0681 11.8049 42.0163 11.779C42.0652 11.8078 42.117 11.8366 42.1659 11.8654V11.8625ZM24.2168 36.4392C24.8298 36.5227 25.3967 36.5773 26.1622 36.396C30.0617 35.4636 33.4691 33.1009 35.7339 31.0605C37.5326 29.3943 37.593 32.0217 37.57 32.9167C37.5757 33.1239 37.6793 33.0952 37.8146 32.9311C38.3873 32.2232 39.0406 29.6043 39.2478 28.5597C39.9931 24.8156 38.6923 22.2285 36.8764 19.0887C35.4922 16.8527 38.5254 17.4253 39.4607 17.857C40.0162 18.1131 39.9471 18.1362 39.4751 17.6987C35.1353 13.6755 28.9998 12.5359 23.2585 13.2525C22.4211 13.3561 21.1174 13.6151 20.7375 13.5431C19.572 13.2899 20.6224 11.9344 21.2901 11.379C19.4339 12.1071 17.7906 13.1834 16.4236 14.2712C13.8106 16.3519 12.2853 19.6442 11.3471 22.9623L9.96578 27.233C9.91686 27.3568 9.94564 27.5064 10.0838 27.6043C17.3589 32.3009 21.244 35.8838 24.2197 36.4335L24.2168 36.4392Z" fill="#9D231F"/>
<path fill-rule="evenodd" clip-rule="evenodd" d="M36.8774 0.627473C31.7894 2.52972 26.6639 3.96289 22.2321 6.90691C21.4752 7.44507 20.9946 7.9343 22.2292 7.81631C30.7274 6.95008 38.6357 8.69117 45.3756 13.9058C45.8447 14.2713 45.8131 14.2425 45.2807 14.0123C43.1885 13.1058 41.5308 12.4928 39.0559 11.8769C35.9248 11.097 33.6283 11.0165 37.7637 13.7159C42.374 16.7261 45.6749 20.5795 46.216 26.4302C46.285 27.1784 46.3109 27.9612 46.285 28.7785C46.2678 29.0893 46.239 29.4001 46.2016 29.708C45.7094 35.2047 42.5496 39.5042 38.5926 43.0784C37.5911 43.9821 37.5105 43.9648 38.4602 42.9691C40.6473 40.6754 42.1323 37.812 43.0215 34.7241C44.1295 30.8793 43.554 27.3309 42.2992 27.5986C41.9481 27.6734 41.7553 28.1482 41.4819 28.8619C40.7567 30.7555 39.7955 32.183 38.489 33.714C35.4557 37.2566 30.6411 39.2538 26.0567 40.7589C27.0812 40.6639 29.0468 39.9243 30.1605 39.5214C34.9061 37.5674 37.8961 35.7227 40.8114 31.8779C41.2402 31.2995 41.1308 31.7311 40.7078 32.4017C38.3278 36.376 33.5822 39.556 26.946 41.1014C24.6897 41.6107 22.2608 41.6798 19.9471 41.7978C18.3844 41.8784 18.2981 41.8064 19.9183 41.5503C22.6119 41.1273 25.1588 40.5143 27.4755 38.9574C28.5806 38.2149 27.6107 38.2149 27.0783 38.2638C23.5846 38.5775 20.301 38.3818 16.9081 37.4753C7.5407 34.5543 0.458347 28.2892 1.17493 17.8945C1.51739 13.5346 3.31028 9.32142 4.89885 6.6882C4.64272 7.46234 4.10744 9.68115 4.04701 11.5028C3.98657 13.2554 4.23695 14.2195 4.99957 13.1777C5.29311 12.7662 5.51471 12.487 5.82551 12.0985C12.1395 4.19887 21.9673 1.01886 32.0196 0.382857C35.2399 0.143997 36.3478 0.210187 37.0673 0.282133C37.8357 0.359834 37.3493 0.423147 36.8774 0.627473ZM38.3307 17.9952C38.6847 18.0585 39.0904 18.1823 39.3494 18.2657C39.4876 18.2916 34.6816 11.6179 22.563 12.9763C19.8262 13.2353 21.2651 11.6323 22.9256 11.0625C23.8293 10.7632 24.1458 10.6481 22.8537 10.9474C22.2608 11.0855 21.6853 11.2783 21.1183 11.4856C15.5756 13.9605 12.4704 17.8139 10.6862 23.2904C10.5308 23.843 10.1509 24.8358 9.83434 25.7826C9.57533 26.433 9.44295 27.7942 8.46449 25.1466C8.52205 25.7567 8.89041 26.8215 9.39403 27.6216C9.44008 27.705 9.52641 27.7914 9.67894 27.9122C12.033 29.8116 14.5943 31.3513 17.8405 33.5988C18.4276 34.0794 20.3845 35.0752 21.3773 35.7918C21.7774 36.1026 21.4493 36.2292 20.868 36.2608C20.2665 36.2954 19.76 36.2004 19.1758 36.0652C14.5051 34.9946 10.0358 32.6089 6.64282 29.2217C6.76944 29.3799 6.90182 29.5382 7.03708 29.6936C7.8918 30.6347 8.83285 31.4923 9.84009 32.2549C11.6531 33.6017 13.7223 34.6838 15.708 35.4004C17.6505 36.0824 19.6881 36.4882 21.7342 36.5918C21.6795 36.6033 21.6191 36.6091 21.5443 36.6119C24.9459 36.7645 27.4668 36.1918 29.9849 35.055C31.5706 34.3385 33.047 33.4377 34.578 32.2405C35.0471 31.8865 36.3853 30.6951 36.7507 30.8994C37.122 31.1066 37.0011 32.2693 37.05 32.9859C37.0558 33.1298 37.1738 33.1643 37.2659 33.0549C38.3393 31.7513 38.8717 30.1713 39.2487 28.7353C39.9969 24.9912 39.1998 22.5163 37.3465 19.3967C36.509 17.9895 37.0903 17.765 38.3307 17.9866V17.9952Z" fill="#D74E22"/>
<path fill-rule="evenodd" clip-rule="evenodd" d="M6.29928 28.8417C11.8794 35.7341 21.8281 38.5429 29.9666 35.2449C30.7062 34.9542 33.6186 33.5124 34.7266 32.5368C36.0014 31.4461 36.5511 31.3742 36.4849 32.1713C36.364 33.6102 35.682 34.8276 34.7035 35.8607C36.9511 34.3441 38.8505 32.367 39.7282 28.9079C40.5024 25.9149 39.6016 22.05 37.8835 19.4858C37.2763 18.5505 37.3137 18.2714 37.8404 18.3203C39.9354 18.5189 41.4722 19.7448 42.537 21.4514C44.5026 24.5997 44.9486 29.4287 44.2148 32.4447C43.8579 33.9095 43.7946 34.0592 43.9874 32.5023C44.3097 29.9065 44.4364 26.6516 42.5802 24.2601C41.2679 23.063 41.3571 25.0775 41.1067 26.6257C40.37 33.4145 34.3611 37.0464 29.4371 39.2422L29.4515 39.2335C28.9507 39.4551 28.4557 39.6537 27.9867 39.8379C27.7363 39.9415 27.4802 40.0077 27.9464 39.74C29.5925 38.776 31.5782 37.3485 31.3365 36.8104C31.0228 36.3528 27.9953 37.573 24.2973 37.6709C15.8681 37.8032 8.71954 35.2362 3.9078 27.9582C0.609796 22.6687 1.17097 15.6727 3.04445 11.0192C4.11212 8.36586 3.1538 11.7962 2.9984 12.8466C2.14368 18.6196 2.9725 24.0299 6.30504 28.8359L6.29928 28.8417ZM9.81887 28.5913C12.642 32.0159 15.7559 34.4678 19.2265 35.4751C19.9316 35.6794 20.0381 35.5643 19.5776 35.2995L17.6552 33.97L9.88219 28.505L9.816 28.5942L9.81887 28.5913ZM36.8648 0.405762C27.9147 0.509364 16.1185 2.2447 8.29362 10.7055C0.322013 20.0384 5.76112 30.5252 15.4681 34.7901C15.6695 34.8679 15.4738 34.7125 15.3932 34.6606C6.20143 28.9222 5.98847 19.4283 12.501 11.7272C14.6738 9.15726 17.0883 7.57445 20.1359 6.17295C25.2354 3.82175 31.4026 2.21592 36.6259 0.604332C36.9684 0.471952 36.9713 0.420151 36.8619 0.405762H36.8648ZM21.4396 6.45785C14.3313 8.52702 8.2706 15.9115 8.43751 23.3479C8.4519 23.9925 8.61306 24.8098 8.84616 25.417C8.89509 25.5437 9.15985 26.007 9.22604 25.9811C9.2836 25.9868 9.47929 25.4055 9.51095 25.2703C9.79873 24.027 10.1268 22.8529 10.6045 21.6615C13.4708 14.5043 19.3042 9.89687 29.6213 10.2106C29.8889 10.2825 28.7608 10.2595 28.4011 10.248C25.2527 10.2796 22.9735 11.212 22.2943 11.7761C21.6468 12.3258 21.8741 12.5416 23.0195 12.4812C25.2354 12.3632 28.0989 12.2768 30.3062 12.6682C32.289 13.0193 34.1251 13.6122 35.7856 14.4208C39.0865 16.0295 41.6794 18.5045 43.2967 21.6787C45.999 26.9912 45.3918 32.1857 42.7643 37.4061C42.0737 38.7558 42.1053 38.799 42.9715 37.4464C44.3702 35.4089 45.6681 31.7281 45.7026 30.1108C46.4163 22.5248 42.6003 17.2238 36.7238 13.8654C35.6993 13.2812 34.6114 12.7546 33.4747 12.2826C26.1045 9.23784 37.6073 10.4465 41.0981 11.8538C42.6723 12.4754 42.8104 12.2883 41.2794 11.5459C34.8417 8.52989 25.8053 6.67369 18.0639 9.67527C16.9444 10.153 16.7573 10.0292 17.2293 9.44217C18.1934 8.37449 19.9863 7.19458 21.4425 6.45785H21.4396Z" fill="#F39314"/>
<path fill-rule="evenodd" clip-rule="evenodd" d="M22.9769 12.1992C22.2747 12.2999 22.1366 11.8568 23.1525 11.7071C34.6753 10.3516 43.8672 17.2987 44.9291 24.8675C42.6642 16.0124 33.7372 10.9675 22.9741 12.1992H22.9769ZM3.18606 11.1862C1.79031 16.6109 2.09536 20.8068 3.44219 25.5006C1.29532 21.0917 1.45936 15.1634 3.18606 11.1862ZM5.74158 21.7997C5.93439 25.4258 7.65822 28.6403 10.3749 30.9339C8.02658 28.128 6.68551 25.4373 6.87832 21.6788C7.11143 17.175 9.72738 12.4381 13.0829 9.62931C19.2156 4.49237 28.6233 2.34263 35.2106 0.866296C36.0797 0.638947 36.0164 0.615924 35.2854 0.667725C22.787 1.05336 4.97032 7.30402 5.7387 21.7968L5.74158 21.7997ZM9.84249 19.4571C9.45399 20.6399 9.2439 21.8716 9.13167 23.1033C9.05109 24.1998 9.06548 25.0142 9.13167 24.9998C9.18059 24.9883 9.16045 24.5106 9.25829 23.817C9.36189 23.0861 9.48852 22.3436 9.65256 21.6241C9.81371 20.9277 10.0267 20.2629 10.3087 19.5607C13.4283 11.7618 19.8574 8.10693 31.5932 9.10842C20.8042 7.66375 12.6714 10.8322 9.83962 19.4571H9.84249ZM25.7368 36.8249C27.0922 36.5457 28.488 36.2205 28.9341 36.0651C32.1083 34.9658 33.9847 33.8319 35.4696 32.5887C35.8207 32.229 36.3905 32.0908 35.8006 32.9139C34.3127 34.5773 31.1212 35.8176 28.8765 36.4479C27.7973 36.7644 25.449 37.2335 23.754 37.3055C17.3738 37.6882 11.7908 35.3428 9.12879 33.1153C9.77343 33.5211 16.6169 38.3098 25.7368 36.8249ZM12.87 31.0721C14.3319 32.5772 15.8773 33.7082 17.5465 34.4938C17.8803 34.6492 17.9609 34.5514 17.7306 34.419L16.7752 33.7571L12.9074 31.0347L12.8729 31.0749L12.87 31.0721ZM39.5619 30.5483C41.4901 27.2647 40.8541 21.2673 38.5748 18.9765C38.0741 18.4988 37.7489 18.7089 38.005 19.0542C40.3418 22.7292 40.9893 26.7121 39.5619 30.5483Z" fill="#FCE016"/>
<path fill-rule="evenodd" clip-rule="evenodd" d="M100.26 7.48251C103.011 7.48251 105.71 7.48251 108.459 7.48251L113.086 17.7478L117.714 7.47388C120.479 7.47388 123.199 7.48251 125.967 7.48251V23.0027H121.668V11.7964H120.439L115.429 22.9998H110.747L105.736 11.7964H104.562V22.9998H100.263C100.263 17.8255 100.254 12.6655 100.254 7.4969H100.263V7.47963L100.26 7.48251Z" fill="#2B2A29"/>
<path fill-rule="evenodd" clip-rule="evenodd" d="M78.4021 22.9854H82.8369L82.8426 12.9043C82.8426 12.6798 82.8282 12.4352 82.9319 12.2309C83.0757 11.9489 83.3693 11.7474 83.7002 11.7474C83.7146 11.7474 83.7319 11.7474 83.7463 11.7474C86.4946 11.7474 95.6174 11.7474 98.4261 11.7474V7.48535C95.2317 7.48535 86.0975 7.48535 82.9031 7.48535C82.8714 7.48535 82.8369 7.48535 82.8023 7.48535C82.7649 7.48535 82.7246 7.48535 82.6872 7.48535C80.5001 7.48535 78.687 9.13435 78.4252 11.2524C78.4079 11.3647 78.3964 11.474 78.3964 11.5834V11.592C78.3964 11.6553 78.3906 11.7186 78.3906 11.7848C78.3906 11.851 78.3906 11.9172 78.3964 11.9834L78.4021 22.9911V22.9854Z" fill="#2B2A29"/>
<path fill-rule="evenodd" clip-rule="evenodd" d="M55.9241 18.7262C58.7387 18.7262 67.8556 18.7262 70.6126 18.7262C70.673 18.7291 70.7335 18.7262 70.791 18.7118C71.1968 18.6456 71.5105 18.2888 71.5105 17.8657V15.7822C68.2413 15.7822 63.608 15.7822 60.4222 15.7822C60.3502 15.7822 60.2783 15.7822 60.2064 15.7822C58.0192 15.7822 56.2062 14.136 55.9443 12.018C55.904 11.782 55.9069 11.5316 55.9155 11.2927V7.52566H60.3589V10.3229C60.3589 10.4409 60.3589 10.5618 60.3646 10.6769C60.3733 11.1546 60.7877 11.546 61.2596 11.523C63.9965 11.523 68.6039 11.523 71.4932 11.523L71.4846 7.49976H75.9395L75.9337 18.496C75.9424 18.6917 75.9366 19.0284 75.905 19.2212C75.6431 21.3364 73.83 22.9854 71.6429 22.9854C71.5709 22.9854 71.499 22.9854 71.427 22.9854C68.2298 22.9854 59.1128 22.9854 55.9155 22.9854V18.7262H55.9241Z" fill="#2B2A29"/>
<path fill-rule="evenodd" clip-rule="evenodd" d="M128.275 7.48535H132.586V13.2238H135.079L141.174 7.48535H147.56L138.774 15.1922L147.511 23.0113H141.128L135.079 17.2786H132.586V23.0113H128.275V7.48535Z" fill="#2B2A29"/>
<path fill-rule="evenodd" clip-rule="evenodd" d="M132.929 32.9543V35.1702C132.929 35.2565 132.929 35.34 132.929 35.4263C132.938 35.8753 133.326 36.2436 133.77 36.2206C136.515 36.2206 139.977 36.2206 142.725 36.2206C143.174 36.2235 143.563 35.8753 143.563 35.4148V34.9198H147.554V36.0048C147.572 36.3731 147.54 36.7098 147.457 37.0696C147.085 38.6668 145.762 39.933 144.124 40.1661C143.871 40.2035 143.615 40.2064 143.361 40.2064C139.943 40.2064 136.521 40.2064 133.102 40.2064C132.737 40.2064 132.38 40.1892 132.02 40.1086C130.394 39.7402 129.139 38.3704 128.929 36.6839C128.892 36.4624 128.892 36.2293 128.903 36.0048V32.9543V30.0448C128.895 29.8232 128.892 29.5843 128.929 29.3656C129.145 27.6159 130.486 26.2115 132.198 25.9065C132.498 25.8518 132.797 25.8431 133.099 25.8431C136.518 25.8431 139.937 25.8431 143.359 25.8431C143.569 25.8431 143.776 25.8431 143.983 25.8662C145.739 26.0532 147.163 27.3914 147.488 29.1095C147.546 29.4203 147.557 29.7052 147.554 30.0448V31.0434H143.563V30.6376C143.563 30.4534 143.502 30.2865 143.399 30.1513C143.243 29.9498 142.979 29.8261 142.725 29.8318C139.98 29.8318 136.518 29.8318 133.77 29.8318C133.718 29.8318 133.666 29.8318 133.614 29.8433C133.237 29.898 132.947 30.2146 132.929 30.5973C132.926 30.6721 132.929 30.7527 132.929 30.8276V32.9571V32.9543Z" fill="#F39314"/>
<path fill-rule="evenodd" clip-rule="evenodd" d="M55.9175 25.8114H59.9407L59.9349 35.2536C59.9205 35.7371 60.1709 36.2062 60.7752 36.2321C63.5207 36.2321 66.9827 36.2321 69.7282 36.2321C70.1743 36.2551 70.5656 35.8752 70.5656 35.4292L70.5714 25.8057H74.5658L74.5716 36.0162C74.5773 36.1371 74.5773 36.258 74.5716 36.3788V36.3875C74.5716 36.4882 74.563 36.5918 74.5457 36.6925C74.3011 38.661 72.6118 40.1948 70.5772 40.1948H59.9148C57.8773 40.1948 56.1908 38.661 55.9462 36.6925C55.929 36.5889 55.9203 36.4882 55.9203 36.3875V36.3788C55.9146 36.258 55.9146 36.1371 55.9203 36.0162V25.8085L55.9175 25.8114Z" fill="#F39314"/>
<path fill-rule="evenodd" clip-rule="evenodd" d="M84.3755 25.8086L88.6808 35.317L92.9831 25.8201H100.699V40.192H96.6869V29.7973H95.5387L90.8651 40.192H86.4965L81.8229 29.7973H80.7264V40.192H76.7147C76.7147 35.3918 76.709 30.5973 76.709 25.8029H84.3755V25.8086Z" fill="#F39314"/>
<path fill-rule="evenodd" clip-rule="evenodd" d="M110.442 25.8086L114.747 35.317L119.05 25.8201H126.765V40.192H122.753V29.7973H121.605L116.931 40.192H112.563L107.889 29.7973H106.793V40.192H102.781C102.781 35.3918 102.775 30.5973 102.775 25.8029H110.442V25.8086Z" fill="#F39314"/>
</svg>
