<svg width="165" height="25" viewBox="0 0 165 25" fill="none" xmlns="http://www.w3.org/2000/svg">
<path fill-rule="evenodd" clip-rule="evenodd" d="M14.5848 12.5475C15.9627 12.5475 17.0816 13.6665 17.0816 15.0444C17.0816 16.4223 15.9627 17.5412 14.5848 17.5412C13.2069 17.5412 12.0879 16.4244 12.0879 15.0444C12.0879 13.6643 13.2047 12.5475 14.5848 12.5475Z" fill="#00529B"/>
<path fill-rule="evenodd" clip-rule="evenodd" d="M9.53204 10.149C10.9099 10.149 12.0289 11.2658 12.0289 12.6459C12.0289 14.026 10.9099 15.1428 9.53204 15.1428C8.15414 15.1428 7.03516 14.0238 7.03516 12.6459C7.03516 11.268 8.15414 10.149 9.53204 10.149Z" fill="#00529B"/>
<path d="M8.19219 9.58507C9.57118 9.58507 10.6891 8.46718 10.6891 7.08819C10.6891 5.7092 9.57118 4.59131 8.19219 4.59131C6.8132 4.59131 5.69531 5.7092 5.69531 7.08819C5.69531 8.46718 6.8132 9.58507 8.19219 9.58507Z" fill="#00529B"/>
<path fill-rule="evenodd" clip-rule="evenodd" d="M11.7488 0.119873C13.1289 0.119873 14.2457 1.23886 14.2457 2.61675C14.2457 3.99464 13.1289 5.11363 11.7488 5.11363C10.3687 5.11363 9.25195 3.99464 9.25195 2.61675C9.25195 1.23886 10.3709 0.119873 11.7488 0.119873Z" fill="#00529B"/>
<path fill-rule="evenodd" clip-rule="evenodd" d="M17.4285 0.119873C18.8064 0.119873 19.9254 1.23886 19.9254 2.61675C19.9254 3.99464 18.8064 5.11363 17.4285 5.11363C16.0506 5.11363 14.9316 3.99464 14.9316 2.61675C14.9316 1.23886 16.0484 0.119873 17.4285 0.119873Z" fill="#00529B"/>
<path fill-rule="evenodd" clip-rule="evenodd" d="M20.9852 4.59131C22.3652 4.59131 23.482 5.7081 23.482 7.08819C23.482 8.46827 22.3652 9.58507 20.9852 9.58507C19.6051 9.58507 18.4883 8.46827 18.4883 7.08819C18.4883 5.7081 19.6073 4.59131 20.9852 4.59131Z" fill="#00529B"/>
<path fill-rule="evenodd" clip-rule="evenodd" d="M19.7254 10.149C21.1055 10.149 22.2223 11.2658 22.2223 12.6459C22.2223 14.026 21.1055 15.1428 19.7254 15.1428C18.3453 15.1428 17.2285 14.0238 17.2285 12.6459C17.2285 11.268 18.3475 10.149 19.7254 10.149Z" fill="#00529B"/>
<path fill-rule="evenodd" clip-rule="evenodd" d="M0.969789 17.6197C0.548523 16.6214 0 15.9237 0 15.9237C0 15.9237 4.80507 16.244 6.98599 16.6478C13.9171 17.9335 14.1804 24.36 14.1804 24.36C14.1804 24.36 13.0527 24.3205 10.0731 24.3205C5.98329 24.3205 2.29502 20.7573 0.969789 17.6197Z" fill="#2EB457"/>
<path fill-rule="evenodd" clip-rule="evenodd" d="M28.2382 17.6197C28.6595 16.6214 29.208 15.9237 29.208 15.9237C29.208 15.9237 24.4008 16.244 22.222 16.6478C15.2909 17.9335 15.0254 24.36 15.0254 24.36C15.0254 24.36 16.1532 24.3205 19.1327 24.3205C23.2225 24.3205 26.9108 20.7573 28.236 17.6197H28.2382Z" fill="#2EB457"/>
<path fill-rule="evenodd" clip-rule="evenodd" d="M53.1186 12.5232C53.1186 13.7585 52.7675 14.7283 52.0764 15.4063C51.0737 16.3892 49.6234 16.4704 49.0486 16.4594L48.8335 16.455V8.5914L49.0486 8.58701C49.6256 8.57604 51.0737 8.65503 52.0764 9.63798C52.7675 10.316 53.1186 11.2879 53.1186 12.5232ZM44.6867 16.4594C44.1096 16.4704 42.6615 16.3914 41.6588 15.4063C40.9655 14.7283 40.6145 13.7585 40.6145 12.5232C40.6145 11.2879 40.9655 10.3182 41.6588 9.63798C42.6637 8.65503 44.1118 8.57385 44.6867 8.58701L44.9017 8.5914V16.455L44.6867 16.4594ZM58.2155 12.5232C58.2155 10.2128 57.5265 8.37857 56.1706 7.0665C54.0994 5.06549 51.0605 4.84608 49.6344 4.86583V2.82751H44.0987V4.86583C42.6725 4.84608 39.6337 5.06549 37.5625 7.0665C36.2043 8.37857 35.5176 10.215 35.5176 12.5232C35.5176 14.8314 36.178 16.6218 37.4813 17.9141C39.3309 19.7484 42.0582 20.163 44.0987 20.174V22.7762H49.6344V20.174C51.6749 20.163 54.4 19.7462 56.2518 17.9141C57.5551 16.6218 58.2155 14.8095 58.2155 12.5232ZM74.1797 13.267C74.1797 17.122 71.7969 18.8488 69.4361 18.8488C67.0752 18.8488 64.6924 17.1242 64.6924 13.267C64.6924 9.4098 67.0752 7.68524 69.4361 7.68524C71.7969 7.68524 74.1797 9.41199 74.1797 13.267ZM79.4324 13.267C79.4324 8.26887 76.3409 3.22684 69.4361 3.22684C62.5313 3.22684 59.4398 8.26887 59.4398 13.267C59.4398 18.2652 62.5313 23.3072 69.4361 23.3072C76.3409 23.3072 79.4324 18.2652 79.4324 13.267ZM90.1834 23.3072C91.4735 23.3072 93.3978 23.1602 95.2233 21.8876L95.3176 21.8218V15.878L94.9402 16.2751C94.2469 17.0036 92.7834 18.2257 90.7824 18.2257C88.1298 18.2257 86.3481 16.2971 86.3481 13.4272C86.3481 10.4147 88.1714 8.31055 90.7824 8.31055C92.7176 8.31055 94.1065 9.48001 94.9314 10.463L95.3176 10.9237V4.81536L95.2233 4.74954C93.8015 3.76659 91.9848 3.22465 90.1066 3.22465C84.5424 3.22465 80.6567 7.35393 80.6567 13.2648C80.6567 19.1757 84.5753 23.305 90.1856 23.305L90.1834 23.3072ZM107.473 15.4765H103.017L103.102 15.1934L105.393 7.65452L105.604 8.34566L107.684 15.1934L107.769 15.4765H107.473ZM109.5 22.7762H115.268L115.168 22.4844L108.693 3.90481L108.642 3.75781H102.143L102.093 3.90481L95.6182 22.4844L95.5173 22.7762H101.448L101.496 22.6226C101.819 21.6024 102.139 20.5843 102.462 19.5641H108.329C108.651 20.5843 108.971 21.6024 109.294 22.6226L109.342 22.7762H109.502H109.5ZM121.73 8.65503H127.553V3.75562H116.194V22.774H121.73V8.65503ZM138.605 10.1865C138.605 11.7377 137.666 12.5561 135.891 12.5561H134.215V7.84321H135.891C137.692 7.84321 138.605 8.63089 138.605 10.1865ZM143.858 10.1865C143.858 7.22009 142.063 3.75562 137.008 3.75562H129.118V22.774H134.653V16.6437H137.008C142.063 16.6437 143.858 13.1661 143.858 10.1865ZM159.747 13.2648C159.747 17.1198 157.364 18.8466 155.004 18.8466C152.643 18.8466 150.26 17.122 150.26 13.2648C150.26 9.4076 152.643 7.68304 155.004 7.68304C157.364 7.68304 159.747 9.4098 159.747 13.2648ZM165 13.2648C165 8.26667 161.908 3.22465 155.004 3.22465C148.099 3.22465 145.007 8.26667 145.007 13.2648C145.007 18.263 148.099 23.305 155.004 23.305C161.908 23.305 165 18.263 165 13.2648Z" fill="#00529B"/>
</svg>
