<svg width="101" height="36" viewBox="0 0 101 36" fill="none" xmlns="http://www.w3.org/2000/svg">
<path d="M6.90469 0L5.17676 4.73976H29.1136L30.8416 0H6.90469ZM4.3138 7.10762L2.58587 11.8464H26.5227L28.2507 7.10762H4.3138ZM1.72793 14.2152L0 18.953H23.9369L25.6628 14.2142C25.6638 14.2152 1.72793 14.2152 1.72793 14.2152Z" fill="#009FDF"/>
<path d="M50.321 20.4405V20.5389C51.3959 20.9337 52.4237 21.6249 52.9611 22.0689C54.6228 23.4513 55.3571 25.2766 55.3571 27.6455C55.3571 31.5464 53.3037 34.3583 49.9292 35.2474C48.9015 35.5438 47.8266 35.6422 45.8224 35.6422H35.6055V7.11328H44.651C46.5095 7.11328 47.7793 7.21173 48.9035 7.50709C52.1795 8.39617 54.3314 10.6666 54.3314 14.2691C54.3314 16.195 53.6473 17.8244 52.5231 18.9094C52.0339 19.4027 51.3497 19.9954 50.323 20.4394L50.321 20.4405ZM41.2765 23.4513V30.9537H45.1885C46.3608 30.9537 47.4378 30.8553 48.2194 30.1149C49.002 29.3745 49.3435 28.4362 49.3435 27.2025C49.3435 26.2662 49.0984 25.3771 48.6102 24.7352C47.7793 23.6984 46.7516 23.4513 44.9926 23.4513H41.2755H41.2765ZM41.2263 18.5146H44.4049C45.3823 18.5146 45.8716 18.5146 46.3598 18.3669C47.6809 17.9711 48.5117 16.7887 48.5117 15.1592C48.5117 13.2344 47.6317 12.3945 46.3598 12.0007C45.8214 11.852 45.2849 11.8038 44.209 11.8038H41.2263V18.5156V18.5146ZM63.8642 35.6432V11.9013H55.6997V7.11429H78.3868L76.7734 11.9013H69.5362V35.6432H63.8642ZM80.1469 35.6432V7.11429H98.5313L96.9179 11.9013H85.7707V18.2203H90.3186C93.9854 18.2203 95.8922 19.1093 97.2132 20.2435C98.241 21.1326 100 23.1057 100 27.0066C100 30.8563 98.1917 32.978 96.6748 34.065C94.9147 35.2976 93.0572 35.6442 89.2909 35.6442H80.1479H80.1469V35.6432ZM85.7697 30.8543H90.0232C91.6366 30.8543 92.6141 30.4594 93.2983 29.5704C93.6398 29.1273 94.1291 28.3357 94.1291 26.8559C94.1291 25.3761 93.6398 24.3383 92.6623 23.5979C92.0767 23.1549 91.2931 22.9088 89.973 22.9088H85.7677V30.8543H85.7697Z" fill="#0A2973"/>
</svg>
