<svg width="136" height="49" viewBox="0 0 136 49" fill="none" xmlns="http://www.w3.org/2000/svg">
<path fill-rule="evenodd" clip-rule="evenodd" d="M12.8239 0V4.03204H8.57206V8.07141H4.28603V12.1987H0V25.9482C0 25.9482 7.54879 32.8425 8.63067 33.834V48.4676H27.162V33.9122C28.2267 32.9182 35.734 25.9311 35.734 25.9311V12.2011H31.4749V8.10072H27.1644V4.03937H22.8466V0H12.8239Z" fill="white"/>
<path d="M15.3488 27.1597H11.7148V45.266H15.3488V27.1597Z" fill="#FFD200"/>
<path d="M19.6511 23.4229H16.0195V45.2682H19.6511V23.4229Z" fill="#FFD200"/>
<path d="M23.9533 27.1597H20.3242V45.266H23.9533V27.1597Z" fill="#FFD200"/>
<path fill-rule="evenodd" clip-rule="evenodd" d="M6.73846 27.8702L3.10938 24.6416V15.3589H6.73846V27.8702Z" fill="#221F20"/>
<path fill-rule="evenodd" clip-rule="evenodd" d="M11.0417 31.907L7.41016 28.3438V11.2559H11.0417V31.907Z" fill="#221F20"/>
<path d="M15.3488 7.22168H11.7148V26.5931H15.3488V7.22168Z" fill="#221F20"/>
<path d="M19.6511 3.18213H16.0195V22.6243H19.6511V3.18213Z" fill="#221F20"/>
<path fill-rule="evenodd" clip-rule="evenodd" d="M28.9336 27.8702L32.5627 24.6416V15.3589H28.9336V27.8702Z" fill="#221F20"/>
<path fill-rule="evenodd" clip-rule="evenodd" d="M24.625 31.907L28.259 28.3438V11.2559H24.625V31.907Z" fill="#221F20"/>
<path d="M23.9533 7.22168H20.3242V26.5931H23.9533V7.22168Z" fill="#221F20"/>
<path fill-rule="evenodd" clip-rule="evenodd" d="M58.3952 44.6285C57.9386 45.09 57.0887 45.3196 55.8432 45.3196H51.7598C50.5265 45.3196 49.6718 45.1023 49.1955 44.6529C48.7144 44.2109 48.4727 43.5393 48.4727 42.643V38.694C48.4727 37.7928 48.7144 37.1261 49.1955 36.6792C49.6718 36.2347 50.5265 36.0125 51.7598 36.0125H55.8432C57.0887 36.0125 57.9386 36.242 58.3952 36.7011C58.8568 37.1627 59.0791 37.827 59.0791 38.6915V42.6405C59.0791 43.5075 58.8568 44.1669 58.3952 44.626V44.6285ZM56.2901 39.6098C56.2901 39.0994 56.1826 38.7208 55.9726 38.4864C55.7601 38.2519 55.2888 38.1323 54.5512 38.1323H52.9882C52.3069 38.1323 51.8526 38.2641 51.6231 38.5181C51.3959 38.7721 51.2812 39.1384 51.2812 39.6098V41.7272C51.2812 42.2009 51.3959 42.5599 51.6231 42.8188C51.8502 43.0752 52.3069 43.2071 52.9882 43.2071H54.5512C55.2863 43.2071 55.7528 43.085 55.9579 42.853C56.1582 42.6161 56.2681 42.2498 56.2901 41.7443V39.6098Z" fill="#221F20"/>
<path fill-rule="evenodd" clip-rule="evenodd" d="M70.6247 44.6285C70.168 45.09 69.3182 45.3196 68.0775 45.3196H63.9942C62.7609 45.3196 61.9061 45.1023 61.425 44.6529C60.9439 44.2109 60.707 43.5393 60.707 42.643V38.694C60.707 37.7928 60.9439 37.1261 61.425 36.6792C61.9061 36.2347 62.7609 36.0125 63.9942 36.0125H68.0775C69.3182 36.0125 70.168 36.242 70.6247 36.7011C71.0839 37.1627 71.311 37.827 71.311 38.6915V39.6073H68.522C68.522 39.0969 68.4146 38.7184 68.2021 38.4839C67.9896 38.2495 67.5183 38.1298 66.7807 38.1298H65.2177C64.5388 38.1298 64.0846 38.2617 63.8526 38.5157C63.6254 38.7697 63.5107 39.136 63.5107 39.6073V41.7247C63.5107 42.1985 63.6254 42.5575 63.8526 42.8164C64.0821 43.0728 64.5388 43.2047 65.2177 43.2047H66.7807C67.5158 43.2047 67.9872 43.0826 68.2021 42.8506C68.4121 42.6137 68.522 42.2376 68.522 41.7247H71.311V42.6405C71.311 43.5075 71.0839 44.1669 70.6247 44.626V44.6285Z" fill="#221F20"/>
<path fill-rule="evenodd" clip-rule="evenodd" d="M75.7353 45.3196H72.9585L72.9414 42.6405V38.694L72.9585 36.0125H75.7353V39.5732H80.7417V36.0125H83.5478V38.694V42.6405V45.3196H80.7417V41.693H75.7353V45.3196Z" fill="#221F20"/>
<path fill-rule="evenodd" clip-rule="evenodd" d="M88.7619 41.693H87.9657C87.9755 42.1863 88.0952 42.5624 88.3223 42.8188C88.5543 43.0752 89.0037 43.2071 89.6875 43.2071H95.7783V45.3196H88.4591C87.2257 45.3196 86.3661 45.1023 85.8899 44.6553C85.4137 44.2109 85.1719 43.5393 85.1719 42.643V38.694C85.1719 37.7928 85.4112 37.1261 85.8899 36.6792C86.3685 36.2347 87.2257 36.0125 88.4591 36.0125H95.7783V38.1323H89.6875C89.0037 38.1323 88.5543 38.2641 88.3223 38.5181C88.0952 38.7721 87.9755 39.1238 87.9657 39.5756H95.7783V41.693H88.7619Z" fill="#221F20"/>
<path fill-rule="evenodd" clip-rule="evenodd" d="M117.232 38.1323H113.402V36.0149H116.624H120.704H123.994V38.1323H120.006V45.3196H117.232V38.1323Z" fill="#221F20"/>
<path fill-rule="evenodd" clip-rule="evenodd" d="M110.945 37.6829H106.634V35.9807H103.885V37.6829H99.4691C99.4691 37.6829 96.9609 37.7586 96.9609 40.6038C96.9609 43.4489 99.5374 43.4684 99.5374 43.4684H103.882V45.3123H106.632V43.4684H110.874C110.874 43.4684 113.453 43.4489 113.453 40.6038C113.453 37.7586 110.942 37.6829 110.942 37.6829H110.945ZM109.47 41.6173H106.634V39.6489H109.445C109.445 39.6489 110.412 39.5243 110.412 40.6844C110.412 41.6539 109.467 41.6173 109.467 41.6173H109.47ZM100.087 40.6844C100.087 39.5243 101.056 39.6489 101.056 39.6489H103.875V41.6173H101.039C101.039 41.6173 100.089 41.6539 100.089 40.6844H100.087Z" fill="#221F20"/>
<path fill-rule="evenodd" clip-rule="evenodd" d="M46.1633 36.7011C45.7066 36.242 44.8567 36.0125 43.6112 36.0125H36.2578V45.3172H39.0346V42.1081H43.6112C44.8567 42.1081 45.7066 41.881 46.1633 41.4194C46.62 40.9579 46.8496 40.2936 46.8496 39.4291V38.6891C46.8496 37.8221 46.62 37.1603 46.1633 36.6987V36.7011ZM43.1448 39.9932H39.0346V38.1323H43.1448C43.6601 38.1323 44.0752 38.5499 44.0752 39.0652C44.0752 39.5805 43.6601 39.9957 43.1448 39.9957V39.9932Z" fill="#221F20"/>
<path fill-rule="evenodd" clip-rule="evenodd" d="M135.83 42.6405V41.9006C135.83 41.036 135.6 40.3717 135.146 39.9102C134.685 39.451 133.837 39.2239 132.592 39.2239H128.015V36.0125H125.238V45.3172H132.589C133.835 45.3172 134.682 45.09 135.144 44.6285C135.6 44.1669 135.828 43.5026 135.828 42.6405H135.83ZM133.058 42.2693C133.058 42.7846 132.641 43.2022 132.125 43.2022H128.015V41.3389H132.125C132.638 41.3389 133.058 41.7565 133.058 42.2693Z" fill="#221F20"/>
</svg>
