<svg width="113" height="17" viewBox="0 0 113 17" fill="none" xmlns="http://www.w3.org/2000/svg">
<path fill-rule="evenodd" clip-rule="evenodd" d="M42.7383 16.0847C42.7383 16.0847 45.4321 16.3574 47.0398 16.3574C48.6475 16.3574 49.8613 16.1829 51.1284 15.2774C52.5232 14.2847 52.9597 12.7683 52.9597 11.6665C52.9597 10.2156 52.4699 7.80466 48.6901 6.8992C45.7515 6.20102 44.8358 5.67738 44.3567 4.65192C43.9095 3.69191 44.2289 2.31736 45.0062 1.75009C45.6876 1.25917 46.188 0.800993 48.1684 0.942812L51.5649 2.68827L52.1931 0.70281C51.2987 0.560991 50.2659 0.43008 48.5198 0.364625C43.3558 0.190079 42.7383 3.23373 42.7383 4.5101C42.7383 6.71374 44.2076 8.36102 47.3486 8.99375C50.9154 9.95376 51.3733 11.5901 51.3413 12.7792C51.2987 14.0556 50.5641 15.3974 49.1267 15.6701C48.3281 15.8229 47.9022 15.8556 46.8375 15.7792L43.4197 14.001L42.7383 16.0956V16.0847Z" fill="#264369"/>
<path fill-rule="evenodd" clip-rule="evenodd" d="M0 0.637695V2.85225L3.26873 1.19406H5.37691V14.8632L4.30153 16.085H8.6137L7.52767 14.8632V1.19406H9.66779L12.9152 2.85225V0.637695H0Z" fill="#264369"/>
<path fill-rule="evenodd" clip-rule="evenodd" d="M26.3732 2.6668L29.2161 9.46319H23.5304L26.3732 2.6668ZM20.1445 16.0741H22.4337L21.6032 14.0778L23.3068 10.0086H29.4503L31.4839 14.8632L30.9196 16.0741H34.3374L27.8851 0.637695H26.6181L20.1658 16.0741H20.1445Z" fill="#264369"/>
<path fill-rule="evenodd" clip-rule="evenodd" d="M86.2656 0.637695L87.341 1.85952V14.8632L86.2656 16.085H90.5672L89.4918 14.8632V1.85952L90.5672 0.637695H86.2656Z" fill="#264369"/>
<path fill-rule="evenodd" clip-rule="evenodd" d="M71.8913 0.637695L72.9667 1.85952V7.805H65.439V1.85952L66.5144 0.637695H62.2129L63.2883 1.85952V14.8632L62.2129 16.085H66.5144L65.439 14.8632V8.36137H72.9667V14.8632L71.8913 16.085H76.2035L75.1281 14.8632V1.85952L76.2035 0.637695H71.8913Z" fill="#264369"/>
<path fill-rule="evenodd" clip-rule="evenodd" d="M103.896 8.90683V1.18315H105.781C107.899 1.18315 109.284 3.07043 109.284 5.04499C109.284 7.325 107.985 8.89591 106.057 8.89591H103.907L103.896 8.90683ZM113 16.0741L111.679 14.8632L108.741 8.95046C109.358 8.71046 109.699 8.41591 110.189 8.045C110.966 7.445 111.552 6.20136 111.488 4.77226C111.413 3.23407 110.54 1.90316 109.273 1.29225C108.006 0.670425 106.579 0.637695 104.971 0.637695H100.67L101.745 1.84861V14.8632L100.67 16.0741H104.971L103.896 14.8632V9.45228H105.291C105.568 9.45228 105.983 9.45228 106.462 9.43046L109.827 16.0741H113Z" fill="#264369"/>
</svg>
