<svg width="199" height="18" viewBox="0 0 199 18" fill="none" xmlns="http://www.w3.org/2000/svg">
<path d="M12.096 7.70743C13.5858 7.70743 14.514 7.50115 14.9438 7.04276C15.3678 6.60155 15.5855 6.24056 15.5855 5.97698C15.5855 5.69048 15.3678 5.32376 14.9438 4.88256C14.514 4.42416 13.5858 4.19496 12.096 4.19496H5.56953V7.70743H12.096ZM5.56953 17.7578H0.0343798L0 12.704V5.26074L0.0343798 0.201172H14.6745C17.1613 0.201172 18.8688 0.636649 19.7741 1.5076C20.668 2.39575 21.1207 3.63915 21.1207 5.255V6.6703C21.1207 8.29188 20.668 9.53529 19.7741 10.4062C18.8688 11.2772 17.1613 11.6955 14.6745 11.6955H5.56953V17.7463V17.7578Z" fill="#0E0E0E"/>
<path d="M39.955 7.00278C39.955 6.02868 39.7258 5.3239 39.3076 4.88269C38.8835 4.42429 37.9324 4.19509 36.4827 4.19509H33.3541C32.0133 4.19509 31.1022 4.4644 30.6438 4.95145C30.1854 5.4213 29.9792 6.10317 29.9792 6.99705V11.0023C29.9792 11.8561 30.1854 12.5494 30.6438 13.0192C31.1022 13.5235 32.0133 13.7641 33.3541 13.7641H36.4827C37.9266 13.7641 38.8721 13.5292 39.2904 13.0937C39.6628 12.6754 39.8977 11.9477 39.9493 11.0195V7.00278M44.1379 16.4916C43.2498 17.3339 41.5308 17.7637 39.0669 17.7637H30.9132C28.455 17.7637 26.7303 17.3683 25.8249 16.4916C24.8451 15.6837 24.3867 14.3887 24.3867 12.7098V5.26659C24.3867 3.57625 24.8451 2.3042 25.8249 1.4619C26.7303 0.64824 28.455 0.207031 30.9132 0.207031H39.0669C41.5251 0.207031 43.244 0.642508 44.1379 1.51346C45.049 2.40161 45.5246 3.64502 45.5246 5.26087V12.7041C45.5246 14.3486 45.0547 15.5805 44.1379 16.4859" fill="#0E0E0E"/>
<path d="M68.4953 16.4916C67.59 17.3339 65.8939 17.7637 63.4415 17.7637H55.305C52.8468 17.7637 51.1393 17.3683 50.1766 16.4916C49.2197 15.6837 48.7441 14.3887 48.7441 12.7098V5.26659C48.7441 3.57625 49.2197 2.3042 50.1766 1.4619C51.1393 0.64824 52.8468 0.207031 55.305 0.207031H63.4415C65.8939 0.207031 67.59 0.642508 68.4953 1.51346C69.4351 2.40161 69.882 3.64502 69.882 5.26087V6.99705H64.3182C64.3182 6.02295 64.1005 5.31817 63.6936 4.87696C63.2524 4.41856 62.3242 4.18936 60.8688 4.18936H57.7459C56.3994 4.18936 55.4883 4.45867 55.0013 4.94572C54.5601 5.41558 54.3137 6.09744 54.3137 6.99131V10.9966C54.3137 11.8503 54.5601 12.5437 55.0013 13.0135C55.4826 13.5178 56.3994 13.7584 57.7459 13.7584H60.8688C62.3242 13.7584 63.2524 13.5235 63.6936 13.088C64.1005 12.6697 64.3182 11.942 64.3182 10.9966H69.882V12.6984C69.882 14.3429 69.4351 15.5748 68.4953 16.4801" fill="#0E0E0E"/>
<path d="M78.6677 17.7638H73.1612L73.1211 12.71V5.27245L73.1612 0.212891H78.6677V6.93987H88.655V0.212891H94.2589V17.7638H88.655V10.9222H78.6677V17.7638Z" fill="#0E0E0E"/>
<path d="M104.636 10.9221H103.054C103.089 11.8274 103.306 12.5494 103.77 13.025C104.212 13.5235 105.14 13.7699 106.492 13.7699H118.628V17.7637H104.051C101.587 17.7637 99.8912 17.3683 98.9114 16.4916C97.9774 15.6837 97.4961 14.3887 97.4961 12.7098V5.26659C97.4961 3.57625 97.9774 2.3042 98.9114 1.4619C99.8912 0.64824 101.587 0.207031 104.051 0.207031H118.628V4.19509H106.492C105.14 4.19509 104.212 4.4644 103.77 4.95145C103.306 5.4213 103.083 6.06879 103.054 6.93402H118.628V10.9221H104.636Z" fill="#0E0E0E"/>
<path d="M161.361 4.19522H153.734V0.212891H174.844V4.19522H166.896V17.7638H161.361V4.19522Z" fill="#0E0E0E"/>
<path d="M182.896 10.2457V13.7524H189.416C190.889 13.7524 191.829 13.5232 192.253 13.0935C192.671 12.6351 192.877 12.2798 192.877 12.0162C192.877 11.7297 192.671 11.3458 192.253 10.9161C191.829 10.4405 190.889 10.24 189.416 10.24H182.896M182.896 6.24617H192.012C194.47 6.24617 196.183 6.6931 197.083 7.58124C198 8.42355 198.452 9.68414 198.452 11.3172V12.7038C198.452 14.3197 198 15.5803 197.083 16.4398C196.183 17.3165 194.47 17.7577 192.012 17.7577H177.355L177.32 12.7038V5.23769L177.355 0.195312H182.896V6.25189V6.24617Z" fill="#0E0E0E"/>
<path d="M127.204 8.53888C127.204 6.34431 129.141 6.58496 129.141 6.58496H134.745V10.2923H129.101C129.101 10.2923 127.204 10.361 127.204 8.53888ZM145.884 10.2923H140.234V6.58496H145.85C145.85 6.58496 147.786 6.34431 147.786 8.53888C147.786 10.361 145.878 10.2923 145.878 10.2923M148.829 2.86621H140.234V0.0986328H134.768V2.86621H125.967C125.967 2.86621 120.941 3.03811 120.941 8.37845C120.941 13.7188 126.104 13.8047 126.104 13.8047H134.774V17.9017H140.24V13.8047H148.697C148.697 13.8047 153.837 13.7589 153.837 8.37845C153.837 2.998 148.835 2.86621 148.835 2.86621" fill="#0E0E0E"/>
</svg>
