<svg width="178" height="47" viewBox="0 0 178 47" fill="none" xmlns="http://www.w3.org/2000/svg">
<g clip-path="url(#clip0_636_2783)">
<path fill-rule="evenodd" clip-rule="evenodd" d="M101.542 0.0982141H102.579C102.989 0.133509 103.394 0.204098 103.801 0.274687C102.749 1.9207 101.7 3.5667 100.638 5.2063C101.315 3.95815 102.033 2.73568 102.72 1.49395C101.199 1.34957 99.6108 1.68005 98.3466 2.56241C97.6664 3.03087 97.2076 3.73676 96.752 4.41057C95.4814 6.36781 94.368 8.42131 93.1295 10.3978C92.2439 11.816 91.3262 13.2246 90.1968 14.4631C89.6353 15.0503 89.0225 15.6439 88.2428 15.9198C87.5593 16.1187 86.8438 16.1155 86.1411 16.1957C86.8214 16.0674 87.5529 16.0995 88.1786 15.7658C89.1444 15.2171 89.8374 14.3123 90.492 13.4363C92.8246 10.1443 94.4001 6.4031 96.4856 2.96349C94.0214 1.26293 90.8514 0.630841 87.9315 1.30785C85.509 1.8469 83.3208 3.27472 81.7775 5.20951C80.9946 5.11325 80.1988 5.21913 79.4705 5.51111C80.4619 4.03516 81.7678 2.76776 83.308 1.86936C85.4 0.630841 87.893 0.0917969 90.3155 0.33565C92.5808 0.547417 94.7658 1.46828 96.5274 2.90573C97.5445 1.14101 99.5916 0.261852 101.549 0.0917969L101.542 0.0982141ZM78.4533 7.34964C77.5934 9.42881 77.356 11.7647 77.8116 13.9722C78.248 16.2278 79.3967 18.3294 81.0138 19.9562C84.0235 23.1263 88.9743 24.1948 93.0492 22.6707C95.0257 21.9263 96.8643 20.7231 98.167 19.045C96.1584 19.953 93.8867 20.2129 91.7113 19.876C87.7807 19.2696 84.0331 16.9305 82.1079 13.401C81.3154 11.9058 80.6897 10.1283 81.232 8.44377C81.5272 7.63199 81.925 6.68546 82.8267 6.39669C82.0374 6.10149 81.1871 5.89294 80.34 6.02449C79.5539 6.13358 78.7935 6.61808 78.4533 7.34643V7.34964ZM100.461 7.90152C99.813 7.97852 99.1424 8.13574 98.6194 8.54323C97.721 9.21704 96.9894 10.0769 96.2771 10.9368C95.1027 12.4064 93.8642 13.8214 92.6321 15.2428C92.045 15.9005 91.3872 16.5551 90.5305 16.8439C89.4171 17.2129 88.2139 17.1936 87.0716 16.969C87.8128 17.4471 88.554 17.9348 89.3594 18.3038C90.8032 18.4867 92.2599 18.0375 93.4664 17.2578C95.3209 16.1091 96.6782 14.3251 98.5648 13.2214C99.1809 12.8203 99.8547 12.4834 100.593 12.3871C101.716 10.9786 102.781 9.52827 103.84 8.07478C102.726 7.88868 101.587 7.77317 100.461 7.89831V7.90152ZM2.92303 29.0943C7.59474 29.0879 12.2697 29.0943 16.9414 29.0943C16.7521 30.6344 16.5628 32.1777 16.3735 33.7211H11.6247C11.0697 37.9981 10.5146 42.2752 9.95948 46.5522C8.03753 46.5522 6.11237 46.5522 4.18722 46.5522C4.7423 42.2752 5.29739 37.9981 5.85248 33.7211C3.90165 33.7179 1.95083 33.7211 0 33.7211C0.962578 32.1745 1.95724 30.644 2.92303 29.0975V29.0943ZM18.6901 29.1071C18.1959 33.6377 17.705 38.1682 17.2141 42.7019C17.0858 43.9886 16.874 45.2688 16.7039 46.549C18.6516 46.549 20.596 46.549 22.5436 46.549C22.6912 45.4549 22.8324 44.3576 22.98 43.2634C24.8538 43.2602 26.7276 43.2699 28.6014 43.257C30.2988 43.2313 31.9929 41.9543 32.2111 40.2217C32.548 37.4912 32.8881 34.7607 33.2186 32.0269C33.3694 30.9649 32.7469 29.8708 31.7683 29.4376C31.2293 29.1681 30.6164 29.1039 30.0196 29.1167C26.2431 29.1103 22.4666 29.1071 18.6869 29.1039L18.6901 29.1071ZM24.2121 33.7211C25.226 33.7211 26.2399 33.7211 27.2538 33.7211C27.0485 35.1778 26.8495 36.6345 26.6442 38.088C26.6313 38.3735 26.4035 38.6431 26.1051 38.6302C25.2516 38.6495 24.4014 38.6302 23.5479 38.6334C23.7725 36.9971 23.981 35.3575 24.2121 33.7179V33.7211ZM37.5598 30.044C37.7555 29.428 38.4037 29.0686 39.0326 29.0911C41.8048 29.0911 44.5802 29.0879 47.3524 29.0943C47.8851 29.0622 48.4594 29.4184 48.469 29.9959C49.0851 35.5147 49.6947 41.0335 50.3076 46.549C48.3343 46.549 46.361 46.549 44.3877 46.549C44.2818 45.5383 44.1791 44.5276 44.0733 43.5137C42.1994 43.5298 40.3224 43.5586 38.4454 43.5779C38.1053 44.5565 37.7972 45.5512 37.4411 46.5266C36.7897 46.4592 36.132 46.5137 35.4806 46.4977C34.1715 46.5105 32.8656 46.472 31.5597 46.517C33.5362 41.0174 35.5609 35.5339 37.5598 30.044ZM41.9042 34.3435C41.3042 35.9446 40.7042 37.5489 40.1074 39.15H43.592C43.4187 37.5489 43.2358 35.9478 43.0593 34.3435C42.6743 34.3435 42.2893 34.3435 41.9042 34.3435ZM54.052 29.0911C55.9964 29.0911 57.9376 29.0911 59.882 29.0911C59.5932 31.2793 59.3109 33.4708 59.0253 35.6591C60.1226 35.6623 61.22 35.6591 62.3173 35.6591C62.6093 33.4676 62.8885 31.2761 63.1772 29.0847C65.2275 29.0847 67.281 29.0814 69.3313 29.0879C68.5837 34.905 67.8457 40.7254 67.0981 46.5426C65.0478 46.5426 63.0008 46.5426 60.9505 46.5426C61.2168 44.4731 61.4895 42.4035 61.7558 40.334H58.4606C58.1911 42.4035 57.9216 44.4731 57.6552 46.5426C55.714 46.5426 53.7696 46.5426 51.8252 46.5426C52.5664 40.7222 53.3108 34.905 54.0552 29.0847L54.052 29.0911ZM87.816 29.0911C89.7572 29.0911 91.6984 29.0911 93.6396 29.0911C93.3573 31.2825 93.0685 33.4708 92.7861 35.6623H96.0814C96.3701 33.4708 96.6493 31.2793 96.9413 29.0879C98.9916 29.0911 101.042 29.0879 103.092 29.0879C102.348 34.9083 101.607 40.7254 100.862 46.5458C98.8119 46.5458 96.7616 46.5458 94.7113 46.5458C94.984 44.4763 95.2503 42.4067 95.5199 40.3404C94.4193 40.3404 93.322 40.3404 92.2214 40.3404C91.9519 42.41 91.6824 44.4795 91.4129 46.549H85.5828C86.3272 40.7286 87.0684 34.9083 87.8128 29.0879L87.816 29.0911ZM145.959 29.0911C151.722 29.0911 157.481 29.0911 163.244 29.0911C162.307 30.6344 161.37 32.1777 160.436 33.7179C159.047 33.7179 157.658 33.7179 156.271 33.7179C155.71 37.9949 155.158 42.272 154.603 46.549C152.678 46.549 150.753 46.549 148.831 46.549C149.383 42.272 149.941 37.9949 150.493 33.7179H145.388C145.577 32.1745 145.763 30.6312 145.956 29.0911H145.959ZM164.168 29.0911C163.42 34.8986 162.669 40.703 161.951 46.5137C162.827 46.472 163.706 46.5105 164.585 46.4977C167.588 46.517 170.595 46.4624 173.601 46.5266C174.827 46.4303 176.02 45.7373 176.62 44.6496C176.999 43.995 177.012 43.2185 177.118 42.487C177.416 40.2217 177.682 37.95 178 35.6879V35.1489C177.913 34.2441 177.326 33.4227 176.505 33.0409C175.719 32.6366 174.811 32.7168 173.96 32.7136C172.478 32.7136 170.999 32.7136 169.516 32.7136C169.68 31.5071 169.847 30.3007 170.011 29.0943H164.168V29.0911ZM168.336 41.9383C168.541 40.4078 168.746 38.8773 168.952 37.3468C169.959 37.3468 170.967 37.3468 171.974 37.3468C171.775 38.6944 171.634 40.0516 171.374 41.3864C171.313 41.5918 171.275 41.9543 170.986 41.9287C170.104 41.9511 169.218 41.9287 168.336 41.9351V41.9383ZM70.6597 32.9606C70.2393 36.0922 69.8511 39.227 69.4372 42.3618C69.3056 43.1608 69.3634 44.011 69.7677 44.7266C70.3741 45.8688 71.6447 46.5298 72.9089 46.6196H79.9838C81.9283 46.3822 83.7957 45.0057 84.2513 43.0453C84.4438 42.0089 84.5112 40.9565 84.6556 39.9137C82.7176 39.9137 80.7828 39.9137 78.848 39.9137C78.7614 40.4816 78.6747 41.0495 78.5945 41.6174C77.4908 41.6238 76.3902 41.6142 75.2897 41.6238C75.633 38.9992 76.0276 36.381 76.3678 33.7564C77.4876 33.7692 78.6074 33.7724 79.7272 33.782C79.6437 34.35 79.5635 34.9211 79.4801 35.4922C81.4117 35.4922 83.34 35.4922 85.2748 35.4922C85.3935 34.4173 85.554 33.3425 85.6599 32.2644C85.7337 31.4815 85.4545 30.6537 84.8513 30.1371C83.9753 29.3798 82.7689 29.1617 81.6427 29.1649C79.509 29.1745 77.3721 29.152 75.2383 29.1745C73.1143 29.2419 71.003 30.8013 70.6629 32.9606H70.6597ZM105.043 29.1681C104.302 34.9853 103.557 40.8024 102.816 46.6196H117.069C117.258 45.0955 117.447 43.5683 117.633 42.0442C114.823 42.0442 112.012 42.0442 109.201 42.0442C109.301 41.319 109.403 40.5971 109.506 39.872C112.31 39.8655 115.112 39.8431 117.913 39.8431C118.083 38.5243 118.253 37.2088 118.423 35.8901C115.618 35.8933 112.811 35.919 110.007 35.919C110.106 35.1938 110.209 34.4719 110.311 33.7467C113.119 33.7467 115.923 33.7467 118.731 33.7467C118.92 32.2195 119.109 30.6954 119.296 29.1681H105.04H105.043ZM120.964 31.1189C121.606 29.8932 122.992 29.1488 124.362 29.1745C129.586 29.1745 134.806 29.1713 140.026 29.1777C140.966 29.1905 141.984 29.0879 142.831 29.5852C143.742 30.0601 144.268 31.1221 144.12 32.1328C143.793 34.8312 143.459 37.5265 143.129 40.2217C142.943 41.9672 141.255 43.2795 139.551 43.318C137.662 43.3308 135.772 43.318 133.885 43.3212C133.741 44.4185 133.59 45.5159 133.449 46.6132H127.599C127.773 45.5159 127.911 44.4121 128.068 43.3116C126.281 43.3116 124.493 43.3116 122.706 43.3116C122.154 43.3116 121.593 43.241 121.096 42.9907C120.29 42.6121 119.677 41.8132 119.6 40.918C119.552 40.3019 119.693 39.6923 119.761 39.0794C120.021 37.0227 120.284 34.966 120.544 32.9093C120.621 32.2997 120.666 31.6612 120.97 31.1125L120.964 31.1189ZM125.61 38.6912C126.614 38.6912 127.619 38.6912 128.623 38.6912C128.883 37.058 129.101 35.4184 129.271 33.7756H126.233C126.024 35.4152 125.815 37.0516 125.61 38.6944V38.6912ZM134.453 38.6976C135.326 38.6912 136.198 38.7104 137.071 38.6912C137.35 38.7104 137.54 38.4505 137.543 38.1906C137.748 36.7211 137.95 35.2548 138.156 33.7885C137.139 33.7885 136.125 33.7885 135.111 33.7885C134.886 35.4248 134.671 37.0612 134.45 38.6976H134.453Z" fill="#005A9C"/>
<path fill-rule="evenodd" clip-rule="evenodd" d="M100.592 12.3908C101.686 12.2239 102.809 12.4582 103.81 12.9074C102.562 14.5694 101.304 16.2347 99.8572 17.7331C98.6572 19.0005 96.8507 19.4497 95.1598 19.5139C93.1705 19.562 91.1555 19.1641 89.3555 18.3074C90.7993 18.4903 92.256 18.0411 93.4625 17.2614C95.317 16.1127 96.6743 14.3288 98.5609 13.225C99.177 12.8239 99.8508 12.487 100.589 12.3908H100.592Z" fill="#EC1C2B"/>
<path fill-rule="evenodd" clip-rule="evenodd" d="M31.5624 46.5143C32.8683 46.4726 34.1774 46.5111 35.4833 46.495C36.1346 46.5111 36.7924 46.4565 37.4437 46.5239L37.5496 46.6138H31.4629L31.5591 46.5143H31.5624Z" fill="#002744"/>
<path fill-rule="evenodd" clip-rule="evenodd" d="M161.955 46.5142C162.831 46.4725 163.71 46.511 164.589 46.4981C167.592 46.5174 170.599 46.4628 173.605 46.527L173.804 46.6168H161.881L161.958 46.5142H161.955Z" fill="#001C30"/>
</g>
<defs>
<clipPath id="clip0_636_2783">
<rect width="178" height="46.5182" fill="white" transform="translate(0 0.0986328)"/>
</clipPath>
</defs>
</svg>
