<svg width="146" height="52" viewBox="0 0 146 52" fill="none" xmlns="http://www.w3.org/2000/svg">
<g clip-path="url(#clip0_636_2789)">
<path fill-rule="evenodd" clip-rule="evenodd" d="M62.8774 26.6622H64.3411C65.9444 26.6622 66.907 26.0359 66.907 24.7189C66.907 23.3304 65.998 22.7972 64.359 22.7972H62.881V26.6657L62.8774 26.6622ZM62.9311 32.9177H60.2578V20.4424H64.5522C67.6872 20.4424 69.6662 21.745 69.6662 24.6116C69.6662 27.4781 67.6335 29.0134 64.3017 29.0134H62.9311V32.9177Z" fill="#414042"/>
<path fill-rule="evenodd" clip-rule="evenodd" d="M80.8541 26.6799C80.8541 23.8456 79.5515 22.5823 77.6118 22.5823C75.8475 22.5823 74.459 23.9029 74.459 26.6799C74.459 29.457 75.9012 30.7811 77.7729 30.7811C79.6445 30.7811 80.8577 29.4785 80.8577 26.6799H80.8541ZM71.6211 26.6799C71.6211 22.4929 74.1691 20.2275 77.6082 20.2275C81.4553 20.2275 83.6885 22.6718 83.6885 26.6799C83.6885 31.1175 81.1011 33.1323 77.6798 33.1323C74.0618 33.1323 71.6211 30.867 71.6211 26.6799Z" fill="#414042"/>
<path fill-rule="evenodd" clip-rule="evenodd" d="M95.5834 32.4195C94.9392 32.7595 94.0338 33.1317 92.2158 33.1317C88.4009 33.1317 85.8887 30.9415 85.8887 26.8403C85.8887 22.7391 88.4009 20.2305 92.4806 20.2305C93.837 20.2305 94.9571 20.5168 95.6191 20.8174L95.0322 23.0612C94.2843 22.8107 93.429 22.689 92.86 22.689C90.3978 22.689 88.723 23.9201 88.723 26.6793C88.723 29.4384 90.3263 30.6552 92.8385 30.6552C93.4075 30.6552 94.2843 30.4942 95.0501 30.1721L95.5834 32.4195Z" fill="#414042"/>
<path fill-rule="evenodd" clip-rule="evenodd" d="M100.561 28.1258H104.859L102.773 22.2604H102.701L100.561 28.1258ZM105.374 29.5859H100.046L98.836 32.9177H97.2148L101.975 20.4424H103.578L108.248 32.9177H106.573L105.378 29.5859H105.374Z" fill="#414042"/>
<path fill-rule="evenodd" clip-rule="evenodd" d="M113.81 32.9177H112.207V21.9383H108.518V20.4424H117.5V21.9383H113.81V32.9177Z" fill="#414042"/>
<path fill-rule="evenodd" clip-rule="evenodd" d="M128.79 26.6803C128.79 23.259 127.258 21.7631 124.796 21.7631C122.606 21.7631 120.913 23.3485 120.913 26.6803C120.913 30.012 122.552 31.601 125.015 31.601C127.348 31.601 128.794 29.9083 128.794 26.6803H128.79ZM119.199 26.6803C119.199 22.6864 121.5 20.2637 124.796 20.2637C128.504 20.2637 130.501 22.9012 130.501 26.6803C130.501 30.9246 128.114 33.0969 124.854 33.0969C121.397 33.0969 119.199 30.6383 119.199 26.6803Z" fill="#414042"/>
<path fill-rule="evenodd" clip-rule="evenodd" d="M145.999 32.9177H144.392L143.626 23.1693L140.47 32.9177H138.795L135.657 23.2051L134.873 32.9177H133.27L134.34 20.4424H136.301L139.668 31.1713L142.968 20.4424H144.929L145.999 32.9177Z" fill="#414042"/>
<path fill-rule="evenodd" clip-rule="evenodd" d="M21.8702 22.7829C19.8841 24.9873 20.0523 28.3907 22.2496 30.3876C24.4469 32.3845 27.8395 32.2163 29.8292 30.0118C31.8154 27.8073 31.6472 24.404 29.4499 22.4107C28.4228 21.4766 27.1309 21.0186 25.8462 21.0186C24.3825 21.0186 22.9259 21.6126 21.8666 22.7864L21.8702 22.7829Z" fill="url(#paint0_radial_636_2789)"/>
<path fill-rule="evenodd" clip-rule="evenodd" d="M10.4704 5.82652C18.3721 1.99732 23.8475 4.6384 27.2473 7.9809C27.6982 8.42466 28.1133 8.87557 28.4927 9.32649C30.6542 11.9139 31.6634 14.4583 31.6634 14.4583C33.0412 14.716 34.3295 14.784 35.5284 14.7267C35.6071 14.7232 35.6787 14.7232 35.7574 14.716C35.829 14.7088 35.8934 14.7017 35.965 14.6945C38.624 14.4548 42.0738 13.4348 45.2302 10.2713C45.3376 10.1639 45.445 10.0494 45.5559 9.93486C45.0692 9.35154 44.5646 8.77537 44.0171 8.22783C38.9926 3.22123 32.4257 0.719727 25.8552 0.719727C20.437 0.719727 15.0225 2.42319 10.4668 5.82652H10.4704Z" fill="url(#paint1_linear_636_2789)"/>
<path fill-rule="evenodd" clip-rule="evenodd" d="M0.873074 19.4477C-2.45511 31.9552 4.00801 44.7454 15.5636 49.7019C8.29529 44.7741 7.84795 38.7118 9.04323 34.0952C9.2007 33.4833 9.38679 32.9 9.5872 32.3453C10.7503 29.1817 12.4466 27.0345 12.4466 27.0345C11.9778 25.7139 11.398 24.5616 10.7431 23.5524C10.7002 23.488 10.6644 23.4236 10.6214 23.3592C10.5821 23.3019 10.5391 23.2482 10.4998 23.1874C8.9645 21.008 6.35563 18.5243 2.03615 17.3756C1.88942 17.3362 1.73554 17.3004 1.58166 17.2646C1.32041 17.9768 1.07706 18.7033 0.873074 19.4477Z" fill="url(#paint2_linear_636_2789)"/>
<path fill-rule="evenodd" clip-rule="evenodd" d="M40.8195 36.8332C40.2111 37.0014 39.6099 37.1338 39.0302 37.2376C35.7091 37.8137 33.0036 37.4165 33.0036 37.4165C32.0911 38.483 31.3861 39.5637 30.8385 40.6302C30.8063 40.6982 30.767 40.7626 30.7347 40.8342C30.7025 40.8986 30.6775 40.9594 30.6489 41.0238C29.5287 43.4466 28.6842 46.943 29.8472 51.2589C29.8866 51.4056 29.9331 51.5595 29.9761 51.7098C30.724 51.5774 31.4755 51.4307 32.2235 51.2303C44.7203 47.8591 52.5684 35.8669 51.0796 23.3809C50.4462 32.1379 45.4217 35.5592 40.8231 36.8332H40.8195Z" fill="url(#paint3_linear_636_2789)"/>
<path fill-rule="evenodd" clip-rule="evenodd" d="M10.4724 5.82662C10.4724 5.82662 4.8932 9.31943 1.97656 16.3337C2.7424 16.4661 10.5225 18.0335 13.4212 26.6833C14.1298 26.2323 16.3057 24.511 17.7693 19.7728C19.5372 14.0469 22.894 9.82044 27.2457 7.98099C27.2457 7.98099 24.279 3.75098 18.2489 3.75098C16.0623 3.75098 13.4713 4.30567 10.4724 5.82662Z" fill="url(#paint4_linear_636_2789)"/>
<path fill-rule="evenodd" clip-rule="evenodd" d="M15.5646 49.7014C15.5646 49.7014 21.3728 52.7791 28.8952 51.8057C28.7592 51.4299 28.1473 49.6048 28.1473 47.0568C28.1473 44.1544 28.9525 40.3109 32.1769 36.6929L32.2127 36.6356C31.6866 36.0737 29.8436 34.6888 25.1054 35.766C19.2614 37.0973 12.8162 36.9434 9.04779 34.0947C9.04779 34.0947 4.99671 42.7981 15.5682 49.7014H15.5646Z" fill="url(#paint5_linear_636_2789)"/>
<path fill-rule="evenodd" clip-rule="evenodd" d="M34.852 15.9294C33.7892 15.9294 32.6619 15.822 31.4738 15.5751L31.4165 15.5608C31.1982 16.3588 31.0193 18.617 34.2365 22.0847C38.3091 26.4794 41.4011 32.1373 40.8177 36.8289C40.8177 36.8289 50.38 35.9844 51.0743 23.3766C51.0743 23.3766 50.8381 16.8026 46.2251 10.7725C45.3949 11.7817 41.444 15.9186 34.852 15.9258V15.9294Z" fill="url(#paint6_linear_636_2789)"/>
</g>
<defs>
<radialGradient id="paint0_radial_636_2789" cx="0" cy="0" r="1" gradientUnits="userSpaceOnUse" gradientTransform="translate(24.3781 23.2705) rotate(-90.17) scale(7.17528 6.81652)">
<stop stop-color="#3892D0"/>
<stop offset="1" stop-color="#242574"/>
</radialGradient>
<linearGradient id="paint1_linear_636_2789" x1="25.823" y1="2.38024" x2="30.3965" y2="13.875" gradientUnits="userSpaceOnUse">
<stop stop-color="#3892D0"/>
<stop offset="1" stop-color="#242574"/>
</linearGradient>
<linearGradient id="paint2_linear_636_2789" x1="13.216" y1="42.702" x2="2.78768" y2="23.0908" gradientUnits="userSpaceOnUse">
<stop stop-color="#3892D0"/>
<stop offset="1" stop-color="#242574"/>
</linearGradient>
<linearGradient id="paint3_linear_636_2789" x1="49.6589" y1="33.5265" x2="30.0655" y2="43.5575" gradientUnits="userSpaceOnUse">
<stop stop-color="#3892D0"/>
<stop offset="1" stop-color="#242574"/>
</linearGradient>
<linearGradient id="paint4_linear_636_2789" x1="11.6355" y1="17.5862" x2="18.1523" y2="5.44012" gradientUnits="userSpaceOnUse">
<stop stop-color="#3892D0"/>
<stop offset="1" stop-color="#242574"/>
</linearGradient>
<linearGradient id="paint5_linear_636_2789" x1="28.9561" y1="40.9694" x2="14.9383" y2="43.75" gradientUnits="userSpaceOnUse">
<stop stop-color="#3892D0"/>
<stop offset="1" stop-color="#242574"/>
</linearGradient>
<linearGradient id="paint6_linear_636_2789" x1="40.9072" y1="18.3342" x2="45.4844" y2="31.8223" gradientUnits="userSpaceOnUse">
<stop stop-color="#3892D0"/>
<stop offset="1" stop-color="#242574"/>
</linearGradient>
<clipPath id="clip0_636_2789">
<rect width="146" height="51.2755" fill="white" transform="translate(0 0.719727)"/>
</clipPath>
</defs>
</svg>
