<svg width="195" height="49" viewBox="0 0 195 49" fill="none" xmlns="http://www.w3.org/2000/svg">
<path d="M52.8304 20.3828C53.9772 20.3828 55.2538 20.4226 56.3608 21.1706C57.0988 21.6593 57.9664 22.6267 57.9664 24.352C57.9664 26.2469 56.7697 28.4808 53.4487 28.4808H50.6562V33.6768H48.2129V20.3828H52.8304ZM52.9301 26.5361C53.4686 26.5361 54.2465 26.556 54.8648 25.9776C55.2937 25.5887 55.5231 24.9304 55.5231 24.372C55.5231 23.8534 55.3136 23.2251 54.8848 22.8561C54.4559 22.4871 53.7778 22.3075 53.0198 22.3075H50.6562V26.5361H52.9301ZM60.2204 24.8008C60.8986 24.1625 61.9059 23.604 63.4118 23.604C64.9277 23.604 65.935 24.1625 66.6131 24.8008C67.6204 25.7482 68.139 27.2242 68.139 28.7302C68.139 30.2361 67.6204 31.7121 66.6131 32.6595C65.935 33.2978 64.9277 33.8662 63.4118 33.8662C61.9059 33.8662 60.8986 33.2978 60.2204 32.6595C59.2132 31.7121 58.6946 30.2361 58.6946 28.7302C58.6846 27.2143 59.2132 25.7482 60.2204 24.8008ZM61.866 31.5226C62.0754 31.7719 62.5641 32.2406 63.4118 32.2406C64.2695 32.2406 64.7482 31.7819 64.9576 31.5226C65.1172 31.3531 65.6956 30.5752 65.6956 28.7302C65.6956 26.8852 65.1172 26.1172 64.9576 25.9377C64.7482 25.6884 64.2595 25.2197 63.4118 25.2197C62.5641 25.2197 62.0754 25.6784 61.866 25.9377C61.7164 26.1172 61.128 26.8852 61.128 28.7302C61.128 30.5652 61.7164 31.3431 61.866 31.5226ZM75.868 27.4137C75.8281 26.9151 75.6386 26.3267 75.3793 25.9577C75.1399 25.6086 74.6812 25.2197 73.9033 25.2197C73.1453 25.2197 72.6467 25.6086 72.3375 26.1272C71.8488 26.925 71.8189 28.1617 71.8189 28.7302C71.8189 29.6377 71.9486 30.7248 72.3375 31.3431C72.5868 31.732 73.0955 32.2307 73.9033 32.2307C74.4817 32.2307 74.9704 32.0013 75.3394 31.4927C75.6286 31.0838 75.8281 30.5053 75.858 29.9967L77.9124 30.2461C77.7927 31.1536 77.3938 32.1708 76.6758 32.8191C76.0774 33.3576 75.1399 33.8463 73.8235 33.8463C72.3575 33.8463 71.4001 33.2679 70.8416 32.7393C70.0836 32.0212 69.3656 30.7447 69.3656 28.7302C69.3656 26.8552 70.0038 25.7283 70.5125 25.1299C71.2305 24.2722 72.4472 23.5841 73.8833 23.5841C75.11 23.5841 76.1173 24.0129 76.7456 24.6712C77.3838 25.3094 77.7728 26.2768 77.9124 27.1445L75.868 27.4137ZM85.482 27.4137C85.4421 26.9151 85.2526 26.3267 84.9933 25.9577C84.764 25.6086 84.2952 25.2197 83.5173 25.2197C82.7594 25.2197 82.2607 25.6086 81.9516 26.1272C81.4729 26.925 81.433 28.1617 81.433 28.7302C81.433 29.6377 81.5726 30.7248 81.9516 31.3431C82.2009 31.732 82.7095 32.2307 83.5173 32.2307C84.0958 32.2307 84.5844 32.0013 84.9534 31.4927C85.2427 31.0838 85.4421 30.5053 85.472 29.9967L87.5265 30.2461C87.4168 31.1536 87.0079 32.1708 86.2898 32.8191C85.6914 33.3576 84.764 33.8463 83.4475 33.8463C81.9715 33.8463 81.0241 33.2679 80.4656 32.7393C79.7077 32.0212 78.9896 30.7447 78.9896 28.7302C78.9896 26.8552 79.6279 25.7283 80.1365 25.1299C80.8545 24.2722 82.0713 23.5841 83.5074 23.5841C84.7241 23.5841 85.7313 24.0129 86.3696 24.6712C87.0079 25.3094 87.3968 26.2768 87.5364 27.1445L85.482 27.4137ZM97.8986 30.8045C97.5496 31.9614 96.8512 32.6396 96.2728 33.0485C95.4949 33.567 94.4876 33.8662 93.4205 33.8662C92.0841 33.8662 90.7278 33.2978 89.91 32.47C89.1521 31.7021 88.5936 30.3557 88.5936 28.77C88.5936 26.7555 89.4313 25.4191 90.3389 24.6612C90.8674 24.2124 91.8548 23.5941 93.3407 23.5941C95.2256 23.5941 96.4224 24.4617 97.0607 25.3593C97.7386 26.2868 98.0576 27.5833 98.0576 28.7102V29.159H91.047C91.047 29.2687 91.027 30.1663 91.3761 30.8843C91.8947 31.9714 92.8521 32.2406 93.5103 32.2406C94.0289 32.2406 94.6871 32.0811 95.2356 31.5226C95.5647 31.1735 95.7043 30.8444 95.7542 30.5353L97.8986 30.8045ZM95.6146 27.683C95.6146 27.1245 95.475 26.4862 95.1857 26.0574C94.8167 25.5188 94.1585 25.1498 93.4405 25.1498C92.7025 25.1498 92.0642 25.5188 91.6752 25.9776C91.3661 26.3666 91.0968 26.9649 91.0968 27.683H95.6146ZM107.622 23.7935V33.6768H105.369V25.469H102.815C102.756 26.8054 102.716 27.3439 102.676 28.2614C102.616 29.2886 102.546 31.4528 101.669 32.6396C101.18 33.2778 100.581 33.5272 100.153 33.6468C99.9026 33.7266 99.6336 33.7565 99.3546 33.7565C99.1646 33.7565 98.9656 33.7366 98.7756 33.6768V31.9714H98.9656C99.2546 31.9514 99.6436 31.8018 99.8926 31.6024C100.671 30.984 100.741 29.5878 100.821 28.4808C100.921 27.0248 100.941 26.1571 100.95 24.8407L100.97 23.7935H107.622ZM112.24 27.314H114.723C115.361 27.314 116.598 27.3938 117.416 28.2016C118.154 28.9196 118.224 29.9269 118.224 30.4655C118.224 31.8816 117.645 32.5997 117.196 32.9687C117.037 33.0884 116.309 33.6668 114.913 33.6668H109.996V23.7935H112.24V27.314ZM112.24 32.0412H114.005C114.434 32.0412 114.893 32.0212 115.282 31.6921C115.511 31.4727 115.79 31.1137 115.79 30.4854C115.79 29.9469 115.631 29.518 115.192 29.2288C114.803 28.9795 114.314 28.9396 114.015 28.9396H112.25V32.0412H112.24ZM121.495 23.7935L123.32 26.8652L125.215 23.7935H127.269L124.377 28.2614L127.808 33.6668H125.175L122.931 29.9469L120.567 33.6668H118.513L121.884 28.5407L118.862 23.7935H121.495ZM129.543 24.8008C130.221 24.1625 131.229 23.604 132.734 23.604C134.25 23.604 135.258 24.1625 135.936 24.8008C136.943 25.7482 137.462 27.2242 137.462 28.7302C137.462 30.2361 136.933 31.7121 135.936 32.6595C135.258 33.2978 134.25 33.8662 132.734 33.8662C131.229 33.8662 130.221 33.2978 129.543 32.6595C128.536 31.7121 128.017 30.2361 128.017 28.7302C128.017 27.2143 128.536 25.7482 129.543 24.8008ZM131.189 31.5226C131.398 31.7719 131.887 32.2406 132.734 32.2406C133.592 32.2406 134.071 31.7819 134.29 31.5226C134.44 31.3531 135.028 30.5752 135.028 28.7302C135.028 26.8852 134.45 26.1172 134.29 25.9377C134.081 25.6884 133.592 25.2197 132.734 25.2197C131.887 25.2197 131.398 25.6784 131.189 25.9377C131.029 26.1172 130.451 26.8852 130.451 28.7302C130.451 30.5652 131.039 31.3431 131.189 31.5226ZM138.668 26.4663C138.958 25.2695 139.715 24.6113 140.254 24.2822C140.583 24.0728 141.491 23.604 143.046 23.604C144.014 23.604 145.001 23.7736 145.739 24.1825C146.826 24.7809 147.095 25.6485 147.095 26.2768C147.095 26.955 146.766 28.2515 145.081 28.4409V28.4808C145.659 28.5606 146.298 28.8099 146.687 29.2188C147.036 29.5878 147.305 30.2062 147.305 30.8644C147.305 31.8517 146.726 32.7194 145.988 33.208C145.101 33.7865 143.874 33.8662 142.967 33.8662C142.049 33.8662 140.663 33.7665 139.686 32.9986C139.147 32.5698 138.638 31.8318 138.489 30.9043L140.523 30.5552C140.603 30.8644 140.773 31.3331 141.002 31.6024C141.511 32.1908 142.298 32.2406 142.807 32.2406C143.316 32.2406 143.854 32.1808 144.283 31.8916C144.672 31.6223 144.862 31.2533 144.862 30.7646C144.862 30.3558 144.782 30.0266 144.433 29.7374C143.984 29.3684 143.386 29.3086 142.827 29.3086H141.8V27.7927H142.827C143.216 27.7927 143.774 27.7129 144.084 27.5633C144.493 27.3539 144.722 27.0048 144.722 26.4364C144.722 26.1272 144.602 25.828 144.313 25.5986C143.864 25.2296 143.226 25.2097 142.897 25.2097C142.448 25.2097 141.79 25.2695 141.251 25.7283C141.022 25.9178 140.713 26.2868 140.613 26.8652L138.668 26.4663ZM158.804 22.7065H152.391V25.6485H155.243C156.271 25.6485 157.258 25.7283 158.265 26.4264C159.253 27.1046 159.871 28.1118 159.871 29.5679C159.871 30.9242 159.362 31.9315 158.724 32.5697C157.757 33.5371 156.65 33.6768 155.493 33.6768H149.29V20.3828H158.804V22.7065ZM152.391 31.3431H154.894C155.363 31.3431 155.792 31.3231 156.231 30.8743C156.66 30.4455 156.719 29.9668 156.719 29.5978C156.719 29.1789 156.6 28.7501 156.231 28.3811C155.792 27.9423 155.223 27.8924 154.815 27.8924H152.391V31.3431ZM161.467 26.5361C161.776 25.1997 162.643 24.5215 163.172 24.2124C163.94 23.7636 164.967 23.5941 166.254 23.5941C167.879 23.5941 169.525 23.8035 170.263 25.3393C170.652 26.1372 170.612 26.9849 170.612 27.7229V31.5425C170.612 32.3404 170.721 33.0784 170.901 33.6768H168.089C168.009 33.2878 167.949 32.7692 167.939 32.111C167.57 32.7692 166.672 33.8762 164.628 33.8762C163.72 33.8762 162.783 33.6468 162.145 33.1183C161.526 32.6096 161.137 31.8018 161.137 30.9142C161.137 29.9269 161.566 28.7401 163.252 28.042C164.339 27.5932 166.104 27.4436 166.892 27.4037L167.819 27.3639V27.1544C167.819 26.8851 167.799 26.3067 167.53 25.9876C167.161 25.5587 166.423 25.5388 166.134 25.5388C165.735 25.5388 165.246 25.5787 164.837 25.828C164.588 25.9776 164.259 26.2967 164.139 26.8353L161.467 26.5361ZM166.952 28.9994C165.984 29.0792 165.017 29.1789 164.468 29.8471C164.319 30.0366 164.159 30.3358 164.159 30.7347C164.159 31.1636 164.369 31.4528 164.588 31.6024C164.857 31.8118 165.266 31.9115 165.655 31.9115C166.234 31.9115 166.912 31.6622 167.301 31.1935C167.361 31.1336 167.819 30.5552 167.819 29.4283V28.9097L166.952 28.9994ZM175.738 23.7935V27.4935H178.859V23.7935H181.742V33.6668H178.859V29.518H175.738V33.6668H172.856V23.7935H175.738ZM186.878 23.7935V27.5932H187.656C188.493 27.5932 188.842 27.1843 189.052 26.7356C189.461 25.8679 189.441 25.1897 189.81 24.5116C190.099 23.973 190.488 23.8334 190.737 23.7935H193.121C192.812 24.1226 192.542 24.5116 192.363 24.8606C192.054 25.4989 191.765 26.5461 191.585 26.9949C191.356 27.6132 190.967 28.2315 189.979 28.3113V28.3512C190.508 28.431 191.047 28.7002 191.455 29.2986C191.705 29.6676 191.874 30.1463 192.154 30.9043C192.423 31.6822 192.542 31.9514 192.792 32.5498C192.991 32.9986 193.101 33.2679 193.43 33.6768H190.717C190.289 33.5371 189.999 33.2479 189.65 32.2406C189.381 31.4727 189.341 31.1935 189.162 30.7646L189.022 30.4156C188.733 29.6776 188.344 29.528 187.745 29.528H186.878V33.6768H183.996V23.7935H186.878Z" fill="#19502E"/>
<path d="M21.6446 48.3574C9.88637 48.3574 0.322266 38.8033 0.322266 27.0451C0.322266 20.2934 3.42387 14.0802 8.82927 10.0113L9.04867 9.83172V0.357422H21.2855V5.73286H21.6446C33.3927 5.73286 42.9568 15.2969 42.9568 27.0551C42.9568 38.8033 33.3927 48.3574 21.6446 48.3574Z" fill="#19502E"/>
<path d="M15.472 27.3839L19.91 23.0257V20.0637L15.472 24.402V27.3839ZM15.472 16.3438L19.91 11.9756V9.18322L15.472 13.5214V16.3438ZM15.472 19.9939L19.91 15.6357V12.8433L15.472 17.1815V19.9939ZM14.2055 9.21314L13.6171 8.64468V1.7334H12.939V7.98647L12.3605 7.40803V1.7334H11.6824V6.75979L11.094 6.18135V1.7334H10.4258V8.32555L14.8737 12.6837V1.7334H14.2055V9.21314ZM15.472 23.644L19.91 19.2858V16.4934L15.472 20.8316V23.644ZM10.4258 23.0257L14.8737 27.3839V24.402L10.4258 20.0637V23.0257ZM19.2418 6.18135L18.6534 6.75979V1.7334H17.9852V7.41801L17.3968 7.98647V1.7334H16.7286V8.63471L16.1402 9.21314V1.7334H15.472V12.6837L19.91 8.32555V1.7334H19.2418V6.18135ZM10.4258 11.9756L14.8737 16.3438V13.5214L10.4258 9.18322V11.9756ZM10.4258 15.6357L14.8737 19.9939V17.1815L10.4258 12.8433V15.6357ZM10.4258 19.2858L14.8737 23.644V20.8316L10.4258 16.4934V19.2858ZM36.8841 21.5896H26.0834C26.3128 21.2306 26.4424 20.8117 26.4424 20.3629C26.4424 19.0764 25.3952 18.0392 24.1087 18.0392C22.8222 18.0392 21.785 19.0864 21.785 20.3629C21.785 20.8716 21.9446 21.3303 22.2238 21.7093C22.0244 21.8389 21.8847 22.0683 21.8847 22.3376C21.8847 22.5969 22.0244 22.8263 22.2238 22.9559C21.9546 23.3349 21.785 23.8036 21.785 24.3023C21.785 25.5888 22.8222 26.626 24.1087 26.626C25.3952 26.626 26.4424 25.5888 26.4424 24.3023C26.4424 23.8535 26.3128 23.4246 26.0834 23.0756H34.1216V23.5643H33.3238V24.2524H34.1216V24.9605H33.3238V26.2669H34.1216V25.6785H35.2984V26.2669H36.0863V24.9605H35.2984V24.2524H36.0863V23.5643H35.2984V23.0756H36.8841C37.1933 23.0756 37.4426 22.8163 37.4426 22.5071V22.1581C37.4426 21.8489 37.1833 21.5896 36.8841 21.5896ZM25.3155 24.3023C25.3155 24.9605 24.7769 25.499 24.1087 25.499C23.4505 25.499 22.912 24.9605 22.912 24.3023C22.912 24.0629 22.9818 23.8335 23.1114 23.644L23.4405 23.0756C23.2311 22.8961 23.1014 22.6268 23.1014 22.3276C23.1014 22.0284 23.2311 21.7592 23.4405 21.5796L23.1114 21.0112C22.9818 20.8217 22.912 20.6023 22.912 20.353C22.912 19.6947 23.4505 19.1562 24.1087 19.1562C24.7669 19.1562 25.3155 19.6947 25.3155 20.353C25.3155 20.8416 24.747 22.0085 24.747 22.0085V22.6368C24.747 22.6468 25.3155 23.8136 25.3155 24.3023Z" fill="#FFCB05"/>
<path d="M6.38672 20.1738V23.076C6.38672 25.8485 7.59344 27.6336 8.29154 28.3218C8.70044 28.7207 12.8292 32.7897 12.8891 32.8395C14.1756 34.0961 14.395 34.505 14.6842 35.2231V32.0118C14.6842 29.1495 13.2381 28.0425 12.4901 27.3145C10.7449 25.6191 9.58804 24.5021 8.64064 23.5646C6.86542 21.7795 6.38672 20.1738 6.38672 20.1738ZM12.4902 34.4851C10.7549 32.7797 9.58804 31.6727 8.65064 30.7352C6.86546 28.9501 6.39673 27.7433 6.39673 27.7433V30.2465C6.39673 33.019 7.65334 34.7843 8.29164 35.5123C8.70044 35.9112 12.8392 39.9602 12.8891 40.0101C14.1756 41.2667 14.395 41.8651 14.6842 42.5732V39.1823C14.6842 36.3201 13.2282 35.2131 12.4902 34.4851Z" fill="white"/>
<path d="M21.6452 7.09961C21.3261 7.09961 21.0069 7.10958 20.6878 7.11956V8.47588C21.0069 8.45594 21.3161 8.45594 21.6452 8.45594C31.9074 8.45594 40.2249 16.7734 40.2249 27.0456C40.2249 37.3078 31.9074 45.6253 21.6452 45.6253C11.383 45.6253 3.05555 37.3078 3.05555 27.0456C3.05555 21.351 5.61861 16.2548 9.6577 12.8441V11.1088C4.82077 14.7489 1.69922 20.5332 1.69922 27.0456C1.69922 38.0558 10.625 46.9816 21.6452 46.9816C32.6554 46.9816 41.5812 38.0558 41.5812 27.0456C41.5812 16.0354 32.6554 7.09961 21.6452 7.09961Z" fill="white"/>
<path d="M35.7461 37.4574C36.0552 37.0385 36.3445 36.5997 36.6237 36.1509V33.4782H35.7461V37.4574ZM38.2992 32.5008C38.4288 32.1119 38.5385 31.723 38.6382 31.334H35.7461V32.0421H36.1849C36.9528 32.0221 37.8205 32.0122 38.2992 32.5008Z" fill="white"/>
<path d="M19.0418 31.2334H18.2539V39.1818H19.0418V31.2334Z" fill="white"/>
<path d="M16.4481 29.7077H19.041C19.7092 29.7077 20.178 29.8473 20.4472 30.1066C20.7165 30.3659 20.8462 30.8347 20.8462 31.5029V38.9327C20.8462 39.6009 20.7165 40.0697 20.4472 40.329C20.0383 40.7378 19.2804 40.7378 18.6521 40.7378C18.5125 40.7279 18.3729 40.7279 18.2532 40.7279V44.2483C18.5125 44.2982 18.7718 44.3481 19.041 44.388V41.4958C20.2378 41.4958 21.0157 41.0869 21.3847 40.2691V44.5774H21.644C21.8036 44.5774 21.9731 44.5774 22.1327 44.5675V31.6325C22.1327 30.9444 22.2723 30.4657 22.5316 30.1964C22.7909 29.9271 23.2596 29.7875 23.9178 29.7875C24.586 29.7875 25.5734 29.6878 26.082 30.1964C26.3413 30.4657 26.4609 30.9543 26.4609 31.6325V35.4422H24.6858V31.3732H23.9178V44.4279C24.1771 44.3979 24.4265 44.358 24.6858 44.3082V36.2101H26.4609V43.8993C26.8299 43.7996 27.189 43.6799 27.548 43.5502V36.5093C27.548 35.7115 27.7375 35.1131 28.5453 34.8438L27.6477 29.9471H29.4429L29.7421 35.2926H29.9615L30.2607 29.9471H32.1555L31.1383 34.8438C31.986 35.143 32.1555 35.6616 32.1555 36.5093V41.057C32.6841 40.6581 33.1827 40.2392 33.6614 39.7804V29.8972H38.9272C38.9671 29.6579 38.997 29.4285 39.0269 29.1792H26.7202L26.8898 30.0667C26.5008 29.3487 25.7628 28.9897 24.6758 28.9897H23.9079C22.6014 28.9897 21.8135 29.5083 21.5044 30.5455C21.2251 29.4584 20.3974 28.9199 19.0311 28.9199H15.6602V43.5103C15.9195 43.6001 16.1788 43.6898 16.4381 43.7696V29.7077H16.4481ZM32.7938 35.3225L31.9461 34.5147L32.7938 30.1266V35.3225Z" fill="white"/>
<path d="M29.4531 42.7423C29.7224 42.6027 29.9916 42.4631 30.2609 42.3135V36.2998H29.4531V42.7423Z" fill="white"/>
</svg>
