<svg width="140" height="41" viewBox="0 0 140 41" fill="none" xmlns="http://www.w3.org/2000/svg">
<g clip-path="url(#clip0_636_2869)">
<path fill-rule="evenodd" clip-rule="evenodd" d="M14.8888 0.929366C16.3143 0.604725 17.7781 0.445356 19.239 0.439453C19.5489 0.448307 19.8736 0.430599 20.1598 0.56931C20.3015 0.634238 20.3162 0.808363 20.2484 0.932317C19.7939 1.52848 19.1121 1.89148 18.4894 2.284C15.4643 4.05477 12.2327 5.43302 9.10728 7.00606C6.98235 8.12459 4.88694 9.34937 3.08076 10.946C2.00944 11.8845 1.05913 12.9824 0.418702 14.2603C1.28343 11.495 2.79744 8.9421 4.75414 6.80832C7.43685 3.8895 11.0168 1.79999 14.8888 0.929366ZM28.9074 2.90673C29.5538 3.36122 30.2532 3.86884 30.5188 4.64798C30.7402 5.253 30.4952 5.90818 30.1322 6.40104C29.4918 7.26872 28.5739 7.87373 27.6827 8.45514C25.056 10.0547 22.1962 11.2146 19.3807 12.4335C16.5032 13.6612 13.5991 14.8299 10.757 16.1373C8.06843 17.3857 5.35325 18.6312 2.90368 20.3222C2.16881 20.8387 1.46936 21.4231 0.902712 22.1225C0.477728 22.6508 0.135379 23.2676 0.0350353 23.9435C-0.0712109 24.5957 0.0999635 25.245 0.244576 25.8766C0.879102 28.3438 2.10684 30.6399 3.67987 32.635C5.38571 34.7894 7.54015 36.5868 9.96905 37.8706C9.28731 37.4131 8.55244 36.8996 8.25141 36.0968C8.02416 35.4859 8.24255 34.8101 8.62032 34.3113C9.2637 33.4407 10.1815 32.8327 11.0758 32.2484C13.7378 30.6281 16.639 29.4565 19.4928 28.2228C22.8662 26.7885 26.269 25.4162 29.5774 23.8343C31.7466 22.8013 33.9187 21.7389 35.8872 20.3547C36.5631 19.8884 37.1946 19.3513 37.7347 18.7315C38.2187 18.1649 38.6201 17.4949 38.7293 16.7453C38.8326 16.0842 38.6526 15.4261 38.508 14.7886C37.9325 12.5751 36.8759 10.5033 35.5301 8.65878C33.7859 6.28594 31.5164 4.28793 28.9133 2.90673H28.9074ZM44.26 11.6543C45.5645 11.6543 46.8689 11.6543 48.1705 11.6543C49.2064 11.6691 50.2629 11.675 51.2604 11.9878C52.3849 12.339 53.3116 13.2126 53.7897 14.2839C54.3091 15.4349 54.377 16.76 54.1025 17.9848C53.8369 19.1417 53.1847 20.2603 52.1517 20.8859C51.5762 21.2371 50.9092 21.3995 50.2452 21.4732C49.2211 21.5854 48.1911 21.5647 47.1641 21.5706C47.1641 23.5952 47.1641 25.6198 47.1641 27.6444C46.196 27.6444 45.2251 27.6444 44.2571 27.6444C44.2571 22.3144 44.2571 16.9873 44.2571 11.6573L44.26 11.6543ZM47.167 14.4935C47.167 15.9042 47.167 17.3149 47.167 18.7256C48.1026 18.7197 49.0558 18.764 49.9678 18.519C50.3957 18.4069 50.7823 18.1383 51.0243 17.7635C51.3874 17.1968 51.411 16.4649 51.2132 15.8363C51.0273 15.246 50.5256 14.7591 49.9147 14.6292C49.0116 14.4403 48.0849 14.5053 47.17 14.4905L47.167 14.4935ZM80.2804 11.6543C83.4383 11.6543 86.5991 11.6543 89.757 11.6543C89.757 12.6017 89.757 13.5461 89.757 14.4935C87.5671 14.4935 85.3802 14.4876 83.1904 14.4964C83.1933 18.8761 83.1904 23.2588 83.1904 27.6385C82.2194 27.6385 81.2484 27.6385 80.2775 27.6385C80.2775 22.3085 80.2775 16.9814 80.2775 11.6514L80.2804 11.6543ZM70.066 15.9868C71.6745 15.2077 73.6135 15.1811 75.2573 15.8658C76.2342 16.2672 77.093 16.9342 77.7541 17.7576C78.1968 18.3183 78.4713 18.9853 78.6985 19.6582C77.639 19.6582 76.5766 19.6582 75.517 19.6582C75.1835 19.0207 74.6582 18.457 73.9676 18.215C72.9317 17.8491 71.701 17.9848 70.8127 18.6489C69.4079 19.6966 69.095 21.7743 69.7975 23.3148C70.2106 24.2415 71.0636 24.9646 72.0581 25.186C72.8343 25.3571 73.6991 25.3011 74.3896 24.879C74.8619 24.5927 75.219 24.153 75.52 23.6985C76.5795 23.6985 77.642 23.6985 78.7044 23.6985C78.2588 24.9292 77.4974 26.0713 76.4231 26.8328C75.219 27.7034 73.6813 28.0339 72.2175 27.8834C70.8186 27.7447 69.4728 27.1161 68.4723 26.1274C67.5574 25.2332 66.9288 24.0527 66.7016 22.7954C66.4271 21.2903 66.6927 19.6818 67.4777 18.3626C68.0828 17.3355 68.9947 16.4944 70.0719 15.978L70.066 15.9868ZM116.673 17.0522C117.493 16.0783 118.724 15.4998 119.984 15.3995C121.46 15.2637 123.003 15.671 124.163 16.6154C125.296 17.5215 126.022 18.8791 126.264 20.3016C126.557 21.9956 126.294 23.8225 125.361 25.2863C124.629 26.455 123.458 27.3433 122.124 27.7064C120.89 28.0369 119.524 28.0192 118.343 27.4968C117.812 27.2607 117.337 26.9154 116.903 26.5288C116.903 28.2346 116.903 29.9405 116.903 31.6434H114.081C114.081 26.3163 114.081 20.9892 114.081 15.6622C114.943 15.6622 115.808 15.6622 116.67 15.6622V17.0552L116.673 17.0522ZM119.494 18.0822C118.529 18.2622 117.67 18.8997 117.204 19.7615C116.416 21.1929 116.625 23.1496 117.8 24.3124C118.615 25.1269 119.863 25.4575 120.979 25.183C122.009 24.9351 122.859 24.1353 123.245 23.1584C123.844 21.6857 123.499 19.8117 122.257 18.7728C121.507 18.1294 120.453 17.8845 119.491 18.0793L119.494 18.0822ZM132.624 15.4733C134.183 15.1929 135.847 15.5146 137.175 16.3852C138.32 17.129 139.197 18.2652 139.637 19.5579C140.082 20.8594 140.132 22.3085 139.693 23.6188C139.191 25.1446 138.069 26.4491 136.65 27.1958C135.437 27.8421 134.008 28.0694 132.657 27.8244C131.161 27.5647 129.779 26.7236 128.847 25.5283C127.964 24.4098 127.483 22.9813 127.51 21.5559C127.525 20.1835 128.012 18.8259 128.864 17.7517C129.788 16.5741 131.146 15.7389 132.621 15.4733H132.624ZM132.952 18.1176C132.247 18.3036 131.615 18.7315 131.161 19.3011C130.133 20.5524 130.101 22.4678 131.013 23.79C131.642 24.7374 132.769 25.3394 133.914 25.2715C134.965 25.2302 135.95 24.6223 136.523 23.7487C137.4 22.459 137.355 20.6233 136.405 19.3837C135.641 18.3272 134.224 17.7635 132.952 18.1147V18.1176ZM55.1089 15.6563C56.4695 19.2745 57.833 22.8928 59.1964 26.5081C58.4645 28.2169 57.7267 29.9257 56.9948 31.6345C58.0071 31.6345 59.0194 31.6345 60.0317 31.6345C62.2953 26.3074 64.553 20.9804 66.8137 15.6533C65.8516 15.6533 64.8865 15.6533 63.9244 15.6533C62.859 18.2357 61.7936 20.8181 60.7311 23.4034C59.8133 20.8328 58.922 18.2534 58.0041 15.6828L57.9717 15.6592C57.0184 15.6445 56.0622 15.6592 55.1089 15.6533V15.6563ZM88.2105 15.6504C88.2105 19.6464 88.2105 23.6395 88.2105 27.6355C89.2582 27.6355 90.3059 27.6355 91.3507 27.6355C92.847 25.0236 94.3403 22.4118 95.8366 19.7999C95.8366 22.4118 95.8366 25.0236 95.8366 27.6355C96.7781 27.6355 97.7195 27.6355 98.661 27.6355C98.661 23.6395 98.661 19.6464 98.661 15.6504C97.6133 15.6504 96.5656 15.6504 95.5208 15.6504C94.0245 18.2563 92.54 20.8712 91.0378 23.4742C91.029 20.8653 91.0378 18.2593 91.0349 15.6504C90.0934 15.6504 89.152 15.6504 88.2105 15.6504ZM105.337 15.671C106.092 15.6386 106.848 15.6651 107.606 15.6563C108.808 18.7049 110.006 21.7536 111.207 24.8023C111.744 24.8023 112.281 24.8023 112.818 24.8023V30.2326C111.874 30.2267 110.929 30.2474 109.985 30.2208C110.003 29.3591 109.985 28.4973 109.994 27.6355C107.657 27.6355 105.319 27.6355 102.982 27.6355C102.982 28.5002 102.982 29.3679 102.982 30.2326C102.034 30.2297 101.084 30.2386 100.137 30.2267C100.143 28.4176 100.137 26.6085 100.14 24.7993H101.748C102.943 21.7536 104.156 18.7167 105.337 15.6681V15.671ZM104.723 24.8023C105.886 24.8023 107.049 24.8023 108.211 24.8023C107.636 23.1053 107.057 21.4083 106.479 19.7143C105.892 21.4113 105.31 23.1083 104.723 24.8023ZM35.5065 29.9375C36.6221 28.9754 37.6403 27.8657 38.3043 26.5406C36.7106 31.5637 32.9979 35.8696 28.2729 38.207C25.5577 39.5646 22.5209 40.2729 19.4869 40.2729C19.18 40.2641 18.8524 40.2818 18.575 40.1342C18.4392 40.0634 18.4392 39.8863 18.513 39.7712C18.9675 39.178 19.6434 38.8209 20.2661 38.4284C23.3325 36.6399 26.5966 35.2351 29.7692 33.6561C31.7938 32.6055 33.7682 31.425 35.5065 29.9405V29.9375Z" fill="#2866A3"/>
<path fill-rule="evenodd" clip-rule="evenodd" d="M20.2464 0.931487C21.7132 0.828193 23.183 1.04364 24.6143 1.34172C26.1018 1.68111 27.5922 2.11495 28.9085 2.9059C29.5548 3.36039 30.2542 3.86801 30.5199 4.64715C30.7412 5.25217 30.4962 5.90735 30.1332 6.40022C29.4928 7.26789 28.575 7.8729 27.6837 8.45431C26.0634 7.70468 24.4579 6.91964 22.9114 6.0313C21.8254 5.39973 20.7511 4.72979 19.7919 3.91523C19.2666 3.45779 18.7442 2.94721 18.4904 2.28317C19.1131 1.89065 19.7949 1.52765 20.2494 0.931487H20.2464ZM3.07588 10.9452C2.00456 11.8837 1.05425 12.9816 0.41382 14.2595C0.109838 15.2541 -0.2089 16.3637 0.192474 17.379C0.68829 18.6539 1.78322 19.5541 2.84568 20.3568L2.90175 20.3185C5.34836 18.6274 8.06355 17.3819 10.7551 16.1335C13.5972 14.8261 16.5013 13.6574 19.3788 12.4297C16.7875 11.32 14.1757 10.2339 11.7202 8.84093C10.7905 8.3156 9.9081 7.70763 9.1024 6.99933C6.97747 8.11786 4.88206 9.34264 3.07588 10.9393V10.9452ZM29.5725 23.8364C31.7417 22.8034 33.9138 21.741 35.8823 20.3568C36.7353 20.9382 37.5321 21.6347 38.1224 22.4877C38.5975 23.1753 38.8631 24.0371 38.7156 24.8723C38.6182 25.436 38.5119 26.0085 38.3053 26.5427C37.6413 27.8678 36.6231 28.9775 35.5075 29.9396C33.7692 31.4241 31.7948 32.6047 29.7702 33.6553C29.7348 33.6701 29.6669 33.6937 29.6315 33.7084C28.5218 32.6637 27.179 31.9141 25.8391 31.2087C23.7408 30.1197 21.5568 29.2077 19.3876 28.2722L19.488 28.222C22.8613 26.7877 26.2641 25.4153 29.5725 23.8334V23.8364ZM8.61839 34.3105C8.24357 34.8122 8.02223 35.4851 8.24948 36.096C8.54755 36.8988 9.28538 37.4123 9.96712 37.8697C11.4457 38.7168 13.1132 39.1624 14.7748 39.49C16.0084 39.7084 17.2656 39.8678 18.517 39.7704C18.9715 39.1772 19.6473 38.8201 20.2701 38.4275C20.0487 37.8196 19.5883 37.3444 19.119 36.9194C18.334 36.2229 17.4545 35.6415 16.5632 35.0926C14.8013 34.0242 12.9479 33.1123 11.0768 32.2446C10.1826 32.829 9.26472 33.4369 8.62134 34.3075L8.61839 34.3105Z" fill="#DD862E"/>
</g>
<defs>
<clipPath id="clip0_636_2869">
<rect width="140" height="39.8364" fill="white" transform="translate(0 0.439453)"/>
</clipPath>
</defs>
</svg>
