<svg width="93" height="73" viewBox="0 0 93 73" fill="none" xmlns="http://www.w3.org/2000/svg">
<g clip-path="url(#clip0_818_4269)">
<path d="M21.0909 50.8299C21.896 47.4141 20.2565 45.2238 19.2005 42.6684C18.5616 41.1268 18.4117 40.2695 18.063 39.2461C17.5871 37.838 16.4724 36.5212 15.7846 36.0714C15.4163 35.8303 14.7873 35.5174 14.2071 36.0943C13.5813 36.7201 13.6269 38.8647 14.9959 41.3028C15.5532 42.2936 16.4626 42.8249 16.7005 45.2597C16.945 47.7563 15.3316 48.7798 15.3316 48.7798C15.3316 48.7798 15.7064 47.5673 14.9959 46.9936C10.4262 43.3105 9.81997 37.5251 9.96664 34.7286C10.0677 32.799 11.1433 30.0351 11.3356 27.7079C11.5963 24.5235 10.5044 24.3116 10.3512 24.5593C9.98294 25.1753 8.83564 28.5195 8.0599 30.863C7.36565 32.9816 6.58666 35.7325 6.56384 37.8054C6.53125 39.8784 6.99082 41.7428 7.05601 42.4207C6.15968 41.2245 5.88589 39.5329 5.77833 37.5154C5.61536 34.5004 6.52799 31.8114 6.96149 29.5885C7.46995 26.968 7.11794 25.7914 6.46932 26.3911C6.11731 26.717 5.51106 28.3597 4.51369 31.2476C4.13886 32.3395 3.68255 33.6823 3.36313 35.2566C3.07956 36.6549 3.03067 39.22 3.14149 40.7389C2.40487 39.9566 2.19953 37.8022 2.30709 36.5962C2.40161 35.4913 2.95571 33.1315 3.29142 32.1146C3.751 30.7098 3.32402 29.6342 2.93289 29.8721C2.72429 29.9992 2.22886 30.3773 1.05874 33.5324C0.364496 35.4196 -0.101596 37.7924 0.0190009 40.2532C0.214564 44.0895 2.05938 48.4604 5.0906 53.1571C7.94582 57.5671 14.1712 62.0944 16.4724 63.1341C18.8974 64.2293 20.8302 62.7691 21.4071 61.5403C22.1698 59.9106 21.5831 58.1407 21.2083 56.9217C20.9899 56.2112 20.2891 54.2197 21.0877 50.8332" fill="white"/>
<path d="M26.195 21.2117C26.0614 21.3518 24.9239 23.6301 27.1142 26.3941C29.3045 29.1581 34.9497 28.6887 35.1811 27.662C36.5925 19.1811 26.3254 21.0715 26.195 21.2117ZM31.1819 22.636C32.0065 22.2188 32.9908 22.5057 33.3755 23.2781C33.7601 24.0473 33.4015 25.0023 32.5769 25.4195C31.749 25.8368 30.7679 25.5499 30.3866 24.7807C29.9987 24.0115 30.3573 23.0532 31.1819 22.6393" fill="white"/>
<path d="M18.7316 18.3342C22.3398 17.3564 30.0156 15.5898 33.7769 18.5167C35.2828 19.6901 36.9777 20.2996 37.8838 19.325C38.8192 18.3179 38.3368 15.7462 35.0122 15.0781C33.024 14.6771 32.4276 14.2176 32.1081 13.4092C31.3063 11.3689 34.1648 9.0156 37.7306 7.6597C37.7338 7.6597 33.5716 7.38917 26.5998 12.1446C25.3091 13.0246 24.0379 13.3506 23.3274 13.1029C22.418 12.7802 22.6364 11.5025 23.0568 10.6714C24.3475 8.13557 27.0561 4.78818 32.4406 2.28497C32.5579 2.23282 32.4993 2.05682 32.3754 2.09267C28.8944 3.07048 18.8685 6.6004 16.0817 15.3127C15.4462 17.2977 16.7825 18.8622 18.7316 18.3342Z" fill="white"/>
<path d="M74.2688 18.3342C70.6607 17.3564 62.9849 15.5898 59.2235 18.5167C57.7177 19.6901 56.0228 20.2996 55.1167 19.325C54.1813 18.3179 54.6637 15.7462 57.9882 15.0781C59.9764 14.6771 60.5762 14.2176 60.8923 13.4092C61.6941 11.3689 58.8357 9.0156 55.2699 7.6597C55.2699 7.6597 59.4289 7.38917 66.4007 12.1446C67.6914 13.0246 68.9626 13.3506 69.6731 13.1029C70.5825 12.7802 70.3641 11.5025 69.9436 10.6714C68.6529 8.13557 65.9444 4.78818 60.5599 2.28497C60.4458 2.23282 60.5012 2.05682 60.6251 2.09267C64.1061 3.07048 74.132 6.6004 76.9187 15.3127C77.5543 17.2977 76.218 18.8622 74.2721 18.3342" fill="white"/>
<path d="M11.6193 18.7087C11.7693 18.7901 11.942 18.6402 11.8866 18.4772C10.8306 15.195 14.7027 10.4429 16.0684 8.90443C16.1238 8.8425 16.0423 8.75776 15.9739 8.80339C11.3521 12.0954 7.45709 10.0517 7.45709 10.0517C11.7041 9.63453 13.6793 8.05699 14.3148 7.41489C14.3768 7.35296 14.3051 7.25518 14.2268 7.28777C10.4329 8.8588 6.63573 6.94228 6.63573 6.94228C10.8501 6.75975 12.2614 5.99706 12.9426 5.38755C13.2295 5.13332 13.4511 4.8302 13.5945 4.60856C13.6923 4.45537 13.6141 4.25655 13.4413 4.2044C8.62721 2.74419 4.44542 -2.37956 2.49631 1.3068C-0.140533 6.30018 5.62532 15.5536 11.6193 18.7087Z" fill="white"/>
<path d="M57.4996 65.5526C51.3915 65.4548 47.1738 62.127 46.5708 61.625C46.5252 61.5892 46.4665 61.5892 46.4209 61.625C45.8179 62.127 41.5938 65.4581 35.4824 65.5526C35.4107 65.5526 35.3455 65.595 35.3194 65.6634C35 66.5076 34.3514 72.733 46.4926 72.733C58.6338 72.733 58.0015 66.5532 57.6723 65.6699C57.6462 65.5982 57.5745 65.5493 57.4963 65.5493" fill="white"/>
<path d="M33.74 5.68438C34.6135 5.47578 36.6148 5.0488 39.8285 4.67397C43.2248 4.27959 46.4288 4.335 46.494 4.33826H46.507C46.5755 4.33826 49.7762 4.27959 53.1725 4.67397C56.3862 5.0488 58.3875 5.47252 59.261 5.68438C59.3979 5.71698 59.4859 5.54423 59.3816 5.44971C54.825 1.35266 48.58 0.625818 46.5005 0.622559C44.4178 0.622559 38.176 1.3494 33.6161 5.44971C33.5118 5.54423 33.5999 5.71698 33.7367 5.68438" fill="white"/>
<path d="M91.9351 33.5324C90.765 30.3773 90.2696 29.9992 90.061 29.8721C89.6699 29.6309 89.2429 30.7098 89.7024 32.1146C90.0382 33.1347 90.5923 35.4913 90.6868 36.5962C90.7911 37.8022 90.589 39.9566 89.8524 40.7389C89.9632 39.2233 89.9143 36.6549 89.6307 35.2566C89.3113 33.6823 88.8583 32.3395 88.4802 31.2476C87.4828 28.3597 86.8766 26.717 86.5246 26.3911C85.8759 25.7914 85.5239 26.968 86.0324 29.5885C86.4659 31.8114 87.3785 34.5004 87.2155 37.5154C87.108 39.5329 86.8342 41.2245 85.9379 42.4207C86.0063 41.746 86.4626 39.8784 86.43 37.8054C86.404 35.7325 85.625 32.9783 84.934 30.863C84.1615 28.5195 83.0142 25.1753 82.6426 24.5593C82.4894 24.3116 81.3975 24.5235 81.6583 27.7079C81.8473 30.0318 82.9229 32.799 83.024 34.7286C83.1739 37.5251 82.5644 43.3105 77.998 46.9936C77.2875 47.5673 77.6623 48.7798 77.6623 48.7798C77.6623 48.7798 76.0489 47.7531 76.2901 45.2597C76.528 42.8216 77.4406 42.2936 77.998 41.3028C79.3669 38.8647 79.4126 36.7201 78.7868 36.0943C78.2066 35.5174 77.5775 35.8303 77.2092 36.0714C76.5215 36.5212 75.4068 37.8413 74.9309 39.2461C74.5854 40.2695 74.4322 41.1268 73.7967 42.6684C72.7406 45.2205 71.1011 47.4108 71.9062 50.8299C72.7048 54.2164 72.004 56.2079 71.7856 56.9185C71.4108 58.1407 70.8241 59.9106 71.5868 61.537C72.1637 62.7658 74.0998 64.226 76.5215 63.1309C78.8226 62.0911 85.0481 57.5638 87.9033 53.1539C90.9345 48.4571 92.7793 44.0863 92.9749 40.25C93.0987 37.7924 92.6261 35.4163 91.9319 33.5324" fill="white"/>
<path d="M57.8173 27.6625C58.0488 28.6892 63.694 29.1618 65.8843 26.3946C68.0746 23.6306 66.9371 21.3523 66.8035 21.2122C66.6731 21.0687 56.4028 19.1816 57.8173 27.6625ZM62.6086 24.7779C62.2273 25.5471 61.2429 25.834 60.4183 25.42C59.5937 25.0061 59.2384 24.0478 59.6198 23.2786C60.0044 22.5061 60.9887 22.2193 61.8133 22.6365C62.638 23.0537 62.9965 24.012 62.6086 24.7779Z" fill="white"/>
<path d="M81.1103 18.4773C81.0581 18.6403 81.2276 18.7902 81.3775 18.7087C87.3716 15.5536 93.1341 6.30023 90.4973 1.30686C88.5515 -2.37951 84.3664 2.74425 79.5556 4.20119C79.3795 4.25334 79.3046 4.45216 79.4024 4.60535C79.5458 4.82699 79.7674 5.13012 80.0542 5.38435C80.7354 5.99385 82.1468 6.75655 86.3611 6.93907C86.3611 6.93907 82.564 8.85559 78.77 7.28457C78.6886 7.25197 78.6201 7.34976 78.682 7.40842C79.3209 8.05052 81.2928 9.63132 85.5398 10.0453C85.5398 10.0453 81.6416 12.0922 77.023 8.79692C76.9546 8.74803 76.8731 8.83603 76.9285 8.89796C78.2942 10.4397 82.1631 15.1886 81.1103 18.474" fill="white"/>
<path d="M55.8747 11.9786C52.6871 8.96365 49.4179 8.11621 46.504 8.11621H46.4942C43.5803 8.11621 40.3112 8.96365 37.1235 11.9786C37.055 12.0438 37.1137 12.1644 37.2082 12.1416C38.3947 11.8319 42.4396 10.8541 46.5007 10.8378C50.5619 10.8541 54.6101 11.8319 55.7932 12.1416C55.8845 12.1644 55.9464 12.047 55.878 11.9786" fill="white"/>
<path d="M74.349 22.3168C74.2903 22.2712 74.2121 22.3299 74.2316 22.4048C75.0204 25.3024 74.2545 28.6889 71.9077 29.5429C67.8758 31.0096 62.4392 30.9118 58.9908 33.4216C55.9693 35.6216 56.8982 41.0453 57.2894 42.776C57.3122 42.8738 57.4523 42.864 57.4686 42.7662C57.6935 41.1691 58.7235 38.7344 59.7893 38.0499C59.6687 39.5753 59.8969 42.6587 61.4516 45.4389C61.8558 46.1657 62.3512 47.0099 62.9053 47.8704C63.1465 48.2257 63.9907 49.536 64.2482 49.9108C63.4431 51.8697 60.187 52.3553 58.8311 51.7034C59.8512 53.9068 63.3942 53.6656 64.4698 53.206C64.0526 54.6467 61.4549 55.6799 59.4927 55.468C59.4927 55.468 60.3695 56.9739 63.505 56.4035C62.4588 57.6844 60.5488 58.0951 58.5866 57.642C58.8897 58.5449 60.0827 59.1935 60.6465 59.2228C59.7274 60.0638 57.775 60.3995 56.3278 60.3995C53.3292 60.3995 50.3208 58.8513 48.9421 56.8468C47.3124 54.4804 47.6057 50.7843 49.2908 48.8515C50.7902 47.1338 52.0352 46.4069 54.0169 46.1657C55.1154 46.0321 55.7444 45.6051 55.7444 44.862C55.7444 44.0015 54.8644 43.467 54.1115 43.467C52.9446 43.467 51.6539 43.3464 50.0796 44.272C49.0594 44.8718 47.5243 45.6801 46.5008 45.729C45.4774 45.6801 43.9422 44.8718 42.922 44.272C41.3477 43.3464 40.0537 43.467 38.8901 43.467C38.1372 43.467 37.2572 44.0015 37.2572 44.862C37.2572 45.6051 37.8863 46.0321 38.9847 46.1657C40.9664 46.4069 42.2115 47.1338 43.7108 48.8515C45.3959 50.781 45.6892 54.4772 44.0595 56.8468C42.6775 58.8513 39.6691 60.3995 36.6738 60.3995C35.2266 60.3995 33.2742 60.0638 32.3551 59.2228C32.9157 59.1935 34.1119 58.5449 34.415 57.642C32.4529 58.0951 30.5461 57.6844 29.4966 56.4035C32.6321 56.9771 33.5089 55.468 33.5089 55.468C31.5468 55.6799 28.949 54.6467 28.5318 53.206C29.6074 53.6656 33.1504 53.9068 34.1706 51.7034C32.8147 52.3553 29.5585 51.8664 28.7535 49.9108C29.0109 49.536 29.8551 48.2257 30.0963 47.8704C30.6504 47.0132 31.1458 46.1657 31.55 45.4389C33.1047 42.6587 33.3362 39.572 33.2123 38.0499C34.2781 38.7344 35.3081 41.1691 35.533 42.7662C35.5493 42.8673 35.6894 42.877 35.7122 42.776C36.1001 41.0453 37.0323 35.6216 34.0108 33.4216C30.5624 30.9118 25.1258 31.0129 21.0939 29.5429C18.7471 28.6857 17.9845 25.3024 18.77 22.4048C18.7895 22.3331 18.7113 22.2745 18.6526 22.3168C17.6227 23.0698 14.9532 26.5638 16.1788 30.1654C17.3684 33.6595 20.9798 34.9698 24.1382 36.531C27.6616 38.2715 29.2945 41.7199 27.479 46.2505C26.6446 48.3365 25.4452 50.9538 25.4452 53.6069C25.4452 59.3141 31.2371 62.655 35.2266 62.8701C42.8014 63.271 46.4487 58.0429 46.4975 57.9712C46.5464 58.0429 50.1937 63.271 57.7718 62.8701C61.7612 62.6582 67.5532 59.3174 67.5532 53.6069C67.5532 50.9538 66.3537 48.3365 65.5193 46.2505C63.7038 41.7199 65.3368 38.2715 68.8602 36.531C72.0185 34.9698 75.6299 33.6628 76.8196 30.1654C78.0484 26.5638 75.3757 23.0698 74.3457 22.3168" fill="white"/>
</g>
<defs>
<clipPath id="clip0_818_4269">
<rect width="93" height="72.7332" fill="white"/>
</clipPath>
</defs>
</svg>
