<svg width="992" height="223" viewBox="0 0 992 223" fill="none" xmlns="http://www.w3.org/2000/svg">
<path d="M27.52 79.616V58.24H93.696V79.616H27.52ZM78.592 2.048L122.24 98.048H93.952L57.344 13.312H65.024L28.288 98.048H0L43.648 2.048H78.592Z" fill="#0E0E0E"/>
<path d="M269.62 2.048V98.048H244.404V11.52L250.036 12.16L212.916 98.048H186.036L148.788 12.416L154.548 11.776V98.048H129.332V2.048H170.292L204.724 84.48H194.484L228.66 2.048H269.62Z" fill="#0E0E0E"/>
<path d="M310.798 55.168C310.798 59.52 311.609 63.3173 313.23 66.56C314.937 69.7173 317.411 72.1493 320.654 73.856C323.982 75.5627 328.035 76.416 332.814 76.416C337.678 76.416 341.731 75.5627 344.974 73.856C348.217 72.1493 350.649 69.7173 352.27 66.56C353.891 63.3173 354.702 59.52 354.702 55.168V2.048H381.326V56.448C381.326 65.2373 379.278 72.9173 375.182 79.488C371.171 85.9733 365.539 91.0507 358.286 94.72C351.033 98.304 342.542 100.096 332.814 100.096C323.171 100.096 314.681 98.304 307.342 94.72C300.089 91.0507 294.414 85.9733 290.318 79.488C286.307 72.9173 284.302 65.2373 284.302 56.448V2.048H310.798V55.168Z" fill="#0E0E0E"/>
<path d="M414.261 44.032H449.205C453.472 44.032 456.8 43.0507 459.189 41.088C461.578 39.1253 462.773 36.3947 462.773 32.896C462.773 29.312 461.578 26.5813 459.189 24.704C456.8 22.7413 453.472 21.76 449.205 21.76H410.549L422.453 9.088V98.048H395.957V2.048H452.917C460.256 2.048 466.656 3.37066 472.117 6.016C477.578 8.576 481.845 12.16 484.917 16.768C487.989 21.2907 489.525 26.6667 489.525 32.896C489.525 38.9547 487.989 44.288 484.917 48.896C481.845 53.504 477.578 57.088 472.117 59.648C466.656 62.208 460.256 63.488 452.917 63.488H414.261V44.032ZM428.597 53.12H458.421L492.853 98.048H462.133L428.597 53.12Z" fill="#0E0E0E"/>
<path d="M558.537 13.696H585.161V98.048H558.537V13.696ZM521.929 2.048H621.769V25.6H521.929V2.048Z" fill="#0E0E0E"/>
<path d="M631.207 2.048H657.703V98.048H631.207V2.048Z" fill="#0E0E0E"/>
<path d="M771.886 56.448C771.63 62.2507 770.435 67.7973 768.302 73.088C766.254 78.2933 763.225 82.944 759.214 87.04C755.289 91.136 750.339 94.336 744.366 96.64C738.478 98.944 731.609 100.096 723.758 100.096C716.249 100.096 709.209 99.0293 702.638 96.896C696.067 94.6773 690.265 91.4347 685.23 87.168C680.281 82.9013 676.398 77.6533 673.582 71.424C670.851 65.1947 669.486 58.0693 669.486 50.048C669.486 42.0267 670.894 34.9013 673.71 28.672C676.526 22.4427 680.451 17.1947 685.486 12.928C690.606 8.66133 696.494 5.46133 703.15 3.328C709.891 1.10933 717.23 0 725.166 0C735.747 0 744.878 1.62133 752.558 4.864C760.238 8.10666 766.425 12.544 771.118 18.176C775.811 23.808 778.841 30.336 780.206 37.76H753.454C752.601 34.5173 750.851 31.744 748.206 29.44C745.646 27.0507 742.403 25.2587 738.478 24.064C734.638 22.784 730.243 22.144 725.294 22.144C719.321 22.144 714.158 23.2107 709.806 25.344C705.454 27.392 702.083 30.5067 699.694 34.688C697.305 38.784 696.11 43.904 696.11 50.048C696.11 56.2773 697.39 61.5253 699.95 65.792C702.51 70.0587 706.137 73.2587 710.83 75.392C715.609 77.5253 721.198 78.592 727.598 78.592C733.827 78.592 739.331 77.7387 744.11 76.032C748.889 74.24 752.686 71.6373 755.502 68.224C758.403 64.8107 760.067 60.7147 760.494 55.936L771.886 56.448ZM730.158 67.072V48.384H781.102V98.048H762.286L758.574 60.032L763.566 67.072H730.158Z" fill="#0E0E0E"/>
<path d="M877.005 40.448V59.648H806.733V40.448H877.005ZM824.781 50.048L818.509 88.576L807.757 76.544H881.229V98.048H792.013L799.309 50.048L792.013 2.048H880.589V23.552H807.757L818.509 11.52L824.781 50.048Z" fill="#0E0E0E"/>
<path d="M912.886 44.032H947.83C952.097 44.032 955.425 43.0507 957.814 41.088C960.203 39.1253 961.398 36.3947 961.398 32.896C961.398 29.312 960.203 26.5813 957.814 24.704C955.425 22.7413 952.097 21.76 947.83 21.76H909.174L921.078 9.088V98.048H894.582V2.048H951.542C958.881 2.048 965.281 3.37066 970.742 6.016C976.203 8.576 980.47 12.16 983.542 16.768C986.614 21.2907 988.15 26.6667 988.15 32.896C988.15 38.9547 986.614 44.288 983.542 48.896C980.47 53.504 976.203 57.088 970.742 59.648C965.281 62.208 958.881 63.488 951.542 63.488H912.886V44.032ZM927.222 53.12H957.046L991.478 98.048H960.758L927.222 53.12Z" fill="#0E0E0E"/>
<path d="M287.643 179.856C286.705 188.304 283.804 195.728 278.94 202.128C274.076 208.443 267.676 213.349 259.74 216.848C251.889 220.347 242.844 222.096 232.604 222.096C221.425 222.096 211.654 220.005 203.292 215.824C194.929 211.643 188.401 205.797 183.708 198.288C179.1 190.779 176.796 182.032 176.796 172.048C176.796 162.064 179.1 153.317 183.708 145.808C188.401 138.299 194.929 132.453 203.292 128.272C211.654 124.091 221.425 122 232.604 122C242.844 122 251.889 123.749 259.74 127.248C267.676 130.747 274.076 135.696 278.94 142.096C283.804 148.411 286.705 155.792 287.643 164.24H261.02C260.166 160.144 258.502 156.688 256.027 153.872C253.553 150.971 250.31 148.752 246.299 147.216C242.374 145.68 237.809 144.912 232.604 144.912C226.63 144.912 221.468 146.021 217.116 148.24C212.764 150.373 209.436 153.488 207.132 157.584C204.827 161.595 203.676 166.416 203.676 172.048C203.676 177.68 204.827 182.544 207.132 186.64C209.436 190.651 212.764 193.765 217.116 195.984C221.468 198.117 226.63 199.184 232.604 199.184C237.809 199.184 242.374 198.459 246.299 197.008C250.31 195.557 253.553 193.381 256.027 190.48C258.502 187.579 260.166 184.037 261.02 179.856H287.643Z" fill="#0E0E0E"/>
<path d="M380.068 162.448V181.648H309.796V162.448H380.068ZM327.844 172.048L321.572 210.576L310.819 198.544H384.292V220.048H295.076L302.371 172.048L295.076 124.048H383.651V145.552H310.819L321.572 133.52L327.844 172.048Z" fill="#0E0E0E"/>
<path d="M486.604 201.488L478.413 203.152V124.048H504.141V220.048H470.733L415.309 141.072L423.372 139.408V220.048H397.645V124.048H431.949L486.604 201.488Z" fill="#0E0E0E"/>
<path d="M550.099 135.696H576.724V220.048H550.099V135.696ZM513.492 124.048H613.331V147.6H513.492V124.048Z" fill="#0E0E0E"/>
<path d="M704.818 162.448V181.648H634.545V162.448H704.818ZM652.594 172.048L646.321 210.576L635.57 198.544H709.042V220.048H619.826L627.122 172.048L619.826 124.048H708.401V145.552H635.57L646.321 133.52L652.594 172.048Z" fill="#0E0E0E"/>
<path d="M740.698 166.032H775.643C779.909 166.032 783.237 165.051 785.627 163.088C788.016 161.125 789.211 158.395 789.211 154.896C789.211 151.312 788.016 148.581 785.627 146.704C783.237 144.741 779.909 143.76 775.643 143.76H736.987L748.891 131.088V220.048H722.394V124.048H779.354C786.693 124.048 793.093 125.371 798.555 128.016C804.016 130.576 808.282 134.16 811.354 138.768C814.426 143.291 815.963 148.667 815.963 154.896C815.963 160.955 814.426 166.288 811.354 170.896C808.282 175.504 804.016 179.088 798.555 181.648C793.093 184.208 786.693 185.488 779.354 185.488H740.698V166.032ZM755.034 175.12H784.859L819.291 220.048H788.57L755.034 175.12Z" fill="#0E0E0E"/>
</svg>
