<svg width="1045" height="340" viewBox="0 0 1045 340" fill="none" xmlns="http://www.w3.org/2000/svg">
<path d="M359.448 0V81.152L349.976 72.448H376.088V115.328H351.128V91.008L358.424 96H258.84V0H285.336V81.152L276.76 72.448H342.296L332.952 81.152V0H359.448Z" fill="#0E0E0E"/>
<path d="M468.763 38.4V57.6H398.491V38.4H468.763ZM416.539 48L410.267 86.528L399.515 74.496H472.987V96H383.771L391.067 48L383.771 0H472.347V21.504H399.515L410.267 9.472L416.539 48Z" fill="#0E0E0E"/>
<path d="M486.34 0H512.836V96H486.34V0ZM561.86 0H588.484V96H561.86V0ZM501.188 35.456H572.868V59.008H501.188V35.456Z" fill="#0E0E0E"/>
<path d="M634.545 11.648H661.169V96H634.545V11.648ZM597.937 0H697.777V23.552H597.937V0Z" fill="#0E0E0E"/>
<path d="M761.103 0C769.124 0 776.036 1.36533 781.839 4.096C787.727 6.82667 792.207 10.7093 795.279 15.744C798.351 20.6933 799.887 26.496 799.887 33.152C799.887 39.7227 798.351 45.5253 795.279 50.56C792.207 55.5093 787.727 59.3493 781.839 62.08C776.036 64.8107 769.124 66.176 761.103 66.176H719.503V44.928H759.439C763.706 44.928 767.034 43.904 769.423 41.856C771.812 39.7227 773.007 36.8213 773.007 33.152C773.007 29.3973 771.812 26.496 769.423 24.448C767.034 22.3147 763.706 21.248 759.439 21.248H721.807L733.711 8.96001V96H707.215V0H761.103Z" fill="#0E0E0E"/>
<path d="M18.816 147.728H45.44L24.064 181.392V175.376L45.44 209.04H18.816L0 178.448L18.816 147.728ZM56.832 147.728H83.456L62.08 181.392V175.376L83.456 209.04H56.832L38.016 178.448L56.832 147.728Z" fill="#0E0E0E"/>
<path d="M112.028 199.568V178.192H178.204V199.568H112.028ZM163.1 122L206.748 218H178.46L141.852 133.264H149.532L112.796 218H84.508L128.156 122H163.1Z" fill="#0E0E0E"/>
<path d="M354.128 122V218H328.912V131.472L334.544 132.112L297.424 218H270.544L233.296 132.368L239.056 131.728V218H213.84V122H254.8L289.232 204.432H278.992L313.168 122H354.128Z" fill="#0E0E0E"/>
<path d="M392.746 218L410.026 187.92H410.41L447.914 122H476.714L421.546 218H392.746ZM409.642 205.072L361.642 122H390.954L428.458 187.28L409.642 205.072Z" fill="#0E0E0E"/>
<path d="M537.603 122C545.624 122 552.536 123.365 558.339 126.096C564.227 128.827 568.707 132.709 571.779 137.744C574.851 142.693 576.387 148.496 576.387 155.152C576.387 161.723 574.851 167.525 571.779 172.56C568.707 177.509 564.227 181.349 558.339 184.08C552.536 186.811 545.624 188.176 537.603 188.176H496.003V166.928H535.939C540.206 166.928 543.534 165.904 545.923 163.856C548.312 161.723 549.507 158.821 549.507 155.152C549.507 151.397 548.312 148.496 545.923 146.448C543.534 144.315 540.206 143.248 535.939 143.248H498.307L510.211 130.96V218H483.715V122H537.603Z" fill="#0E0E0E"/>
<path d="M692.589 177.808C691.65 186.256 688.749 193.68 683.885 200.08C679.021 206.395 672.621 211.301 664.685 214.8C656.834 218.299 647.789 220.048 637.549 220.048C626.37 220.048 616.6 217.957 608.237 213.776C599.874 209.595 593.346 203.749 588.653 196.24C584.045 188.731 581.741 179.984 581.741 170C581.741 160.016 584.045 151.269 588.653 143.76C593.346 136.251 599.874 130.405 608.237 126.224C616.6 122.043 626.37 119.952 637.549 119.952C647.789 119.952 656.834 121.701 664.685 125.2C672.621 128.699 679.021 133.648 683.885 140.048C688.749 146.363 691.65 153.744 692.589 162.192H665.965C665.112 158.096 663.448 154.64 660.973 151.824C658.498 148.923 655.256 146.704 651.245 145.168C647.32 143.632 642.754 142.864 637.549 142.864C631.576 142.864 626.413 143.973 622.061 146.192C617.709 148.325 614.381 151.44 612.077 155.536C609.773 159.547 608.621 164.368 608.621 170C608.621 175.632 609.773 180.496 612.077 184.592C614.381 188.603 617.709 191.717 622.061 193.936C626.413 196.069 631.576 197.136 637.549 197.136C642.754 197.136 647.32 196.411 651.245 194.96C655.256 193.509 658.498 191.333 660.973 188.432C663.448 185.531 665.112 181.989 665.965 177.808H692.589Z" fill="#0E0E0E"/>
<path d="M703.465 218V122H729.833V196.88L722.793 191.376L777.193 122H805.225L727.401 218H703.465ZM749.289 172.176L768.745 156.048L806.505 218H776.425L749.289 172.176Z" fill="#0E0E0E"/>
<path d="M812.84 218V122H838.952V204.048L831.656 202.384L886.056 122H920.744V218H894.504V134.416L901.928 136.08L846.504 218H812.84Z" fill="#0E0E0E"/>
<path d="M936.715 218V122H962.827V204.048L955.531 202.384L1009.93 122H1044.62V218H1018.38V134.416L1025.8 136.08L970.379 218H936.715ZM957.451 92.816H978.315C979.339 95.5467 980.832 97.6373 982.795 99.088C984.843 100.453 987.36 101.136 990.347 101.136C993.334 101.136 995.808 100.453 997.771 99.088C999.819 97.6373 1001.36 95.5467 1002.38 92.816H1023.24C1021.37 100.923 1017.48 106.811 1011.6 110.48C1005.79 114.064 998.71 115.856 990.347 115.856C982.07 115.856 974.987 114.064 969.099 110.48C963.211 106.811 959.328 100.923 957.451 92.816Z" fill="#0E0E0E"/>
<path d="M309.795 255.648H336.419V340H309.795V255.648ZM273.187 244H373.027V267.552H273.187V244Z" fill="#0E0E0E"/>
<path d="M382.465 340V244H408.577V326.048L401.281 324.384L455.681 244H490.369V340H464.129V256.416L471.553 258.08L416.129 340H382.465Z" fill="#0E0E0E"/>
<path d="M579.3 244V267.68H520.932L532.836 255.648V340H506.34V244H579.3Z" fill="#0E0E0E"/>
<path d="M642.603 244C650.624 244 657.536 245.365 663.339 248.096C669.227 250.827 673.707 254.709 676.779 259.744C679.851 264.693 681.387 270.496 681.387 277.152C681.387 283.723 679.851 289.525 676.779 294.56C673.707 299.509 669.227 303.349 663.339 306.08C657.536 308.811 650.624 310.176 642.603 310.176H601.003V288.928H640.939C645.206 288.928 648.534 287.904 650.923 285.856C653.312 283.723 654.507 280.821 654.507 277.152C654.507 273.397 653.312 270.496 650.923 268.448C648.534 266.315 645.206 265.248 640.939 265.248H603.307L615.211 252.96V340H588.715V244H642.603Z" fill="#0E0E0E"/>
<path d="M751.765 269.728L770.581 300.448L751.765 331.04H725.013L746.517 297.376V303.392L725.013 269.728H751.765ZM713.621 269.728L732.565 300.448L713.621 331.04H686.997L708.373 297.376V303.392L686.997 269.728H713.621Z" fill="#0E0E0E"/>
</svg>
